  0
SECTION
  2
HEADER
  9
$ANGBASE
  50
0.0
  9
$ANGDIR
  70
1
  9
$MEASUREMENT
  70
1
  0
ENDSEC
  0
SECTION
  2
TABLES
  0
TABLE
  2
LTYPE
  70
4
  0
LTYPE
  5
40F
  2
CONTINUOUS
  70
0
  3
Solid line
  72
65
  73
0
  40
0.0
  0
LTYPE
  5
410
  2
DASHDOT
 70
0
  3
Dash Dot ____ _ ____ _
 72
65
 73
4
 40
2.0
 49
1.25
 49
-0.25
 49
0.25
 49
-0.25
  0
LTYPE
  5
411
  2
DASHED
 70
0
  3
Dashed __ __ __ __ __
 72
65
 73
2
 40
0.75
 49
0.5
 49
-0.25
  0
LTYPE
  5
43B
  2
DOTTED
 70
0
  3
Dotted .  .  .  .
 72
65
 73
2
 40
0.2
 49
0.0
 49
-0.2
  0
ENDTAB
  0
TABLE
  2
STYLE
  70
4
  0
STYLE
  2
KICAD
  70
0
  40
0
  41
1
  42
1
  50
0
  71
0
  3
isocp.shx
  0
STYLE
  2
KICADB
  70
0
  40
0
  41
1
  42
1
  50
0
  71
0
  3
isocp.shx
  0
STYLE
  2
KICADI
  70
0
  40
0
  41
1
  42
1
  50
15
  71
0
  3
isocp.shx
  0
STYLE
  2
KICADBI
  70
0
  40
0
  41
1
  42
1
  50
15
  71
0
  3
isocp.shx
  0
ENDTAB
  0
TABLE
  2
LAYER
  70
1
  0
LAYER
  2
BLACK
  70
0
  62
7
  6
CONTINUOUS
  0
ENDTAB
  0
ENDSEC
  0
SECTION
  2
ENTITIES
0
LINE
8
BLACK
6
CONTINUOUS
10
75.0097
20
0.073282
11
75.013
21
0.073861
0
LINE
8
BLACK
6
CONTINUOUS
10
75.013
20
0.073861
11
75.0159
21
0.072195
0
LINE
8
BLACK
6
CONTINUOUS
10
75.0159
20
0.072195
11
75.0257
21
0.070477
0
LINE
8
BLACK
6
CONTINUOUS
10
75.0257
20
0.070477
11
75.0406
21
0.057951
0
LINE
8
BLACK
6
CONTINUOUS
10
75.0406
20
0.057951
11
75.0575
21
0.048209
0
LINE
8
BLACK
6
CONTINUOUS
10
75.0575
20
0.048209
11
75.0598
21
0.04185
0
LINE
8
BLACK
6
CONTINUOUS
10
75.0598
20
0.04185
11
75.065
21
0.0375
0
LINE
8
BLACK
6
CONTINUOUS
10
75.065
20
0.0375
11
75.0683
21
0.018309
0
LINE
8
BLACK
6
CONTINUOUS
10
75.0683
20
0.018309
11
75.075
21
0
0
LINE
8
BLACK
6
CONTINUOUS
10
75.075
20
0
11
75.075
21
-100
0
LINE
8
BLACK
6
CONTINUOUS
10
75.075
20
-100
11
75.0733
21
-100.01
0
LINE
8
BLACK
6
CONTINUOUS
10
75.0733
20
-100.01
11
75.0739
21
-100.013
0
LINE
8
BLACK
6
CONTINUOUS
10
75.0739
20
-100.013
11
75.0722
21
-100.016
0
LINE
8
BLACK
6
CONTINUOUS
10
75.0722
20
-100.016
11
75.0705
21
-100.026
0
LINE
8
BLACK
6
CONTINUOUS
10
75.0705
20
-100.026
11
75.058
21
-100.041
0
LINE
8
BLACK
6
CONTINUOUS
10
75.058
20
-100.041
11
75.0482
21
-100.057
0
LINE
8
BLACK
6
CONTINUOUS
10
75.0482
20
-100.057
11
75.0418
21
-100.06
0
LINE
8
BLACK
6
CONTINUOUS
10
75.0418
20
-100.06
11
75.0375
21
-100.065
0
LINE
8
BLACK
6
CONTINUOUS
10
75.0375
20
-100.065
11
75.0183
21
-100.068
0
LINE
8
BLACK
6
CONTINUOUS
10
75.0183
20
-100.068
11
75
21
-100.075
0
LINE
8
BLACK
6
CONTINUOUS
10
75
20
-100.075
11
5
21
-100.075
0
LINE
8
BLACK
6
CONTINUOUS
10
5
20
-100.075
11
4.99026
21
-100.073
0
LINE
8
BLACK
6
CONTINUOUS
10
4.99026
20
-100.073
11
4.98698
21
-100.074
0
LINE
8
BLACK
6
CONTINUOUS
10
4.98698
20
-100.074
11
4.98409
21
-100.072
0
LINE
8
BLACK
6
CONTINUOUS
10
4.98409
20
-100.072
11
4.97435
21
-100.07
0
LINE
8
BLACK
6
CONTINUOUS
10
4.97435
20
-100.07
11
4.95942
21
-100.058
0
LINE
8
BLACK
6
CONTINUOUS
10
4.95942
20
-100.058
11
4.94255
21
-100.048
0
LINE
8
BLACK
6
CONTINUOUS
10
4.94255
20
-100.048
11
4.94023
21
-100.042
0
LINE
8
BLACK
6
CONTINUOUS
10
4.94023
20
-100.042
11
4.93505
21
-100.037
0
LINE
8
BLACK
6
CONTINUOUS
10
4.93505
20
-100.037
11
4.93166
21
-100.018
0
LINE
8
BLACK
6
CONTINUOUS
10
4.93166
20
-100.018
11
4.925
21
-100
0
LINE
8
BLACK
6
CONTINUOUS
10
4.925
20
-100
11
4.925
21
0
0
LINE
8
BLACK
6
CONTINUOUS
10
4.925
20
0
11
4.92672
21
0.009742
0
LINE
8
BLACK
6
CONTINUOUS
10
4.92672
20
0.009742
11
4.92614
21
0.013024
0
LINE
8
BLACK
6
CONTINUOUS
10
4.92614
20
0.013024
11
4.92781
21
0.01591
0
LINE
8
BLACK
6
CONTINUOUS
10
4.92781
20
0.01591
11
4.92952
21
0.025652
0
LINE
8
BLACK
6
CONTINUOUS
10
4.92952
20
0.025652
11
4.94205
21
0.040579
0
LINE
8
BLACK
6
CONTINUOUS
10
4.94205
20
0.040579
11
4.95179
21
0.057453
0
LINE
8
BLACK
6
CONTINUOUS
10
4.95179
20
0.057453
11
4.95815
21
0.059767
0
LINE
8
BLACK
6
CONTINUOUS
10
4.95815
20
0.059767
11
4.9625
21
0.064952
0
LINE
8
BLACK
6
CONTINUOUS
10
4.9625
20
0.064952
11
4.98169
21
0.068336
0
LINE
8
BLACK
6
CONTINUOUS
10
4.98169
20
0.068336
11
5
21
0.075
0
LINE
8
BLACK
6
CONTINUOUS
10
5
20
0.075
11
75
21
0.075
0
LINE
8
BLACK
6
CONTINUOUS
10
75
20
0.075
11
75.0097
21
0.073282
0
LINE
8
BLACK
6
CONTINUOUS
10
36.9875
20
-94.1403
11
37.0776
21
-94.4721
0
LINE
8
BLACK
6
CONTINUOUS
10
37.0776
20
-94.4721
11
37.2042
21
-94.7918
0
LINE
8
BLACK
6
CONTINUOUS
10
37.2042
20
-94.7918
11
37.3656
21
-95.0954
0
LINE
8
BLACK
6
CONTINUOUS
10
37.3656
20
-95.0954
11
37.5599
21
-95.3792
0
LINE
8
BLACK
6
CONTINUOUS
10
37.5599
20
-95.3792
11
37.7845
21
-95.6394
0
LINE
8
BLACK
6
CONTINUOUS
10
37.7845
20
-95.6394
11
38.0368
21
-95.8731
0
LINE
8
BLACK
6
CONTINUOUS
10
38.0368
20
-95.8731
11
38.3136
21
-96.0771
0
LINE
8
BLACK
6
CONTINUOUS
10
38.3136
20
-96.0771
11
38.6114
21
-96.249
0
LINE
8
BLACK
6
CONTINUOUS
10
38.6114
20
-96.249
11
38.9265
21
-96.3867
0
LINE
8
BLACK
6
CONTINUOUS
10
38.9265
20
-96.3867
11
39.2549
21
-96.4884
0
LINE
8
BLACK
6
CONTINUOUS
10
39.2549
20
-96.4884
11
39.5927
21
-96.5528
0
LINE
8
BLACK
6
CONTINUOUS
10
39.5927
20
-96.5528
11
39.925
21
-96.5784
0
LINE
8
BLACK
6
CONTINUOUS
10
39.925
20
-96.5784
11
39.925
21
-90.4249
0
LINE
8
BLACK
6
CONTINUOUS
10
39.925
20
-90.4249
11
39.6781
21
-90.437
0
LINE
8
BLACK
6
CONTINUOUS
10
39.6781
20
-90.437
11
39.3386
21
-90.492
0
LINE
8
BLACK
6
CONTINUOUS
10
39.3386
20
-90.492
11
39.0075
21
-90.5845
0
LINE
8
BLACK
6
CONTINUOUS
10
39.0075
20
-90.5845
11
38.6887
21
-90.7133
0
LINE
8
BLACK
6
CONTINUOUS
10
38.6887
20
-90.7133
11
38.3862
21
-90.8768
0
LINE
8
BLACK
6
CONTINUOUS
10
38.3862
20
-90.8768
11
38.1039
21
-91.073
0
LINE
8
BLACK
6
CONTINUOUS
10
38.1039
20
-91.073
11
37.8451
21
-91.2995
0
LINE
8
BLACK
6
CONTINUOUS
10
37.8451
20
-91.2995
11
37.6133
21
-91.5534
0
LINE
8
BLACK
6
CONTINUOUS
10
37.6133
20
-91.5534
11
37.4112
21
-91.8316
0
LINE
8
BLACK
6
CONTINUOUS
10
37.4112
20
-91.8316
11
37.2413
21
-92.1306
0
LINE
8
BLACK
6
CONTINUOUS
10
37.2413
20
-92.1306
11
37.1059
21
-92.4466
0
LINE
8
BLACK
6
CONTINUOUS
10
37.1059
20
-92.4466
11
37.0065
21
-92.7758
0
LINE
8
BLACK
6
CONTINUOUS
10
37.0065
20
-92.7758
11
36.9444
21
-93.114
0
LINE
8
BLACK
6
CONTINUOUS
10
36.9444
20
-93.114
11
36.9205
21
-93.457
0
LINE
8
BLACK
6
CONTINUOUS
10
36.9205
20
-93.457
11
36.9349
21
-93.8005
0
LINE
8
BLACK
6
CONTINUOUS
10
36.9349
20
-93.8005
11
36.9875
21
-94.1403
0
LINE
8
BLACK
6
CONTINUOUS
10
73.224
20
-50.075
11
73.2237
21
-50.09
0
LINE
8
BLACK
6
CONTINUOUS
10
73.2237
20
-50.09
11
73.1936
21
-50.4488
0
LINE
8
BLACK
6
CONTINUOUS
10
73.1936
20
-50.4488
11
73.1237
21
-50.802
0
LINE
8
BLACK
6
CONTINUOUS
10
73.1237
20
-50.802
11
73.0148
21
-51.1452
0
LINE
8
BLACK
6
CONTINUOUS
10
73.0148
20
-51.1452
11
72.8684
21
-51.4741
0
LINE
8
BLACK
6
CONTINUOUS
10
72.8684
20
-51.4741
11
72.6862
21
-51.7847
0
LINE
8
BLACK
6
CONTINUOUS
10
72.6862
20
-51.7847
11
72.4705
21
-52.073
0
LINE
8
BLACK
6
CONTINUOUS
10
72.4705
20
-52.073
11
72.224
21
-52.3355
0
LINE
8
BLACK
6
CONTINUOUS
10
72.224
20
-52.3355
11
71.9498
21
-52.5688
0
LINE
8
BLACK
6
CONTINUOUS
10
71.9498
20
-52.5688
11
71.6513
21
-52.7701
0
LINE
8
BLACK
6
CONTINUOUS
10
71.6513
20
-52.7701
11
71.3323
21
-52.937
0
LINE
8
BLACK
6
CONTINUOUS
10
71.3323
20
-52.937
11
70.9966
21
-53.0672
0
LINE
8
BLACK
6
CONTINUOUS
10
70.9966
20
-53.0672
11
70.6485
21
-53.1591
0
LINE
8
BLACK
6
CONTINUOUS
10
70.6485
20
-53.1591
11
70.2923
21
-53.2117
0
LINE
8
BLACK
6
CONTINUOUS
10
70.2923
20
-53.2117
11
69.9325
21
-53.2243
0
LINE
8
BLACK
6
CONTINUOUS
10
69.9325
20
-53.2243
11
69.5735
21
-53.1967
0
LINE
8
BLACK
6
CONTINUOUS
10
69.5735
20
-53.1967
11
69.2198
21
-53.1292
0
LINE
8
BLACK
6
CONTINUOUS
10
69.2198
20
-53.1292
11
68.8759
21
-53.0227
0
LINE
8
BLACK
6
CONTINUOUS
10
68.8759
20
-53.0227
11
68.5459
21
-52.8786
0
LINE
8
BLACK
6
CONTINUOUS
10
68.5459
20
-52.8786
11
68.2341
21
-52.6986
0
LINE
8
BLACK
6
CONTINUOUS
10
68.2341
20
-52.6986
11
67.9443
21
-52.4849
0
LINE
8
BLACK
6
CONTINUOUS
10
67.9443
20
-52.4849
11
67.6801
21
-52.2403
0
LINE
8
BLACK
6
CONTINUOUS
10
67.6801
20
-52.2403
11
67.4449
21
-51.9677
0
LINE
8
BLACK
6
CONTINUOUS
10
67.4449
20
-51.9677
11
67.2415
21
-51.6706
0
LINE
8
BLACK
6
CONTINUOUS
10
67.2415
20
-51.6706
11
67.0724
21
-51.3527
0
LINE
8
BLACK
6
CONTINUOUS
10
67.0724
20
-51.3527
11
66.9399
21
-51.018
0
LINE
8
BLACK
6
CONTINUOUS
10
66.9399
20
-51.018
11
66.8455
21
-50.6705
0
LINE
8
BLACK
6
CONTINUOUS
10
66.8455
20
-50.6705
11
66.7904
21
-50.3147
0
LINE
8
BLACK
6
CONTINUOUS
10
66.7904
20
-50.3147
11
66.7803
21
-50.075
0
LINE
8
BLACK
6
CONTINUOUS
10
66.7803
20
-50.075
11
56.2221
21
-50.075
0
LINE
8
BLACK
6
CONTINUOUS
10
56.2221
20
-50.075
11
56.2032
21
-50.4023
0
LINE
8
BLACK
6
CONTINUOUS
10
56.2032
20
-50.4023
11
56.1436
21
-50.7745
0
LINE
8
BLACK
6
CONTINUOUS
10
56.1436
20
-50.7745
11
56.0467
21
-51.1387
0
LINE
8
BLACK
6
CONTINUOUS
10
56.0467
20
-51.1387
11
55.9135
21
-51.4913
0
LINE
8
BLACK
6
CONTINUOUS
10
55.9135
20
-51.4913
11
55.7453
21
-51.8286
0
LINE
8
BLACK
6
CONTINUOUS
10
55.7453
20
-51.8286
11
55.5439
21
-52.1472
0
LINE
8
BLACK
6
CONTINUOUS
10
55.5439
20
-52.1472
11
55.3113
21
-52.4438
0
LINE
8
BLACK
6
CONTINUOUS
10
55.3113
20
-52.4438
11
55.0499
21
-52.7154
0
LINE
8
BLACK
6
CONTINUOUS
10
55.0499
20
-52.7154
11
54.7625
21
-52.9592
0
LINE
8
BLACK
6
CONTINUOUS
10
54.7625
20
-52.9592
11
54.4518
21
-53.1727
0
LINE
8
BLACK
6
CONTINUOUS
10
54.4518
20
-53.1727
11
54.1212
21
-53.3537
0
LINE
8
BLACK
6
CONTINUOUS
10
54.1212
20
-53.3537
11
53.774
21
-53.5004
0
LINE
8
BLACK
6
CONTINUOUS
10
53.774
20
-53.5004
11
53.4138
21
-53.6112
0
LINE
8
BLACK
6
CONTINUOUS
10
53.4138
20
-53.6112
11
53.0442
21
-53.685
0
LINE
8
BLACK
6
CONTINUOUS
10
53.0442
20
-53.685
11
52.669
21
-53.7212
0
LINE
8
BLACK
6
CONTINUOUS
10
52.669
20
-53.7212
11
52.2921
21
-53.7192
0
LINE
8
BLACK
6
CONTINUOUS
10
52.2921
20
-53.7192
11
51.9173
21
-53.6791
0
LINE
8
BLACK
6
CONTINUOUS
10
51.9173
20
-53.6791
11
51.5485
21
-53.6014
0
LINE
8
BLACK
6
CONTINUOUS
10
51.5485
20
-53.6014
11
51.1894
21
-53.4868
0
LINE
8
BLACK
6
CONTINUOUS
10
51.1894
20
-53.4868
11
50.8437
21
-53.3365
0
LINE
8
BLACK
6
CONTINUOUS
10
50.8437
20
-53.3365
11
50.515
21
-53.1521
0
LINE
8
BLACK
6
CONTINUOUS
10
50.515
20
-53.1521
11
50.2067
21
-52.9353
0
LINE
8
BLACK
6
CONTINUOUS
10
50.2067
20
-52.9353
11
49.9218
21
-52.6886
0
LINE
8
BLACK
6
CONTINUOUS
10
49.9218
20
-52.6886
11
49.6633
21
-52.4142
0
LINE
8
BLACK
6
CONTINUOUS
10
49.6633
20
-52.4142
11
49.4338
21
-52.1152
0
LINE
8
BLACK
6
CONTINUOUS
10
49.4338
20
-52.1152
11
49.2358
21
-51.7945
0
LINE
8
BLACK
6
CONTINUOUS
10
49.2358
20
-51.7945
11
49.0711
21
-51.4555
0
LINE
8
BLACK
6
CONTINUOUS
10
49.0711
20
-51.4555
11
48.9416
21
-51.1015
0
LINE
8
BLACK
6
CONTINUOUS
10
48.9416
20
-51.1015
11
48.8485
21
-50.7363
0
LINE
8
BLACK
6
CONTINUOUS
10
48.8485
20
-50.7363
11
48.7928
21
-50.3635
0
LINE
8
BLACK
6
CONTINUOUS
10
48.7928
20
-50.3635
11
48.7792
21
-50.075
0
LINE
8
BLACK
6
CONTINUOUS
10
48.7792
20
-50.075
11
40.075
21
-50.075
0
LINE
8
BLACK
6
CONTINUOUS
10
40.075
20
-50.075
11
40.075
21
-90.2784
0
LINE
8
BLACK
6
CONTINUOUS
10
40.075
20
-90.2784
11
40.3819
21
-90.2977
0
LINE
8
BLACK
6
CONTINUOUS
10
40.3819
20
-90.2977
11
40.7364
21
-90.3602
0
LINE
8
BLACK
6
CONTINUOUS
10
40.7364
20
-90.3602
11
41.0818
21
-90.4619
0
LINE
8
BLACK
6
CONTINUOUS
10
41.0818
20
-90.4619
11
41.4137
21
-90.6014
0
LINE
8
BLACK
6
CONTINUOUS
10
41.4137
20
-90.6014
11
41.728
21
-90.777
0
LINE
8
BLACK
6
CONTINUOUS
10
41.728
20
-90.777
11
42.0208
21
-90.9866
0
LINE
8
BLACK
6
CONTINUOUS
10
42.0208
20
-90.9866
11
42.2884
21
-91.2276
0
LINE
8
BLACK
6
CONTINUOUS
10
42.2884
20
-91.2276
11
42.5274
21
-91.4968
0
LINE
8
BLACK
6
CONTINUOUS
10
42.5274
20
-91.4968
11
42.735
21
-91.791
0
LINE
8
BLACK
6
CONTINUOUS
10
42.735
20
-91.791
11
42.9084
21
-92.1065
0
LINE
8
BLACK
6
CONTINUOUS
10
42.9084
20
-92.1065
11
43.0456
21
-92.4394
0
LINE
8
BLACK
6
CONTINUOUS
10
43.0456
20
-92.4394
11
43.1449
21
-92.7855
0
LINE
8
BLACK
6
CONTINUOUS
10
43.1449
20
-92.7855
11
43.2049
21
-93.1405
0
LINE
8
BLACK
6
CONTINUOUS
10
43.2049
20
-93.1405
11
43.225
21
-93.5
0
LINE
8
BLACK
6
CONTINUOUS
10
43.225
20
-93.5
11
43.2237
21
-93.59
0
LINE
8
BLACK
6
CONTINUOUS
10
43.2237
20
-93.59
11
43.1936
21
-93.9488
0
LINE
8
BLACK
6
CONTINUOUS
10
43.1936
20
-93.9488
11
43.1237
21
-94.302
0
LINE
8
BLACK
6
CONTINUOUS
10
43.1237
20
-94.302
11
43.0148
21
-94.6452
0
LINE
8
BLACK
6
CONTINUOUS
10
43.0148
20
-94.6452
11
42.8684
21
-94.9741
0
LINE
8
BLACK
6
CONTINUOUS
10
42.8684
20
-94.9741
11
42.6862
21
-95.2847
0
LINE
8
BLACK
6
CONTINUOUS
10
42.6862
20
-95.2847
11
42.4705
21
-95.573
0
LINE
8
BLACK
6
CONTINUOUS
10
42.4705
20
-95.573
11
42.224
21
-95.8355
0
LINE
8
BLACK
6
CONTINUOUS
10
42.224
20
-95.8355
11
41.9498
21
-96.0688
0
LINE
8
BLACK
6
CONTINUOUS
10
41.9498
20
-96.0688
11
41.6513
21
-96.2701
0
LINE
8
BLACK
6
CONTINUOUS
10
41.6513
20
-96.2701
11
41.3323
21
-96.437
0
LINE
8
BLACK
6
CONTINUOUS
10
41.3323
20
-96.437
11
40.9966
21
-96.5672
0
LINE
8
BLACK
6
CONTINUOUS
10
40.9966
20
-96.5672
11
40.6485
21
-96.6591
0
LINE
8
BLACK
6
CONTINUOUS
10
40.6485
20
-96.6591
11
40.2923
21
-96.7117
0
LINE
8
BLACK
6
CONTINUOUS
10
40.2923
20
-96.7117
11
40.075
21
-96.7193
0
LINE
8
BLACK
6
CONTINUOUS
10
40.075
20
-96.7193
11
40.075
21
-99.925
0
LINE
8
BLACK
6
CONTINUOUS
10
40.075
20
-99.925
11
74.925
21
-99.925
0
LINE
8
BLACK
6
CONTINUOUS
10
74.925
20
-99.925
11
74.925
21
-50.075
0
LINE
8
BLACK
6
CONTINUOUS
10
74.925
20
-50.075
11
73.224
21
-50.075
0
LINE
8
BLACK
6
CONTINUOUS
10
40.075
20
-96.5743
11
40.2791
21
-96.5672
0
LINE
8
BLACK
6
CONTINUOUS
10
40.2791
20
-96.5672
11
40.6193
21
-96.5169
0
LINE
8
BLACK
6
CONTINUOUS
10
40.6193
20
-96.5169
11
40.9517
21
-96.4291
0
LINE
8
BLACK
6
CONTINUOUS
10
40.9517
20
-96.4291
11
41.2723
21
-96.3048
0
LINE
8
BLACK
6
CONTINUOUS
10
41.2723
20
-96.3048
11
41.577
21
-96.1455
0
LINE
8
BLACK
6
CONTINUOUS
10
41.577
20
-96.1455
11
41.8621
21
-95.9532
0
LINE
8
BLACK
6
CONTINUOUS
10
41.8621
20
-95.9532
11
42.1239
21
-95.7303
0
LINE
8
BLACK
6
CONTINUOUS
10
42.1239
20
-95.7303
11
42.3593
21
-95.4797
0
LINE
8
BLACK
6
CONTINUOUS
10
42.3593
20
-95.4797
11
42.5653
21
-95.2044
0
LINE
8
BLACK
6
CONTINUOUS
10
42.5653
20
-95.2044
11
42.7393
21
-94.9078
0
LINE
8
BLACK
6
CONTINUOUS
10
42.7393
20
-94.9078
11
42.8791
21
-94.5937
0
LINE
8
BLACK
6
CONTINUOUS
10
42.8791
20
-94.5937
11
42.9831
21
-94.2659
0
LINE
8
BLACK
6
CONTINUOUS
10
42.9831
20
-94.2659
11
43.0499
21
-93.9286
0
LINE
8
BLACK
6
CONTINUOUS
10
43.0499
20
-93.9286
11
43.0786
21
-93.586
0
LINE
8
BLACK
6
CONTINUOUS
10
43.0786
20
-93.586
11
43.0798
21
-93.5
0
LINE
8
BLACK
6
CONTINUOUS
10
43.0798
20
-93.5
11
43.0607
21
-93.1567
0
LINE
8
BLACK
6
CONTINUOUS
10
43.0607
20
-93.1567
11
43.0033
21
-92.8177
0
LINE
8
BLACK
6
CONTINUOUS
10
43.0033
20
-92.8177
11
42.9085
21
-92.4871
0
LINE
8
BLACK
6
CONTINUOUS
10
42.9085
20
-92.4871
11
42.7775
21
-92.1692
0
LINE
8
BLACK
6
CONTINUOUS
10
42.7775
20
-92.1692
11
42.6119
21
-91.8679
0
LINE
8
BLACK
6
CONTINUOUS
10
42.6119
20
-91.8679
11
42.4137
21
-91.587
0
LINE
8
BLACK
6
CONTINUOUS
10
42.4137
20
-91.587
11
42.1854
21
-91.3298
0
LINE
8
BLACK
6
CONTINUOUS
10
42.1854
20
-91.3298
11
41.9298
21
-91.0998
0
LINE
8
BLACK
6
CONTINUOUS
10
41.9298
20
-91.0998
11
41.6503
21
-90.8996
0
LINE
8
BLACK
6
CONTINUOUS
10
41.6503
20
-90.8996
11
41.3501
21
-90.7319
0
LINE
8
BLACK
6
CONTINUOUS
10
41.3501
20
-90.7319
11
41.0331
21
-90.5986
0
LINE
8
BLACK
6
CONTINUOUS
10
41.0331
20
-90.5986
11
40.7033
21
-90.5015
0
LINE
8
BLACK
6
CONTINUOUS
10
40.7033
20
-90.5015
11
40.3647
21
-90.4418
0
LINE
8
BLACK
6
CONTINUOUS
10
40.3647
20
-90.4418
11
40.075
21
-90.4236
0
LINE
8
BLACK
6
CONTINUOUS
10
40.075
20
-90.4236
11
40.075
21
-96.5743
0
LINE
8
BLACK
6
CONTINUOUS
10
23.924
20
-50.075
11
23.9397
21
-50.3742
0
LINE
8
BLACK
6
CONTINUOUS
10
23.9397
20
-50.3742
11
23.9983
21
-50.7443
0
LINE
8
BLACK
6
CONTINUOUS
10
23.9983
20
-50.7443
11
24.0953
21
-51.1063
0
LINE
8
BLACK
6
CONTINUOUS
10
24.0953
20
-51.1063
11
24.2296
21
-51.4561
0
LINE
8
BLACK
6
CONTINUOUS
10
24.2296
20
-51.4561
11
24.3997
21
-51.79
0
LINE
8
BLACK
6
CONTINUOUS
10
24.3997
20
-51.79
11
24.6038
21
-52.1042
0
LINE
8
BLACK
6
CONTINUOUS
10
24.6038
20
-52.1042
11
24.8396
21
-52.3954
0
LINE
8
BLACK
6
CONTINUOUS
10
24.8396
20
-52.3954
11
25.1046
21
-52.6604
0
LINE
8
BLACK
6
CONTINUOUS
10
25.1046
20
-52.6604
11
25.3958
21
-52.8962
0
LINE
8
BLACK
6
CONTINUOUS
10
25.3958
20
-52.8962
11
25.71
21
-53.1003
0
LINE
8
BLACK
6
CONTINUOUS
10
25.71
20
-53.1003
11
26.0439
21
-53.2704
0
LINE
8
BLACK
6
CONTINUOUS
10
26.0439
20
-53.2704
11
26.3937
21
-53.4047
0
LINE
8
BLACK
6
CONTINUOUS
10
26.3937
20
-53.4047
11
26.7557
21
-53.5017
0
LINE
8
BLACK
6
CONTINUOUS
10
26.7557
20
-53.5017
11
27.1258
21
-53.5603
0
LINE
8
BLACK
6
CONTINUOUS
10
27.1258
20
-53.5603
11
27.5
21
-53.5799
0
LINE
8
BLACK
6
CONTINUOUS
10
27.5
20
-53.5799
11
27.8742
21
-53.5603
0
LINE
8
BLACK
6
CONTINUOUS
10
27.8742
20
-53.5603
11
28.2443
21
-53.5017
0
LINE
8
BLACK
6
CONTINUOUS
10
28.2443
20
-53.5017
11
28.6063
21
-53.4047
0
LINE
8
BLACK
6
CONTINUOUS
10
28.6063
20
-53.4047
11
28.9561
21
-53.2704
0
LINE
8
BLACK
6
CONTINUOUS
10
28.9561
20
-53.2704
11
29.29
21
-53.1003
0
LINE
8
BLACK
6
CONTINUOUS
10
29.29
20
-53.1003
11
29.6042
21
-52.8962
0
LINE
8
BLACK
6
CONTINUOUS
10
29.6042
20
-52.8962
11
29.8954
21
-52.6604
0
LINE
8
BLACK
6
CONTINUOUS
10
29.8954
20
-52.6604
11
30.1604
21
-52.3954
0
LINE
8
BLACK
6
CONTINUOUS
10
30.1604
20
-52.3954
11
30.3962
21
-52.1042
0
LINE
8
BLACK
6
CONTINUOUS
10
30.3962
20
-52.1042
11
30.6003
21
-51.79
0
LINE
8
BLACK
6
CONTINUOUS
10
30.6003
20
-51.79
11
30.7704
21
-51.4561
0
LINE
8
BLACK
6
CONTINUOUS
10
30.7704
20
-51.4561
11
30.9047
21
-51.1063
0
LINE
8
BLACK
6
CONTINUOUS
10
30.9047
20
-51.1063
11
31.0017
21
-50.7443
0
LINE
8
BLACK
6
CONTINUOUS
10
31.0017
20
-50.7443
11
31.0603
21
-50.3742
0
LINE
8
BLACK
6
CONTINUOUS
10
31.0603
20
-50.3742
11
31.076
21
-50.075
0
LINE
8
BLACK
6
CONTINUOUS
10
31.076
20
-50.075
11
23.924
21
-50.075
0
LINE
8
BLACK
6
CONTINUOUS
10
48.924
20
-50.075
11
48.9397
21
-50.3742
0
LINE
8
BLACK
6
CONTINUOUS
10
48.9397
20
-50.3742
11
48.9983
21
-50.7443
0
LINE
8
BLACK
6
CONTINUOUS
10
48.9983
20
-50.7443
11
49.0953
21
-51.1063
0
LINE
8
BLACK
6
CONTINUOUS
10
49.0953
20
-51.1063
11
49.2296
21
-51.4561
0
LINE
8
BLACK
6
CONTINUOUS
10
49.2296
20
-51.4561
11
49.3997
21
-51.79
0
LINE
8
BLACK
6
CONTINUOUS
10
49.3997
20
-51.79
11
49.6038
21
-52.1042
0
LINE
8
BLACK
6
CONTINUOUS
10
49.6038
20
-52.1042
11
49.8396
21
-52.3954
0
LINE
8
BLACK
6
CONTINUOUS
10
49.8396
20
-52.3954
11
50.1046
21
-52.6604
0
LINE
8
BLACK
6
CONTINUOUS
10
50.1046
20
-52.6604
11
50.3958
21
-52.8962
0
LINE
8
BLACK
6
CONTINUOUS
10
50.3958
20
-52.8962
11
50.71
21
-53.1003
0
LINE
8
BLACK
6
CONTINUOUS
10
50.71
20
-53.1003
11
51.0439
21
-53.2704
0
LINE
8
BLACK
6
CONTINUOUS
10
51.0439
20
-53.2704
11
51.3937
21
-53.4047
0
LINE
8
BLACK
6
CONTINUOUS
10
51.3937
20
-53.4047
11
51.7557
21
-53.5017
0
LINE
8
BLACK
6
CONTINUOUS
10
51.7557
20
-53.5017
11
52.1258
21
-53.5603
0
LINE
8
BLACK
6
CONTINUOUS
10
52.1258
20
-53.5603
11
52.5
21
-53.5799
0
LINE
8
BLACK
6
CONTINUOUS
10
52.5
20
-53.5799
11
52.8742
21
-53.5603
0
LINE
8
BLACK
6
CONTINUOUS
10
52.8742
20
-53.5603
11
53.2443
21
-53.5017
0
LINE
8
BLACK
6
CONTINUOUS
10
53.2443
20
-53.5017
11
53.6063
21
-53.4047
0
LINE
8
BLACK
6
CONTINUOUS
10
53.6063
20
-53.4047
11
53.9561
21
-53.2704
0
LINE
8
BLACK
6
CONTINUOUS
10
53.9561
20
-53.2704
11
54.29
21
-53.1003
0
LINE
8
BLACK
6
CONTINUOUS
10
54.29
20
-53.1003
11
54.6042
21
-52.8962
0
LINE
8
BLACK
6
CONTINUOUS
10
54.6042
20
-52.8962
11
54.8954
21
-52.6604
0
LINE
8
BLACK
6
CONTINUOUS
10
54.8954
20
-52.6604
11
55.1604
21
-52.3954
0
LINE
8
BLACK
6
CONTINUOUS
10
55.1604
20
-52.3954
11
55.3962
21
-52.1042
0
LINE
8
BLACK
6
CONTINUOUS
10
55.3962
20
-52.1042
11
55.6003
21
-51.79
0
LINE
8
BLACK
6
CONTINUOUS
10
55.6003
20
-51.79
11
55.7704
21
-51.4561
0
LINE
8
BLACK
6
CONTINUOUS
10
55.7704
20
-51.4561
11
55.9047
21
-51.1063
0
LINE
8
BLACK
6
CONTINUOUS
10
55.9047
20
-51.1063
11
56.0017
21
-50.7443
0
LINE
8
BLACK
6
CONTINUOUS
10
56.0017
20
-50.7443
11
56.0603
21
-50.3742
0
LINE
8
BLACK
6
CONTINUOUS
10
56.0603
20
-50.3742
11
56.076
21
-50.075
0
LINE
8
BLACK
6
CONTINUOUS
10
56.076
20
-50.075
11
48.924
21
-50.075
0
LINE
8
BLACK
6
CONTINUOUS
10
66.9254
20
-50.075
11
66.9349
21
-50.3005
0
LINE
8
BLACK
6
CONTINUOUS
10
66.9349
20
-50.3005
11
66.9875
21
-50.6403
0
LINE
8
BLACK
6
CONTINUOUS
10
66.9875
20
-50.6403
11
67.0776
21
-50.9721
0
LINE
8
BLACK
6
CONTINUOUS
10
67.0776
20
-50.9721
11
67.2042
21
-51.2918
0
LINE
8
BLACK
6
CONTINUOUS
10
67.2042
20
-51.2918
11
67.3656
21
-51.5954
0
LINE
8
BLACK
6
CONTINUOUS
10
67.3656
20
-51.5954
11
67.5599
21
-51.8792
0
LINE
8
BLACK
6
CONTINUOUS
10
67.5599
20
-51.8792
11
67.7845
21
-52.1394
0
LINE
8
BLACK
6
CONTINUOUS
10
67.7845
20
-52.1394
11
68.0368
21
-52.3731
0
LINE
8
BLACK
6
CONTINUOUS
10
68.0368
20
-52.3731
11
68.3136
21
-52.5771
0
LINE
8
BLACK
6
CONTINUOUS
10
68.3136
20
-52.5771
11
68.6114
21
-52.749
0
LINE
8
BLACK
6
CONTINUOUS
10
68.6114
20
-52.749
11
68.9265
21
-52.8867
0
LINE
8
BLACK
6
CONTINUOUS
10
68.9265
20
-52.8867
11
69.2549
21
-52.9884
0
LINE
8
BLACK
6
CONTINUOUS
10
69.2549
20
-52.9884
11
69.5927
21
-53.0528
0
LINE
8
BLACK
6
CONTINUOUS
10
69.5927
20
-53.0528
11
69.9355
21
-53.0792
0
LINE
8
BLACK
6
CONTINUOUS
10
69.9355
20
-53.0792
11
70.2791
21
-53.0672
0
LINE
8
BLACK
6
CONTINUOUS
10
70.2791
20
-53.0672
11
70.6193
21
-53.0169
0
LINE
8
BLACK
6
CONTINUOUS
10
70.6193
20
-53.0169
11
70.9517
21
-52.9291
0
LINE
8
BLACK
6
CONTINUOUS
10
70.9517
20
-52.9291
11
71.2723
21
-52.8048
0
LINE
8
BLACK
6
CONTINUOUS
10
71.2723
20
-52.8048
11
71.577
21
-52.6455
0
LINE
8
BLACK
6
CONTINUOUS
10
71.577
20
-52.6455
11
71.8621
21
-52.4532
0
LINE
8
BLACK
6
CONTINUOUS
10
71.8621
20
-52.4532
11
72.1239
21
-52.2303
0
LINE
8
BLACK
6
CONTINUOUS
10
72.1239
20
-52.2303
11
72.3593
21
-51.9797
0
LINE
8
BLACK
6
CONTINUOUS
10
72.3593
20
-51.9797
11
72.5653
21
-51.7044
0
LINE
8
BLACK
6
CONTINUOUS
10
72.5653
20
-51.7044
11
72.7393
21
-51.4078
0
LINE
8
BLACK
6
CONTINUOUS
10
72.7393
20
-51.4078
11
72.8791
21
-51.0937
0
LINE
8
BLACK
6
CONTINUOUS
10
72.8791
20
-51.0937
11
72.9831
21
-50.7659
0
LINE
8
BLACK
6
CONTINUOUS
10
72.9831
20
-50.7659
11
73.0499
21
-50.4286
0
LINE
8
BLACK
6
CONTINUOUS
10
73.0499
20
-50.4286
11
73.0786
21
-50.086
0
LINE
8
BLACK
6
CONTINUOUS
10
73.0786
20
-50.086
11
73.0788
21
-50.075
0
LINE
8
BLACK
6
CONTINUOUS
10
73.0788
20
-50.075
11
66.9254
21
-50.075
0
LINE
8
BLACK
6
CONTINUOUS
10
6.9254
20
-50.075
11
6.93485
21
-50.3005
0
LINE
8
BLACK
6
CONTINUOUS
10
6.93485
20
-50.3005
11
6.98746
21
-50.6403
0
LINE
8
BLACK
6
CONTINUOUS
10
6.98746
20
-50.6403
11
7.07761
21
-50.9721
0
LINE
8
BLACK
6
CONTINUOUS
10
7.07761
20
-50.9721
11
7.20419
21
-51.2918
0
LINE
8
BLACK
6
CONTINUOUS
10
7.20419
20
-51.2918
11
7.36561
21
-51.5954
0
LINE
8
BLACK
6
CONTINUOUS
10
7.36561
20
-51.5954
11
7.55987
21
-51.8792
0
LINE
8
BLACK
6
CONTINUOUS
10
7.55987
20
-51.8792
11
7.78454
21
-52.1394
0
LINE
8
BLACK
6
CONTINUOUS
10
7.78454
20
-52.1394
11
8.03683
21
-52.3731
0
LINE
8
BLACK
6
CONTINUOUS
10
8.03683
20
-52.3731
11
8.31359
21
-52.5771
0
LINE
8
BLACK
6
CONTINUOUS
10
8.31359
20
-52.5771
11
8.61137
21
-52.749
0
LINE
8
BLACK
6
CONTINUOUS
10
8.61137
20
-52.749
11
8.92645
21
-52.8867
0
LINE
8
BLACK
6
CONTINUOUS
10
8.92645
20
-52.8867
11
9.25492
21
-52.9884
0
LINE
8
BLACK
6
CONTINUOUS
10
9.25492
20
-52.9884
11
9.59267
21
-53.0528
0
LINE
8
BLACK
6
CONTINUOUS
10
9.59267
20
-53.0528
11
9.9355
21
-53.0792
0
LINE
8
BLACK
6
CONTINUOUS
10
9.9355
20
-53.0792
11
10.2791
21
-53.0672
0
LINE
8
BLACK
6
CONTINUOUS
10
10.2791
20
-53.0672
11
10.6193
21
-53.0169
0
LINE
8
BLACK
6
CONTINUOUS
10
10.6193
20
-53.0169
11
10.9517
21
-52.9291
0
LINE
8
BLACK
6
CONTINUOUS
10
10.9517
20
-52.9291
11
11.2723
21
-52.8048
0
LINE
8
BLACK
6
CONTINUOUS
10
11.2723
20
-52.8048
11
11.577
21
-52.6455
0
LINE
8
BLACK
6
CONTINUOUS
10
11.577
20
-52.6455
11
11.8621
21
-52.4532
0
LINE
8
BLACK
6
CONTINUOUS
10
11.8621
20
-52.4532
11
12.1239
21
-52.2303
0
LINE
8
BLACK
6
CONTINUOUS
10
12.1239
20
-52.2303
11
12.3593
21
-51.9797
0
LINE
8
BLACK
6
CONTINUOUS
10
12.3593
20
-51.9797
11
12.5653
21
-51.7044
0
LINE
8
BLACK
6
CONTINUOUS
10
12.5653
20
-51.7044
11
12.7393
21
-51.4078
0
LINE
8
BLACK
6
CONTINUOUS
10
12.7393
20
-51.4078
11
12.8791
21
-51.0937
0
LINE
8
BLACK
6
CONTINUOUS
10
12.8791
20
-51.0937
11
12.9831
21
-50.7659
0
LINE
8
BLACK
6
CONTINUOUS
10
12.9831
20
-50.7659
11
13.0499
21
-50.4286
0
LINE
8
BLACK
6
CONTINUOUS
10
13.0499
20
-50.4286
11
13.0786
21
-50.086
0
LINE
8
BLACK
6
CONTINUOUS
10
13.0786
20
-50.086
11
13.0788
21
-50.075
0
LINE
8
BLACK
6
CONTINUOUS
10
13.0788
20
-50.075
11
6.9254
21
-50.075
0
LINE
8
BLACK
6
CONTINUOUS
10
36.9875
20
-7.14034
11
37.0776
21
-7.47215
0
LINE
8
BLACK
6
CONTINUOUS
10
37.0776
20
-7.47215
11
37.2042
21
-7.79185
0
LINE
8
BLACK
6
CONTINUOUS
10
37.2042
20
-7.79185
11
37.3656
21
-8.09544
0
LINE
8
BLACK
6
CONTINUOUS
10
37.3656
20
-8.09544
11
37.5599
21
-8.37915
0
LINE
8
BLACK
6
CONTINUOUS
10
37.5599
20
-8.37915
11
37.7845
21
-8.63944
0
LINE
8
BLACK
6
CONTINUOUS
10
37.7845
20
-8.63944
11
38.0368
21
-8.87306
0
LINE
8
BLACK
6
CONTINUOUS
10
38.0368
20
-8.87306
11
38.3136
21
-9.0771
0
LINE
8
BLACK
6
CONTINUOUS
10
38.3136
20
-9.0771
11
38.6114
21
-9.24903
0
LINE
8
BLACK
6
CONTINUOUS
10
38.6114
20
-9.24903
11
38.9265
21
-9.38668
0
LINE
8
BLACK
6
CONTINUOUS
10
38.9265
20
-9.38668
11
39.2549
21
-9.48836
0
LINE
8
BLACK
6
CONTINUOUS
10
39.2549
20
-9.48836
11
39.5927
21
-9.55279
0
LINE
8
BLACK
6
CONTINUOUS
10
39.5927
20
-9.55279
11
39.925
21
-9.57836
0
LINE
8
BLACK
6
CONTINUOUS
10
39.925
20
-9.57836
11
39.925
21
-3.42495
0
LINE
8
BLACK
6
CONTINUOUS
10
39.925
20
-3.42495
11
39.6781
21
-3.43703
0
LINE
8
BLACK
6
CONTINUOUS
10
39.6781
20
-3.43703
11
39.3386
21
-3.492
0
LINE
8
BLACK
6
CONTINUOUS
10
39.3386
20
-3.492
11
39.0075
21
-3.58447
0
LINE
8
BLACK
6
CONTINUOUS
10
39.0075
20
-3.58447
11
38.6887
21
-3.71327
0
LINE
8
BLACK
6
CONTINUOUS
10
38.6887
20
-3.71327
11
38.3862
21
-3.87681
0
LINE
8
BLACK
6
CONTINUOUS
10
38.3862
20
-3.87681
11
38.1039
21
-4.07305
0
LINE
8
BLACK
6
CONTINUOUS
10
38.1039
20
-4.07305
11
37.8451
21
-4.29953
0
LINE
8
BLACK
6
CONTINUOUS
10
37.8451
20
-4.29953
11
37.6133
21
-4.55345
0
LINE
8
BLACK
6
CONTINUOUS
10
37.6133
20
-4.55345
11
37.4112
21
-4.83162
0
LINE
8
BLACK
6
CONTINUOUS
10
37.4112
20
-4.83162
11
37.2413
21
-5.13059
0
LINE
8
BLACK
6
CONTINUOUS
10
37.2413
20
-5.13059
11
37.1059
21
-5.44663
0
LINE
8
BLACK
6
CONTINUOUS
10
37.1059
20
-5.44663
11
37.0065
21
-5.7758
0
LINE
8
BLACK
6
CONTINUOUS
10
37.0065
20
-5.7758
11
36.9444
21
-6.11399
0
LINE
8
BLACK
6
CONTINUOUS
10
36.9444
20
-6.11399
11
36.9205
21
-6.457
0
LINE
8
BLACK
6
CONTINUOUS
10
36.9205
20
-6.457
11
36.9349
21
-6.80054
0
LINE
8
BLACK
6
CONTINUOUS
10
36.9349
20
-6.80054
11
36.9875
21
-7.14034
0
LINE
8
BLACK
6
CONTINUOUS
10
9.67807
20
-46.937
11
9.33865
21
-46.992
0
LINE
8
BLACK
6
CONTINUOUS
10
9.33865
20
-46.992
11
9.00747
21
-47.0845
0
LINE
8
BLACK
6
CONTINUOUS
10
9.00747
20
-47.0845
11
8.68867
21
-47.2133
0
LINE
8
BLACK
6
CONTINUOUS
10
8.68867
20
-47.2133
11
8.38621
21
-47.3768
0
LINE
8
BLACK
6
CONTINUOUS
10
8.38621
20
-47.3768
11
8.10386
21
-47.573
0
LINE
8
BLACK
6
CONTINUOUS
10
8.10386
20
-47.573
11
7.84514
21
-47.7995
0
LINE
8
BLACK
6
CONTINUOUS
10
7.84514
20
-47.7995
11
7.61329
21
-48.0534
0
LINE
8
BLACK
6
CONTINUOUS
10
7.61329
20
-48.0534
11
7.41118
21
-48.3316
0
LINE
8
BLACK
6
CONTINUOUS
10
7.41118
20
-48.3316
11
7.24135
21
-48.6306
0
LINE
8
BLACK
6
CONTINUOUS
10
7.24135
20
-48.6306
11
7.10589
21
-48.9466
0
LINE
8
BLACK
6
CONTINUOUS
10
7.10589
20
-48.9466
11
7.00651
21
-49.2758
0
LINE
8
BLACK
6
CONTINUOUS
10
7.00651
20
-49.2758
11
6.94444
21
-49.614
0
LINE
8
BLACK
6
CONTINUOUS
10
6.94444
20
-49.614
11
6.92269
21
-49.925
0
LINE
8
BLACK
6
CONTINUOUS
10
6.92269
20
-49.925
11
13.0757
21
-49.925
0
LINE
8
BLACK
6
CONTINUOUS
10
13.0757
20
-49.925
11
13.0607
21
-49.6567
0
LINE
8
BLACK
6
CONTINUOUS
10
13.0607
20
-49.6567
11
13.0033
21
-49.3177
0
LINE
8
BLACK
6
CONTINUOUS
10
13.0033
20
-49.3177
11
12.9085
21
-48.9871
0
LINE
8
BLACK
6
CONTINUOUS
10
12.9085
20
-48.9871
11
12.7775
21
-48.6692
0
LINE
8
BLACK
6
CONTINUOUS
10
12.7775
20
-48.6692
11
12.6119
21
-48.3679
0
LINE
8
BLACK
6
CONTINUOUS
10
12.6119
20
-48.3679
11
12.4137
21
-48.087
0
LINE
8
BLACK
6
CONTINUOUS
10
12.4137
20
-48.087
11
12.1854
21
-47.8298
0
LINE
8
BLACK
6
CONTINUOUS
10
12.1854
20
-47.8298
11
11.9298
21
-47.5998
0
LINE
8
BLACK
6
CONTINUOUS
10
11.9298
20
-47.5998
11
11.6503
21
-47.3996
0
LINE
8
BLACK
6
CONTINUOUS
10
11.6503
20
-47.3996
11
11.3501
21
-47.2319
0
LINE
8
BLACK
6
CONTINUOUS
10
11.3501
20
-47.2319
11
11.0331
21
-47.0986
0
LINE
8
BLACK
6
CONTINUOUS
10
11.0331
20
-47.0986
11
10.7033
21
-47.0015
0
LINE
8
BLACK
6
CONTINUOUS
10
10.7033
20
-47.0015
11
10.3647
21
-46.9418
0
LINE
8
BLACK
6
CONTINUOUS
10
10.3647
20
-46.9418
11
10.0215
21
-46.9202
0
LINE
8
BLACK
6
CONTINUOUS
10
10.0215
20
-46.9202
11
9.67807
21
-46.937
0
LINE
8
BLACK
6
CONTINUOUS
10
27.1258
20
-46.4397
11
26.7557
21
-46.4983
0
LINE
8
BLACK
6
CONTINUOUS
10
26.7557
20
-46.4983
11
26.3937
21
-46.5953
0
LINE
8
BLACK
6
CONTINUOUS
10
26.3937
20
-46.5953
11
26.0439
21
-46.7296
0
LINE
8
BLACK
6
CONTINUOUS
10
26.0439
20
-46.7296
11
25.71
21
-46.8997
0
LINE
8
BLACK
6
CONTINUOUS
10
25.71
20
-46.8997
11
25.3958
21
-47.1038
0
LINE
8
BLACK
6
CONTINUOUS
10
25.3958
20
-47.1038
11
25.1046
21
-47.3396
0
LINE
8
BLACK
6
CONTINUOUS
10
25.1046
20
-47.3396
11
24.8396
21
-47.6046
0
LINE
8
BLACK
6
CONTINUOUS
10
24.8396
20
-47.6046
11
24.6038
21
-47.8958
0
LINE
8
BLACK
6
CONTINUOUS
10
24.6038
20
-47.8958
11
24.3997
21
-48.21
0
LINE
8
BLACK
6
CONTINUOUS
10
24.3997
20
-48.21
11
24.2296
21
-48.5439
0
LINE
8
BLACK
6
CONTINUOUS
10
24.2296
20
-48.5439
11
24.0953
21
-48.8937
0
LINE
8
BLACK
6
CONTINUOUS
10
24.0953
20
-48.8937
11
23.9983
21
-49.2557
0
LINE
8
BLACK
6
CONTINUOUS
10
23.9983
20
-49.2557
11
23.9397
21
-49.6258
0
LINE
8
BLACK
6
CONTINUOUS
10
23.9397
20
-49.6258
11
23.924
21
-49.925
0
LINE
8
BLACK
6
CONTINUOUS
10
23.924
20
-49.925
11
31.076
21
-49.925
0
LINE
8
BLACK
6
CONTINUOUS
10
31.076
20
-49.925
11
31.0603
21
-49.6258
0
LINE
8
BLACK
6
CONTINUOUS
10
31.0603
20
-49.6258
11
31.0017
21
-49.2557
0
LINE
8
BLACK
6
CONTINUOUS
10
31.0017
20
-49.2557
11
30.9047
21
-48.8937
0
LINE
8
BLACK
6
CONTINUOUS
10
30.9047
20
-48.8937
11
30.7704
21
-48.5439
0
LINE
8
BLACK
6
CONTINUOUS
10
30.7704
20
-48.5439
11
30.6003
21
-48.21
0
LINE
8
BLACK
6
CONTINUOUS
10
30.6003
20
-48.21
11
30.3962
21
-47.8958
0
LINE
8
BLACK
6
CONTINUOUS
10
30.3962
20
-47.8958
11
30.1604
21
-47.6046
0
LINE
8
BLACK
6
CONTINUOUS
10
30.1604
20
-47.6046
11
29.8954
21
-47.3396
0
LINE
8
BLACK
6
CONTINUOUS
10
29.8954
20
-47.3396
11
29.6042
21
-47.1038
0
LINE
8
BLACK
6
CONTINUOUS
10
29.6042
20
-47.1038
11
29.29
21
-46.8997
0
LINE
8
BLACK
6
CONTINUOUS
10
29.29
20
-46.8997
11
28.9561
21
-46.7296
0
LINE
8
BLACK
6
CONTINUOUS
10
28.9561
20
-46.7296
11
28.6063
21
-46.5953
0
LINE
8
BLACK
6
CONTINUOUS
10
28.6063
20
-46.5953
11
28.2443
21
-46.4983
0
LINE
8
BLACK
6
CONTINUOUS
10
28.2443
20
-46.4983
11
27.8742
21
-46.4397
0
LINE
8
BLACK
6
CONTINUOUS
10
27.8742
20
-46.4397
11
27.5
21
-46.4201
0
LINE
8
BLACK
6
CONTINUOUS
10
27.5
20
-46.4201
11
27.1258
21
-46.4397
0
LINE
8
BLACK
6
CONTINUOUS
10
40.075
20
-0.075
11
40.075
21
-3.27838
0
LINE
8
BLACK
6
CONTINUOUS
10
40.075
20
-3.27838
11
40.3819
21
-3.29769
0
LINE
8
BLACK
6
CONTINUOUS
10
40.3819
20
-3.29769
11
40.7364
21
-3.36021
0
LINE
8
BLACK
6
CONTINUOUS
10
40.7364
20
-3.36021
11
41.0818
21
-3.46186
0
LINE
8
BLACK
6
CONTINUOUS
10
41.0818
20
-3.46186
11
41.4137
21
-3.60139
0
LINE
8
BLACK
6
CONTINUOUS
10
41.4137
20
-3.60139
11
41.728
21
-3.77704
0
LINE
8
BLACK
6
CONTINUOUS
10
41.728
20
-3.77704
11
42.0208
21
-3.98663
0
LINE
8
BLACK
6
CONTINUOUS
10
42.0208
20
-3.98663
11
42.2884
21
-4.22755
0
LINE
8
BLACK
6
CONTINUOUS
10
42.2884
20
-4.22755
11
42.5274
21
-4.4968
0
LINE
8
BLACK
6
CONTINUOUS
10
42.5274
20
-4.4968
11
42.735
21
-4.79101
0
LINE
8
BLACK
6
CONTINUOUS
10
42.735
20
-4.79101
11
42.9084
21
-5.10652
0
LINE
8
BLACK
6
CONTINUOUS
10
42.9084
20
-5.10652
11
43.0456
21
-5.4394
0
LINE
8
BLACK
6
CONTINUOUS
10
43.0456
20
-5.4394
11
43.1449
21
-5.78551
0
LINE
8
BLACK
6
CONTINUOUS
10
43.1449
20
-5.78551
11
43.2049
21
-6.14051
0
LINE
8
BLACK
6
CONTINUOUS
10
43.2049
20
-6.14051
11
43.225
21
-6.5
0
LINE
8
BLACK
6
CONTINUOUS
10
43.225
20
-6.5
11
43.2237
21
-6.59005
0
LINE
8
BLACK
6
CONTINUOUS
10
43.2237
20
-6.59005
11
43.1936
21
-6.94883
0
LINE
8
BLACK
6
CONTINUOUS
10
43.1936
20
-6.94883
11
43.1237
21
-7.30202
0
LINE
8
BLACK
6
CONTINUOUS
10
43.1237
20
-7.30202
11
43.0148
21
-7.64522
0
LINE
8
BLACK
6
CONTINUOUS
10
43.0148
20
-7.64522
11
42.8684
21
-7.97414
0
LINE
8
BLACK
6
CONTINUOUS
10
42.8684
20
-7.97414
11
42.6862
21
-8.28469
0
LINE
8
BLACK
6
CONTINUOUS
10
42.6862
20
-8.28469
11
42.4705
21
-8.57299
0
LINE
8
BLACK
6
CONTINUOUS
10
42.4705
20
-8.57299
11
42.224
21
-8.83545
0
LINE
8
BLACK
6
CONTINUOUS
10
42.224
20
-8.83545
11
41.9498
21
-9.06881
0
LINE
8
BLACK
6
CONTINUOUS
10
41.9498
20
-9.06881
11
41.6513
21
-9.27015
0
LINE
8
BLACK
6
CONTINUOUS
10
41.6513
20
-9.27015
11
41.3323
21
-9.43695
0
LINE
8
BLACK
6
CONTINUOUS
10
41.3323
20
-9.43695
11
40.9966
21
-9.56716
0
LINE
8
BLACK
6
CONTINUOUS
10
40.9966
20
-9.56716
11
40.6485
21
-9.65913
0
LINE
8
BLACK
6
CONTINUOUS
10
40.6485
20
-9.65913
11
40.2923
21
-9.71173
0
LINE
8
BLACK
6
CONTINUOUS
10
40.2923
20
-9.71173
11
40.075
21
-9.71931
0
LINE
8
BLACK
6
CONTINUOUS
10
40.075
20
-9.71931
11
40.075
21
-49.925
0
LINE
8
BLACK
6
CONTINUOUS
10
40.075
20
-49.925
11
48.7784
21
-49.925
0
LINE
8
BLACK
6
CONTINUOUS
10
48.7784
20
-49.925
11
48.7954
21
-49.6106
0
LINE
8
BLACK
6
CONTINUOUS
10
48.7954
20
-49.6106
11
48.8537
21
-49.2383
0
LINE
8
BLACK
6
CONTINUOUS
10
48.8537
20
-49.2383
11
48.9494
21
-48.8737
0
LINE
8
BLACK
6
CONTINUOUS
10
48.9494
20
-48.8737
11
49.0814
21
-48.5206
0
LINE
8
BLACK
6
CONTINUOUS
10
49.0814
20
-48.5206
11
49.2484
21
-48.1827
0
LINE
8
BLACK
6
CONTINUOUS
10
49.2484
20
-48.1827
11
49.4487
21
-47.8634
0
LINE
8
BLACK
6
CONTINUOUS
10
49.4487
20
-47.8634
11
49.6802
21
-47.566
0
LINE
8
BLACK
6
CONTINUOUS
10
49.6802
20
-47.566
11
49.9406
21
-47.2935
0
LINE
8
BLACK
6
CONTINUOUS
10
49.9406
20
-47.2935
11
50.2272
21
-47.0487
0
LINE
8
BLACK
6
CONTINUOUS
10
50.2272
20
-47.0487
11
50.5371
21
-46.8342
0
LINE
8
BLACK
6
CONTINUOUS
10
50.5371
20
-46.8342
11
50.8671
21
-46.652
0
LINE
8
BLACK
6
CONTINUOUS
10
50.8671
20
-46.652
11
51.2138
21
-46.5041
0
LINE
8
BLACK
6
CONTINUOUS
10
51.2138
20
-46.5041
11
51.5736
21
-46.392
0
LINE
8
BLACK
6
CONTINUOUS
10
51.5736
20
-46.392
11
51.943
21
-46.3169
0
LINE
8
BLACK
6
CONTINUOUS
10
51.943
20
-46.3169
11
52.318
21
-46.2794
0
LINE
8
BLACK
6
CONTINUOUS
10
52.318
20
-46.2794
11
52.695
21
-46.2801
0
LINE
8
BLACK
6
CONTINUOUS
10
52.695
20
-46.2801
11
53.0699
21
-46.3188
0
LINE
8
BLACK
6
CONTINUOUS
10
53.0699
20
-46.3188
11
53.439
21
-46.3953
0
LINE
8
BLACK
6
CONTINUOUS
10
53.439
20
-46.3953
11
53.7984
21
-46.5086
0
LINE
8
BLACK
6
CONTINUOUS
10
53.7984
20
-46.5086
11
54.1446
21
-46.6577
0
LINE
8
BLACK
6
CONTINUOUS
10
54.1446
20
-46.6577
11
54.4739
21
-46.841
0
LINE
8
BLACK
6
CONTINUOUS
10
54.4739
20
-46.841
11
54.7831
21
-47.0567
0
LINE
8
BLACK
6
CONTINUOUS
10
54.7831
20
-47.0567
11
55.0688
21
-47.3025
0
LINE
8
BLACK
6
CONTINUOUS
10
55.0688
20
-47.3025
11
55.3283
21
-47.5759
0
LINE
8
BLACK
6
CONTINUOUS
10
55.3283
20
-47.5759
11
55.5588
21
-47.8741
0
LINE
8
BLACK
6
CONTINUOUS
10
55.5588
20
-47.8741
11
55.758
21
-48.1941
0
LINE
8
BLACK
6
CONTINUOUS
10
55.758
20
-48.1941
11
55.9238
21
-48.5326
0
LINE
8
BLACK
6
CONTINUOUS
10
55.9238
20
-48.5326
11
56.0545
21
-48.8861
0
LINE
8
BLACK
6
CONTINUOUS
10
56.0545
20
-48.8861
11
56.1489
21
-49.251
0
LINE
8
BLACK
6
CONTINUOUS
10
56.1489
20
-49.251
11
56.2059
21
-49.6236
0
LINE
8
BLACK
6
CONTINUOUS
10
56.2059
20
-49.6236
11
56.2212
21
-49.925
0
LINE
8
BLACK
6
CONTINUOUS
10
56.2212
20
-49.925
11
66.7774
21
-49.925
0
LINE
8
BLACK
6
CONTINUOUS
10
66.7774
20
-49.925
11
66.8004
21
-49.5958
0
LINE
8
BLACK
6
CONTINUOUS
10
66.8004
20
-49.5958
11
66.8654
21
-49.2417
0
LINE
8
BLACK
6
CONTINUOUS
10
66.8654
20
-49.2417
11
66.9695
21
-48.897
0
LINE
8
BLACK
6
CONTINUOUS
10
66.9695
20
-48.897
11
67.1113
21
-48.5661
0
LINE
8
BLACK
6
CONTINUOUS
10
67.1113
20
-48.5661
11
67.2892
21
-48.253
0
LINE
8
BLACK
6
CONTINUOUS
10
67.2892
20
-48.253
11
67.5008
21
-47.9617
0
LINE
8
BLACK
6
CONTINUOUS
10
67.5008
20
-47.9617
11
67.7436
21
-47.6958
0
LINE
8
BLACK
6
CONTINUOUS
10
67.7436
20
-47.6958
11
68.0145
21
-47.4587
0
LINE
8
BLACK
6
CONTINUOUS
10
68.0145
20
-47.4587
11
68.3101
21
-47.2532
0
LINE
8
BLACK
6
CONTINUOUS
10
68.3101
20
-47.2532
11
68.6269
21
-47.0819
0
LINE
8
BLACK
6
CONTINUOUS
10
68.6269
20
-47.0819
11
68.9607
21
-46.9471
0
LINE
8
BLACK
6
CONTINUOUS
10
68.9607
20
-46.9471
11
69.3075
21
-46.8502
0
LINE
8
BLACK
6
CONTINUOUS
10
69.3075
20
-46.8502
11
69.6629
21
-46.7927
0
LINE
8
BLACK
6
CONTINUOUS
10
69.6629
20
-46.7927
11
70.0225
21
-46.7751
0
LINE
8
BLACK
6
CONTINUOUS
10
70.0225
20
-46.7751
11
70.3819
21
-46.7977
0
LINE
8
BLACK
6
CONTINUOUS
10
70.3819
20
-46.7977
11
70.7364
21
-46.8602
0
LINE
8
BLACK
6
CONTINUOUS
10
70.7364
20
-46.8602
11
71.0818
21
-46.9619
0
LINE
8
BLACK
6
CONTINUOUS
10
71.0818
20
-46.9619
11
71.4137
21
-47.1014
0
LINE
8
BLACK
6
CONTINUOUS
10
71.4137
20
-47.1014
11
71.728
21
-47.277
0
LINE
8
BLACK
6
CONTINUOUS
10
71.728
20
-47.277
11
72.0208
21
-47.4866
0
LINE
8
BLACK
6
CONTINUOUS
10
72.0208
20
-47.4866
11
72.2884
21
-47.7276
0
LINE
8
BLACK
6
CONTINUOUS
10
72.2884
20
-47.7276
11
72.5274
21
-47.9968
0
LINE
8
BLACK
6
CONTINUOUS
10
72.5274
20
-47.9968
11
72.735
21
-48.291
0
LINE
8
BLACK
6
CONTINUOUS
10
72.735
20
-48.291
11
72.9084
21
-48.6065
0
LINE
8
BLACK
6
CONTINUOUS
10
72.9084
20
-48.6065
11
73.0456
21
-48.9394
0
LINE
8
BLACK
6
CONTINUOUS
10
73.0456
20
-48.9394
11
73.1449
21
-49.2855
0
LINE
8
BLACK
6
CONTINUOUS
10
73.1449
20
-49.2855
11
73.2049
21
-49.6405
0
LINE
8
BLACK
6
CONTINUOUS
10
73.2049
20
-49.6405
11
73.2208
21
-49.925
0
LINE
8
BLACK
6
CONTINUOUS
10
73.2208
20
-49.925
11
74.925
21
-49.925
0
LINE
8
BLACK
6
CONTINUOUS
10
74.925
20
-49.925
11
74.925
21
-0.075
0
LINE
8
BLACK
6
CONTINUOUS
10
74.925
20
-0.075
11
40.075
21
-0.075
0
LINE
8
BLACK
6
CONTINUOUS
10
52.1258
20
-46.4397
11
51.7557
21
-46.4983
0
LINE
8
BLACK
6
CONTINUOUS
10
51.7557
20
-46.4983
11
51.3937
21
-46.5953
0
LINE
8
BLACK
6
CONTINUOUS
10
51.3937
20
-46.5953
11
51.0439
21
-46.7296
0
LINE
8
BLACK
6
CONTINUOUS
10
51.0439
20
-46.7296
11
50.71
21
-46.8997
0
LINE
8
BLACK
6
CONTINUOUS
10
50.71
20
-46.8997
11
50.3958
21
-47.1038
0
LINE
8
BLACK
6
CONTINUOUS
10
50.3958
20
-47.1038
11
50.1046
21
-47.3396
0
LINE
8
BLACK
6
CONTINUOUS
10
50.1046
20
-47.3396
11
49.8396
21
-47.6046
0
LINE
8
BLACK
6
CONTINUOUS
10
49.8396
20
-47.6046
11
49.6038
21
-47.8958
0
LINE
8
BLACK
6
CONTINUOUS
10
49.6038
20
-47.8958
11
49.3997
21
-48.21
0
LINE
8
BLACK
6
CONTINUOUS
10
49.3997
20
-48.21
11
49.2296
21
-48.5439
0
LINE
8
BLACK
6
CONTINUOUS
10
49.2296
20
-48.5439
11
49.0953
21
-48.8937
0
LINE
8
BLACK
6
CONTINUOUS
10
49.0953
20
-48.8937
11
48.9983
21
-49.2557
0
LINE
8
BLACK
6
CONTINUOUS
10
48.9983
20
-49.2557
11
48.9397
21
-49.6258
0
LINE
8
BLACK
6
CONTINUOUS
10
48.9397
20
-49.6258
11
48.924
21
-49.925
0
LINE
8
BLACK
6
CONTINUOUS
10
48.924
20
-49.925
11
56.076
21
-49.925
0
LINE
8
BLACK
6
CONTINUOUS
10
56.076
20
-49.925
11
56.0603
21
-49.6258
0
LINE
8
BLACK
6
CONTINUOUS
10
56.0603
20
-49.6258
11
56.0017
21
-49.2557
0
LINE
8
BLACK
6
CONTINUOUS
10
56.0017
20
-49.2557
11
55.9047
21
-48.8937
0
LINE
8
BLACK
6
CONTINUOUS
10
55.9047
20
-48.8937
11
55.7704
21
-48.5439
0
LINE
8
BLACK
6
CONTINUOUS
10
55.7704
20
-48.5439
11
55.6003
21
-48.21
0
LINE
8
BLACK
6
CONTINUOUS
10
55.6003
20
-48.21
11
55.3962
21
-47.8958
0
LINE
8
BLACK
6
CONTINUOUS
10
55.3962
20
-47.8958
11
55.1604
21
-47.6046
0
LINE
8
BLACK
6
CONTINUOUS
10
55.1604
20
-47.6046
11
54.8954
21
-47.3396
0
LINE
8
BLACK
6
CONTINUOUS
10
54.8954
20
-47.3396
11
54.6042
21
-47.1038
0
LINE
8
BLACK
6
CONTINUOUS
10
54.6042
20
-47.1038
11
54.29
21
-46.8997
0
LINE
8
BLACK
6
CONTINUOUS
10
54.29
20
-46.8997
11
53.9561
21
-46.7296
0
LINE
8
BLACK
6
CONTINUOUS
10
53.9561
20
-46.7296
11
53.6063
21
-46.5953
0
LINE
8
BLACK
6
CONTINUOUS
10
53.6063
20
-46.5953
11
53.2443
21
-46.4983
0
LINE
8
BLACK
6
CONTINUOUS
10
53.2443
20
-46.4983
11
52.8742
21
-46.4397
0
LINE
8
BLACK
6
CONTINUOUS
10
52.8742
20
-46.4397
11
52.5
21
-46.4201
0
LINE
8
BLACK
6
CONTINUOUS
10
52.5
20
-46.4201
11
52.1258
21
-46.4397
0
LINE
8
BLACK
6
CONTINUOUS
10
69.6781
20
-46.937
11
69.3386
21
-46.992
0
LINE
8
BLACK
6
CONTINUOUS
10
69.3386
20
-46.992
11
69.0075
21
-47.0845
0
LINE
8
BLACK
6
CONTINUOUS
10
69.0075
20
-47.0845
11
68.6887
21
-47.2133
0
LINE
8
BLACK
6
CONTINUOUS
10
68.6887
20
-47.2133
11
68.3862
21
-47.3768
0
LINE
8
BLACK
6
CONTINUOUS
10
68.3862
20
-47.3768
11
68.1039
21
-47.573
0
LINE
8
BLACK
6
CONTINUOUS
10
68.1039
20
-47.573
11
67.8451
21
-47.7995
0
LINE
8
BLACK
6
CONTINUOUS
10
67.8451
20
-47.7995
11
67.6133
21
-48.0534
0
LINE
8
BLACK
6
CONTINUOUS
10
67.6133
20
-48.0534
11
67.4112
21
-48.3316
0
LINE
8
BLACK
6
CONTINUOUS
10
67.4112
20
-48.3316
11
67.2413
21
-48.6306
0
LINE
8
BLACK
6
CONTINUOUS
10
67.2413
20
-48.6306
11
67.1059
21
-48.9466
0
LINE
8
BLACK
6
CONTINUOUS
10
67.1059
20
-48.9466
11
67.0065
21
-49.2758
0
LINE
8
BLACK
6
CONTINUOUS
10
67.0065
20
-49.2758
11
66.9444
21
-49.614
0
LINE
8
BLACK
6
CONTINUOUS
10
66.9444
20
-49.614
11
66.9227
21
-49.925
0
LINE
8
BLACK
6
CONTINUOUS
10
66.9227
20
-49.925
11
73.0757
21
-49.925
0
LINE
8
BLACK
6
CONTINUOUS
10
73.0757
20
-49.925
11
73.0607
21
-49.6567
0
LINE
8
BLACK
6
CONTINUOUS
10
73.0607
20
-49.6567
11
73.0033
21
-49.3177
0
LINE
8
BLACK
6
CONTINUOUS
10
73.0033
20
-49.3177
11
72.9085
21
-48.9871
0
LINE
8
BLACK
6
CONTINUOUS
10
72.9085
20
-48.9871
11
72.7775
21
-48.6692
0
LINE
8
BLACK
6
CONTINUOUS
10
72.7775
20
-48.6692
11
72.6119
21
-48.3679
0
LINE
8
BLACK
6
CONTINUOUS
10
72.6119
20
-48.3679
11
72.4137
21
-48.087
0
LINE
8
BLACK
6
CONTINUOUS
10
72.4137
20
-48.087
11
72.1854
21
-47.8298
0
LINE
8
BLACK
6
CONTINUOUS
10
72.1854
20
-47.8298
11
71.9298
21
-47.5998
0
LINE
8
BLACK
6
CONTINUOUS
10
71.9298
20
-47.5998
11
71.6503
21
-47.3996
0
LINE
8
BLACK
6
CONTINUOUS
10
71.6503
20
-47.3996
11
71.3501
21
-47.2319
0
LINE
8
BLACK
6
CONTINUOUS
10
71.3501
20
-47.2319
11
71.0331
21
-47.0986
0
LINE
8
BLACK
6
CONTINUOUS
10
71.0331
20
-47.0986
11
70.7033
21
-47.0015
0
LINE
8
BLACK
6
CONTINUOUS
10
70.7033
20
-47.0015
11
70.3647
21
-46.9418
0
LINE
8
BLACK
6
CONTINUOUS
10
70.3647
20
-46.9418
11
70.0215
21
-46.9202
0
LINE
8
BLACK
6
CONTINUOUS
10
70.0215
20
-46.9202
11
69.6781
21
-46.937
0
LINE
8
BLACK
6
CONTINUOUS
10
40.075
20
-9.5743
11
40.2791
21
-9.56717
0
LINE
8
BLACK
6
CONTINUOUS
10
40.2791
20
-9.56717
11
40.6193
21
-9.51694
0
LINE
8
BLACK
6
CONTINUOUS
10
40.6193
20
-9.51694
11
40.9517
21
-9.42911
0
LINE
8
BLACK
6
CONTINUOUS
10
40.9517
20
-9.42911
11
41.2723
21
-9.30476
0
LINE
8
BLACK
6
CONTINUOUS
10
41.2723
20
-9.30476
11
41.577
21
-9.14546
0
LINE
8
BLACK
6
CONTINUOUS
10
41.577
20
-9.14546
11
41.8621
21
-8.95319
0
LINE
8
BLACK
6
CONTINUOUS
10
41.8621
20
-8.95319
11
42.1239
21
-8.73034
0
LINE
8
BLACK
6
CONTINUOUS
10
42.1239
20
-8.73034
11
42.3593
21
-8.47969
0
LINE
8
BLACK
6
CONTINUOUS
10
42.3593
20
-8.47969
11
42.5653
21
-8.20436
0
LINE
8
BLACK
6
CONTINUOUS
10
42.5653
20
-8.20436
11
42.7393
21
-7.90779
0
LINE
8
BLACK
6
CONTINUOUS
10
42.7393
20
-7.90779
11
42.8791
21
-7.59367
0
LINE
8
BLACK
6
CONTINUOUS
10
42.8791
20
-7.59367
11
42.9831
21
-7.26593
0
LINE
8
BLACK
6
CONTINUOUS
10
42.9831
20
-7.26593
11
43.0499
21
-6.92863
0
LINE
8
BLACK
6
CONTINUOUS
10
43.0499
20
-6.92863
11
43.0786
21
-6.58599
0
LINE
8
BLACK
6
CONTINUOUS
10
43.0786
20
-6.58599
11
43.0798
21
-6.5
0
LINE
8
BLACK
6
CONTINUOUS
10
43.0798
20
-6.5
11
43.0607
21
-6.15669
0
LINE
8
BLACK
6
CONTINUOUS
10
43.0607
20
-6.15669
11
43.0033
21
-5.81766
0
LINE
8
BLACK
6
CONTINUOUS
10
43.0033
20
-5.81766
11
42.9085
21
-5.48714
0
LINE
8
BLACK
6
CONTINUOUS
10
42.9085
20
-5.48714
11
42.7775
21
-5.16924
0
LINE
8
BLACK
6
CONTINUOUS
10
42.7775
20
-5.16924
11
42.6119
21
-4.86793
0
LINE
8
BLACK
6
CONTINUOUS
10
42.6119
20
-4.86793
11
42.4137
21
-4.58696
0
LINE
8
BLACK
6
CONTINUOUS
10
42.4137
20
-4.58696
11
42.1854
21
-4.32984
0
LINE
8
BLACK
6
CONTINUOUS
10
42.1854
20
-4.32984
11
41.9298
21
-4.09976
0
LINE
8
BLACK
6
CONTINUOUS
10
41.9298
20
-4.09976
11
41.6503
21
-3.8996
0
LINE
8
BLACK
6
CONTINUOUS
10
41.6503
20
-3.8996
11
41.3501
21
-3.73185
0
LINE
8
BLACK
6
CONTINUOUS
10
41.3501
20
-3.73185
11
41.0331
21
-3.59861
0
LINE
8
BLACK
6
CONTINUOUS
10
41.0331
20
-3.59861
11
40.7033
21
-3.50153
0
LINE
8
BLACK
6
CONTINUOUS
10
40.7033
20
-3.50153
11
40.3647
21
-3.44182
0
LINE
8
BLACK
6
CONTINUOUS
10
40.3647
20
-3.44182
11
40.075
21
-3.4236
0
LINE
8
BLACK
6
CONTINUOUS
10
40.075
20
-3.4236
11
40.075
21
-9.5743
0
LINE
8
BLACK
6
CONTINUOUS
10
36.8004
20
-93.0958
11
36.8654
21
-92.7417
0
LINE
8
BLACK
6
CONTINUOUS
10
36.8654
20
-92.7417
11
36.9695
21
-92.397
0
LINE
8
BLACK
6
CONTINUOUS
10
36.9695
20
-92.397
11
37.1113
21
-92.0661
0
LINE
8
BLACK
6
CONTINUOUS
10
37.1113
20
-92.0661
11
37.2892
21
-91.753
0
LINE
8
BLACK
6
CONTINUOUS
10
37.2892
20
-91.753
11
37.5008
21
-91.4617
0
LINE
8
BLACK
6
CONTINUOUS
10
37.5008
20
-91.4617
11
37.7436
21
-91.1958
0
LINE
8
BLACK
6
CONTINUOUS
10
37.7436
20
-91.1958
11
38.0145
21
-90.9587
0
LINE
8
BLACK
6
CONTINUOUS
10
38.0145
20
-90.9587
11
38.3101
21
-90.7532
0
LINE
8
BLACK
6
CONTINUOUS
10
38.3101
20
-90.7532
11
38.6269
21
-90.5819
0
LINE
8
BLACK
6
CONTINUOUS
10
38.6269
20
-90.5819
11
38.9607
21
-90.4471
0
LINE
8
BLACK
6
CONTINUOUS
10
38.9607
20
-90.4471
11
39.3075
21
-90.3502
0
LINE
8
BLACK
6
CONTINUOUS
10
39.3075
20
-90.3502
11
39.6629
21
-90.2927
0
LINE
8
BLACK
6
CONTINUOUS
10
39.6629
20
-90.2927
11
39.925
21
-90.2798
0
LINE
8
BLACK
6
CONTINUOUS
10
39.925
20
-90.2798
11
39.925
21
-50.075
0
LINE
8
BLACK
6
CONTINUOUS
10
39.925
20
-50.075
11
31.2221
21
-50.075
0
LINE
8
BLACK
6
CONTINUOUS
10
31.2221
20
-50.075
11
31.2032
21
-50.4023
0
LINE
8
BLACK
6
CONTINUOUS
10
31.2032
20
-50.4023
11
31.1436
21
-50.7745
0
LINE
8
BLACK
6
CONTINUOUS
10
31.1436
20
-50.7745
11
31.0467
21
-51.1387
0
LINE
8
BLACK
6
CONTINUOUS
10
31.0467
20
-51.1387
11
30.9135
21
-51.4913
0
LINE
8
BLACK
6
CONTINUOUS
10
30.9135
20
-51.4913
11
30.7453
21
-51.8286
0
LINE
8
BLACK
6
CONTINUOUS
10
30.7453
20
-51.8286
11
30.5439
21
-52.1472
0
LINE
8
BLACK
6
CONTINUOUS
10
30.5439
20
-52.1472
11
30.3113
21
-52.4438
0
LINE
8
BLACK
6
CONTINUOUS
10
30.3113
20
-52.4438
11
30.0499
21
-52.7154
0
LINE
8
BLACK
6
CONTINUOUS
10
30.0499
20
-52.7154
11
29.7625
21
-52.9592
0
LINE
8
BLACK
6
CONTINUOUS
10
29.7625
20
-52.9592
11
29.4518
21
-53.1727
0
LINE
8
BLACK
6
CONTINUOUS
10
29.4518
20
-53.1727
11
29.1212
21
-53.3537
0
LINE
8
BLACK
6
CONTINUOUS
10
29.1212
20
-53.3537
11
28.774
21
-53.5004
0
LINE
8
BLACK
6
CONTINUOUS
10
28.774
20
-53.5004
11
28.4138
21
-53.6112
0
LINE
8
BLACK
6
CONTINUOUS
10
28.4138
20
-53.6112
11
28.0442
21
-53.685
0
LINE
8
BLACK
6
CONTINUOUS
10
28.0442
20
-53.685
11
27.669
21
-53.7212
0
LINE
8
BLACK
6
CONTINUOUS
10
27.669
20
-53.7212
11
27.2921
21
-53.7192
0
LINE
8
BLACK
6
CONTINUOUS
10
27.2921
20
-53.7192
11
26.9173
21
-53.6791
0
LINE
8
BLACK
6
CONTINUOUS
10
26.9173
20
-53.6791
11
26.5485
21
-53.6014
0
LINE
8
BLACK
6
CONTINUOUS
10
26.5485
20
-53.6014
11
26.1894
21
-53.4868
0
LINE
8
BLACK
6
CONTINUOUS
10
26.1894
20
-53.4868
11
25.8437
21
-53.3365
0
LINE
8
BLACK
6
CONTINUOUS
10
25.8437
20
-53.3365
11
25.515
21
-53.1521
0
LINE
8
BLACK
6
CONTINUOUS
10
25.515
20
-53.1521
11
25.2067
21
-52.9353
0
LINE
8
BLACK
6
CONTINUOUS
10
25.2067
20
-52.9353
11
24.9218
21
-52.6886
0
LINE
8
BLACK
6
CONTINUOUS
10
24.9218
20
-52.6886
11
24.6633
21
-52.4142
0
LINE
8
BLACK
6
CONTINUOUS
10
24.6633
20
-52.4142
11
24.4338
21
-52.1152
0
LINE
8
BLACK
6
CONTINUOUS
10
24.4338
20
-52.1152
11
24.2358
21
-51.7945
0
LINE
8
BLACK
6
CONTINUOUS
10
24.2358
20
-51.7945
11
24.0711
21
-51.4555
0
LINE
8
BLACK
6
CONTINUOUS
10
24.0711
20
-51.4555
11
23.9416
21
-51.1015
0
LINE
8
BLACK
6
CONTINUOUS
10
23.9416
20
-51.1015
11
23.8485
21
-50.7363
0
LINE
8
BLACK
6
CONTINUOUS
10
23.8485
20
-50.7363
11
23.7928
21
-50.3635
0
LINE
8
BLACK
6
CONTINUOUS
10
23.7928
20
-50.3635
11
23.7792
21
-50.075
0
LINE
8
BLACK
6
CONTINUOUS
10
23.7792
20
-50.075
11
13.224
21
-50.075
0
LINE
8
BLACK
6
CONTINUOUS
10
13.224
20
-50.075
11
13.2237
21
-50.09
0
LINE
8
BLACK
6
CONTINUOUS
10
13.2237
20
-50.09
11
13.1936
21
-50.4488
0
LINE
8
BLACK
6
CONTINUOUS
10
13.1936
20
-50.4488
11
13.1237
21
-50.802
0
LINE
8
BLACK
6
CONTINUOUS
10
13.1237
20
-50.802
11
13.0148
21
-51.1452
0
LINE
8
BLACK
6
CONTINUOUS
10
13.0148
20
-51.1452
11
12.8684
21
-51.4741
0
LINE
8
BLACK
6
CONTINUOUS
10
12.8684
20
-51.4741
11
12.6862
21
-51.7847
0
LINE
8
BLACK
6
CONTINUOUS
10
12.6862
20
-51.7847
11
12.4705
21
-52.073
0
LINE
8
BLACK
6
CONTINUOUS
10
12.4705
20
-52.073
11
12.224
21
-52.3355
0
LINE
8
BLACK
6
CONTINUOUS
10
12.224
20
-52.3355
11
11.9498
21
-52.5688
0
LINE
8
BLACK
6
CONTINUOUS
10
11.9498
20
-52.5688
11
11.6513
21
-52.7701
0
LINE
8
BLACK
6
CONTINUOUS
10
11.6513
20
-52.7701
11
11.3323
21
-52.937
0
LINE
8
BLACK
6
CONTINUOUS
10
11.3323
20
-52.937
11
10.9966
21
-53.0672
0
LINE
8
BLACK
6
CONTINUOUS
10
10.9966
20
-53.0672
11
10.6485
21
-53.1591
0
LINE
8
BLACK
6
CONTINUOUS
10
10.6485
20
-53.1591
11
10.2923
21
-53.2117
0
LINE
8
BLACK
6
CONTINUOUS
10
10.2923
20
-53.2117
11
9.93246
21
-53.2243
0
LINE
8
BLACK
6
CONTINUOUS
10
9.93246
20
-53.2243
11
9.57347
21
-53.1967
0
LINE
8
BLACK
6
CONTINUOUS
10
9.57347
20
-53.1967
11
9.2198
21
-53.1292
0
LINE
8
BLACK
6
CONTINUOUS
10
9.2198
20
-53.1292
11
8.87585
21
-53.0227
0
LINE
8
BLACK
6
CONTINUOUS
10
8.87585
20
-53.0227
11
8.54592
21
-52.8786
0
LINE
8
BLACK
6
CONTINUOUS
10
8.54592
20
-52.8786
11
8.23411
21
-52.6986
0
LINE
8
BLACK
6
CONTINUOUS
10
8.23411
20
-52.6986
11
7.94431
21
-52.4849
0
LINE
8
BLACK
6
CONTINUOUS
10
7.94431
20
-52.4849
11
7.68013
21
-52.2403
0
LINE
8
BLACK
6
CONTINUOUS
10
7.68013
20
-52.2403
11
7.44487
21
-51.9677
0
LINE
8
BLACK
6
CONTINUOUS
10
7.44487
20
-51.9677
11
7.24145
21
-51.6706
0
LINE
8
BLACK
6
CONTINUOUS
10
7.24145
20
-51.6706
11
7.07242
21
-51.3527
0
LINE
8
BLACK
6
CONTINUOUS
10
7.07242
20
-51.3527
11
6.93987
21
-51.018
0
LINE
8
BLACK
6
CONTINUOUS
10
6.93987
20
-51.018
11
6.84547
21
-50.6705
0
LINE
8
BLACK
6
CONTINUOUS
10
6.84547
20
-50.6705
11
6.79039
21
-50.3147
0
LINE
8
BLACK
6
CONTINUOUS
10
6.79039
20
-50.3147
11
6.78034
21
-50.075
0
LINE
8
BLACK
6
CONTINUOUS
10
6.78034
20
-50.075
11
5.075
21
-50.075
0
LINE
8
BLACK
6
CONTINUOUS
10
5.075
20
-50.075
11
5.075
21
-99.925
0
LINE
8
BLACK
6
CONTINUOUS
10
5.075
20
-99.925
11
39.925
21
-99.925
0
LINE
8
BLACK
6
CONTINUOUS
10
39.925
20
-99.925
11
39.925
21
-96.7237
0
LINE
8
BLACK
6
CONTINUOUS
10
39.925
20
-96.7237
11
39.5735
21
-96.6967
0
LINE
8
BLACK
6
CONTINUOUS
10
39.5735
20
-96.6967
11
39.2198
21
-96.6292
0
LINE
8
BLACK
6
CONTINUOUS
10
39.2198
20
-96.6292
11
38.8759
21
-96.5227
0
LINE
8
BLACK
6
CONTINUOUS
10
38.8759
20
-96.5227
11
38.5459
21
-96.3786
0
LINE
8
BLACK
6
CONTINUOUS
10
38.5459
20
-96.3786
11
38.2341
21
-96.1986
0
LINE
8
BLACK
6
CONTINUOUS
10
38.2341
20
-96.1986
11
37.9443
21
-95.9849
0
LINE
8
BLACK
6
CONTINUOUS
10
37.9443
20
-95.9849
11
37.6801
21
-95.7403
0
LINE
8
BLACK
6
CONTINUOUS
10
37.6801
20
-95.7403
11
37.4449
21
-95.4677
0
LINE
8
BLACK
6
CONTINUOUS
10
37.4449
20
-95.4677
11
37.2415
21
-95.1706
0
LINE
8
BLACK
6
CONTINUOUS
10
37.2415
20
-95.1706
11
37.0724
21
-94.8527
0
LINE
8
BLACK
6
CONTINUOUS
10
37.0724
20
-94.8527
11
36.9399
21
-94.518
0
LINE
8
BLACK
6
CONTINUOUS
10
36.9399
20
-94.518
11
36.8455
21
-94.1705
0
LINE
8
BLACK
6
CONTINUOUS
10
36.8455
20
-94.1705
11
36.7904
21
-93.8147
0
LINE
8
BLACK
6
CONTINUOUS
10
36.7904
20
-93.8147
11
36.7754
21
-93.457
0
LINE
8
BLACK
6
CONTINUOUS
10
36.7754
20
-93.457
11
36.7753
21
-93.455
0
LINE
8
BLACK
6
CONTINUOUS
10
36.7753
20
-93.455
11
36.8004
21
-93.0958
0
LINE
8
BLACK
6
CONTINUOUS
10
36.8004
20
-6.0958
11
36.8654
21
-5.74167
0
LINE
8
BLACK
6
CONTINUOUS
10
36.8654
20
-5.74167
11
36.9695
21
-5.39698
0
LINE
8
BLACK
6
CONTINUOUS
10
36.9695
20
-5.39698
11
37.1113
21
-5.06605
0
LINE
8
BLACK
6
CONTINUOUS
10
37.1113
20
-5.06605
11
37.2892
21
-4.75299
0
LINE
8
BLACK
6
CONTINUOUS
10
37.2892
20
-4.75299
11
37.5008
21
-4.4617
0
LINE
8
BLACK
6
CONTINUOUS
10
37.5008
20
-4.4617
11
37.7436
21
-4.19583
0
LINE
8
BLACK
6
CONTINUOUS
10
37.7436
20
-4.19583
11
38.0145
21
-3.95866
0
LINE
8
BLACK
6
CONTINUOUS
10
38.0145
20
-3.95866
11
38.3101
21
-3.75318
0
LINE
8
BLACK
6
CONTINUOUS
10
38.3101
20
-3.75318
11
38.6269
21
-3.58193
0
LINE
8
BLACK
6
CONTINUOUS
10
38.6269
20
-3.58193
11
38.9607
21
-3.44706
0
LINE
8
BLACK
6
CONTINUOUS
10
38.9607
20
-3.44706
11
39.3075
21
-3.35023
0
LINE
8
BLACK
6
CONTINUOUS
10
39.3075
20
-3.35023
11
39.6629
21
-3.29267
0
LINE
8
BLACK
6
CONTINUOUS
10
39.6629
20
-3.29267
11
39.925
21
-3.27985
0
LINE
8
BLACK
6
CONTINUOUS
10
39.925
20
-3.27985
11
39.925
21
-0.075
0
LINE
8
BLACK
6
CONTINUOUS
10
39.925
20
-0.075
11
5.075
21
-0.075
0
LINE
8
BLACK
6
CONTINUOUS
10
5.075
20
-0.075
11
5.075
21
-49.925
0
LINE
8
BLACK
6
CONTINUOUS
10
5.075
20
-49.925
11
6.77741
21
-49.925
0
LINE
8
BLACK
6
CONTINUOUS
10
6.77741
20
-49.925
11
6.80043
21
-49.5958
0
LINE
8
BLACK
6
CONTINUOUS
10
6.80043
20
-49.5958
11
6.86543
21
-49.2417
0
LINE
8
BLACK
6
CONTINUOUS
10
6.86543
20
-49.2417
11
6.96949
21
-48.897
0
LINE
8
BLACK
6
CONTINUOUS
10
6.96949
20
-48.897
11
7.11133
21
-48.5661
0
LINE
8
BLACK
6
CONTINUOUS
10
7.11133
20
-48.5661
11
7.28917
21
-48.253
0
LINE
8
BLACK
6
CONTINUOUS
10
7.28917
20
-48.253
11
7.5008
21
-47.9617
0
LINE
8
BLACK
6
CONTINUOUS
10
7.5008
20
-47.9617
11
7.74359
21
-47.6958
0
LINE
8
BLACK
6
CONTINUOUS
10
7.74359
20
-47.6958
11
8.01449
21
-47.4587
0
LINE
8
BLACK
6
CONTINUOUS
10
8.01449
20
-47.4587
11
8.31015
21
-47.2532
0
LINE
8
BLACK
6
CONTINUOUS
10
8.31015
20
-47.2532
11
8.62686
21
-47.0819
0
LINE
8
BLACK
6
CONTINUOUS
10
8.62686
20
-47.0819
11
8.96069
21
-46.9471
0
LINE
8
BLACK
6
CONTINUOUS
10
8.96069
20
-46.9471
11
9.30748
21
-46.8502
0
LINE
8
BLACK
6
CONTINUOUS
10
9.30748
20
-46.8502
11
9.6629
21
-46.7927
0
LINE
8
BLACK
6
CONTINUOUS
10
9.6629
20
-46.7927
11
10.0225
21
-46.7751
0
LINE
8
BLACK
6
CONTINUOUS
10
10.0225
20
-46.7751
11
10.3819
21
-46.7977
0
LINE
8
BLACK
6
CONTINUOUS
10
10.3819
20
-46.7977
11
10.7364
21
-46.8602
0
LINE
8
BLACK
6
CONTINUOUS
10
10.7364
20
-46.8602
11
11.0818
21
-46.9619
0
LINE
8
BLACK
6
CONTINUOUS
10
11.0818
20
-46.9619
11
11.4137
21
-47.1014
0
LINE
8
BLACK
6
CONTINUOUS
10
11.4137
20
-47.1014
11
11.728
21
-47.277
0
LINE
8
BLACK
6
CONTINUOUS
10
11.728
20
-47.277
11
12.0208
21
-47.4866
0
LINE
8
BLACK
6
CONTINUOUS
10
12.0208
20
-47.4866
11
12.2884
21
-47.7276
0
LINE
8
BLACK
6
CONTINUOUS
10
12.2884
20
-47.7276
11
12.5274
21
-47.9968
0
LINE
8
BLACK
6
CONTINUOUS
10
12.5274
20
-47.9968
11
12.735
21
-48.291
0
LINE
8
BLACK
6
CONTINUOUS
10
12.735
20
-48.291
11
12.9084
21
-48.6065
0
LINE
8
BLACK
6
CONTINUOUS
10
12.9084
20
-48.6065
11
13.0456
21
-48.9394
0
LINE
8
BLACK
6
CONTINUOUS
10
13.0456
20
-48.9394
11
13.1449
21
-49.2855
0
LINE
8
BLACK
6
CONTINUOUS
10
13.1449
20
-49.2855
11
13.2049
21
-49.6405
0
LINE
8
BLACK
6
CONTINUOUS
10
13.2049
20
-49.6405
11
13.2208
21
-49.925
0
LINE
8
BLACK
6
CONTINUOUS
10
13.2208
20
-49.925
11
23.7784
21
-49.925
0
LINE
8
BLACK
6
CONTINUOUS
10
23.7784
20
-49.925
11
23.7954
21
-49.6106
0
LINE
8
BLACK
6
CONTINUOUS
10
23.7954
20
-49.6106
11
23.8537
21
-49.2383
0
LINE
8
BLACK
6
CONTINUOUS
10
23.8537
20
-49.2383
11
23.9494
21
-48.8737
0
LINE
8
BLACK
6
CONTINUOUS
10
23.9494
20
-48.8737
11
24.0814
21
-48.5206
0
LINE
8
BLACK
6
CONTINUOUS
10
24.0814
20
-48.5206
11
24.2484
21
-48.1827
0
LINE
8
BLACK
6
CONTINUOUS
10
24.2484
20
-48.1827
11
24.4487
21
-47.8634
0
LINE
8
BLACK
6
CONTINUOUS
10
24.4487
20
-47.8634
11
24.6802
21
-47.566
0
LINE
8
BLACK
6
CONTINUOUS
10
24.6802
20
-47.566
11
24.9406
21
-47.2935
0
LINE
8
BLACK
6
CONTINUOUS
10
24.9406
20
-47.2935
11
25.2272
21
-47.0487
0
LINE
8
BLACK
6
CONTINUOUS
10
25.2272
20
-47.0487
11
25.5371
21
-46.8342
0
LINE
8
BLACK
6
CONTINUOUS
10
25.5371
20
-46.8342
11
25.8671
21
-46.652
0
LINE
8
BLACK
6
CONTINUOUS
10
25.8671
20
-46.652
11
26.2138
21
-46.5041
0
LINE
8
BLACK
6
CONTINUOUS
10
26.2138
20
-46.5041
11
26.5736
21
-46.392
0
LINE
8
BLACK
6
CONTINUOUS
10
26.5736
20
-46.392
11
26.943
21
-46.3169
0
LINE
8
BLACK
6
CONTINUOUS
10
26.943
20
-46.3169
11
27.318
21
-46.2794
0
LINE
8
BLACK
6
CONTINUOUS
10
27.318
20
-46.2794
11
27.695
21
-46.2801
0
LINE
8
BLACK
6
CONTINUOUS
10
27.695
20
-46.2801
11
28.0699
21
-46.3188
0
LINE
8
BLACK
6
CONTINUOUS
10
28.0699
20
-46.3188
11
28.439
21
-46.3953
0
LINE
8
BLACK
6
CONTINUOUS
10
28.439
20
-46.3953
11
28.7984
21
-46.5086
0
LINE
8
BLACK
6
CONTINUOUS
10
28.7984
20
-46.5086
11
29.1446
21
-46.6577
0
LINE
8
BLACK
6
CONTINUOUS
10
29.1446
20
-46.6577
11
29.4739
21
-46.841
0
LINE
8
BLACK
6
CONTINUOUS
10
29.4739
20
-46.841
11
29.7831
21
-47.0567
0
LINE
8
BLACK
6
CONTINUOUS
10
29.7831
20
-47.0567
11
30.0688
21
-47.3025
0
LINE
8
BLACK
6
CONTINUOUS
10
30.0688
20
-47.3025
11
30.3283
21
-47.5759
0
LINE
8
BLACK
6
CONTINUOUS
10
30.3283
20
-47.5759
11
30.5588
21
-47.8741
0
LINE
8
BLACK
6
CONTINUOUS
10
30.5588
20
-47.8741
11
30.758
21
-48.1941
0
LINE
8
BLACK
6
CONTINUOUS
10
30.758
20
-48.1941
11
30.9238
21
-48.5326
0
LINE
8
BLACK
6
CONTINUOUS
10
30.9238
20
-48.5326
11
31.0545
21
-48.8861
0
LINE
8
BLACK
6
CONTINUOUS
10
31.0545
20
-48.8861
11
31.1489
21
-49.251
0
LINE
8
BLACK
6
CONTINUOUS
10
31.1489
20
-49.251
11
31.2059
21
-49.6236
0
LINE
8
BLACK
6
CONTINUOUS
10
31.2059
20
-49.6236
11
31.2212
21
-49.925
0
LINE
8
BLACK
6
CONTINUOUS
10
31.2212
20
-49.925
11
39.925
21
-49.925
0
LINE
8
BLACK
6
CONTINUOUS
10
39.925
20
-49.925
11
39.925
21
-9.72372
0
LINE
8
BLACK
6
CONTINUOUS
10
39.925
20
-9.72372
11
39.5735
21
-9.69667
0
LINE
8
BLACK
6
CONTINUOUS
10
39.5735
20
-9.69667
11
39.2198
21
-9.6292
0
LINE
8
BLACK
6
CONTINUOUS
10
39.2198
20
-9.6292
11
38.8759
21
-9.52273
0
LINE
8
BLACK
6
CONTINUOUS
10
38.8759
20
-9.52273
11
38.5459
21
-9.37859
0
LINE
8
BLACK
6
CONTINUOUS
10
38.5459
20
-9.37859
11
38.2341
21
-9.19857
0
LINE
8
BLACK
6
CONTINUOUS
10
38.2341
20
-9.19857
11
37.9443
21
-8.9849
0
LINE
8
BLACK
6
CONTINUOUS
10
37.9443
20
-8.9849
11
37.6801
21
-8.74027
0
LINE
8
BLACK
6
CONTINUOUS
10
37.6801
20
-8.74027
11
37.4449
21
-8.46772
0
LINE
8
BLACK
6
CONTINUOUS
10
37.4449
20
-8.46772
11
37.2415
21
-8.17064
0
LINE
8
BLACK
6
CONTINUOUS
10
37.2415
20
-8.17064
11
37.0724
21
-7.85273
0
LINE
8
BLACK
6
CONTINUOUS
10
37.0724
20
-7.85273
11
36.9399
21
-7.51797
0
LINE
8
BLACK
6
CONTINUOUS
10
36.9399
20
-7.51797
11
36.8455
21
-7.17051
0
LINE
8
BLACK
6
CONTINUOUS
10
36.8455
20
-7.17051
11
36.7904
21
-6.81471
0
LINE
8
BLACK
6
CONTINUOUS
10
36.7904
20
-6.81471
11
36.7754
21
-6.457
0
LINE
8
BLACK
6
CONTINUOUS
10
36.7754
20
-6.457
11
36.7753
21
-6.45497
0
LINE
8
BLACK
6
CONTINUOUS
10
36.7753
20
-6.45497
11
36.8004
21
-6.0958
0
LINE
8
BLACK
6
CONTINUOUS
10
49.3004
20
-93.0958
11
49.3654
21
-92.7417
0
LINE
8
BLACK
6
CONTINUOUS
10
49.3654
20
-92.7417
11
49.4695
21
-92.397
0
LINE
8
BLACK
6
CONTINUOUS
10
49.4695
20
-92.397
11
49.6113
21
-92.0661
0
LINE
8
BLACK
6
CONTINUOUS
10
49.6113
20
-92.0661
11
49.7892
21
-91.753
0
LINE
8
BLACK
6
CONTINUOUS
10
49.7892
20
-91.753
11
50.0008
21
-91.4617
0
LINE
8
BLACK
6
CONTINUOUS
10
50.0008
20
-91.4617
11
50.2436
21
-91.1958
0
LINE
8
BLACK
6
CONTINUOUS
10
50.2436
20
-91.1958
11
50.5145
21
-90.9587
0
LINE
8
BLACK
6
CONTINUOUS
10
50.5145
20
-90.9587
11
50.8101
21
-90.7532
0
LINE
8
BLACK
6
CONTINUOUS
10
50.8101
20
-90.7532
11
51.1269
21
-90.5819
0
LINE
8
BLACK
6
CONTINUOUS
10
51.1269
20
-90.5819
11
51.4607
21
-90.4471
0
LINE
8
BLACK
6
CONTINUOUS
10
51.4607
20
-90.4471
11
51.8075
21
-90.3502
0
LINE
8
BLACK
6
CONTINUOUS
10
51.8075
20
-90.3502
11
52.1629
21
-90.2927
0
LINE
8
BLACK
6
CONTINUOUS
10
52.1629
20
-90.2927
11
52.5225
21
-90.2751
0
LINE
8
BLACK
6
CONTINUOUS
10
52.5225
20
-90.2751
11
52.8819
21
-90.2977
0
LINE
8
BLACK
6
CONTINUOUS
10
52.8819
20
-90.2977
11
53.2364
21
-90.3602
0
LINE
8
BLACK
6
CONTINUOUS
10
53.2364
20
-90.3602
11
53.5818
21
-90.4619
0
LINE
8
BLACK
6
CONTINUOUS
10
53.5818
20
-90.4619
11
53.9137
21
-90.6014
0
LINE
8
BLACK
6
CONTINUOUS
10
53.9137
20
-90.6014
11
54.228
21
-90.777
0
LINE
8
BLACK
6
CONTINUOUS
10
54.228
20
-90.777
11
54.5208
21
-90.9866
0
LINE
8
BLACK
6
CONTINUOUS
10
54.5208
20
-90.9866
11
54.7884
21
-91.2276
0
LINE
8
BLACK
6
CONTINUOUS
10
54.7884
20
-91.2276
11
55.0274
21
-91.4968
0
LINE
8
BLACK
6
CONTINUOUS
10
55.0274
20
-91.4968
11
55.235
21
-91.791
0
LINE
8
BLACK
6
CONTINUOUS
10
55.235
20
-91.791
11
55.4084
21
-92.1065
0
LINE
8
BLACK
6
CONTINUOUS
10
55.4084
20
-92.1065
11
55.5456
21
-92.4394
0
LINE
8
BLACK
6
CONTINUOUS
10
55.5456
20
-92.4394
11
55.6449
21
-92.7855
0
LINE
8
BLACK
6
CONTINUOUS
10
55.6449
20
-92.7855
11
55.7049
21
-93.1405
0
LINE
8
BLACK
6
CONTINUOUS
10
55.7049
20
-93.1405
11
55.725
21
-93.5
0
LINE
8
BLACK
6
CONTINUOUS
10
55.725
20
-93.5
11
55.7237
21
-93.59
0
LINE
8
BLACK
6
CONTINUOUS
10
55.7237
20
-93.59
11
55.6936
21
-93.9488
0
LINE
8
BLACK
6
CONTINUOUS
10
55.6936
20
-93.9488
11
55.6237
21
-94.302
0
LINE
8
BLACK
6
CONTINUOUS
10
55.6237
20
-94.302
11
55.5148
21
-94.6452
0
LINE
8
BLACK
6
CONTINUOUS
10
55.5148
20
-94.6452
11
55.3684
21
-94.9741
0
LINE
8
BLACK
6
CONTINUOUS
10
55.3684
20
-94.9741
11
55.1862
21
-95.2847
0
LINE
8
BLACK
6
CONTINUOUS
10
55.1862
20
-95.2847
11
54.9705
21
-95.573
0
LINE
8
BLACK
6
CONTINUOUS
10
54.9705
20
-95.573
11
54.724
21
-95.8355
0
LINE
8
BLACK
6
CONTINUOUS
10
54.724
20
-95.8355
11
54.4498
21
-96.0688
0
LINE
8
BLACK
6
CONTINUOUS
10
54.4498
20
-96.0688
11
54.1513
21
-96.2701
0
LINE
8
BLACK
6
CONTINUOUS
10
54.1513
20
-96.2701
11
53.8323
21
-96.437
0
LINE
8
BLACK
6
CONTINUOUS
10
53.8323
20
-96.437
11
53.4966
21
-96.5672
0
LINE
8
BLACK
6
CONTINUOUS
10
53.4966
20
-96.5672
11
53.1485
21
-96.6591
0
LINE
8
BLACK
6
CONTINUOUS
10
53.1485
20
-96.6591
11
52.7923
21
-96.7117
0
LINE
8
BLACK
6
CONTINUOUS
10
52.7923
20
-96.7117
11
52.4325
21
-96.7243
0
LINE
8
BLACK
6
CONTINUOUS
10
52.4325
20
-96.7243
11
52.0735
21
-96.6967
0
LINE
8
BLACK
6
CONTINUOUS
10
52.0735
20
-96.6967
11
51.7198
21
-96.6292
0
LINE
8
BLACK
6
CONTINUOUS
10
51.7198
20
-96.6292
11
51.3759
21
-96.5227
0
LINE
8
BLACK
6
CONTINUOUS
10
51.3759
20
-96.5227
11
51.0459
21
-96.3786
0
LINE
8
BLACK
6
CONTINUOUS
10
51.0459
20
-96.3786
11
50.7341
21
-96.1986
0
LINE
8
BLACK
6
CONTINUOUS
10
50.7341
20
-96.1986
11
50.4443
21
-95.9849
0
LINE
8
BLACK
6
CONTINUOUS
10
50.4443
20
-95.9849
11
50.1801
21
-95.7403
0
LINE
8
BLACK
6
CONTINUOUS
10
50.1801
20
-95.7403
11
49.9449
21
-95.4677
0
LINE
8
BLACK
6
CONTINUOUS
10
49.9449
20
-95.4677
11
49.7415
21
-95.1706
0
LINE
8
BLACK
6
CONTINUOUS
10
49.7415
20
-95.1706
11
49.5724
21
-94.8527
0
LINE
8
BLACK
6
CONTINUOUS
10
49.5724
20
-94.8527
11
49.4399
21
-94.518
0
LINE
8
BLACK
6
CONTINUOUS
10
49.4399
20
-94.518
11
49.3455
21
-94.1705
0
LINE
8
BLACK
6
CONTINUOUS
10
49.3455
20
-94.1705
11
49.2904
21
-93.8147
0
LINE
8
BLACK
6
CONTINUOUS
10
49.2904
20
-93.8147
11
49.2754
21
-93.457
0
LINE
8
BLACK
6
CONTINUOUS
10
49.2754
20
-93.457
11
49.2753
21
-93.455
0
LINE
8
BLACK
6
CONTINUOUS
10
49.2753
20
-93.455
11
49.3004
21
-93.0958
0
LINE
8
BLACK
6
CONTINUOUS
10
49.4875
20
-94.1403
11
49.5776
21
-94.4721
0
LINE
8
BLACK
6
CONTINUOUS
10
49.5776
20
-94.4721
11
49.7042
21
-94.7918
0
LINE
8
BLACK
6
CONTINUOUS
10
49.7042
20
-94.7918
11
49.8656
21
-95.0954
0
LINE
8
BLACK
6
CONTINUOUS
10
49.8656
20
-95.0954
11
50.0599
21
-95.3792
0
LINE
8
BLACK
6
CONTINUOUS
10
50.0599
20
-95.3792
11
50.2845
21
-95.6394
0
LINE
8
BLACK
6
CONTINUOUS
10
50.2845
20
-95.6394
11
50.5368
21
-95.8731
0
LINE
8
BLACK
6
CONTINUOUS
10
50.5368
20
-95.8731
11
50.8136
21
-96.0771
0
LINE
8
BLACK
6
CONTINUOUS
10
50.8136
20
-96.0771
11
51.1114
21
-96.249
0
LINE
8
BLACK
6
CONTINUOUS
10
51.1114
20
-96.249
11
51.4265
21
-96.3867
0
LINE
8
BLACK
6
CONTINUOUS
10
51.4265
20
-96.3867
11
51.7549
21
-96.4884
0
LINE
8
BLACK
6
CONTINUOUS
10
51.7549
20
-96.4884
11
52.0927
21
-96.5528
0
LINE
8
BLACK
6
CONTINUOUS
10
52.0927
20
-96.5528
11
52.4355
21
-96.5792
0
LINE
8
BLACK
6
CONTINUOUS
10
52.4355
20
-96.5792
11
52.7791
21
-96.5672
0
LINE
8
BLACK
6
CONTINUOUS
10
52.7791
20
-96.5672
11
53.1193
21
-96.5169
0
LINE
8
BLACK
6
CONTINUOUS
10
53.1193
20
-96.5169
11
53.4517
21
-96.4291
0
LINE
8
BLACK
6
CONTINUOUS
10
53.4517
20
-96.4291
11
53.7723
21
-96.3048
0
LINE
8
BLACK
6
CONTINUOUS
10
53.7723
20
-96.3048
11
54.077
21
-96.1455
0
LINE
8
BLACK
6
CONTINUOUS
10
54.077
20
-96.1455
11
54.3621
21
-95.9532
0
LINE
8
BLACK
6
CONTINUOUS
10
54.3621
20
-95.9532
11
54.6239
21
-95.7303
0
LINE
8
BLACK
6
CONTINUOUS
10
54.6239
20
-95.7303
11
54.8593
21
-95.4797
0
LINE
8
BLACK
6
CONTINUOUS
10
54.8593
20
-95.4797
11
55.0653
21
-95.2044
0
LINE
8
BLACK
6
CONTINUOUS
10
55.0653
20
-95.2044
11
55.2393
21
-94.9078
0
LINE
8
BLACK
6
CONTINUOUS
10
55.2393
20
-94.9078
11
55.3791
21
-94.5937
0
LINE
8
BLACK
6
CONTINUOUS
10
55.3791
20
-94.5937
11
55.4831
21
-94.2659
0
LINE
8
BLACK
6
CONTINUOUS
10
55.4831
20
-94.2659
11
55.5499
21
-93.9286
0
LINE
8
BLACK
6
CONTINUOUS
10
55.5499
20
-93.9286
11
55.5786
21
-93.586
0
LINE
8
BLACK
6
CONTINUOUS
10
55.5786
20
-93.586
11
55.5798
21
-93.5
0
LINE
8
BLACK
6
CONTINUOUS
10
55.5798
20
-93.5
11
55.5607
21
-93.1567
0
LINE
8
BLACK
6
CONTINUOUS
10
55.5607
20
-93.1567
11
55.5033
21
-92.8177
0
LINE
8
BLACK
6
CONTINUOUS
10
55.5033
20
-92.8177
11
55.4085
21
-92.4871
0
LINE
8
BLACK
6
CONTINUOUS
10
55.4085
20
-92.4871
11
55.2775
21
-92.1692
0
LINE
8
BLACK
6
CONTINUOUS
10
55.2775
20
-92.1692
11
55.1119
21
-91.8679
0
LINE
8
BLACK
6
CONTINUOUS
10
55.1119
20
-91.8679
11
54.9137
21
-91.587
0
LINE
8
BLACK
6
CONTINUOUS
10
54.9137
20
-91.587
11
54.6854
21
-91.3298
0
LINE
8
BLACK
6
CONTINUOUS
10
54.6854
20
-91.3298
11
54.4298
21
-91.0998
0
LINE
8
BLACK
6
CONTINUOUS
10
54.4298
20
-91.0998
11
54.1503
21
-90.8996
0
LINE
8
BLACK
6
CONTINUOUS
10
54.1503
20
-90.8996
11
53.8501
21
-90.7319
0
LINE
8
BLACK
6
CONTINUOUS
10
53.8501
20
-90.7319
11
53.5331
21
-90.5986
0
LINE
8
BLACK
6
CONTINUOUS
10
53.5331
20
-90.5986
11
53.2033
21
-90.5015
0
LINE
8
BLACK
6
CONTINUOUS
10
53.2033
20
-90.5015
11
52.8647
21
-90.4418
0
LINE
8
BLACK
6
CONTINUOUS
10
52.8647
20
-90.4418
11
52.5215
21
-90.4202
0
LINE
8
BLACK
6
CONTINUOUS
10
52.5215
20
-90.4202
11
52.1781
21
-90.437
0
LINE
8
BLACK
6
CONTINUOUS
10
52.1781
20
-90.437
11
51.8386
21
-90.492
0
LINE
8
BLACK
6
CONTINUOUS
10
51.8386
20
-90.492
11
51.5075
21
-90.5845
0
LINE
8
BLACK
6
CONTINUOUS
10
51.5075
20
-90.5845
11
51.1887
21
-90.7133
0
LINE
8
BLACK
6
CONTINUOUS
10
51.1887
20
-90.7133
11
50.8862
21
-90.8768
0
LINE
8
BLACK
6
CONTINUOUS
10
50.8862
20
-90.8768
11
50.6039
21
-91.073
0
LINE
8
BLACK
6
CONTINUOUS
10
50.6039
20
-91.073
11
50.3451
21
-91.2995
0
LINE
8
BLACK
6
CONTINUOUS
10
50.3451
20
-91.2995
11
50.1133
21
-91.5534
0
LINE
8
BLACK
6
CONTINUOUS
10
50.1133
20
-91.5534
11
49.9112
21
-91.8316
0
LINE
8
BLACK
6
CONTINUOUS
10
49.9112
20
-91.8316
11
49.7413
21
-92.1306
0
LINE
8
BLACK
6
CONTINUOUS
10
49.7413
20
-92.1306
11
49.6059
21
-92.4466
0
LINE
8
BLACK
6
CONTINUOUS
10
49.6059
20
-92.4466
11
49.5065
21
-92.7758
0
LINE
8
BLACK
6
CONTINUOUS
10
49.5065
20
-92.7758
11
49.4444
21
-93.114
0
LINE
8
BLACK
6
CONTINUOUS
10
49.4444
20
-93.114
11
49.4205
21
-93.457
0
LINE
8
BLACK
6
CONTINUOUS
10
49.4205
20
-93.457
11
49.4349
21
-93.8005
0
LINE
8
BLACK
6
CONTINUOUS
10
49.4349
20
-93.8005
11
49.4875
21
-94.1403
0
LINE
8
BLACK
6
CONTINUOUS
10
58.7954
20
-75.6106
11
58.8537
21
-75.2383
0
LINE
8
BLACK
6
CONTINUOUS
10
58.8537
20
-75.2383
11
58.9494
21
-74.8737
0
LINE
8
BLACK
6
CONTINUOUS
10
58.9494
20
-74.8737
11
59.0814
21
-74.5206
0
LINE
8
BLACK
6
CONTINUOUS
10
59.0814
20
-74.5206
11
59.2484
21
-74.1827
0
LINE
8
BLACK
6
CONTINUOUS
10
59.2484
20
-74.1827
11
59.4487
21
-73.8634
0
LINE
8
BLACK
6
CONTINUOUS
10
59.4487
20
-73.8634
11
59.6802
21
-73.566
0
LINE
8
BLACK
6
CONTINUOUS
10
59.6802
20
-73.566
11
59.9406
21
-73.2935
0
LINE
8
BLACK
6
CONTINUOUS
10
59.9406
20
-73.2935
11
60.2272
21
-73.0487
0
LINE
8
BLACK
6
CONTINUOUS
10
60.2272
20
-73.0487
11
60.5371
21
-72.8341
0
LINE
8
BLACK
6
CONTINUOUS
10
60.5371
20
-72.8341
11
60.8671
21
-72.652
0
LINE
8
BLACK
6
CONTINUOUS
10
60.8671
20
-72.652
11
61.2138
21
-72.5041
0
LINE
8
BLACK
6
CONTINUOUS
10
61.2138
20
-72.5041
11
61.5736
21
-72.392
0
LINE
8
BLACK
6
CONTINUOUS
10
61.5736
20
-72.392
11
61.943
21
-72.3169
0
LINE
8
BLACK
6
CONTINUOUS
10
61.943
20
-72.3169
11
62.318
21
-72.2794
0
LINE
8
BLACK
6
CONTINUOUS
10
62.318
20
-72.2794
11
62.695
21
-72.2801
0
LINE
8
BLACK
6
CONTINUOUS
10
62.695
20
-72.2801
11
63.0699
21
-72.3188
0
LINE
8
BLACK
6
CONTINUOUS
10
63.0699
20
-72.3188
11
63.439
21
-72.3953
0
LINE
8
BLACK
6
CONTINUOUS
10
63.439
20
-72.3953
11
63.7984
21
-72.5086
0
LINE
8
BLACK
6
CONTINUOUS
10
63.7984
20
-72.5086
11
64.1446
21
-72.6577
0
LINE
8
BLACK
6
CONTINUOUS
10
64.1446
20
-72.6577
11
64.4739
21
-72.841
0
LINE
8
BLACK
6
CONTINUOUS
10
64.4739
20
-72.841
11
64.7831
21
-73.0567
0
LINE
8
BLACK
6
CONTINUOUS
10
64.7831
20
-73.0567
11
65.0688
21
-73.3025
0
LINE
8
BLACK
6
CONTINUOUS
10
65.0688
20
-73.3025
11
65.3283
21
-73.5759
0
LINE
8
BLACK
6
CONTINUOUS
10
65.3283
20
-73.5759
11
65.5588
21
-73.8741
0
LINE
8
BLACK
6
CONTINUOUS
10
65.5588
20
-73.8741
11
65.758
21
-74.1941
0
LINE
8
BLACK
6
CONTINUOUS
10
65.758
20
-74.1941
11
65.9238
21
-74.5326
0
LINE
8
BLACK
6
CONTINUOUS
10
65.9238
20
-74.5326
11
66.0545
21
-74.8861
0
LINE
8
BLACK
6
CONTINUOUS
10
66.0545
20
-74.8861
11
66.1489
21
-75.251
0
LINE
8
BLACK
6
CONTINUOUS
10
66.1489
20
-75.251
11
66.2059
21
-75.6236
0
LINE
8
BLACK
6
CONTINUOUS
10
66.2059
20
-75.6236
11
66.225
21
-76
0
LINE
8
BLACK
6
CONTINUOUS
10
66.225
20
-76
11
66.2249
21
-76.026
0
LINE
8
BLACK
6
CONTINUOUS
10
66.2249
20
-76.026
11
66.2032
21
-76.4023
0
LINE
8
BLACK
6
CONTINUOUS
10
66.2032
20
-76.4023
11
66.1436
21
-76.7745
0
LINE
8
BLACK
6
CONTINUOUS
10
66.1436
20
-76.7745
11
66.0467
21
-77.1387
0
LINE
8
BLACK
6
CONTINUOUS
10
66.0467
20
-77.1387
11
65.9135
21
-77.4913
0
LINE
8
BLACK
6
CONTINUOUS
10
65.9135
20
-77.4913
11
65.7453
21
-77.8286
0
LINE
8
BLACK
6
CONTINUOUS
10
65.7453
20
-77.8286
11
65.5439
21
-78.1472
0
LINE
8
BLACK
6
CONTINUOUS
10
65.5439
20
-78.1472
11
65.3113
21
-78.4438
0
LINE
8
BLACK
6
CONTINUOUS
10
65.3113
20
-78.4438
11
65.0499
21
-78.7154
0
LINE
8
BLACK
6
CONTINUOUS
10
65.0499
20
-78.7154
11
64.7625
21
-78.9592
0
LINE
8
BLACK
6
CONTINUOUS
10
64.7625
20
-78.9592
11
64.4518
21
-79.1727
0
LINE
8
BLACK
6
CONTINUOUS
10
64.4518
20
-79.1727
11
64.1212
21
-79.3537
0
LINE
8
BLACK
6
CONTINUOUS
10
64.1212
20
-79.3537
11
63.774
21
-79.5004
0
LINE
8
BLACK
6
CONTINUOUS
10
63.774
20
-79.5004
11
63.4138
21
-79.6112
0
LINE
8
BLACK
6
CONTINUOUS
10
63.4138
20
-79.6112
11
63.0442
21
-79.685
0
LINE
8
BLACK
6
CONTINUOUS
10
63.0442
20
-79.685
11
62.669
21
-79.7212
0
LINE
8
BLACK
6
CONTINUOUS
10
62.669
20
-79.7212
11
62.2921
21
-79.7192
0
LINE
8
BLACK
6
CONTINUOUS
10
62.2921
20
-79.7192
11
61.9173
21
-79.6791
0
LINE
8
BLACK
6
CONTINUOUS
10
61.9173
20
-79.6791
11
61.5485
21
-79.6014
0
LINE
8
BLACK
6
CONTINUOUS
10
61.5485
20
-79.6014
11
61.1894
21
-79.4868
0
LINE
8
BLACK
6
CONTINUOUS
10
61.1894
20
-79.4868
11
60.8437
21
-79.3365
0
LINE
8
BLACK
6
CONTINUOUS
10
60.8437
20
-79.3365
11
60.515
21
-79.1521
0
LINE
8
BLACK
6
CONTINUOUS
10
60.515
20
-79.1521
11
60.2067
21
-78.9353
0
LINE
8
BLACK
6
CONTINUOUS
10
60.2067
20
-78.9353
11
59.9218
21
-78.6886
0
LINE
8
BLACK
6
CONTINUOUS
10
59.9218
20
-78.6886
11
59.6633
21
-78.4142
0
LINE
8
BLACK
6
CONTINUOUS
10
59.6633
20
-78.4142
11
59.4338
21
-78.1152
0
LINE
8
BLACK
6
CONTINUOUS
10
59.4338
20
-78.1152
11
59.2358
21
-77.7945
0
LINE
8
BLACK
6
CONTINUOUS
10
59.2358
20
-77.7945
11
59.0711
21
-77.4555
0
LINE
8
BLACK
6
CONTINUOUS
10
59.0711
20
-77.4555
11
58.9416
21
-77.1015
0
LINE
8
BLACK
6
CONTINUOUS
10
58.9416
20
-77.1015
11
58.8485
21
-76.7363
0
LINE
8
BLACK
6
CONTINUOUS
10
58.8485
20
-76.7363
11
58.7928
21
-76.3635
0
LINE
8
BLACK
6
CONTINUOUS
10
58.7928
20
-76.3635
11
58.7756
21
-76
0
LINE
8
BLACK
6
CONTINUOUS
10
58.7756
20
-76
11
58.775
21
-75.987
0
LINE
8
BLACK
6
CONTINUOUS
10
58.775
20
-75.987
11
58.7954
21
-75.6106
0
LINE
8
BLACK
6
CONTINUOUS
10
58.9983
20
-76.7443
11
59.0953
21
-77.1063
0
LINE
8
BLACK
6
CONTINUOUS
10
59.0953
20
-77.1063
11
59.2296
21
-77.4561
0
LINE
8
BLACK
6
CONTINUOUS
10
59.2296
20
-77.4561
11
59.3997
21
-77.79
0
LINE
8
BLACK
6
CONTINUOUS
10
59.3997
20
-77.79
11
59.6038
21
-78.1042
0
LINE
8
BLACK
6
CONTINUOUS
10
59.6038
20
-78.1042
11
59.8396
21
-78.3954
0
LINE
8
BLACK
6
CONTINUOUS
10
59.8396
20
-78.3954
11
60.1046
21
-78.6604
0
LINE
8
BLACK
6
CONTINUOUS
10
60.1046
20
-78.6604
11
60.3958
21
-78.8962
0
LINE
8
BLACK
6
CONTINUOUS
10
60.3958
20
-78.8962
11
60.71
21
-79.1003
0
LINE
8
BLACK
6
CONTINUOUS
10
60.71
20
-79.1003
11
61.0439
21
-79.2704
0
LINE
8
BLACK
6
CONTINUOUS
10
61.0439
20
-79.2704
11
61.3937
21
-79.4047
0
LINE
8
BLACK
6
CONTINUOUS
10
61.3937
20
-79.4047
11
61.7557
21
-79.5017
0
LINE
8
BLACK
6
CONTINUOUS
10
61.7557
20
-79.5017
11
62.1258
21
-79.5603
0
LINE
8
BLACK
6
CONTINUOUS
10
62.1258
20
-79.5603
11
62.5
21
-79.5799
0
LINE
8
BLACK
6
CONTINUOUS
10
62.5
20
-79.5799
11
62.8742
21
-79.5603
0
LINE
8
BLACK
6
CONTINUOUS
10
62.8742
20
-79.5603
11
63.2443
21
-79.5017
0
LINE
8
BLACK
6
CONTINUOUS
10
63.2443
20
-79.5017
11
63.6063
21
-79.4047
0
LINE
8
BLACK
6
CONTINUOUS
10
63.6063
20
-79.4047
11
63.9561
21
-79.2704
0
LINE
8
BLACK
6
CONTINUOUS
10
63.9561
20
-79.2704
11
64.29
21
-79.1003
0
LINE
8
BLACK
6
CONTINUOUS
10
64.29
20
-79.1003
11
64.6042
21
-78.8962
0
LINE
8
BLACK
6
CONTINUOUS
10
64.6042
20
-78.8962
11
64.8954
21
-78.6604
0
LINE
8
BLACK
6
CONTINUOUS
10
64.8954
20
-78.6604
11
65.1604
21
-78.3954
0
LINE
8
BLACK
6
CONTINUOUS
10
65.1604
20
-78.3954
11
65.3962
21
-78.1042
0
LINE
8
BLACK
6
CONTINUOUS
10
65.3962
20
-78.1042
11
65.6003
21
-77.79
0
LINE
8
BLACK
6
CONTINUOUS
10
65.6003
20
-77.79
11
65.7704
21
-77.4561
0
LINE
8
BLACK
6
CONTINUOUS
10
65.7704
20
-77.4561
11
65.9047
21
-77.1063
0
LINE
8
BLACK
6
CONTINUOUS
10
65.9047
20
-77.1063
11
66.0017
21
-76.7443
0
LINE
8
BLACK
6
CONTINUOUS
10
66.0017
20
-76.7443
11
66.0603
21
-76.3742
0
LINE
8
BLACK
6
CONTINUOUS
10
66.0603
20
-76.3742
11
66.0799
21
-76
0
LINE
8
BLACK
6
CONTINUOUS
10
66.0799
20
-76
11
66.0603
21
-75.6258
0
LINE
8
BLACK
6
CONTINUOUS
10
66.0603
20
-75.6258
11
66.0017
21
-75.2557
0
LINE
8
BLACK
6
CONTINUOUS
10
66.0017
20
-75.2557
11
65.9047
21
-74.8937
0
LINE
8
BLACK
6
CONTINUOUS
10
65.9047
20
-74.8937
11
65.7704
21
-74.5439
0
LINE
8
BLACK
6
CONTINUOUS
10
65.7704
20
-74.5439
11
65.6003
21
-74.21
0
LINE
8
BLACK
6
CONTINUOUS
10
65.6003
20
-74.21
11
65.3962
21
-73.8958
0
LINE
8
BLACK
6
CONTINUOUS
10
65.3962
20
-73.8958
11
65.1604
21
-73.6046
0
LINE
8
BLACK
6
CONTINUOUS
10
65.1604
20
-73.6046
11
64.8954
21
-73.3396
0
LINE
8
BLACK
6
CONTINUOUS
10
64.8954
20
-73.3396
11
64.6042
21
-73.1038
0
LINE
8
BLACK
6
CONTINUOUS
10
64.6042
20
-73.1038
11
64.29
21
-72.8997
0
LINE
8
BLACK
6
CONTINUOUS
10
64.29
20
-72.8997
11
63.9561
21
-72.7296
0
LINE
8
BLACK
6
CONTINUOUS
10
63.9561
20
-72.7296
11
63.6063
21
-72.5953
0
LINE
8
BLACK
6
CONTINUOUS
10
63.6063
20
-72.5953
11
63.2443
21
-72.4983
0
LINE
8
BLACK
6
CONTINUOUS
10
63.2443
20
-72.4983
11
62.8742
21
-72.4397
0
LINE
8
BLACK
6
CONTINUOUS
10
62.8742
20
-72.4397
11
62.5
21
-72.4201
0
LINE
8
BLACK
6
CONTINUOUS
10
62.5
20
-72.4201
11
62.1258
21
-72.4397
0
LINE
8
BLACK
6
CONTINUOUS
10
62.1258
20
-72.4397
11
61.7557
21
-72.4983
0
LINE
8
BLACK
6
CONTINUOUS
10
61.7557
20
-72.4983
11
61.3937
21
-72.5953
0
LINE
8
BLACK
6
CONTINUOUS
10
61.3937
20
-72.5953
11
61.0439
21
-72.7296
0
LINE
8
BLACK
6
CONTINUOUS
10
61.0439
20
-72.7296
11
60.71
21
-72.8997
0
LINE
8
BLACK
6
CONTINUOUS
10
60.71
20
-72.8997
11
60.3958
21
-73.1038
0
LINE
8
BLACK
6
CONTINUOUS
10
60.3958
20
-73.1038
11
60.1046
21
-73.3396
0
LINE
8
BLACK
6
CONTINUOUS
10
60.1046
20
-73.3396
11
59.8396
21
-73.6046
0
LINE
8
BLACK
6
CONTINUOUS
10
59.8396
20
-73.6046
11
59.6038
21
-73.8958
0
LINE
8
BLACK
6
CONTINUOUS
10
59.6038
20
-73.8958
11
59.3997
21
-74.21
0
LINE
8
BLACK
6
CONTINUOUS
10
59.3997
20
-74.21
11
59.2296
21
-74.5439
0
LINE
8
BLACK
6
CONTINUOUS
10
59.2296
20
-74.5439
11
59.0953
21
-74.8937
0
LINE
8
BLACK
6
CONTINUOUS
10
59.0953
20
-74.8937
11
58.9983
21
-75.2557
0
LINE
8
BLACK
6
CONTINUOUS
10
58.9983
20
-75.2557
11
58.9397
21
-75.6258
0
LINE
8
BLACK
6
CONTINUOUS
10
58.9397
20
-75.6258
11
58.9201
21
-76
0
LINE
8
BLACK
6
CONTINUOUS
10
58.9201
20
-76
11
58.9397
21
-76.3742
0
LINE
8
BLACK
6
CONTINUOUS
10
58.9397
20
-76.3742
11
58.9983
21
-76.7443
0
LINE
8
BLACK
6
CONTINUOUS
10
58.7954
20
-22.6106
11
58.8537
21
-22.2383
0
LINE
8
BLACK
6
CONTINUOUS
10
58.8537
20
-22.2383
11
58.9494
21
-21.8737
0
LINE
8
BLACK
6
CONTINUOUS
10
58.9494
20
-21.8737
11
59.0814
21
-21.5206
0
LINE
8
BLACK
6
CONTINUOUS
10
59.0814
20
-21.5206
11
59.2484
21
-21.1827
0
LINE
8
BLACK
6
CONTINUOUS
10
59.2484
20
-21.1827
11
59.4487
21
-20.8634
0
LINE
8
BLACK
6
CONTINUOUS
10
59.4487
20
-20.8634
11
59.6802
21
-20.566
0
LINE
8
BLACK
6
CONTINUOUS
10
59.6802
20
-20.566
11
59.9406
21
-20.2935
0
LINE
8
BLACK
6
CONTINUOUS
10
59.9406
20
-20.2935
11
60.2272
21
-20.0487
0
LINE
8
BLACK
6
CONTINUOUS
10
60.2272
20
-20.0487
11
60.5371
21
-19.8341
0
LINE
8
BLACK
6
CONTINUOUS
10
60.5371
20
-19.8341
11
60.8671
21
-19.652
0
LINE
8
BLACK
6
CONTINUOUS
10
60.8671
20
-19.652
11
61.2138
21
-19.5041
0
LINE
8
BLACK
6
CONTINUOUS
10
61.2138
20
-19.5041
11
61.5736
21
-19.392
0
LINE
8
BLACK
6
CONTINUOUS
10
61.5736
20
-19.392
11
61.943
21
-19.3169
0
LINE
8
BLACK
6
CONTINUOUS
10
61.943
20
-19.3169
11
62.318
21
-19.2794
0
LINE
8
BLACK
6
CONTINUOUS
10
62.318
20
-19.2794
11
62.695
21
-19.2801
0
LINE
8
BLACK
6
CONTINUOUS
10
62.695
20
-19.2801
11
63.0699
21
-19.3188
0
LINE
8
BLACK
6
CONTINUOUS
10
63.0699
20
-19.3188
11
63.439
21
-19.3953
0
LINE
8
BLACK
6
CONTINUOUS
10
63.439
20
-19.3953
11
63.7984
21
-19.5086
0
LINE
8
BLACK
6
CONTINUOUS
10
63.7984
20
-19.5086
11
64.1446
21
-19.6577
0
LINE
8
BLACK
6
CONTINUOUS
10
64.1446
20
-19.6577
11
64.4739
21
-19.841
0
LINE
8
BLACK
6
CONTINUOUS
10
64.4739
20
-19.841
11
64.7831
21
-20.0567
0
LINE
8
BLACK
6
CONTINUOUS
10
64.7831
20
-20.0567
11
65.0688
21
-20.3025
0
LINE
8
BLACK
6
CONTINUOUS
10
65.0688
20
-20.3025
11
65.3283
21
-20.5759
0
LINE
8
BLACK
6
CONTINUOUS
10
65.3283
20
-20.5759
11
65.5588
21
-20.8741
0
LINE
8
BLACK
6
CONTINUOUS
10
65.5588
20
-20.8741
11
65.758
21
-21.1941
0
LINE
8
BLACK
6
CONTINUOUS
10
65.758
20
-21.1941
11
65.9238
21
-21.5326
0
LINE
8
BLACK
6
CONTINUOUS
10
65.9238
20
-21.5326
11
66.0545
21
-21.8861
0
LINE
8
BLACK
6
CONTINUOUS
10
66.0545
20
-21.8861
11
66.1489
21
-22.251
0
LINE
8
BLACK
6
CONTINUOUS
10
66.1489
20
-22.251
11
66.2059
21
-22.6236
0
LINE
8
BLACK
6
CONTINUOUS
10
66.2059
20
-22.6236
11
66.225
21
-23
0
LINE
8
BLACK
6
CONTINUOUS
10
66.225
20
-23
11
66.2249
21
-23.026
0
LINE
8
BLACK
6
CONTINUOUS
10
66.2249
20
-23.026
11
66.2032
21
-23.4023
0
LINE
8
BLACK
6
CONTINUOUS
10
66.2032
20
-23.4023
11
66.1436
21
-23.7745
0
LINE
8
BLACK
6
CONTINUOUS
10
66.1436
20
-23.7745
11
66.0467
21
-24.1387
0
LINE
8
BLACK
6
CONTINUOUS
10
66.0467
20
-24.1387
11
65.9135
21
-24.4913
0
LINE
8
BLACK
6
CONTINUOUS
10
65.9135
20
-24.4913
11
65.7453
21
-24.8286
0
LINE
8
BLACK
6
CONTINUOUS
10
65.7453
20
-24.8286
11
65.5439
21
-25.1472
0
LINE
8
BLACK
6
CONTINUOUS
10
65.5439
20
-25.1472
11
65.3113
21
-25.4438
0
LINE
8
BLACK
6
CONTINUOUS
10
65.3113
20
-25.4438
11
65.0499
21
-25.7154
0
LINE
8
BLACK
6
CONTINUOUS
10
65.0499
20
-25.7154
11
64.7625
21
-25.9592
0
LINE
8
BLACK
6
CONTINUOUS
10
64.7625
20
-25.9592
11
64.4518
21
-26.1727
0
LINE
8
BLACK
6
CONTINUOUS
10
64.4518
20
-26.1727
11
64.1212
21
-26.3537
0
LINE
8
BLACK
6
CONTINUOUS
10
64.1212
20
-26.3537
11
63.774
21
-26.5004
0
LINE
8
BLACK
6
CONTINUOUS
10
63.774
20
-26.5004
11
63.4138
21
-26.6112
0
LINE
8
BLACK
6
CONTINUOUS
10
63.4138
20
-26.6112
11
63.0442
21
-26.685
0
LINE
8
BLACK
6
CONTINUOUS
10
63.0442
20
-26.685
11
62.669
21
-26.7212
0
LINE
8
BLACK
6
CONTINUOUS
10
62.669
20
-26.7212
11
62.2921
21
-26.7192
0
LINE
8
BLACK
6
CONTINUOUS
10
62.2921
20
-26.7192
11
61.9173
21
-26.6791
0
LINE
8
BLACK
6
CONTINUOUS
10
61.9173
20
-26.6791
11
61.5485
21
-26.6014
0
LINE
8
BLACK
6
CONTINUOUS
10
61.5485
20
-26.6014
11
61.1894
21
-26.4868
0
LINE
8
BLACK
6
CONTINUOUS
10
61.1894
20
-26.4868
11
60.8437
21
-26.3365
0
LINE
8
BLACK
6
CONTINUOUS
10
60.8437
20
-26.3365
11
60.515
21
-26.1521
0
LINE
8
BLACK
6
CONTINUOUS
10
60.515
20
-26.1521
11
60.2067
21
-25.9353
0
LINE
8
BLACK
6
CONTINUOUS
10
60.2067
20
-25.9353
11
59.9218
21
-25.6886
0
LINE
8
BLACK
6
CONTINUOUS
10
59.9218
20
-25.6886
11
59.6633
21
-25.4142
0
LINE
8
BLACK
6
CONTINUOUS
10
59.6633
20
-25.4142
11
59.4338
21
-25.1152
0
LINE
8
BLACK
6
CONTINUOUS
10
59.4338
20
-25.1152
11
59.2358
21
-24.7945
0
LINE
8
BLACK
6
CONTINUOUS
10
59.2358
20
-24.7945
11
59.0711
21
-24.4555
0
LINE
8
BLACK
6
CONTINUOUS
10
59.0711
20
-24.4555
11
58.9416
21
-24.1015
0
LINE
8
BLACK
6
CONTINUOUS
10
58.9416
20
-24.1015
11
58.8485
21
-23.7363
0
LINE
8
BLACK
6
CONTINUOUS
10
58.8485
20
-23.7363
11
58.7928
21
-23.3635
0
LINE
8
BLACK
6
CONTINUOUS
10
58.7928
20
-23.3635
11
58.7756
21
-23
0
LINE
8
BLACK
6
CONTINUOUS
10
58.7756
20
-23
11
58.775
21
-22.987
0
LINE
8
BLACK
6
CONTINUOUS
10
58.775
20
-22.987
11
58.7954
21
-22.6106
0
LINE
8
BLACK
6
CONTINUOUS
10
58.9983
20
-23.7443
11
59.0953
21
-24.1063
0
LINE
8
BLACK
6
CONTINUOUS
10
59.0953
20
-24.1063
11
59.2296
21
-24.4561
0
LINE
8
BLACK
6
CONTINUOUS
10
59.2296
20
-24.4561
11
59.3997
21
-24.79
0
LINE
8
BLACK
6
CONTINUOUS
10
59.3997
20
-24.79
11
59.6038
21
-25.1042
0
LINE
8
BLACK
6
CONTINUOUS
10
59.6038
20
-25.1042
11
59.8396
21
-25.3954
0
LINE
8
BLACK
6
CONTINUOUS
10
59.8396
20
-25.3954
11
60.1046
21
-25.6604
0
LINE
8
BLACK
6
CONTINUOUS
10
60.1046
20
-25.6604
11
60.3958
21
-25.8962
0
LINE
8
BLACK
6
CONTINUOUS
10
60.3958
20
-25.8962
11
60.71
21
-26.1003
0
LINE
8
BLACK
6
CONTINUOUS
10
60.71
20
-26.1003
11
61.0439
21
-26.2704
0
LINE
8
BLACK
6
CONTINUOUS
10
61.0439
20
-26.2704
11
61.3937
21
-26.4047
0
LINE
8
BLACK
6
CONTINUOUS
10
61.3937
20
-26.4047
11
61.7557
21
-26.5017
0
LINE
8
BLACK
6
CONTINUOUS
10
61.7557
20
-26.5017
11
62.1258
21
-26.5603
0
LINE
8
BLACK
6
CONTINUOUS
10
62.1258
20
-26.5603
11
62.5
21
-26.5799
0
LINE
8
BLACK
6
CONTINUOUS
10
62.5
20
-26.5799
11
62.8742
21
-26.5603
0
LINE
8
BLACK
6
CONTINUOUS
10
62.8742
20
-26.5603
11
63.2443
21
-26.5017
0
LINE
8
BLACK
6
CONTINUOUS
10
63.2443
20
-26.5017
11
63.6063
21
-26.4047
0
LINE
8
BLACK
6
CONTINUOUS
10
63.6063
20
-26.4047
11
63.9561
21
-26.2704
0
LINE
8
BLACK
6
CONTINUOUS
10
63.9561
20
-26.2704
11
64.29
21
-26.1003
0
LINE
8
BLACK
6
CONTINUOUS
10
64.29
20
-26.1003
11
64.6042
21
-25.8962
0
LINE
8
BLACK
6
CONTINUOUS
10
64.6042
20
-25.8962
11
64.8954
21
-25.6604
0
LINE
8
BLACK
6
CONTINUOUS
10
64.8954
20
-25.6604
11
65.1604
21
-25.3954
0
LINE
8
BLACK
6
CONTINUOUS
10
65.1604
20
-25.3954
11
65.3962
21
-25.1042
0
LINE
8
BLACK
6
CONTINUOUS
10
65.3962
20
-25.1042
11
65.6003
21
-24.79
0
LINE
8
BLACK
6
CONTINUOUS
10
65.6003
20
-24.79
11
65.7704
21
-24.4561
0
LINE
8
BLACK
6
CONTINUOUS
10
65.7704
20
-24.4561
11
65.9047
21
-24.1063
0
LINE
8
BLACK
6
CONTINUOUS
10
65.9047
20
-24.1063
11
66.0017
21
-23.7443
0
LINE
8
BLACK
6
CONTINUOUS
10
66.0017
20
-23.7443
11
66.0603
21
-23.3742
0
LINE
8
BLACK
6
CONTINUOUS
10
66.0603
20
-23.3742
11
66.0799
21
-23
0
LINE
8
BLACK
6
CONTINUOUS
10
66.0799
20
-23
11
66.0603
21
-22.6258
0
LINE
8
BLACK
6
CONTINUOUS
10
66.0603
20
-22.6258
11
66.0017
21
-22.2557
0
LINE
8
BLACK
6
CONTINUOUS
10
66.0017
20
-22.2557
11
65.9047
21
-21.8937
0
LINE
8
BLACK
6
CONTINUOUS
10
65.9047
20
-21.8937
11
65.7704
21
-21.5439
0
LINE
8
BLACK
6
CONTINUOUS
10
65.7704
20
-21.5439
11
65.6003
21
-21.21
0
LINE
8
BLACK
6
CONTINUOUS
10
65.6003
20
-21.21
11
65.3962
21
-20.8958
0
LINE
8
BLACK
6
CONTINUOUS
10
65.3962
20
-20.8958
11
65.1604
21
-20.6046
0
LINE
8
BLACK
6
CONTINUOUS
10
65.1604
20
-20.6046
11
64.8954
21
-20.3396
0
LINE
8
BLACK
6
CONTINUOUS
10
64.8954
20
-20.3396
11
64.6042
21
-20.1038
0
LINE
8
BLACK
6
CONTINUOUS
10
64.6042
20
-20.1038
11
64.29
21
-19.8997
0
LINE
8
BLACK
6
CONTINUOUS
10
64.29
20
-19.8997
11
63.9561
21
-19.7296
0
LINE
8
BLACK
6
CONTINUOUS
10
63.9561
20
-19.7296
11
63.6063
21
-19.5953
0
LINE
8
BLACK
6
CONTINUOUS
10
63.6063
20
-19.5953
11
63.2443
21
-19.4983
0
LINE
8
BLACK
6
CONTINUOUS
10
63.2443
20
-19.4983
11
62.8742
21
-19.4397
0
LINE
8
BLACK
6
CONTINUOUS
10
62.8742
20
-19.4397
11
62.5
21
-19.4201
0
LINE
8
BLACK
6
CONTINUOUS
10
62.5
20
-19.4201
11
62.1258
21
-19.4397
0
LINE
8
BLACK
6
CONTINUOUS
10
62.1258
20
-19.4397
11
61.7557
21
-19.4983
0
LINE
8
BLACK
6
CONTINUOUS
10
61.7557
20
-19.4983
11
61.3937
21
-19.5953
0
LINE
8
BLACK
6
CONTINUOUS
10
61.3937
20
-19.5953
11
61.0439
21
-19.7296
0
LINE
8
BLACK
6
CONTINUOUS
10
61.0439
20
-19.7296
11
60.71
21
-19.8997
0
LINE
8
BLACK
6
CONTINUOUS
10
60.71
20
-19.8997
11
60.3958
21
-20.1038
0
LINE
8
BLACK
6
CONTINUOUS
10
60.3958
20
-20.1038
11
60.1046
21
-20.3396
0
LINE
8
BLACK
6
CONTINUOUS
10
60.1046
20
-20.3396
11
59.8396
21
-20.6046
0
LINE
8
BLACK
6
CONTINUOUS
10
59.8396
20
-20.6046
11
59.6038
21
-20.8958
0
LINE
8
BLACK
6
CONTINUOUS
10
59.6038
20
-20.8958
11
59.3997
21
-21.21
0
LINE
8
BLACK
6
CONTINUOUS
10
59.3997
20
-21.21
11
59.2296
21
-21.5439
0
LINE
8
BLACK
6
CONTINUOUS
10
59.2296
20
-21.5439
11
59.0953
21
-21.8937
0
LINE
8
BLACK
6
CONTINUOUS
10
59.0953
20
-21.8937
11
58.9983
21
-22.2557
0
LINE
8
BLACK
6
CONTINUOUS
10
58.9983
20
-22.2557
11
58.9397
21
-22.6258
0
LINE
8
BLACK
6
CONTINUOUS
10
58.9397
20
-22.6258
11
58.9201
21
-23
0
LINE
8
BLACK
6
CONTINUOUS
10
58.9201
20
-23
11
58.9397
21
-23.3742
0
LINE
8
BLACK
6
CONTINUOUS
10
58.9397
20
-23.3742
11
58.9983
21
-23.7443
0
LINE
8
BLACK
6
CONTINUOUS
10
49.3004
20
-6.0958
11
49.3654
21
-5.74167
0
LINE
8
BLACK
6
CONTINUOUS
10
49.3654
20
-5.74167
11
49.4695
21
-5.39698
0
LINE
8
BLACK
6
CONTINUOUS
10
49.4695
20
-5.39698
11
49.6113
21
-5.06605
0
LINE
8
BLACK
6
CONTINUOUS
10
49.6113
20
-5.06605
11
49.7892
21
-4.75299
0
LINE
8
BLACK
6
CONTINUOUS
10
49.7892
20
-4.75299
11
50.0008
21
-4.4617
0
LINE
8
BLACK
6
CONTINUOUS
10
50.0008
20
-4.4617
11
50.2436
21
-4.19583
0
LINE
8
BLACK
6
CONTINUOUS
10
50.2436
20
-4.19583
11
50.5145
21
-3.95866
0
LINE
8
BLACK
6
CONTINUOUS
10
50.5145
20
-3.95866
11
50.8101
21
-3.75318
0
LINE
8
BLACK
6
CONTINUOUS
10
50.8101
20
-3.75318
11
51.1269
21
-3.58193
0
LINE
8
BLACK
6
CONTINUOUS
10
51.1269
20
-3.58193
11
51.4607
21
-3.44706
0
LINE
8
BLACK
6
CONTINUOUS
10
51.4607
20
-3.44706
11
51.8075
21
-3.35023
0
LINE
8
BLACK
6
CONTINUOUS
10
51.8075
20
-3.35023
11
52.1629
21
-3.29267
0
LINE
8
BLACK
6
CONTINUOUS
10
52.1629
20
-3.29267
11
52.5225
21
-3.27508
0
LINE
8
BLACK
6
CONTINUOUS
10
52.5225
20
-3.27508
11
52.8819
21
-3.29769
0
LINE
8
BLACK
6
CONTINUOUS
10
52.8819
20
-3.29769
11
53.2364
21
-3.36021
0
LINE
8
BLACK
6
CONTINUOUS
10
53.2364
20
-3.36021
11
53.5818
21
-3.46186
0
LINE
8
BLACK
6
CONTINUOUS
10
53.5818
20
-3.46186
11
53.9137
21
-3.60139
0
LINE
8
BLACK
6
CONTINUOUS
10
53.9137
20
-3.60139
11
54.228
21
-3.77704
0
LINE
8
BLACK
6
CONTINUOUS
10
54.228
20
-3.77704
11
54.5208
21
-3.98663
0
LINE
8
BLACK
6
CONTINUOUS
10
54.5208
20
-3.98663
11
54.7884
21
-4.22755
0
LINE
8
BLACK
6
CONTINUOUS
10
54.7884
20
-4.22755
11
55.0274
21
-4.4968
0
LINE
8
BLACK
6
CONTINUOUS
10
55.0274
20
-4.4968
11
55.235
21
-4.79101
0
LINE
8
BLACK
6
CONTINUOUS
10
55.235
20
-4.79101
11
55.4084
21
-5.10652
0
LINE
8
BLACK
6
CONTINUOUS
10
55.4084
20
-5.10652
11
55.5456
21
-5.4394
0
LINE
8
BLACK
6
CONTINUOUS
10
55.5456
20
-5.4394
11
55.6449
21
-5.78551
0
LINE
8
BLACK
6
CONTINUOUS
10
55.6449
20
-5.78551
11
55.7049
21
-6.14051
0
LINE
8
BLACK
6
CONTINUOUS
10
55.7049
20
-6.14051
11
55.725
21
-6.5
0
LINE
8
BLACK
6
CONTINUOUS
10
55.725
20
-6.5
11
55.7237
21
-6.59005
0
LINE
8
BLACK
6
CONTINUOUS
10
55.7237
20
-6.59005
11
55.6936
21
-6.94883
0
LINE
8
BLACK
6
CONTINUOUS
10
55.6936
20
-6.94883
11
55.6237
21
-7.30202
0
LINE
8
BLACK
6
CONTINUOUS
10
55.6237
20
-7.30202
11
55.5148
21
-7.64522
0
LINE
8
BLACK
6
CONTINUOUS
10
55.5148
20
-7.64522
11
55.3684
21
-7.97414
0
LINE
8
BLACK
6
CONTINUOUS
10
55.3684
20
-7.97414
11
55.1862
21
-8.28469
0
LINE
8
BLACK
6
CONTINUOUS
10
55.1862
20
-8.28469
11
54.9705
21
-8.57299
0
LINE
8
BLACK
6
CONTINUOUS
10
54.9705
20
-8.57299
11
54.724
21
-8.83545
0
LINE
8
BLACK
6
CONTINUOUS
10
54.724
20
-8.83545
11
54.4498
21
-9.06881
0
LINE
8
BLACK
6
CONTINUOUS
10
54.4498
20
-9.06881
11
54.1513
21
-9.27015
0
LINE
8
BLACK
6
CONTINUOUS
10
54.1513
20
-9.27015
11
53.8323
21
-9.43695
0
LINE
8
BLACK
6
CONTINUOUS
10
53.8323
20
-9.43695
11
53.4966
21
-9.56716
0
LINE
8
BLACK
6
CONTINUOUS
10
53.4966
20
-9.56716
11
53.1485
21
-9.65913
0
LINE
8
BLACK
6
CONTINUOUS
10
53.1485
20
-9.65913
11
52.7923
21
-9.71173
0
LINE
8
BLACK
6
CONTINUOUS
10
52.7923
20
-9.71173
11
52.4325
21
-9.72429
0
LINE
8
BLACK
6
CONTINUOUS
10
52.4325
20
-9.72429
11
52.0735
21
-9.69667
0
LINE
8
BLACK
6
CONTINUOUS
10
52.0735
20
-9.69667
11
51.7198
21
-9.6292
0
LINE
8
BLACK
6
CONTINUOUS
10
51.7198
20
-9.6292
11
51.3759
21
-9.52273
0
LINE
8
BLACK
6
CONTINUOUS
10
51.3759
20
-9.52273
11
51.0459
21
-9.37859
0
LINE
8
BLACK
6
CONTINUOUS
10
51.0459
20
-9.37859
11
50.7341
21
-9.19857
0
LINE
8
BLACK
6
CONTINUOUS
10
50.7341
20
-9.19857
11
50.4443
21
-8.9849
0
LINE
8
BLACK
6
CONTINUOUS
10
50.4443
20
-8.9849
11
50.1801
21
-8.74027
0
LINE
8
BLACK
6
CONTINUOUS
10
50.1801
20
-8.74027
11
49.9449
21
-8.46772
0
LINE
8
BLACK
6
CONTINUOUS
10
49.9449
20
-8.46772
11
49.7415
21
-8.17064
0
LINE
8
BLACK
6
CONTINUOUS
10
49.7415
20
-8.17064
11
49.5724
21
-7.85273
0
LINE
8
BLACK
6
CONTINUOUS
10
49.5724
20
-7.85273
11
49.4399
21
-7.51797
0
LINE
8
BLACK
6
CONTINUOUS
10
49.4399
20
-7.51797
11
49.3455
21
-7.17051
0
LINE
8
BLACK
6
CONTINUOUS
10
49.3455
20
-7.17051
11
49.2904
21
-6.81471
0
LINE
8
BLACK
6
CONTINUOUS
10
49.2904
20
-6.81471
11
49.2754
21
-6.457
0
LINE
8
BLACK
6
CONTINUOUS
10
49.2754
20
-6.457
11
49.2753
21
-6.45497
0
LINE
8
BLACK
6
CONTINUOUS
10
49.2753
20
-6.45497
11
49.3004
21
-6.0958
0
LINE
8
BLACK
6
CONTINUOUS
10
49.4875
20
-7.14034
11
49.5776
21
-7.47215
0
LINE
8
BLACK
6
CONTINUOUS
10
49.5776
20
-7.47215
11
49.7042
21
-7.79185
0
LINE
8
BLACK
6
CONTINUOUS
10
49.7042
20
-7.79185
11
49.8656
21
-8.09544
0
LINE
8
BLACK
6
CONTINUOUS
10
49.8656
20
-8.09544
11
50.0599
21
-8.37915
0
LINE
8
BLACK
6
CONTINUOUS
10
50.0599
20
-8.37915
11
50.2845
21
-8.63944
0
LINE
8
BLACK
6
CONTINUOUS
10
50.2845
20
-8.63944
11
50.5368
21
-8.87306
0
LINE
8
BLACK
6
CONTINUOUS
10
50.5368
20
-8.87306
11
50.8136
21
-9.0771
0
LINE
8
BLACK
6
CONTINUOUS
10
50.8136
20
-9.0771
11
51.1114
21
-9.24903
0
LINE
8
BLACK
6
CONTINUOUS
10
51.1114
20
-9.24903
11
51.4265
21
-9.38668
0
LINE
8
BLACK
6
CONTINUOUS
10
51.4265
20
-9.38668
11
51.7549
21
-9.48836
0
LINE
8
BLACK
6
CONTINUOUS
10
51.7549
20
-9.48836
11
52.0927
21
-9.55279
0
LINE
8
BLACK
6
CONTINUOUS
10
52.0927
20
-9.55279
11
52.4355
21
-9.57917
0
LINE
8
BLACK
6
CONTINUOUS
10
52.4355
20
-9.57917
11
52.7791
21
-9.56717
0
LINE
8
BLACK
6
CONTINUOUS
10
52.7791
20
-9.56717
11
53.1193
21
-9.51694
0
LINE
8
BLACK
6
CONTINUOUS
10
53.1193
20
-9.51694
11
53.4517
21
-9.42911
0
LINE
8
BLACK
6
CONTINUOUS
10
53.4517
20
-9.42911
11
53.7723
21
-9.30476
0
LINE
8
BLACK
6
CONTINUOUS
10
53.7723
20
-9.30476
11
54.077
21
-9.14546
0
LINE
8
BLACK
6
CONTINUOUS
10
54.077
20
-9.14546
11
54.3621
21
-8.95319
0
LINE
8
BLACK
6
CONTINUOUS
10
54.3621
20
-8.95319
11
54.6239
21
-8.73034
0
LINE
8
BLACK
6
CONTINUOUS
10
54.6239
20
-8.73034
11
54.8593
21
-8.47969
0
LINE
8
BLACK
6
CONTINUOUS
10
54.8593
20
-8.47969
11
55.0653
21
-8.20436
0
LINE
8
BLACK
6
CONTINUOUS
10
55.0653
20
-8.20436
11
55.2393
21
-7.90779
0
LINE
8
BLACK
6
CONTINUOUS
10
55.2393
20
-7.90779
11
55.3791
21
-7.59367
0
LINE
8
BLACK
6
CONTINUOUS
10
55.3791
20
-7.59367
11
55.4831
21
-7.26593
0
LINE
8
BLACK
6
CONTINUOUS
10
55.4831
20
-7.26593
11
55.5499
21
-6.92863
0
LINE
8
BLACK
6
CONTINUOUS
10
55.5499
20
-6.92863
11
55.5786
21
-6.58599
0
LINE
8
BLACK
6
CONTINUOUS
10
55.5786
20
-6.58599
11
55.5798
21
-6.5
0
LINE
8
BLACK
6
CONTINUOUS
10
55.5798
20
-6.5
11
55.5607
21
-6.15669
0
LINE
8
BLACK
6
CONTINUOUS
10
55.5607
20
-6.15669
11
55.5033
21
-5.81766
0
LINE
8
BLACK
6
CONTINUOUS
10
55.5033
20
-5.81766
11
55.4085
21
-5.48714
0
LINE
8
BLACK
6
CONTINUOUS
10
55.4085
20
-5.48714
11
55.2775
21
-5.16924
0
LINE
8
BLACK
6
CONTINUOUS
10
55.2775
20
-5.16924
11
55.1119
21
-4.86793
0
LINE
8
BLACK
6
CONTINUOUS
10
55.1119
20
-4.86793
11
54.9137
21
-4.58696
0
LINE
8
BLACK
6
CONTINUOUS
10
54.9137
20
-4.58696
11
54.6854
21
-4.32984
0
LINE
8
BLACK
6
CONTINUOUS
10
54.6854
20
-4.32984
11
54.4298
21
-4.09976
0
LINE
8
BLACK
6
CONTINUOUS
10
54.4298
20
-4.09976
11
54.1503
21
-3.8996
0
LINE
8
BLACK
6
CONTINUOUS
10
54.1503
20
-3.8996
11
53.8501
21
-3.73185
0
LINE
8
BLACK
6
CONTINUOUS
10
53.8501
20
-3.73185
11
53.5331
21
-3.59861
0
LINE
8
BLACK
6
CONTINUOUS
10
53.5331
20
-3.59861
11
53.2033
21
-3.50153
0
LINE
8
BLACK
6
CONTINUOUS
10
53.2033
20
-3.50153
11
52.8647
21
-3.44182
0
LINE
8
BLACK
6
CONTINUOUS
10
52.8647
20
-3.44182
11
52.5215
21
-3.42023
0
LINE
8
BLACK
6
CONTINUOUS
10
52.5215
20
-3.42023
11
52.1781
21
-3.43703
0
LINE
8
BLACK
6
CONTINUOUS
10
52.1781
20
-3.43703
11
51.8386
21
-3.492
0
LINE
8
BLACK
6
CONTINUOUS
10
51.8386
20
-3.492
11
51.5075
21
-3.58447
0
LINE
8
BLACK
6
CONTINUOUS
10
51.5075
20
-3.58447
11
51.1887
21
-3.71327
0
LINE
8
BLACK
6
CONTINUOUS
10
51.1887
20
-3.71327
11
50.8862
21
-3.87681
0
LINE
8
BLACK
6
CONTINUOUS
10
50.8862
20
-3.87681
11
50.6039
21
-4.07305
0
LINE
8
BLACK
6
CONTINUOUS
10
50.6039
20
-4.07305
11
50.3451
21
-4.29953
0
LINE
8
BLACK
6
CONTINUOUS
10
50.3451
20
-4.29953
11
50.1133
21
-4.55345
0
LINE
8
BLACK
6
CONTINUOUS
10
50.1133
20
-4.55345
11
49.9112
21
-4.83162
0
LINE
8
BLACK
6
CONTINUOUS
10
49.9112
20
-4.83162
11
49.7413
21
-5.13059
0
LINE
8
BLACK
6
CONTINUOUS
10
49.7413
20
-5.13059
11
49.6059
21
-5.44663
0
LINE
8
BLACK
6
CONTINUOUS
10
49.6059
20
-5.44663
11
49.5065
21
-5.7758
0
LINE
8
BLACK
6
CONTINUOUS
10
49.5065
20
-5.7758
11
49.4444
21
-6.11399
0
LINE
8
BLACK
6
CONTINUOUS
10
49.4444
20
-6.11399
11
49.4205
21
-6.457
0
LINE
8
BLACK
6
CONTINUOUS
10
49.4205
20
-6.457
11
49.4349
21
-6.80054
0
LINE
8
BLACK
6
CONTINUOUS
10
49.4349
20
-6.80054
11
49.4875
21
-7.14034
0
LINE
8
BLACK
6
CONTINUOUS
10
24.3004
20
-93.0958
11
24.3654
21
-92.7417
0
LINE
8
BLACK
6
CONTINUOUS
10
24.3654
20
-92.7417
11
24.4695
21
-92.397
0
LINE
8
BLACK
6
CONTINUOUS
10
24.4695
20
-92.397
11
24.6113
21
-92.0661
0
LINE
8
BLACK
6
CONTINUOUS
10
24.6113
20
-92.0661
11
24.7892
21
-91.753
0
LINE
8
BLACK
6
CONTINUOUS
10
24.7892
20
-91.753
11
25.0008
21
-91.4617
0
LINE
8
BLACK
6
CONTINUOUS
10
25.0008
20
-91.4617
11
25.2436
21
-91.1958
0
LINE
8
BLACK
6
CONTINUOUS
10
25.2436
20
-91.1958
11
25.5145
21
-90.9587
0
LINE
8
BLACK
6
CONTINUOUS
10
25.5145
20
-90.9587
11
25.8101
21
-90.7532
0
LINE
8
BLACK
6
CONTINUOUS
10
25.8101
20
-90.7532
11
26.1269
21
-90.5819
0
LINE
8
BLACK
6
CONTINUOUS
10
26.1269
20
-90.5819
11
26.4607
21
-90.4471
0
LINE
8
BLACK
6
CONTINUOUS
10
26.4607
20
-90.4471
11
26.8075
21
-90.3502
0
LINE
8
BLACK
6
CONTINUOUS
10
26.8075
20
-90.3502
11
27.1629
21
-90.2927
0
LINE
8
BLACK
6
CONTINUOUS
10
27.1629
20
-90.2927
11
27.5225
21
-90.2751
0
LINE
8
BLACK
6
CONTINUOUS
10
27.5225
20
-90.2751
11
27.8819
21
-90.2977
0
LINE
8
BLACK
6
CONTINUOUS
10
27.8819
20
-90.2977
11
28.2364
21
-90.3602
0
LINE
8
BLACK
6
CONTINUOUS
10
28.2364
20
-90.3602
11
28.5818
21
-90.4619
0
LINE
8
BLACK
6
CONTINUOUS
10
28.5818
20
-90.4619
11
28.9137
21
-90.6014
0
LINE
8
BLACK
6
CONTINUOUS
10
28.9137
20
-90.6014
11
29.228
21
-90.777
0
LINE
8
BLACK
6
CONTINUOUS
10
29.228
20
-90.777
11
29.5208
21
-90.9866
0
LINE
8
BLACK
6
CONTINUOUS
10
29.5208
20
-90.9866
11
29.7884
21
-91.2276
0
LINE
8
BLACK
6
CONTINUOUS
10
29.7884
20
-91.2276
11
30.0274
21
-91.4968
0
LINE
8
BLACK
6
CONTINUOUS
10
30.0274
20
-91.4968
11
30.235
21
-91.791
0
LINE
8
BLACK
6
CONTINUOUS
10
30.235
20
-91.791
11
30.4084
21
-92.1065
0
LINE
8
BLACK
6
CONTINUOUS
10
30.4084
20
-92.1065
11
30.5456
21
-92.4394
0
LINE
8
BLACK
6
CONTINUOUS
10
30.5456
20
-92.4394
11
30.6449
21
-92.7855
0
LINE
8
BLACK
6
CONTINUOUS
10
30.6449
20
-92.7855
11
30.7049
21
-93.1405
0
LINE
8
BLACK
6
CONTINUOUS
10
30.7049
20
-93.1405
11
30.725
21
-93.5
0
LINE
8
BLACK
6
CONTINUOUS
10
30.725
20
-93.5
11
30.7237
21
-93.59
0
LINE
8
BLACK
6
CONTINUOUS
10
30.7237
20
-93.59
11
30.6936
21
-93.9488
0
LINE
8
BLACK
6
CONTINUOUS
10
30.6936
20
-93.9488
11
30.6237
21
-94.302
0
LINE
8
BLACK
6
CONTINUOUS
10
30.6237
20
-94.302
11
30.5148
21
-94.6452
0
LINE
8
BLACK
6
CONTINUOUS
10
30.5148
20
-94.6452
11
30.3684
21
-94.9741
0
LINE
8
BLACK
6
CONTINUOUS
10
30.3684
20
-94.9741
11
30.1862
21
-95.2847
0
LINE
8
BLACK
6
CONTINUOUS
10
30.1862
20
-95.2847
11
29.9705
21
-95.573
0
LINE
8
BLACK
6
CONTINUOUS
10
29.9705
20
-95.573
11
29.724
21
-95.8355
0
LINE
8
BLACK
6
CONTINUOUS
10
29.724
20
-95.8355
11
29.4498
21
-96.0688
0
LINE
8
BLACK
6
CONTINUOUS
10
29.4498
20
-96.0688
11
29.1513
21
-96.2701
0
LINE
8
BLACK
6
CONTINUOUS
10
29.1513
20
-96.2701
11
28.8323
21
-96.437
0
LINE
8
BLACK
6
CONTINUOUS
10
28.8323
20
-96.437
11
28.4966
21
-96.5672
0
LINE
8
BLACK
6
CONTINUOUS
10
28.4966
20
-96.5672
11
28.1485
21
-96.6591
0
LINE
8
BLACK
6
CONTINUOUS
10
28.1485
20
-96.6591
11
27.7923
21
-96.7117
0
LINE
8
BLACK
6
CONTINUOUS
10
27.7923
20
-96.7117
11
27.4325
21
-96.7243
0
LINE
8
BLACK
6
CONTINUOUS
10
27.4325
20
-96.7243
11
27.0735
21
-96.6967
0
LINE
8
BLACK
6
CONTINUOUS
10
27.0735
20
-96.6967
11
26.7198
21
-96.6292
0
LINE
8
BLACK
6
CONTINUOUS
10
26.7198
20
-96.6292
11
26.3759
21
-96.5227
0
LINE
8
BLACK
6
CONTINUOUS
10
26.3759
20
-96.5227
11
26.0459
21
-96.3786
0
LINE
8
BLACK
6
CONTINUOUS
10
26.0459
20
-96.3786
11
25.7341
21
-96.1986
0
LINE
8
BLACK
6
CONTINUOUS
10
25.7341
20
-96.1986
11
25.4443
21
-95.9849
0
LINE
8
BLACK
6
CONTINUOUS
10
25.4443
20
-95.9849
11
25.1801
21
-95.7403
0
LINE
8
BLACK
6
CONTINUOUS
10
25.1801
20
-95.7403
11
24.9449
21
-95.4677
0
LINE
8
BLACK
6
CONTINUOUS
10
24.9449
20
-95.4677
11
24.7415
21
-95.1706
0
LINE
8
BLACK
6
CONTINUOUS
10
24.7415
20
-95.1706
11
24.5724
21
-94.8527
0
LINE
8
BLACK
6
CONTINUOUS
10
24.5724
20
-94.8527
11
24.4399
21
-94.518
0
LINE
8
BLACK
6
CONTINUOUS
10
24.4399
20
-94.518
11
24.3455
21
-94.1705
0
LINE
8
BLACK
6
CONTINUOUS
10
24.3455
20
-94.1705
11
24.2904
21
-93.8147
0
LINE
8
BLACK
6
CONTINUOUS
10
24.2904
20
-93.8147
11
24.2754
21
-93.457
0
LINE
8
BLACK
6
CONTINUOUS
10
24.2754
20
-93.457
11
24.2753
21
-93.455
0
LINE
8
BLACK
6
CONTINUOUS
10
24.2753
20
-93.455
11
24.3004
21
-93.0958
0
LINE
8
BLACK
6
CONTINUOUS
10
24.4875
20
-94.1403
11
24.5776
21
-94.4721
0
LINE
8
BLACK
6
CONTINUOUS
10
24.5776
20
-94.4721
11
24.7042
21
-94.7918
0
LINE
8
BLACK
6
CONTINUOUS
10
24.7042
20
-94.7918
11
24.8656
21
-95.0954
0
LINE
8
BLACK
6
CONTINUOUS
10
24.8656
20
-95.0954
11
25.0599
21
-95.3792
0
LINE
8
BLACK
6
CONTINUOUS
10
25.0599
20
-95.3792
11
25.2845
21
-95.6394
0
LINE
8
BLACK
6
CONTINUOUS
10
25.2845
20
-95.6394
11
25.5368
21
-95.8731
0
LINE
8
BLACK
6
CONTINUOUS
10
25.5368
20
-95.8731
11
25.8136
21
-96.0771
0
LINE
8
BLACK
6
CONTINUOUS
10
25.8136
20
-96.0771
11
26.1114
21
-96.249
0
LINE
8
BLACK
6
CONTINUOUS
10
26.1114
20
-96.249
11
26.4265
21
-96.3867
0
LINE
8
BLACK
6
CONTINUOUS
10
26.4265
20
-96.3867
11
26.7549
21
-96.4884
0
LINE
8
BLACK
6
CONTINUOUS
10
26.7549
20
-96.4884
11
27.0927
21
-96.5528
0
LINE
8
BLACK
6
CONTINUOUS
10
27.0927
20
-96.5528
11
27.4355
21
-96.5792
0
LINE
8
BLACK
6
CONTINUOUS
10
27.4355
20
-96.5792
11
27.7791
21
-96.5672
0
LINE
8
BLACK
6
CONTINUOUS
10
27.7791
20
-96.5672
11
28.1193
21
-96.5169
0
LINE
8
BLACK
6
CONTINUOUS
10
28.1193
20
-96.5169
11
28.4517
21
-96.4291
0
LINE
8
BLACK
6
CONTINUOUS
10
28.4517
20
-96.4291
11
28.7723
21
-96.3048
0
LINE
8
BLACK
6
CONTINUOUS
10
28.7723
20
-96.3048
11
29.077
21
-96.1455
0
LINE
8
BLACK
6
CONTINUOUS
10
29.077
20
-96.1455
11
29.3621
21
-95.9532
0
LINE
8
BLACK
6
CONTINUOUS
10
29.3621
20
-95.9532
11
29.6239
21
-95.7303
0
LINE
8
BLACK
6
CONTINUOUS
10
29.6239
20
-95.7303
11
29.8593
21
-95.4797
0
LINE
8
BLACK
6
CONTINUOUS
10
29.8593
20
-95.4797
11
30.0653
21
-95.2044
0
LINE
8
BLACK
6
CONTINUOUS
10
30.0653
20
-95.2044
11
30.2393
21
-94.9078
0
LINE
8
BLACK
6
CONTINUOUS
10
30.2393
20
-94.9078
11
30.3791
21
-94.5937
0
LINE
8
BLACK
6
CONTINUOUS
10
30.3791
20
-94.5937
11
30.4831
21
-94.2659
0
LINE
8
BLACK
6
CONTINUOUS
10
30.4831
20
-94.2659
11
30.5499
21
-93.9286
0
LINE
8
BLACK
6
CONTINUOUS
10
30.5499
20
-93.9286
11
30.5786
21
-93.586
0
LINE
8
BLACK
6
CONTINUOUS
10
30.5786
20
-93.586
11
30.5798
21
-93.5
0
LINE
8
BLACK
6
CONTINUOUS
10
30.5798
20
-93.5
11
30.5607
21
-93.1567
0
LINE
8
BLACK
6
CONTINUOUS
10
30.5607
20
-93.1567
11
30.5033
21
-92.8177
0
LINE
8
BLACK
6
CONTINUOUS
10
30.5033
20
-92.8177
11
30.4085
21
-92.4871
0
LINE
8
BLACK
6
CONTINUOUS
10
30.4085
20
-92.4871
11
30.2775
21
-92.1692
0
LINE
8
BLACK
6
CONTINUOUS
10
30.2775
20
-92.1692
11
30.1119
21
-91.8679
0
LINE
8
BLACK
6
CONTINUOUS
10
30.1119
20
-91.8679
11
29.9137
21
-91.587
0
LINE
8
BLACK
6
CONTINUOUS
10
29.9137
20
-91.587
11
29.6854
21
-91.3298
0
LINE
8
BLACK
6
CONTINUOUS
10
29.6854
20
-91.3298
11
29.4298
21
-91.0998
0
LINE
8
BLACK
6
CONTINUOUS
10
29.4298
20
-91.0998
11
29.1503
21
-90.8996
0
LINE
8
BLACK
6
CONTINUOUS
10
29.1503
20
-90.8996
11
28.8501
21
-90.7319
0
LINE
8
BLACK
6
CONTINUOUS
10
28.8501
20
-90.7319
11
28.5331
21
-90.5986
0
LINE
8
BLACK
6
CONTINUOUS
10
28.5331
20
-90.5986
11
28.2033
21
-90.5015
0
LINE
8
BLACK
6
CONTINUOUS
10
28.2033
20
-90.5015
11
27.8647
21
-90.4418
0
LINE
8
BLACK
6
CONTINUOUS
10
27.8647
20
-90.4418
11
27.5215
21
-90.4202
0
LINE
8
BLACK
6
CONTINUOUS
10
27.5215
20
-90.4202
11
27.1781
21
-90.437
0
LINE
8
BLACK
6
CONTINUOUS
10
27.1781
20
-90.437
11
26.8386
21
-90.492
0
LINE
8
BLACK
6
CONTINUOUS
10
26.8386
20
-90.492
11
26.5075
21
-90.5845
0
LINE
8
BLACK
6
CONTINUOUS
10
26.5075
20
-90.5845
11
26.1887
21
-90.7133
0
LINE
8
BLACK
6
CONTINUOUS
10
26.1887
20
-90.7133
11
25.8862
21
-90.8768
0
LINE
8
BLACK
6
CONTINUOUS
10
25.8862
20
-90.8768
11
25.6039
21
-91.073
0
LINE
8
BLACK
6
CONTINUOUS
10
25.6039
20
-91.073
11
25.3451
21
-91.2995
0
LINE
8
BLACK
6
CONTINUOUS
10
25.3451
20
-91.2995
11
25.1133
21
-91.5534
0
LINE
8
BLACK
6
CONTINUOUS
10
25.1133
20
-91.5534
11
24.9112
21
-91.8316
0
LINE
8
BLACK
6
CONTINUOUS
10
24.9112
20
-91.8316
11
24.7413
21
-92.1306
0
LINE
8
BLACK
6
CONTINUOUS
10
24.7413
20
-92.1306
11
24.6059
21
-92.4466
0
LINE
8
BLACK
6
CONTINUOUS
10
24.6059
20
-92.4466
11
24.5065
21
-92.7758
0
LINE
8
BLACK
6
CONTINUOUS
10
24.5065
20
-92.7758
11
24.4444
21
-93.114
0
LINE
8
BLACK
6
CONTINUOUS
10
24.4444
20
-93.114
11
24.4205
21
-93.457
0
LINE
8
BLACK
6
CONTINUOUS
10
24.4205
20
-93.457
11
24.4349
21
-93.8005
0
LINE
8
BLACK
6
CONTINUOUS
10
24.4349
20
-93.8005
11
24.4875
21
-94.1403
0
LINE
8
BLACK
6
CONTINUOUS
10
13.7954
20
-75.6106
11
13.8537
21
-75.2383
0
LINE
8
BLACK
6
CONTINUOUS
10
13.8537
20
-75.2383
11
13.9494
21
-74.8737
0
LINE
8
BLACK
6
CONTINUOUS
10
13.9494
20
-74.8737
11
14.0814
21
-74.5206
0
LINE
8
BLACK
6
CONTINUOUS
10
14.0814
20
-74.5206
11
14.2484
21
-74.1827
0
LINE
8
BLACK
6
CONTINUOUS
10
14.2484
20
-74.1827
11
14.4487
21
-73.8634
0
LINE
8
BLACK
6
CONTINUOUS
10
14.4487
20
-73.8634
11
14.6802
21
-73.566
0
LINE
8
BLACK
6
CONTINUOUS
10
14.6802
20
-73.566
11
14.9406
21
-73.2935
0
LINE
8
BLACK
6
CONTINUOUS
10
14.9406
20
-73.2935
11
15.2272
21
-73.0487
0
LINE
8
BLACK
6
CONTINUOUS
10
15.2272
20
-73.0487
11
15.5371
21
-72.8341
0
LINE
8
BLACK
6
CONTINUOUS
10
15.5371
20
-72.8341
11
15.8671
21
-72.652
0
LINE
8
BLACK
6
CONTINUOUS
10
15.8671
20
-72.652
11
16.2138
21
-72.5041
0
LINE
8
BLACK
6
CONTINUOUS
10
16.2138
20
-72.5041
11
16.5736
21
-72.392
0
LINE
8
BLACK
6
CONTINUOUS
10
16.5736
20
-72.392
11
16.943
21
-72.3169
0
LINE
8
BLACK
6
CONTINUOUS
10
16.943
20
-72.3169
11
17.318
21
-72.2794
0
LINE
8
BLACK
6
CONTINUOUS
10
17.318
20
-72.2794
11
17.695
21
-72.2801
0
LINE
8
BLACK
6
CONTINUOUS
10
17.695
20
-72.2801
11
18.0699
21
-72.3188
0
LINE
8
BLACK
6
CONTINUOUS
10
18.0699
20
-72.3188
11
18.439
21
-72.3953
0
LINE
8
BLACK
6
CONTINUOUS
10
18.439
20
-72.3953
11
18.7984
21
-72.5086
0
LINE
8
BLACK
6
CONTINUOUS
10
18.7984
20
-72.5086
11
19.1446
21
-72.6577
0
LINE
8
BLACK
6
CONTINUOUS
10
19.1446
20
-72.6577
11
19.4739
21
-72.841
0
LINE
8
BLACK
6
CONTINUOUS
10
19.4739
20
-72.841
11
19.7831
21
-73.0567
0
LINE
8
BLACK
6
CONTINUOUS
10
19.7831
20
-73.0567
11
20.0688
21
-73.3025
0
LINE
8
BLACK
6
CONTINUOUS
10
20.0688
20
-73.3025
11
20.3283
21
-73.5759
0
LINE
8
BLACK
6
CONTINUOUS
10
20.3283
20
-73.5759
11
20.5588
21
-73.8741
0
LINE
8
BLACK
6
CONTINUOUS
10
20.5588
20
-73.8741
11
20.758
21
-74.1941
0
LINE
8
BLACK
6
CONTINUOUS
10
20.758
20
-74.1941
11
20.9238
21
-74.5326
0
LINE
8
BLACK
6
CONTINUOUS
10
20.9238
20
-74.5326
11
21.0545
21
-74.8861
0
LINE
8
BLACK
6
CONTINUOUS
10
21.0545
20
-74.8861
11
21.1489
21
-75.251
0
LINE
8
BLACK
6
CONTINUOUS
10
21.1489
20
-75.251
11
21.2059
21
-75.6236
0
LINE
8
BLACK
6
CONTINUOUS
10
21.2059
20
-75.6236
11
21.225
21
-76
0
LINE
8
BLACK
6
CONTINUOUS
10
21.225
20
-76
11
21.2249
21
-76.026
0
LINE
8
BLACK
6
CONTINUOUS
10
21.2249
20
-76.026
11
21.2032
21
-76.4023
0
LINE
8
BLACK
6
CONTINUOUS
10
21.2032
20
-76.4023
11
21.1436
21
-76.7745
0
LINE
8
BLACK
6
CONTINUOUS
10
21.1436
20
-76.7745
11
21.0467
21
-77.1387
0
LINE
8
BLACK
6
CONTINUOUS
10
21.0467
20
-77.1387
11
20.9135
21
-77.4913
0
LINE
8
BLACK
6
CONTINUOUS
10
20.9135
20
-77.4913
11
20.7453
21
-77.8286
0
LINE
8
BLACK
6
CONTINUOUS
10
20.7453
20
-77.8286
11
20.5439
21
-78.1472
0
LINE
8
BLACK
6
CONTINUOUS
10
20.5439
20
-78.1472
11
20.3113
21
-78.4438
0
LINE
8
BLACK
6
CONTINUOUS
10
20.3113
20
-78.4438
11
20.0499
21
-78.7154
0
LINE
8
BLACK
6
CONTINUOUS
10
20.0499
20
-78.7154
11
19.7625
21
-78.9592
0
LINE
8
BLACK
6
CONTINUOUS
10
19.7625
20
-78.9592
11
19.4518
21
-79.1727
0
LINE
8
BLACK
6
CONTINUOUS
10
19.4518
20
-79.1727
11
19.1212
21
-79.3537
0
LINE
8
BLACK
6
CONTINUOUS
10
19.1212
20
-79.3537
11
18.774
21
-79.5004
0
LINE
8
BLACK
6
CONTINUOUS
10
18.774
20
-79.5004
11
18.4138
21
-79.6112
0
LINE
8
BLACK
6
CONTINUOUS
10
18.4138
20
-79.6112
11
18.0442
21
-79.685
0
LINE
8
BLACK
6
CONTINUOUS
10
18.0442
20
-79.685
11
17.669
21
-79.7212
0
LINE
8
BLACK
6
CONTINUOUS
10
17.669
20
-79.7212
11
17.2921
21
-79.7192
0
LINE
8
BLACK
6
CONTINUOUS
10
17.2921
20
-79.7192
11
16.9173
21
-79.6791
0
LINE
8
BLACK
6
CONTINUOUS
10
16.9173
20
-79.6791
11
16.5485
21
-79.6014
0
LINE
8
BLACK
6
CONTINUOUS
10
16.5485
20
-79.6014
11
16.1894
21
-79.4868
0
LINE
8
BLACK
6
CONTINUOUS
10
16.1894
20
-79.4868
11
15.8437
21
-79.3365
0
LINE
8
BLACK
6
CONTINUOUS
10
15.8437
20
-79.3365
11
15.515
21
-79.1521
0
LINE
8
BLACK
6
CONTINUOUS
10
15.515
20
-79.1521
11
15.2067
21
-78.9353
0
LINE
8
BLACK
6
CONTINUOUS
10
15.2067
20
-78.9353
11
14.9218
21
-78.6886
0
LINE
8
BLACK
6
CONTINUOUS
10
14.9218
20
-78.6886
11
14.6633
21
-78.4142
0
LINE
8
BLACK
6
CONTINUOUS
10
14.6633
20
-78.4142
11
14.4338
21
-78.1152
0
LINE
8
BLACK
6
CONTINUOUS
10
14.4338
20
-78.1152
11
14.2358
21
-77.7945
0
LINE
8
BLACK
6
CONTINUOUS
10
14.2358
20
-77.7945
11
14.0711
21
-77.4555
0
LINE
8
BLACK
6
CONTINUOUS
10
14.0711
20
-77.4555
11
13.9416
21
-77.1015
0
LINE
8
BLACK
6
CONTINUOUS
10
13.9416
20
-77.1015
11
13.8485
21
-76.7363
0
LINE
8
BLACK
6
CONTINUOUS
10
13.8485
20
-76.7363
11
13.7928
21
-76.3635
0
LINE
8
BLACK
6
CONTINUOUS
10
13.7928
20
-76.3635
11
13.7756
21
-76
0
LINE
8
BLACK
6
CONTINUOUS
10
13.7756
20
-76
11
13.775
21
-75.987
0
LINE
8
BLACK
6
CONTINUOUS
10
13.775
20
-75.987
11
13.7954
21
-75.6106
0
LINE
8
BLACK
6
CONTINUOUS
10
13.9983
20
-76.7443
11
14.0953
21
-77.1063
0
LINE
8
BLACK
6
CONTINUOUS
10
14.0953
20
-77.1063
11
14.2296
21
-77.4561
0
LINE
8
BLACK
6
CONTINUOUS
10
14.2296
20
-77.4561
11
14.3997
21
-77.79
0
LINE
8
BLACK
6
CONTINUOUS
10
14.3997
20
-77.79
11
14.6038
21
-78.1042
0
LINE
8
BLACK
6
CONTINUOUS
10
14.6038
20
-78.1042
11
14.8396
21
-78.3954
0
LINE
8
BLACK
6
CONTINUOUS
10
14.8396
20
-78.3954
11
15.1046
21
-78.6604
0
LINE
8
BLACK
6
CONTINUOUS
10
15.1046
20
-78.6604
11
15.3958
21
-78.8962
0
LINE
8
BLACK
6
CONTINUOUS
10
15.3958
20
-78.8962
11
15.71
21
-79.1003
0
LINE
8
BLACK
6
CONTINUOUS
10
15.71
20
-79.1003
11
16.0439
21
-79.2704
0
LINE
8
BLACK
6
CONTINUOUS
10
16.0439
20
-79.2704
11
16.3937
21
-79.4047
0
LINE
8
BLACK
6
CONTINUOUS
10
16.3937
20
-79.4047
11
16.7557
21
-79.5017
0
LINE
8
BLACK
6
CONTINUOUS
10
16.7557
20
-79.5017
11
17.1258
21
-79.5603
0
LINE
8
BLACK
6
CONTINUOUS
10
17.1258
20
-79.5603
11
17.5
21
-79.5799
0
LINE
8
BLACK
6
CONTINUOUS
10
17.5
20
-79.5799
11
17.8742
21
-79.5603
0
LINE
8
BLACK
6
CONTINUOUS
10
17.8742
20
-79.5603
11
18.2443
21
-79.5017
0
LINE
8
BLACK
6
CONTINUOUS
10
18.2443
20
-79.5017
11
18.6063
21
-79.4047
0
LINE
8
BLACK
6
CONTINUOUS
10
18.6063
20
-79.4047
11
18.9561
21
-79.2704
0
LINE
8
BLACK
6
CONTINUOUS
10
18.9561
20
-79.2704
11
19.29
21
-79.1003
0
LINE
8
BLACK
6
CONTINUOUS
10
19.29
20
-79.1003
11
19.6042
21
-78.8962
0
LINE
8
BLACK
6
CONTINUOUS
10
19.6042
20
-78.8962
11
19.8954
21
-78.6604
0
LINE
8
BLACK
6
CONTINUOUS
10
19.8954
20
-78.6604
11
20.1604
21
-78.3954
0
LINE
8
BLACK
6
CONTINUOUS
10
20.1604
20
-78.3954
11
20.3962
21
-78.1042
0
LINE
8
BLACK
6
CONTINUOUS
10
20.3962
20
-78.1042
11
20.6003
21
-77.79
0
LINE
8
BLACK
6
CONTINUOUS
10
20.6003
20
-77.79
11
20.7704
21
-77.4561
0
LINE
8
BLACK
6
CONTINUOUS
10
20.7704
20
-77.4561
11
20.9047
21
-77.1063
0
LINE
8
BLACK
6
CONTINUOUS
10
20.9047
20
-77.1063
11
21.0017
21
-76.7443
0
LINE
8
BLACK
6
CONTINUOUS
10
21.0017
20
-76.7443
11
21.0603
21
-76.3742
0
LINE
8
BLACK
6
CONTINUOUS
10
21.0603
20
-76.3742
11
21.0799
21
-76
0
LINE
8
BLACK
6
CONTINUOUS
10
21.0799
20
-76
11
21.0603
21
-75.6258
0
LINE
8
BLACK
6
CONTINUOUS
10
21.0603
20
-75.6258
11
21.0017
21
-75.2557
0
LINE
8
BLACK
6
CONTINUOUS
10
21.0017
20
-75.2557
11
20.9047
21
-74.8937
0
LINE
8
BLACK
6
CONTINUOUS
10
20.9047
20
-74.8937
11
20.7704
21
-74.5439
0
LINE
8
BLACK
6
CONTINUOUS
10
20.7704
20
-74.5439
11
20.6003
21
-74.21
0
LINE
8
BLACK
6
CONTINUOUS
10
20.6003
20
-74.21
11
20.3962
21
-73.8958
0
LINE
8
BLACK
6
CONTINUOUS
10
20.3962
20
-73.8958
11
20.1604
21
-73.6046
0
LINE
8
BLACK
6
CONTINUOUS
10
20.1604
20
-73.6046
11
19.8954
21
-73.3396
0
LINE
8
BLACK
6
CONTINUOUS
10
19.8954
20
-73.3396
11
19.6042
21
-73.1038
0
LINE
8
BLACK
6
CONTINUOUS
10
19.6042
20
-73.1038
11
19.29
21
-72.8997
0
LINE
8
BLACK
6
CONTINUOUS
10
19.29
20
-72.8997
11
18.9561
21
-72.7296
0
LINE
8
BLACK
6
CONTINUOUS
10
18.9561
20
-72.7296
11
18.6063
21
-72.5953
0
LINE
8
BLACK
6
CONTINUOUS
10
18.6063
20
-72.5953
11
18.2443
21
-72.4983
0
LINE
8
BLACK
6
CONTINUOUS
10
18.2443
20
-72.4983
11
17.8742
21
-72.4397
0
LINE
8
BLACK
6
CONTINUOUS
10
17.8742
20
-72.4397
11
17.5
21
-72.4201
0
LINE
8
BLACK
6
CONTINUOUS
10
17.5
20
-72.4201
11
17.1258
21
-72.4397
0
LINE
8
BLACK
6
CONTINUOUS
10
17.1258
20
-72.4397
11
16.7557
21
-72.4983
0
LINE
8
BLACK
6
CONTINUOUS
10
16.7557
20
-72.4983
11
16.3937
21
-72.5953
0
LINE
8
BLACK
6
CONTINUOUS
10
16.3937
20
-72.5953
11
16.0439
21
-72.7296
0
LINE
8
BLACK
6
CONTINUOUS
10
16.0439
20
-72.7296
11
15.71
21
-72.8997
0
LINE
8
BLACK
6
CONTINUOUS
10
15.71
20
-72.8997
11
15.3958
21
-73.1038
0
LINE
8
BLACK
6
CONTINUOUS
10
15.3958
20
-73.1038
11
15.1046
21
-73.3396
0
LINE
8
BLACK
6
CONTINUOUS
10
15.1046
20
-73.3396
11
14.8396
21
-73.6046
0
LINE
8
BLACK
6
CONTINUOUS
10
14.8396
20
-73.6046
11
14.6038
21
-73.8958
0
LINE
8
BLACK
6
CONTINUOUS
10
14.6038
20
-73.8958
11
14.3997
21
-74.21
0
LINE
8
BLACK
6
CONTINUOUS
10
14.3997
20
-74.21
11
14.2296
21
-74.5439
0
LINE
8
BLACK
6
CONTINUOUS
10
14.2296
20
-74.5439
11
14.0953
21
-74.8937
0
LINE
8
BLACK
6
CONTINUOUS
10
14.0953
20
-74.8937
11
13.9983
21
-75.2557
0
LINE
8
BLACK
6
CONTINUOUS
10
13.9983
20
-75.2557
11
13.9397
21
-75.6258
0
LINE
8
BLACK
6
CONTINUOUS
10
13.9397
20
-75.6258
11
13.9201
21
-76
0
LINE
8
BLACK
6
CONTINUOUS
10
13.9201
20
-76
11
13.9397
21
-76.3742
0
LINE
8
BLACK
6
CONTINUOUS
10
13.9397
20
-76.3742
11
13.9983
21
-76.7443
0
LINE
8
BLACK
6
CONTINUOUS
10
13.7954
20
-22.6106
11
13.8537
21
-22.2383
0
LINE
8
BLACK
6
CONTINUOUS
10
13.8537
20
-22.2383
11
13.9494
21
-21.8737
0
LINE
8
BLACK
6
CONTINUOUS
10
13.9494
20
-21.8737
11
14.0814
21
-21.5206
0
LINE
8
BLACK
6
CONTINUOUS
10
14.0814
20
-21.5206
11
14.2484
21
-21.1827
0
LINE
8
BLACK
6
CONTINUOUS
10
14.2484
20
-21.1827
11
14.4487
21
-20.8634
0
LINE
8
BLACK
6
CONTINUOUS
10
14.4487
20
-20.8634
11
14.6802
21
-20.566
0
LINE
8
BLACK
6
CONTINUOUS
10
14.6802
20
-20.566
11
14.9406
21
-20.2935
0
LINE
8
BLACK
6
CONTINUOUS
10
14.9406
20
-20.2935
11
15.2272
21
-20.0487
0
LINE
8
BLACK
6
CONTINUOUS
10
15.2272
20
-20.0487
11
15.5371
21
-19.8341
0
LINE
8
BLACK
6
CONTINUOUS
10
15.5371
20
-19.8341
11
15.8671
21
-19.652
0
LINE
8
BLACK
6
CONTINUOUS
10
15.8671
20
-19.652
11
16.2138
21
-19.5041
0
LINE
8
BLACK
6
CONTINUOUS
10
16.2138
20
-19.5041
11
16.5736
21
-19.392
0
LINE
8
BLACK
6
CONTINUOUS
10
16.5736
20
-19.392
11
16.943
21
-19.3169
0
LINE
8
BLACK
6
CONTINUOUS
10
16.943
20
-19.3169
11
17.318
21
-19.2794
0
LINE
8
BLACK
6
CONTINUOUS
10
17.318
20
-19.2794
11
17.695
21
-19.2801
0
LINE
8
BLACK
6
CONTINUOUS
10
17.695
20
-19.2801
11
18.0699
21
-19.3188
0
LINE
8
BLACK
6
CONTINUOUS
10
18.0699
20
-19.3188
11
18.439
21
-19.3953
0
LINE
8
BLACK
6
CONTINUOUS
10
18.439
20
-19.3953
11
18.7984
21
-19.5086
0
LINE
8
BLACK
6
CONTINUOUS
10
18.7984
20
-19.5086
11
19.1446
21
-19.6577
0
LINE
8
BLACK
6
CONTINUOUS
10
19.1446
20
-19.6577
11
19.4739
21
-19.841
0
LINE
8
BLACK
6
CONTINUOUS
10
19.4739
20
-19.841
11
19.7831
21
-20.0567
0
LINE
8
BLACK
6
CONTINUOUS
10
19.7831
20
-20.0567
11
20.0688
21
-20.3025
0
LINE
8
BLACK
6
CONTINUOUS
10
20.0688
20
-20.3025
11
20.3283
21
-20.5759
0
LINE
8
BLACK
6
CONTINUOUS
10
20.3283
20
-20.5759
11
20.5588
21
-20.8741
0
LINE
8
BLACK
6
CONTINUOUS
10
20.5588
20
-20.8741
11
20.758
21
-21.1941
0
LINE
8
BLACK
6
CONTINUOUS
10
20.758
20
-21.1941
11
20.9238
21
-21.5326
0
LINE
8
BLACK
6
CONTINUOUS
10
20.9238
20
-21.5326
11
21.0545
21
-21.8861
0
LINE
8
BLACK
6
CONTINUOUS
10
21.0545
20
-21.8861
11
21.1489
21
-22.251
0
LINE
8
BLACK
6
CONTINUOUS
10
21.1489
20
-22.251
11
21.2059
21
-22.6236
0
LINE
8
BLACK
6
CONTINUOUS
10
21.2059
20
-22.6236
11
21.225
21
-23
0
LINE
8
BLACK
6
CONTINUOUS
10
21.225
20
-23
11
21.2249
21
-23.026
0
LINE
8
BLACK
6
CONTINUOUS
10
21.2249
20
-23.026
11
21.2032
21
-23.4023
0
LINE
8
BLACK
6
CONTINUOUS
10
21.2032
20
-23.4023
11
21.1436
21
-23.7745
0
LINE
8
BLACK
6
CONTINUOUS
10
21.1436
20
-23.7745
11
21.0467
21
-24.1387
0
LINE
8
BLACK
6
CONTINUOUS
10
21.0467
20
-24.1387
11
20.9135
21
-24.4913
0
LINE
8
BLACK
6
CONTINUOUS
10
20.9135
20
-24.4913
11
20.7453
21
-24.8286
0
LINE
8
BLACK
6
CONTINUOUS
10
20.7453
20
-24.8286
11
20.5439
21
-25.1472
0
LINE
8
BLACK
6
CONTINUOUS
10
20.5439
20
-25.1472
11
20.3113
21
-25.4438
0
LINE
8
BLACK
6
CONTINUOUS
10
20.3113
20
-25.4438
11
20.0499
21
-25.7154
0
LINE
8
BLACK
6
CONTINUOUS
10
20.0499
20
-25.7154
11
19.7625
21
-25.9592
0
LINE
8
BLACK
6
CONTINUOUS
10
19.7625
20
-25.9592
11
19.4518
21
-26.1727
0
LINE
8
BLACK
6
CONTINUOUS
10
19.4518
20
-26.1727
11
19.1212
21
-26.3537
0
LINE
8
BLACK
6
CONTINUOUS
10
19.1212
20
-26.3537
11
18.774
21
-26.5004
0
LINE
8
BLACK
6
CONTINUOUS
10
18.774
20
-26.5004
11
18.4138
21
-26.6112
0
LINE
8
BLACK
6
CONTINUOUS
10
18.4138
20
-26.6112
11
18.0442
21
-26.685
0
LINE
8
BLACK
6
CONTINUOUS
10
18.0442
20
-26.685
11
17.669
21
-26.7212
0
LINE
8
BLACK
6
CONTINUOUS
10
17.669
20
-26.7212
11
17.2921
21
-26.7192
0
LINE
8
BLACK
6
CONTINUOUS
10
17.2921
20
-26.7192
11
16.9173
21
-26.6791
0
LINE
8
BLACK
6
CONTINUOUS
10
16.9173
20
-26.6791
11
16.5485
21
-26.6014
0
LINE
8
BLACK
6
CONTINUOUS
10
16.5485
20
-26.6014
11
16.1894
21
-26.4868
0
LINE
8
BLACK
6
CONTINUOUS
10
16.1894
20
-26.4868
11
15.8437
21
-26.3365
0
LINE
8
BLACK
6
CONTINUOUS
10
15.8437
20
-26.3365
11
15.515
21
-26.1521
0
LINE
8
BLACK
6
CONTINUOUS
10
15.515
20
-26.1521
11
15.2067
21
-25.9353
0
LINE
8
BLACK
6
CONTINUOUS
10
15.2067
20
-25.9353
11
14.9218
21
-25.6886
0
LINE
8
BLACK
6
CONTINUOUS
10
14.9218
20
-25.6886
11
14.6633
21
-25.4142
0
LINE
8
BLACK
6
CONTINUOUS
10
14.6633
20
-25.4142
11
14.4338
21
-25.1152
0
LINE
8
BLACK
6
CONTINUOUS
10
14.4338
20
-25.1152
11
14.2358
21
-24.7945
0
LINE
8
BLACK
6
CONTINUOUS
10
14.2358
20
-24.7945
11
14.0711
21
-24.4555
0
LINE
8
BLACK
6
CONTINUOUS
10
14.0711
20
-24.4555
11
13.9416
21
-24.1015
0
LINE
8
BLACK
6
CONTINUOUS
10
13.9416
20
-24.1015
11
13.8485
21
-23.7363
0
LINE
8
BLACK
6
CONTINUOUS
10
13.8485
20
-23.7363
11
13.7928
21
-23.3635
0
LINE
8
BLACK
6
CONTINUOUS
10
13.7928
20
-23.3635
11
13.7756
21
-23
0
LINE
8
BLACK
6
CONTINUOUS
10
13.7756
20
-23
11
13.775
21
-22.987
0
LINE
8
BLACK
6
CONTINUOUS
10
13.775
20
-22.987
11
13.7954
21
-22.6106
0
LINE
8
BLACK
6
CONTINUOUS
10
13.9983
20
-23.7443
11
14.0953
21
-24.1063
0
LINE
8
BLACK
6
CONTINUOUS
10
14.0953
20
-24.1063
11
14.2296
21
-24.4561
0
LINE
8
BLACK
6
CONTINUOUS
10
14.2296
20
-24.4561
11
14.3997
21
-24.79
0
LINE
8
BLACK
6
CONTINUOUS
10
14.3997
20
-24.79
11
14.6038
21
-25.1042
0
LINE
8
BLACK
6
CONTINUOUS
10
14.6038
20
-25.1042
11
14.8396
21
-25.3954
0
LINE
8
BLACK
6
CONTINUOUS
10
14.8396
20
-25.3954
11
15.1046
21
-25.6604
0
LINE
8
BLACK
6
CONTINUOUS
10
15.1046
20
-25.6604
11
15.3958
21
-25.8962
0
LINE
8
BLACK
6
CONTINUOUS
10
15.3958
20
-25.8962
11
15.71
21
-26.1003
0
LINE
8
BLACK
6
CONTINUOUS
10
15.71
20
-26.1003
11
16.0439
21
-26.2704
0
LINE
8
BLACK
6
CONTINUOUS
10
16.0439
20
-26.2704
11
16.3937
21
-26.4047
0
LINE
8
BLACK
6
CONTINUOUS
10
16.3937
20
-26.4047
11
16.7557
21
-26.5017
0
LINE
8
BLACK
6
CONTINUOUS
10
16.7557
20
-26.5017
11
17.1258
21
-26.5603
0
LINE
8
BLACK
6
CONTINUOUS
10
17.1258
20
-26.5603
11
17.5
21
-26.5799
0
LINE
8
BLACK
6
CONTINUOUS
10
17.5
20
-26.5799
11
17.8742
21
-26.5603
0
LINE
8
BLACK
6
CONTINUOUS
10
17.8742
20
-26.5603
11
18.2443
21
-26.5017
0
LINE
8
BLACK
6
CONTINUOUS
10
18.2443
20
-26.5017
11
18.6063
21
-26.4047
0
LINE
8
BLACK
6
CONTINUOUS
10
18.6063
20
-26.4047
11
18.9561
21
-26.2704
0
LINE
8
BLACK
6
CONTINUOUS
10
18.9561
20
-26.2704
11
19.29
21
-26.1003
0
LINE
8
BLACK
6
CONTINUOUS
10
19.29
20
-26.1003
11
19.6042
21
-25.8962
0
LINE
8
BLACK
6
CONTINUOUS
10
19.6042
20
-25.8962
11
19.8954
21
-25.6604
0
LINE
8
BLACK
6
CONTINUOUS
10
19.8954
20
-25.6604
11
20.1604
21
-25.3954
0
LINE
8
BLACK
6
CONTINUOUS
10
20.1604
20
-25.3954
11
20.3962
21
-25.1042
0
LINE
8
BLACK
6
CONTINUOUS
10
20.3962
20
-25.1042
11
20.6003
21
-24.79
0
LINE
8
BLACK
6
CONTINUOUS
10
20.6003
20
-24.79
11
20.7704
21
-24.4561
0
LINE
8
BLACK
6
CONTINUOUS
10
20.7704
20
-24.4561
11
20.9047
21
-24.1063
0
LINE
8
BLACK
6
CONTINUOUS
10
20.9047
20
-24.1063
11
21.0017
21
-23.7443
0
LINE
8
BLACK
6
CONTINUOUS
10
21.0017
20
-23.7443
11
21.0603
21
-23.3742
0
LINE
8
BLACK
6
CONTINUOUS
10
21.0603
20
-23.3742
11
21.0799
21
-23
0
LINE
8
BLACK
6
CONTINUOUS
10
21.0799
20
-23
11
21.0603
21
-22.6258
0
LINE
8
BLACK
6
CONTINUOUS
10
21.0603
20
-22.6258
11
21.0017
21
-22.2557
0
LINE
8
BLACK
6
CONTINUOUS
10
21.0017
20
-22.2557
11
20.9047
21
-21.8937
0
LINE
8
BLACK
6
CONTINUOUS
10
20.9047
20
-21.8937
11
20.7704
21
-21.5439
0
LINE
8
BLACK
6
CONTINUOUS
10
20.7704
20
-21.5439
11
20.6003
21
-21.21
0
LINE
8
BLACK
6
CONTINUOUS
10
20.6003
20
-21.21
11
20.3962
21
-20.8958
0
LINE
8
BLACK
6
CONTINUOUS
10
20.3962
20
-20.8958
11
20.1604
21
-20.6046
0
LINE
8
BLACK
6
CONTINUOUS
10
20.1604
20
-20.6046
11
19.8954
21
-20.3396
0
LINE
8
BLACK
6
CONTINUOUS
10
19.8954
20
-20.3396
11
19.6042
21
-20.1038
0
LINE
8
BLACK
6
CONTINUOUS
10
19.6042
20
-20.1038
11
19.29
21
-19.8997
0
LINE
8
BLACK
6
CONTINUOUS
10
19.29
20
-19.8997
11
18.9561
21
-19.7296
0
LINE
8
BLACK
6
CONTINUOUS
10
18.9561
20
-19.7296
11
18.6063
21
-19.5953
0
LINE
8
BLACK
6
CONTINUOUS
10
18.6063
20
-19.5953
11
18.2443
21
-19.4983
0
LINE
8
BLACK
6
CONTINUOUS
10
18.2443
20
-19.4983
11
17.8742
21
-19.4397
0
LINE
8
BLACK
6
CONTINUOUS
10
17.8742
20
-19.4397
11
17.5
21
-19.4201
0
LINE
8
BLACK
6
CONTINUOUS
10
17.5
20
-19.4201
11
17.1258
21
-19.4397
0
LINE
8
BLACK
6
CONTINUOUS
10
17.1258
20
-19.4397
11
16.7557
21
-19.4983
0
LINE
8
BLACK
6
CONTINUOUS
10
16.7557
20
-19.4983
11
16.3937
21
-19.5953
0
LINE
8
BLACK
6
CONTINUOUS
10
16.3937
20
-19.5953
11
16.0439
21
-19.7296
0
LINE
8
BLACK
6
CONTINUOUS
10
16.0439
20
-19.7296
11
15.71
21
-19.8997
0
LINE
8
BLACK
6
CONTINUOUS
10
15.71
20
-19.8997
11
15.3958
21
-20.1038
0
LINE
8
BLACK
6
CONTINUOUS
10
15.3958
20
-20.1038
11
15.1046
21
-20.3396
0
LINE
8
BLACK
6
CONTINUOUS
10
15.1046
20
-20.3396
11
14.8396
21
-20.6046
0
LINE
8
BLACK
6
CONTINUOUS
10
14.8396
20
-20.6046
11
14.6038
21
-20.8958
0
LINE
8
BLACK
6
CONTINUOUS
10
14.6038
20
-20.8958
11
14.3997
21
-21.21
0
LINE
8
BLACK
6
CONTINUOUS
10
14.3997
20
-21.21
11
14.2296
21
-21.5439
0
LINE
8
BLACK
6
CONTINUOUS
10
14.2296
20
-21.5439
11
14.0953
21
-21.8937
0
LINE
8
BLACK
6
CONTINUOUS
10
14.0953
20
-21.8937
11
13.9983
21
-22.2557
0
LINE
8
BLACK
6
CONTINUOUS
10
13.9983
20
-22.2557
11
13.9397
21
-22.6258
0
LINE
8
BLACK
6
CONTINUOUS
10
13.9397
20
-22.6258
11
13.9201
21
-23
0
LINE
8
BLACK
6
CONTINUOUS
10
13.9201
20
-23
11
13.9397
21
-23.3742
0
LINE
8
BLACK
6
CONTINUOUS
10
13.9397
20
-23.3742
11
13.9983
21
-23.7443
0
LINE
8
BLACK
6
CONTINUOUS
10
24.3004
20
-6.0958
11
24.3654
21
-5.74167
0
LINE
8
BLACK
6
CONTINUOUS
10
24.3654
20
-5.74167
11
24.4695
21
-5.39698
0
LINE
8
BLACK
6
CONTINUOUS
10
24.4695
20
-5.39698
11
24.6113
21
-5.06605
0
LINE
8
BLACK
6
CONTINUOUS
10
24.6113
20
-5.06605
11
24.7892
21
-4.75299
0
LINE
8
BLACK
6
CONTINUOUS
10
24.7892
20
-4.75299
11
25.0008
21
-4.4617
0
LINE
8
BLACK
6
CONTINUOUS
10
25.0008
20
-4.4617
11
25.2436
21
-4.19583
0
LINE
8
BLACK
6
CONTINUOUS
10
25.2436
20
-4.19583
11
25.5145
21
-3.95866
0
LINE
8
BLACK
6
CONTINUOUS
10
25.5145
20
-3.95866
11
25.8101
21
-3.75318
0
LINE
8
BLACK
6
CONTINUOUS
10
25.8101
20
-3.75318
11
26.1269
21
-3.58193
0
LINE
8
BLACK
6
CONTINUOUS
10
26.1269
20
-3.58193
11
26.4607
21
-3.44706
0
LINE
8
BLACK
6
CONTINUOUS
10
26.4607
20
-3.44706
11
26.8075
21
-3.35023
0
LINE
8
BLACK
6
CONTINUOUS
10
26.8075
20
-3.35023
11
27.1629
21
-3.29267
0
LINE
8
BLACK
6
CONTINUOUS
10
27.1629
20
-3.29267
11
27.5225
21
-3.27508
0
LINE
8
BLACK
6
CONTINUOUS
10
27.5225
20
-3.27508
11
27.8819
21
-3.29769
0
LINE
8
BLACK
6
CONTINUOUS
10
27.8819
20
-3.29769
11
28.2364
21
-3.36021
0
LINE
8
BLACK
6
CONTINUOUS
10
28.2364
20
-3.36021
11
28.5818
21
-3.46186
0
LINE
8
BLACK
6
CONTINUOUS
10
28.5818
20
-3.46186
11
28.9137
21
-3.60139
0
LINE
8
BLACK
6
CONTINUOUS
10
28.9137
20
-3.60139
11
29.228
21
-3.77704
0
LINE
8
BLACK
6
CONTINUOUS
10
29.228
20
-3.77704
11
29.5208
21
-3.98663
0
LINE
8
BLACK
6
CONTINUOUS
10
29.5208
20
-3.98663
11
29.7884
21
-4.22755
0
LINE
8
BLACK
6
CONTINUOUS
10
29.7884
20
-4.22755
11
30.0274
21
-4.4968
0
LINE
8
BLACK
6
CONTINUOUS
10
30.0274
20
-4.4968
11
30.235
21
-4.79101
0
LINE
8
BLACK
6
CONTINUOUS
10
30.235
20
-4.79101
11
30.4084
21
-5.10652
0
LINE
8
BLACK
6
CONTINUOUS
10
30.4084
20
-5.10652
11
30.5456
21
-5.4394
0
LINE
8
BLACK
6
CONTINUOUS
10
30.5456
20
-5.4394
11
30.6449
21
-5.78551
0
LINE
8
BLACK
6
CONTINUOUS
10
30.6449
20
-5.78551
11
30.7049
21
-6.14051
0
LINE
8
BLACK
6
CONTINUOUS
10
30.7049
20
-6.14051
11
30.725
21
-6.5
0
LINE
8
BLACK
6
CONTINUOUS
10
30.725
20
-6.5
11
30.7237
21
-6.59005
0
LINE
8
BLACK
6
CONTINUOUS
10
30.7237
20
-6.59005
11
30.6936
21
-6.94883
0
LINE
8
BLACK
6
CONTINUOUS
10
30.6936
20
-6.94883
11
30.6237
21
-7.30202
0
LINE
8
BLACK
6
CONTINUOUS
10
30.6237
20
-7.30202
11
30.5148
21
-7.64522
0
LINE
8
BLACK
6
CONTINUOUS
10
30.5148
20
-7.64522
11
30.3684
21
-7.97414
0
LINE
8
BLACK
6
CONTINUOUS
10
30.3684
20
-7.97414
11
30.1862
21
-8.28469
0
LINE
8
BLACK
6
CONTINUOUS
10
30.1862
20
-8.28469
11
29.9705
21
-8.57299
0
LINE
8
BLACK
6
CONTINUOUS
10
29.9705
20
-8.57299
11
29.724
21
-8.83545
0
LINE
8
BLACK
6
CONTINUOUS
10
29.724
20
-8.83545
11
29.4498
21
-9.06881
0
LINE
8
BLACK
6
CONTINUOUS
10
29.4498
20
-9.06881
11
29.1513
21
-9.27015
0
LINE
8
BLACK
6
CONTINUOUS
10
29.1513
20
-9.27015
11
28.8323
21
-9.43695
0
LINE
8
BLACK
6
CONTINUOUS
10
28.8323
20
-9.43695
11
28.4966
21
-9.56716
0
LINE
8
BLACK
6
CONTINUOUS
10
28.4966
20
-9.56716
11
28.1485
21
-9.65913
0
LINE
8
BLACK
6
CONTINUOUS
10
28.1485
20
-9.65913
11
27.7923
21
-9.71173
0
LINE
8
BLACK
6
CONTINUOUS
10
27.7923
20
-9.71173
11
27.4325
21
-9.72429
0
LINE
8
BLACK
6
CONTINUOUS
10
27.4325
20
-9.72429
11
27.0735
21
-9.69667
0
LINE
8
BLACK
6
CONTINUOUS
10
27.0735
20
-9.69667
11
26.7198
21
-9.6292
0
LINE
8
BLACK
6
CONTINUOUS
10
26.7198
20
-9.6292
11
26.3759
21
-9.52273
0
LINE
8
BLACK
6
CONTINUOUS
10
26.3759
20
-9.52273
11
26.0459
21
-9.37859
0
LINE
8
BLACK
6
CONTINUOUS
10
26.0459
20
-9.37859
11
25.7341
21
-9.19857
0
LINE
8
BLACK
6
CONTINUOUS
10
25.7341
20
-9.19857
11
25.4443
21
-8.9849
0
LINE
8
BLACK
6
CONTINUOUS
10
25.4443
20
-8.9849
11
25.1801
21
-8.74027
0
LINE
8
BLACK
6
CONTINUOUS
10
25.1801
20
-8.74027
11
24.9449
21
-8.46772
0
LINE
8
BLACK
6
CONTINUOUS
10
24.9449
20
-8.46772
11
24.7415
21
-8.17064
0
LINE
8
BLACK
6
CONTINUOUS
10
24.7415
20
-8.17064
11
24.5724
21
-7.85273
0
LINE
8
BLACK
6
CONTINUOUS
10
24.5724
20
-7.85273
11
24.4399
21
-7.51797
0
LINE
8
BLACK
6
CONTINUOUS
10
24.4399
20
-7.51797
11
24.3455
21
-7.17051
0
LINE
8
BLACK
6
CONTINUOUS
10
24.3455
20
-7.17051
11
24.2904
21
-6.81471
0
LINE
8
BLACK
6
CONTINUOUS
10
24.2904
20
-6.81471
11
24.2754
21
-6.457
0
LINE
8
BLACK
6
CONTINUOUS
10
24.2754
20
-6.457
11
24.2753
21
-6.45497
0
LINE
8
BLACK
6
CONTINUOUS
10
24.2753
20
-6.45497
11
24.3004
21
-6.0958
0
LINE
8
BLACK
6
CONTINUOUS
10
24.4875
20
-7.14034
11
24.5776
21
-7.47215
0
LINE
8
BLACK
6
CONTINUOUS
10
24.5776
20
-7.47215
11
24.7042
21
-7.79185
0
LINE
8
BLACK
6
CONTINUOUS
10
24.7042
20
-7.79185
11
24.8656
21
-8.09544
0
LINE
8
BLACK
6
CONTINUOUS
10
24.8656
20
-8.09544
11
25.0599
21
-8.37915
0
LINE
8
BLACK
6
CONTINUOUS
10
25.0599
20
-8.37915
11
25.2845
21
-8.63944
0
LINE
8
BLACK
6
CONTINUOUS
10
25.2845
20
-8.63944
11
25.5368
21
-8.87306
0
LINE
8
BLACK
6
CONTINUOUS
10
25.5368
20
-8.87306
11
25.8136
21
-9.0771
0
LINE
8
BLACK
6
CONTINUOUS
10
25.8136
20
-9.0771
11
26.1114
21
-9.24903
0
LINE
8
BLACK
6
CONTINUOUS
10
26.1114
20
-9.24903
11
26.4265
21
-9.38668
0
LINE
8
BLACK
6
CONTINUOUS
10
26.4265
20
-9.38668
11
26.7549
21
-9.48836
0
LINE
8
BLACK
6
CONTINUOUS
10
26.7549
20
-9.48836
11
27.0927
21
-9.55279
0
LINE
8
BLACK
6
CONTINUOUS
10
27.0927
20
-9.55279
11
27.4355
21
-9.57917
0
LINE
8
BLACK
6
CONTINUOUS
10
27.4355
20
-9.57917
11
27.7791
21
-9.56717
0
LINE
8
BLACK
6
CONTINUOUS
10
27.7791
20
-9.56717
11
28.1193
21
-9.51694
0
LINE
8
BLACK
6
CONTINUOUS
10
28.1193
20
-9.51694
11
28.4517
21
-9.42911
0
LINE
8
BLACK
6
CONTINUOUS
10
28.4517
20
-9.42911
11
28.7723
21
-9.30476
0
LINE
8
BLACK
6
CONTINUOUS
10
28.7723
20
-9.30476
11
29.077
21
-9.14546
0
LINE
8
BLACK
6
CONTINUOUS
10
29.077
20
-9.14546
11
29.3621
21
-8.95319
0
LINE
8
BLACK
6
CONTINUOUS
10
29.3621
20
-8.95319
11
29.6239
21
-8.73034
0
LINE
8
BLACK
6
CONTINUOUS
10
29.6239
20
-8.73034
11
29.8593
21
-8.47969
0
LINE
8
BLACK
6
CONTINUOUS
10
29.8593
20
-8.47969
11
30.0653
21
-8.20436
0
LINE
8
BLACK
6
CONTINUOUS
10
30.0653
20
-8.20436
11
30.2393
21
-7.90779
0
LINE
8
BLACK
6
CONTINUOUS
10
30.2393
20
-7.90779
11
30.3791
21
-7.59367
0
LINE
8
BLACK
6
CONTINUOUS
10
30.3791
20
-7.59367
11
30.4831
21
-7.26593
0
LINE
8
BLACK
6
CONTINUOUS
10
30.4831
20
-7.26593
11
30.5499
21
-6.92863
0
LINE
8
BLACK
6
CONTINUOUS
10
30.5499
20
-6.92863
11
30.5786
21
-6.58599
0
LINE
8
BLACK
6
CONTINUOUS
10
30.5786
20
-6.58599
11
30.5798
21
-6.5
0
LINE
8
BLACK
6
CONTINUOUS
10
30.5798
20
-6.5
11
30.5607
21
-6.15669
0
LINE
8
BLACK
6
CONTINUOUS
10
30.5607
20
-6.15669
11
30.5033
21
-5.81766
0
LINE
8
BLACK
6
CONTINUOUS
10
30.5033
20
-5.81766
11
30.4085
21
-5.48714
0
LINE
8
BLACK
6
CONTINUOUS
10
30.4085
20
-5.48714
11
30.2775
21
-5.16924
0
LINE
8
BLACK
6
CONTINUOUS
10
30.2775
20
-5.16924
11
30.1119
21
-4.86793
0
LINE
8
BLACK
6
CONTINUOUS
10
30.1119
20
-4.86793
11
29.9137
21
-4.58696
0
LINE
8
BLACK
6
CONTINUOUS
10
29.9137
20
-4.58696
11
29.6854
21
-4.32984
0
LINE
8
BLACK
6
CONTINUOUS
10
29.6854
20
-4.32984
11
29.4298
21
-4.09976
0
LINE
8
BLACK
6
CONTINUOUS
10
29.4298
20
-4.09976
11
29.1503
21
-3.8996
0
LINE
8
BLACK
6
CONTINUOUS
10
29.1503
20
-3.8996
11
28.8501
21
-3.73185
0
LINE
8
BLACK
6
CONTINUOUS
10
28.8501
20
-3.73185
11
28.5331
21
-3.59861
0
LINE
8
BLACK
6
CONTINUOUS
10
28.5331
20
-3.59861
11
28.2033
21
-3.50153
0
LINE
8
BLACK
6
CONTINUOUS
10
28.2033
20
-3.50153
11
27.8647
21
-3.44182
0
LINE
8
BLACK
6
CONTINUOUS
10
27.8647
20
-3.44182
11
27.5215
21
-3.42023
0
LINE
8
BLACK
6
CONTINUOUS
10
27.5215
20
-3.42023
11
27.1781
21
-3.43703
0
LINE
8
BLACK
6
CONTINUOUS
10
27.1781
20
-3.43703
11
26.8386
21
-3.492
0
LINE
8
BLACK
6
CONTINUOUS
10
26.8386
20
-3.492
11
26.5075
21
-3.58447
0
LINE
8
BLACK
6
CONTINUOUS
10
26.5075
20
-3.58447
11
26.1887
21
-3.71327
0
LINE
8
BLACK
6
CONTINUOUS
10
26.1887
20
-3.71327
11
25.8862
21
-3.87681
0
LINE
8
BLACK
6
CONTINUOUS
10
25.8862
20
-3.87681
11
25.6039
21
-4.07305
0
LINE
8
BLACK
6
CONTINUOUS
10
25.6039
20
-4.07305
11
25.3451
21
-4.29953
0
LINE
8
BLACK
6
CONTINUOUS
10
25.3451
20
-4.29953
11
25.1133
21
-4.55345
0
LINE
8
BLACK
6
CONTINUOUS
10
25.1133
20
-4.55345
11
24.9112
21
-4.83162
0
LINE
8
BLACK
6
CONTINUOUS
10
24.9112
20
-4.83162
11
24.7413
21
-5.13059
0
LINE
8
BLACK
6
CONTINUOUS
10
24.7413
20
-5.13059
11
24.6059
21
-5.44663
0
LINE
8
BLACK
6
CONTINUOUS
10
24.6059
20
-5.44663
11
24.5065
21
-5.7758
0
LINE
8
BLACK
6
CONTINUOUS
10
24.5065
20
-5.7758
11
24.4444
21
-6.11399
0
LINE
8
BLACK
6
CONTINUOUS
10
24.4444
20
-6.11399
11
24.4205
21
-6.457
0
LINE
8
BLACK
6
CONTINUOUS
10
24.4205
20
-6.457
11
24.4349
21
-6.80054
0
LINE
8
BLACK
6
CONTINUOUS
10
24.4349
20
-6.80054
11
24.4875
21
-7.14034
  0
ENDSEC
  0
EOF
