  0
SECTION
  2
HEADER
  9
$ANGBASE
  50
0.0
  9
$ANGDIR
  70
1
  9
$MEASUREMENT
  70
1
  0
ENDSEC
  0
SECTION
  2
TABLES
  0
TABLE
  2
LTYPE
  70
4
  0
LTYPE
  5
40F
  2
CONTINUOUS
  70
0
  3
Solid line
  72
65
  73
0
  40
0.0
  0
LTYPE
  5
410
  2
DASHDOT
 70
0
  3
Dash Dot ____ _ ____ _
 72
65
 73
4
 40
2.0
 49
1.25
 49
-0.25
 49
0.25
 49
-0.25
  0
LTYPE
  5
411
  2
DASHED
 70
0
  3
Dashed __ __ __ __ __
 72
65
 73
2
 40
0.75
 49
0.5
 49
-0.25
  0
LTYPE
  5
43B
  2
DOTTED
 70
0
  3
Dotted .  .  .  .
 72
65
 73
2
 40
0.2
 49
0.0
 49
-0.2
  0
ENDTAB
  0
TABLE
  2
STYLE
  70
4
  0
STYLE
  2
KICAD
  70
0
  40
0
  41
1
  42
1
  50
0
  71
0
  3
isocp.shx
  0
STYLE
  2
KICADB
  70
0
  40
0
  41
1
  42
1
  50
0
  71
0
  3
isocp.shx
  0
STYLE
  2
KICADI
  70
0
  40
0
  41
1
  42
1
  50
15
  71
0
  3
isocp.shx
  0
STYLE
  2
KICADBI
  70
0
  40
0
  41
1
  42
1
  50
15
  71
0
  3
isocp.shx
  0
ENDTAB
  0
TABLE
  2
LAYER
  70
1
  0
LAYER
  2
BLACK
  70
0
  62
7
  6
CONTINUOUS
  0
ENDTAB
  0
ENDSEC
  0
SECTION
  2
ENTITIES
0
LINE
8
BLACK
6
CONTINUOUS
10
80.0097
20
0.073282
11
80.013
21
0.073861
0
LINE
8
BLACK
6
CONTINUOUS
10
80.013
20
0.073861
11
80.0159
21
0.072195
0
LINE
8
BLACK
6
CONTINUOUS
10
80.0159
20
0.072195
11
80.0257
21
0.070477
0
LINE
8
BLACK
6
CONTINUOUS
10
80.0257
20
0.070477
11
80.0406
21
0.057951
0
LINE
8
BLACK
6
CONTINUOUS
10
80.0406
20
0.057951
11
80.0575
21
0.048209
0
LINE
8
BLACK
6
CONTINUOUS
10
80.0575
20
0.048209
11
80.0598
21
0.04185
0
LINE
8
BLACK
6
CONTINUOUS
10
80.0598
20
0.04185
11
80.065
21
0.0375
0
LINE
8
BLACK
6
CONTINUOUS
10
80.065
20
0.0375
11
80.0683
21
0.018309
0
LINE
8
BLACK
6
CONTINUOUS
10
80.0683
20
0.018309
11
80.075
21
0
0
LINE
8
BLACK
6
CONTINUOUS
10
80.075
20
0
11
80.075
21
-100
0
LINE
8
BLACK
6
CONTINUOUS
10
80.075
20
-100
11
80.0733
21
-100.01
0
LINE
8
BLACK
6
CONTINUOUS
10
80.0733
20
-100.01
11
80.0739
21
-100.013
0
LINE
8
BLACK
6
CONTINUOUS
10
80.0739
20
-100.013
11
80.0722
21
-100.016
0
LINE
8
BLACK
6
CONTINUOUS
10
80.0722
20
-100.016
11
80.0705
21
-100.026
0
LINE
8
BLACK
6
CONTINUOUS
10
80.0705
20
-100.026
11
80.058
21
-100.041
0
LINE
8
BLACK
6
CONTINUOUS
10
80.058
20
-100.041
11
80.0482
21
-100.057
0
LINE
8
BLACK
6
CONTINUOUS
10
80.0482
20
-100.057
11
80.0418
21
-100.06
0
LINE
8
BLACK
6
CONTINUOUS
10
80.0418
20
-100.06
11
80.0375
21
-100.065
0
LINE
8
BLACK
6
CONTINUOUS
10
80.0375
20
-100.065
11
80.0183
21
-100.068
0
LINE
8
BLACK
6
CONTINUOUS
10
80.0183
20
-100.068
11
80
21
-100.075
0
LINE
8
BLACK
6
CONTINUOUS
10
80
20
-100.075
11
0
21
-100.075
0
LINE
8
BLACK
6
CONTINUOUS
10
0
20
-100.075
11
-0.009742
21
-100.073
0
LINE
8
BLACK
6
CONTINUOUS
10
-0.009742
20
-100.073
11
-0.013024
21
-100.074
0
LINE
8
BLACK
6
CONTINUOUS
10
-0.013024
20
-100.074
11
-0.01591
21
-100.072
0
LINE
8
BLACK
6
CONTINUOUS
10
-0.01591
20
-100.072
11
-0.025652
21
-100.07
0
LINE
8
BLACK
6
CONTINUOUS
10
-0.025652
20
-100.07
11
-0.040579
21
-100.058
0
LINE
8
BLACK
6
CONTINUOUS
10
-0.040579
20
-100.058
11
-0.057453
21
-100.048
0
LINE
8
BLACK
6
CONTINUOUS
10
-0.057453
20
-100.048
11
-0.059767
21
-100.042
0
LINE
8
BLACK
6
CONTINUOUS
10
-0.059767
20
-100.042
11
-0.064952
21
-100.037
0
LINE
8
BLACK
6
CONTINUOUS
10
-0.064952
20
-100.037
11
-0.068336
21
-100.018
0
LINE
8
BLACK
6
CONTINUOUS
10
-0.068336
20
-100.018
11
-0.075
21
-100
0
LINE
8
BLACK
6
CONTINUOUS
10
-0.075
20
-100
11
-0.075
21
0
0
LINE
8
BLACK
6
CONTINUOUS
10
-0.075
20
0
11
-0.073282
21
0.009742
0
LINE
8
BLACK
6
CONTINUOUS
10
-0.073282
20
0.009742
11
-0.073861
21
0.013024
0
LINE
8
BLACK
6
CONTINUOUS
10
-0.073861
20
0.013024
11
-0.072195
21
0.01591
0
LINE
8
BLACK
6
CONTINUOUS
10
-0.072195
20
0.01591
11
-0.070477
21
0.025652
0
LINE
8
BLACK
6
CONTINUOUS
10
-0.070477
20
0.025652
11
-0.057951
21
0.040579
0
LINE
8
BLACK
6
CONTINUOUS
10
-0.057951
20
0.040579
11
-0.048209
21
0.057453
0
LINE
8
BLACK
6
CONTINUOUS
10
-0.048209
20
0.057453
11
-0.04185
21
0.059767
0
LINE
8
BLACK
6
CONTINUOUS
10
-0.04185
20
0.059767
11
-0.0375
21
0.064952
0
LINE
8
BLACK
6
CONTINUOUS
10
-0.0375
20
0.064952
11
-0.018309
21
0.068336
0
LINE
8
BLACK
6
CONTINUOUS
10
-0.018309
20
0.068336
11
0
21
0.075
0
LINE
8
BLACK
6
CONTINUOUS
10
0
20
0.075
11
80
21
0.075
0
LINE
8
BLACK
6
CONTINUOUS
10
80
20
0.075
11
80.0097
21
0.073282
0
LINE
8
BLACK
6
CONTINUOUS
10
36.9875
20
-94.1403
11
37.0776
21
-94.4721
0
LINE
8
BLACK
6
CONTINUOUS
10
37.0776
20
-94.4721
11
37.2042
21
-94.7918
0
LINE
8
BLACK
6
CONTINUOUS
10
37.2042
20
-94.7918
11
37.3656
21
-95.0954
0
LINE
8
BLACK
6
CONTINUOUS
10
37.3656
20
-95.0954
11
37.5599
21
-95.3792
0
LINE
8
BLACK
6
CONTINUOUS
10
37.5599
20
-95.3792
11
37.7845
21
-95.6394
0
LINE
8
BLACK
6
CONTINUOUS
10
37.7845
20
-95.6394
11
38.0368
21
-95.8731
0
LINE
8
BLACK
6
CONTINUOUS
10
38.0368
20
-95.8731
11
38.3136
21
-96.0771
0
LINE
8
BLACK
6
CONTINUOUS
10
38.3136
20
-96.0771
11
38.6114
21
-96.249
0
LINE
8
BLACK
6
CONTINUOUS
10
38.6114
20
-96.249
11
38.9265
21
-96.3867
0
LINE
8
BLACK
6
CONTINUOUS
10
38.9265
20
-96.3867
11
39.2549
21
-96.4884
0
LINE
8
BLACK
6
CONTINUOUS
10
39.2549
20
-96.4884
11
39.5927
21
-96.5528
0
LINE
8
BLACK
6
CONTINUOUS
10
39.5927
20
-96.5528
11
39.925
21
-96.5784
0
LINE
8
BLACK
6
CONTINUOUS
10
39.925
20
-96.5784
11
39.925
21
-90.4249
0
LINE
8
BLACK
6
CONTINUOUS
10
39.925
20
-90.4249
11
39.6781
21
-90.437
0
LINE
8
BLACK
6
CONTINUOUS
10
39.6781
20
-90.437
11
39.3386
21
-90.492
0
LINE
8
BLACK
6
CONTINUOUS
10
39.3386
20
-90.492
11
39.0075
21
-90.5845
0
LINE
8
BLACK
6
CONTINUOUS
10
39.0075
20
-90.5845
11
38.6887
21
-90.7133
0
LINE
8
BLACK
6
CONTINUOUS
10
38.6887
20
-90.7133
11
38.3862
21
-90.8768
0
LINE
8
BLACK
6
CONTINUOUS
10
38.3862
20
-90.8768
11
38.1039
21
-91.073
0
LINE
8
BLACK
6
CONTINUOUS
10
38.1039
20
-91.073
11
37.8451
21
-91.2995
0
LINE
8
BLACK
6
CONTINUOUS
10
37.8451
20
-91.2995
11
37.6133
21
-91.5534
0
LINE
8
BLACK
6
CONTINUOUS
10
37.6133
20
-91.5534
11
37.4112
21
-91.8316
0
LINE
8
BLACK
6
CONTINUOUS
10
37.4112
20
-91.8316
11
37.2413
21
-92.1306
0
LINE
8
BLACK
6
CONTINUOUS
10
37.2413
20
-92.1306
11
37.1059
21
-92.4466
0
LINE
8
BLACK
6
CONTINUOUS
10
37.1059
20
-92.4466
11
37.0065
21
-92.7758
0
LINE
8
BLACK
6
CONTINUOUS
10
37.0065
20
-92.7758
11
36.9444
21
-93.114
0
LINE
8
BLACK
6
CONTINUOUS
10
36.9444
20
-93.114
11
36.9205
21
-93.457
0
LINE
8
BLACK
6
CONTINUOUS
10
36.9205
20
-93.457
11
36.9349
21
-93.8005
0
LINE
8
BLACK
6
CONTINUOUS
10
36.9349
20
-93.8005
11
36.9875
21
-94.1403
0
LINE
8
BLACK
6
CONTINUOUS
10
63.2221
20
-50.075
11
63.2032
21
-50.4023
0
LINE
8
BLACK
6
CONTINUOUS
10
63.2032
20
-50.4023
11
63.1436
21
-50.7745
0
LINE
8
BLACK
6
CONTINUOUS
10
63.1436
20
-50.7745
11
63.0467
21
-51.1387
0
LINE
8
BLACK
6
CONTINUOUS
10
63.0467
20
-51.1387
11
62.9135
21
-51.4913
0
LINE
8
BLACK
6
CONTINUOUS
10
62.9135
20
-51.4913
11
62.7453
21
-51.8286
0
LINE
8
BLACK
6
CONTINUOUS
10
62.7453
20
-51.8286
11
62.5439
21
-52.1472
0
LINE
8
BLACK
6
CONTINUOUS
10
62.5439
20
-52.1472
11
62.3113
21
-52.4438
0
LINE
8
BLACK
6
CONTINUOUS
10
62.3113
20
-52.4438
11
62.0499
21
-52.7154
0
LINE
8
BLACK
6
CONTINUOUS
10
62.0499
20
-52.7154
11
61.7625
21
-52.9592
0
LINE
8
BLACK
6
CONTINUOUS
10
61.7625
20
-52.9592
11
61.4518
21
-53.1727
0
LINE
8
BLACK
6
CONTINUOUS
10
61.4518
20
-53.1727
11
61.1212
21
-53.3537
0
LINE
8
BLACK
6
CONTINUOUS
10
61.1212
20
-53.3537
11
60.774
21
-53.5004
0
LINE
8
BLACK
6
CONTINUOUS
10
60.774
20
-53.5004
11
60.4138
21
-53.6112
0
LINE
8
BLACK
6
CONTINUOUS
10
60.4138
20
-53.6112
11
60.0442
21
-53.685
0
LINE
8
BLACK
6
CONTINUOUS
10
60.0442
20
-53.685
11
59.669
21
-53.7212
0
LINE
8
BLACK
6
CONTINUOUS
10
59.669
20
-53.7212
11
59.2921
21
-53.7192
0
LINE
8
BLACK
6
CONTINUOUS
10
59.2921
20
-53.7192
11
58.9173
21
-53.6791
0
LINE
8
BLACK
6
CONTINUOUS
10
58.9173
20
-53.6791
11
58.5485
21
-53.6014
0
LINE
8
BLACK
6
CONTINUOUS
10
58.5485
20
-53.6014
11
58.1894
21
-53.4868
0
LINE
8
BLACK
6
CONTINUOUS
10
58.1894
20
-53.4868
11
57.8437
21
-53.3365
0
LINE
8
BLACK
6
CONTINUOUS
10
57.8437
20
-53.3365
11
57.515
21
-53.1521
0
LINE
8
BLACK
6
CONTINUOUS
10
57.515
20
-53.1521
11
57.2067
21
-52.9353
0
LINE
8
BLACK
6
CONTINUOUS
10
57.2067
20
-52.9353
11
56.9218
21
-52.6886
0
LINE
8
BLACK
6
CONTINUOUS
10
56.9218
20
-52.6886
11
56.6633
21
-52.4142
0
LINE
8
BLACK
6
CONTINUOUS
10
56.6633
20
-52.4142
11
56.4338
21
-52.1152
0
LINE
8
BLACK
6
CONTINUOUS
10
56.4338
20
-52.1152
11
56.2358
21
-51.7945
0
LINE
8
BLACK
6
CONTINUOUS
10
56.2358
20
-51.7945
11
56.0711
21
-51.4555
0
LINE
8
BLACK
6
CONTINUOUS
10
56.0711
20
-51.4555
11
55.9416
21
-51.1015
0
LINE
8
BLACK
6
CONTINUOUS
10
55.9416
20
-51.1015
11
55.8485
21
-50.7363
0
LINE
8
BLACK
6
CONTINUOUS
10
55.8485
20
-50.7363
11
55.7928
21
-50.3635
0
LINE
8
BLACK
6
CONTINUOUS
10
55.7928
20
-50.3635
11
55.7792
21
-50.075
0
LINE
8
BLACK
6
CONTINUOUS
10
55.7792
20
-50.075
11
40.075
21
-50.075
0
LINE
8
BLACK
6
CONTINUOUS
10
40.075
20
-50.075
11
40.075
21
-90.2784
0
LINE
8
BLACK
6
CONTINUOUS
10
40.075
20
-90.2784
11
40.3819
21
-90.2977
0
LINE
8
BLACK
6
CONTINUOUS
10
40.3819
20
-90.2977
11
40.7364
21
-90.3602
0
LINE
8
BLACK
6
CONTINUOUS
10
40.7364
20
-90.3602
11
41.0818
21
-90.4619
0
LINE
8
BLACK
6
CONTINUOUS
10
41.0818
20
-90.4619
11
41.4137
21
-90.6014
0
LINE
8
BLACK
6
CONTINUOUS
10
41.4137
20
-90.6014
11
41.728
21
-90.777
0
LINE
8
BLACK
6
CONTINUOUS
10
41.728
20
-90.777
11
42.0208
21
-90.9866
0
LINE
8
BLACK
6
CONTINUOUS
10
42.0208
20
-90.9866
11
42.2884
21
-91.2276
0
LINE
8
BLACK
6
CONTINUOUS
10
42.2884
20
-91.2276
11
42.5274
21
-91.4968
0
LINE
8
BLACK
6
CONTINUOUS
10
42.5274
20
-91.4968
11
42.735
21
-91.791
0
LINE
8
BLACK
6
CONTINUOUS
10
42.735
20
-91.791
11
42.9084
21
-92.1065
0
LINE
8
BLACK
6
CONTINUOUS
10
42.9084
20
-92.1065
11
43.0456
21
-92.4394
0
LINE
8
BLACK
6
CONTINUOUS
10
43.0456
20
-92.4394
11
43.1449
21
-92.7855
0
LINE
8
BLACK
6
CONTINUOUS
10
43.1449
20
-92.7855
11
43.2049
21
-93.1405
0
LINE
8
BLACK
6
CONTINUOUS
10
43.2049
20
-93.1405
11
43.225
21
-93.5
0
LINE
8
BLACK
6
CONTINUOUS
10
43.225
20
-93.5
11
43.2237
21
-93.59
0
LINE
8
BLACK
6
CONTINUOUS
10
43.2237
20
-93.59
11
43.1936
21
-93.9488
0
LINE
8
BLACK
6
CONTINUOUS
10
43.1936
20
-93.9488
11
43.1237
21
-94.302
0
LINE
8
BLACK
6
CONTINUOUS
10
43.1237
20
-94.302
11
43.0148
21
-94.6452
0
LINE
8
BLACK
6
CONTINUOUS
10
43.0148
20
-94.6452
11
42.8684
21
-94.9741
0
LINE
8
BLACK
6
CONTINUOUS
10
42.8684
20
-94.9741
11
42.6862
21
-95.2847
0
LINE
8
BLACK
6
CONTINUOUS
10
42.6862
20
-95.2847
11
42.4705
21
-95.573
0
LINE
8
BLACK
6
CONTINUOUS
10
42.4705
20
-95.573
11
42.224
21
-95.8355
0
LINE
8
BLACK
6
CONTINUOUS
10
42.224
20
-95.8355
11
41.9498
21
-96.0688
0
LINE
8
BLACK
6
CONTINUOUS
10
41.9498
20
-96.0688
11
41.6513
21
-96.2701
0
LINE
8
BLACK
6
CONTINUOUS
10
41.6513
20
-96.2701
11
41.3323
21
-96.437
0
LINE
8
BLACK
6
CONTINUOUS
10
41.3323
20
-96.437
11
40.9966
21
-96.5672
0
LINE
8
BLACK
6
CONTINUOUS
10
40.9966
20
-96.5672
11
40.6485
21
-96.6591
0
LINE
8
BLACK
6
CONTINUOUS
10
40.6485
20
-96.6591
11
40.2923
21
-96.7117
0
LINE
8
BLACK
6
CONTINUOUS
10
40.2923
20
-96.7117
11
40.075
21
-96.7193
0
LINE
8
BLACK
6
CONTINUOUS
10
40.075
20
-96.7193
11
40.075
21
-99.925
0
LINE
8
BLACK
6
CONTINUOUS
10
40.075
20
-99.925
11
79.925
21
-99.925
0
LINE
8
BLACK
6
CONTINUOUS
10
79.925
20
-99.925
11
79.925
21
-50.075
0
LINE
8
BLACK
6
CONTINUOUS
10
79.925
20
-50.075
11
63.2221
21
-50.075
0
LINE
8
BLACK
6
CONTINUOUS
10
40.075
20
-96.5743
11
40.2791
21
-96.5672
0
LINE
8
BLACK
6
CONTINUOUS
10
40.2791
20
-96.5672
11
40.6193
21
-96.5169
0
LINE
8
BLACK
6
CONTINUOUS
10
40.6193
20
-96.5169
11
40.9517
21
-96.4291
0
LINE
8
BLACK
6
CONTINUOUS
10
40.9517
20
-96.4291
11
41.2723
21
-96.3048
0
LINE
8
BLACK
6
CONTINUOUS
10
41.2723
20
-96.3048
11
41.577
21
-96.1455
0
LINE
8
BLACK
6
CONTINUOUS
10
41.577
20
-96.1455
11
41.8621
21
-95.9532
0
LINE
8
BLACK
6
CONTINUOUS
10
41.8621
20
-95.9532
11
42.1239
21
-95.7303
0
LINE
8
BLACK
6
CONTINUOUS
10
42.1239
20
-95.7303
11
42.3593
21
-95.4797
0
LINE
8
BLACK
6
CONTINUOUS
10
42.3593
20
-95.4797
11
42.5653
21
-95.2044
0
LINE
8
BLACK
6
CONTINUOUS
10
42.5653
20
-95.2044
11
42.7393
21
-94.9078
0
LINE
8
BLACK
6
CONTINUOUS
10
42.7393
20
-94.9078
11
42.8791
21
-94.5937
0
LINE
8
BLACK
6
CONTINUOUS
10
42.8791
20
-94.5937
11
42.9831
21
-94.2659
0
LINE
8
BLACK
6
CONTINUOUS
10
42.9831
20
-94.2659
11
43.0499
21
-93.9286
0
LINE
8
BLACK
6
CONTINUOUS
10
43.0499
20
-93.9286
11
43.0786
21
-93.586
0
LINE
8
BLACK
6
CONTINUOUS
10
43.0786
20
-93.586
11
43.0798
21
-93.5
0
LINE
8
BLACK
6
CONTINUOUS
10
43.0798
20
-93.5
11
43.0607
21
-93.1567
0
LINE
8
BLACK
6
CONTINUOUS
10
43.0607
20
-93.1567
11
43.0033
21
-92.8177
0
LINE
8
BLACK
6
CONTINUOUS
10
43.0033
20
-92.8177
11
42.9085
21
-92.4871
0
LINE
8
BLACK
6
CONTINUOUS
10
42.9085
20
-92.4871
11
42.7775
21
-92.1692
0
LINE
8
BLACK
6
CONTINUOUS
10
42.7775
20
-92.1692
11
42.6119
21
-91.8679
0
LINE
8
BLACK
6
CONTINUOUS
10
42.6119
20
-91.8679
11
42.4137
21
-91.587
0
LINE
8
BLACK
6
CONTINUOUS
10
42.4137
20
-91.587
11
42.1854
21
-91.3298
0
LINE
8
BLACK
6
CONTINUOUS
10
42.1854
20
-91.3298
11
41.9298
21
-91.0998
0
LINE
8
BLACK
6
CONTINUOUS
10
41.9298
20
-91.0998
11
41.6503
21
-90.8996
0
LINE
8
BLACK
6
CONTINUOUS
10
41.6503
20
-90.8996
11
41.3501
21
-90.7319
0
LINE
8
BLACK
6
CONTINUOUS
10
41.3501
20
-90.7319
11
41.0331
21
-90.5986
0
LINE
8
BLACK
6
CONTINUOUS
10
41.0331
20
-90.5986
11
40.7033
21
-90.5015
0
LINE
8
BLACK
6
CONTINUOUS
10
40.7033
20
-90.5015
11
40.3647
21
-90.4418
0
LINE
8
BLACK
6
CONTINUOUS
10
40.3647
20
-90.4418
11
40.075
21
-90.4236
0
LINE
8
BLACK
6
CONTINUOUS
10
40.075
20
-90.4236
11
40.075
21
-96.5743
0
LINE
8
BLACK
6
CONTINUOUS
10
16.924
20
-50.075
11
16.9397
21
-50.3742
0
LINE
8
BLACK
6
CONTINUOUS
10
16.9397
20
-50.3742
11
16.9983
21
-50.7443
0
LINE
8
BLACK
6
CONTINUOUS
10
16.9983
20
-50.7443
11
17.0953
21
-51.1063
0
LINE
8
BLACK
6
CONTINUOUS
10
17.0953
20
-51.1063
11
17.2296
21
-51.4561
0
LINE
8
BLACK
6
CONTINUOUS
10
17.2296
20
-51.4561
11
17.3997
21
-51.79
0
LINE
8
BLACK
6
CONTINUOUS
10
17.3997
20
-51.79
11
17.6038
21
-52.1042
0
LINE
8
BLACK
6
CONTINUOUS
10
17.6038
20
-52.1042
11
17.8396
21
-52.3954
0
LINE
8
BLACK
6
CONTINUOUS
10
17.8396
20
-52.3954
11
18.1046
21
-52.6604
0
LINE
8
BLACK
6
CONTINUOUS
10
18.1046
20
-52.6604
11
18.3958
21
-52.8962
0
LINE
8
BLACK
6
CONTINUOUS
10
18.3958
20
-52.8962
11
18.71
21
-53.1003
0
LINE
8
BLACK
6
CONTINUOUS
10
18.71
20
-53.1003
11
19.0439
21
-53.2704
0
LINE
8
BLACK
6
CONTINUOUS
10
19.0439
20
-53.2704
11
19.3937
21
-53.4047
0
LINE
8
BLACK
6
CONTINUOUS
10
19.3937
20
-53.4047
11
19.7557
21
-53.5017
0
LINE
8
BLACK
6
CONTINUOUS
10
19.7557
20
-53.5017
11
20.1258
21
-53.5603
0
LINE
8
BLACK
6
CONTINUOUS
10
20.1258
20
-53.5603
11
20.5
21
-53.5799
0
LINE
8
BLACK
6
CONTINUOUS
10
20.5
20
-53.5799
11
20.8742
21
-53.5603
0
LINE
8
BLACK
6
CONTINUOUS
10
20.8742
20
-53.5603
11
21.2443
21
-53.5017
0
LINE
8
BLACK
6
CONTINUOUS
10
21.2443
20
-53.5017
11
21.6063
21
-53.4047
0
LINE
8
BLACK
6
CONTINUOUS
10
21.6063
20
-53.4047
11
21.9561
21
-53.2704
0
LINE
8
BLACK
6
CONTINUOUS
10
21.9561
20
-53.2704
11
22.29
21
-53.1003
0
LINE
8
BLACK
6
CONTINUOUS
10
22.29
20
-53.1003
11
22.6042
21
-52.8962
0
LINE
8
BLACK
6
CONTINUOUS
10
22.6042
20
-52.8962
11
22.8954
21
-52.6604
0
LINE
8
BLACK
6
CONTINUOUS
10
22.8954
20
-52.6604
11
23.1604
21
-52.3954
0
LINE
8
BLACK
6
CONTINUOUS
10
23.1604
20
-52.3954
11
23.3962
21
-52.1042
0
LINE
8
BLACK
6
CONTINUOUS
10
23.3962
20
-52.1042
11
23.6003
21
-51.79
0
LINE
8
BLACK
6
CONTINUOUS
10
23.6003
20
-51.79
11
23.7704
21
-51.4561
0
LINE
8
BLACK
6
CONTINUOUS
10
23.7704
20
-51.4561
11
23.9047
21
-51.1063
0
LINE
8
BLACK
6
CONTINUOUS
10
23.9047
20
-51.1063
11
24.0017
21
-50.7443
0
LINE
8
BLACK
6
CONTINUOUS
10
24.0017
20
-50.7443
11
24.0603
21
-50.3742
0
LINE
8
BLACK
6
CONTINUOUS
10
24.0603
20
-50.3742
11
24.076
21
-50.075
0
LINE
8
BLACK
6
CONTINUOUS
10
24.076
20
-50.075
11
16.924
21
-50.075
0
LINE
8
BLACK
6
CONTINUOUS
10
55.924
20
-50.075
11
55.9397
21
-50.3742
0
LINE
8
BLACK
6
CONTINUOUS
10
55.9397
20
-50.3742
11
55.9983
21
-50.7443
0
LINE
8
BLACK
6
CONTINUOUS
10
55.9983
20
-50.7443
11
56.0953
21
-51.1063
0
LINE
8
BLACK
6
CONTINUOUS
10
56.0953
20
-51.1063
11
56.2296
21
-51.4561
0
LINE
8
BLACK
6
CONTINUOUS
10
56.2296
20
-51.4561
11
56.3997
21
-51.79
0
LINE
8
BLACK
6
CONTINUOUS
10
56.3997
20
-51.79
11
56.6038
21
-52.1042
0
LINE
8
BLACK
6
CONTINUOUS
10
56.6038
20
-52.1042
11
56.8396
21
-52.3954
0
LINE
8
BLACK
6
CONTINUOUS
10
56.8396
20
-52.3954
11
57.1046
21
-52.6604
0
LINE
8
BLACK
6
CONTINUOUS
10
57.1046
20
-52.6604
11
57.3958
21
-52.8962
0
LINE
8
BLACK
6
CONTINUOUS
10
57.3958
20
-52.8962
11
57.71
21
-53.1003
0
LINE
8
BLACK
6
CONTINUOUS
10
57.71
20
-53.1003
11
58.0439
21
-53.2704
0
LINE
8
BLACK
6
CONTINUOUS
10
58.0439
20
-53.2704
11
58.3937
21
-53.4047
0
LINE
8
BLACK
6
CONTINUOUS
10
58.3937
20
-53.4047
11
58.7557
21
-53.5017
0
LINE
8
BLACK
6
CONTINUOUS
10
58.7557
20
-53.5017
11
59.1258
21
-53.5603
0
LINE
8
BLACK
6
CONTINUOUS
10
59.1258
20
-53.5603
11
59.5
21
-53.5799
0
LINE
8
BLACK
6
CONTINUOUS
10
59.5
20
-53.5799
11
59.8742
21
-53.5603
0
LINE
8
BLACK
6
CONTINUOUS
10
59.8742
20
-53.5603
11
60.2443
21
-53.5017
0
LINE
8
BLACK
6
CONTINUOUS
10
60.2443
20
-53.5017
11
60.6063
21
-53.4047
0
LINE
8
BLACK
6
CONTINUOUS
10
60.6063
20
-53.4047
11
60.9561
21
-53.2704
0
LINE
8
BLACK
6
CONTINUOUS
10
60.9561
20
-53.2704
11
61.29
21
-53.1003
0
LINE
8
BLACK
6
CONTINUOUS
10
61.29
20
-53.1003
11
61.6042
21
-52.8962
0
LINE
8
BLACK
6
CONTINUOUS
10
61.6042
20
-52.8962
11
61.8954
21
-52.6604
0
LINE
8
BLACK
6
CONTINUOUS
10
61.8954
20
-52.6604
11
62.1604
21
-52.3954
0
LINE
8
BLACK
6
CONTINUOUS
10
62.1604
20
-52.3954
11
62.3962
21
-52.1042
0
LINE
8
BLACK
6
CONTINUOUS
10
62.3962
20
-52.1042
11
62.6003
21
-51.79
0
LINE
8
BLACK
6
CONTINUOUS
10
62.6003
20
-51.79
11
62.7704
21
-51.4561
0
LINE
8
BLACK
6
CONTINUOUS
10
62.7704
20
-51.4561
11
62.9047
21
-51.1063
0
LINE
8
BLACK
6
CONTINUOUS
10
62.9047
20
-51.1063
11
63.0017
21
-50.7443
0
LINE
8
BLACK
6
CONTINUOUS
10
63.0017
20
-50.7443
11
63.0603
21
-50.3742
0
LINE
8
BLACK
6
CONTINUOUS
10
63.0603
20
-50.3742
11
63.076
21
-50.075
0
LINE
8
BLACK
6
CONTINUOUS
10
63.076
20
-50.075
11
55.924
21
-50.075
0
LINE
8
BLACK
6
CONTINUOUS
10
36.9875
20
-7.14034
11
37.0776
21
-7.47215
0
LINE
8
BLACK
6
CONTINUOUS
10
37.0776
20
-7.47215
11
37.2042
21
-7.79185
0
LINE
8
BLACK
6
CONTINUOUS
10
37.2042
20
-7.79185
11
37.3656
21
-8.09544
0
LINE
8
BLACK
6
CONTINUOUS
10
37.3656
20
-8.09544
11
37.5599
21
-8.37915
0
LINE
8
BLACK
6
CONTINUOUS
10
37.5599
20
-8.37915
11
37.7845
21
-8.63944
0
LINE
8
BLACK
6
CONTINUOUS
10
37.7845
20
-8.63944
11
38.0368
21
-8.87306
0
LINE
8
BLACK
6
CONTINUOUS
10
38.0368
20
-8.87306
11
38.3136
21
-9.0771
0
LINE
8
BLACK
6
CONTINUOUS
10
38.3136
20
-9.0771
11
38.6114
21
-9.24903
0
LINE
8
BLACK
6
CONTINUOUS
10
38.6114
20
-9.24903
11
38.9265
21
-9.38668
0
LINE
8
BLACK
6
CONTINUOUS
10
38.9265
20
-9.38668
11
39.2549
21
-9.48836
0
LINE
8
BLACK
6
CONTINUOUS
10
39.2549
20
-9.48836
11
39.5927
21
-9.55279
0
LINE
8
BLACK
6
CONTINUOUS
10
39.5927
20
-9.55279
11
39.925
21
-9.57836
0
LINE
8
BLACK
6
CONTINUOUS
10
39.925
20
-9.57836
11
39.925
21
-3.42495
0
LINE
8
BLACK
6
CONTINUOUS
10
39.925
20
-3.42495
11
39.6781
21
-3.43703
0
LINE
8
BLACK
6
CONTINUOUS
10
39.6781
20
-3.43703
11
39.3386
21
-3.492
0
LINE
8
BLACK
6
CONTINUOUS
10
39.3386
20
-3.492
11
39.0075
21
-3.58447
0
LINE
8
BLACK
6
CONTINUOUS
10
39.0075
20
-3.58447
11
38.6887
21
-3.71327
0
LINE
8
BLACK
6
CONTINUOUS
10
38.6887
20
-3.71327
11
38.3862
21
-3.87681
0
LINE
8
BLACK
6
CONTINUOUS
10
38.3862
20
-3.87681
11
38.1039
21
-4.07305
0
LINE
8
BLACK
6
CONTINUOUS
10
38.1039
20
-4.07305
11
37.8451
21
-4.29953
0
LINE
8
BLACK
6
CONTINUOUS
10
37.8451
20
-4.29953
11
37.6133
21
-4.55345
0
LINE
8
BLACK
6
CONTINUOUS
10
37.6133
20
-4.55345
11
37.4112
21
-4.83162
0
LINE
8
BLACK
6
CONTINUOUS
10
37.4112
20
-4.83162
11
37.2413
21
-5.13059
0
LINE
8
BLACK
6
CONTINUOUS
10
37.2413
20
-5.13059
11
37.1059
21
-5.44663
0
LINE
8
BLACK
6
CONTINUOUS
10
37.1059
20
-5.44663
11
37.0065
21
-5.7758
0
LINE
8
BLACK
6
CONTINUOUS
10
37.0065
20
-5.7758
11
36.9444
21
-6.11399
0
LINE
8
BLACK
6
CONTINUOUS
10
36.9444
20
-6.11399
11
36.9205
21
-6.457
0
LINE
8
BLACK
6
CONTINUOUS
10
36.9205
20
-6.457
11
36.9349
21
-6.80054
0
LINE
8
BLACK
6
CONTINUOUS
10
36.9349
20
-6.80054
11
36.9875
21
-7.14034
0
LINE
8
BLACK
6
CONTINUOUS
10
20.1258
20
-46.4397
11
19.7557
21
-46.4983
0
LINE
8
BLACK
6
CONTINUOUS
10
19.7557
20
-46.4983
11
19.3937
21
-46.5953
0
LINE
8
BLACK
6
CONTINUOUS
10
19.3937
20
-46.5953
11
19.0439
21
-46.7296
0
LINE
8
BLACK
6
CONTINUOUS
10
19.0439
20
-46.7296
11
18.71
21
-46.8997
0
LINE
8
BLACK
6
CONTINUOUS
10
18.71
20
-46.8997
11
18.3958
21
-47.1038
0
LINE
8
BLACK
6
CONTINUOUS
10
18.3958
20
-47.1038
11
18.1046
21
-47.3396
0
LINE
8
BLACK
6
CONTINUOUS
10
18.1046
20
-47.3396
11
17.8396
21
-47.6046
0
LINE
8
BLACK
6
CONTINUOUS
10
17.8396
20
-47.6046
11
17.6038
21
-47.8958
0
LINE
8
BLACK
6
CONTINUOUS
10
17.6038
20
-47.8958
11
17.3997
21
-48.21
0
LINE
8
BLACK
6
CONTINUOUS
10
17.3997
20
-48.21
11
17.2296
21
-48.5439
0
LINE
8
BLACK
6
CONTINUOUS
10
17.2296
20
-48.5439
11
17.0953
21
-48.8937
0
LINE
8
BLACK
6
CONTINUOUS
10
17.0953
20
-48.8937
11
16.9983
21
-49.2557
0
LINE
8
BLACK
6
CONTINUOUS
10
16.9983
20
-49.2557
11
16.9397
21
-49.6258
0
LINE
8
BLACK
6
CONTINUOUS
10
16.9397
20
-49.6258
11
16.924
21
-49.925
0
LINE
8
BLACK
6
CONTINUOUS
10
16.924
20
-49.925
11
24.076
21
-49.925
0
LINE
8
BLACK
6
CONTINUOUS
10
24.076
20
-49.925
11
24.0603
21
-49.6258
0
LINE
8
BLACK
6
CONTINUOUS
10
24.0603
20
-49.6258
11
24.0017
21
-49.2557
0
LINE
8
BLACK
6
CONTINUOUS
10
24.0017
20
-49.2557
11
23.9047
21
-48.8937
0
LINE
8
BLACK
6
CONTINUOUS
10
23.9047
20
-48.8937
11
23.7704
21
-48.5439
0
LINE
8
BLACK
6
CONTINUOUS
10
23.7704
20
-48.5439
11
23.6003
21
-48.21
0
LINE
8
BLACK
6
CONTINUOUS
10
23.6003
20
-48.21
11
23.3962
21
-47.8958
0
LINE
8
BLACK
6
CONTINUOUS
10
23.3962
20
-47.8958
11
23.1604
21
-47.6046
0
LINE
8
BLACK
6
CONTINUOUS
10
23.1604
20
-47.6046
11
22.8954
21
-47.3396
0
LINE
8
BLACK
6
CONTINUOUS
10
22.8954
20
-47.3396
11
22.6042
21
-47.1038
0
LINE
8
BLACK
6
CONTINUOUS
10
22.6042
20
-47.1038
11
22.29
21
-46.8997
0
LINE
8
BLACK
6
CONTINUOUS
10
22.29
20
-46.8997
11
21.9561
21
-46.7296
0
LINE
8
BLACK
6
CONTINUOUS
10
21.9561
20
-46.7296
11
21.6063
21
-46.5953
0
LINE
8
BLACK
6
CONTINUOUS
10
21.6063
20
-46.5953
11
21.2443
21
-46.4983
0
LINE
8
BLACK
6
CONTINUOUS
10
21.2443
20
-46.4983
11
20.8742
21
-46.4397
0
LINE
8
BLACK
6
CONTINUOUS
10
20.8742
20
-46.4397
11
20.5
21
-46.4201
0
LINE
8
BLACK
6
CONTINUOUS
10
20.5
20
-46.4201
11
20.1258
21
-46.4397
0
LINE
8
BLACK
6
CONTINUOUS
10
40.075
20
-0.075
11
40.075
21
-3.27838
0
LINE
8
BLACK
6
CONTINUOUS
10
40.075
20
-3.27838
11
40.3819
21
-3.29769
0
LINE
8
BLACK
6
CONTINUOUS
10
40.3819
20
-3.29769
11
40.7364
21
-3.36021
0
LINE
8
BLACK
6
CONTINUOUS
10
40.7364
20
-3.36021
11
41.0818
21
-3.46186
0
LINE
8
BLACK
6
CONTINUOUS
10
41.0818
20
-3.46186
11
41.4137
21
-3.60139
0
LINE
8
BLACK
6
CONTINUOUS
10
41.4137
20
-3.60139
11
41.728
21
-3.77704
0
LINE
8
BLACK
6
CONTINUOUS
10
41.728
20
-3.77704
11
42.0208
21
-3.98663
0
LINE
8
BLACK
6
CONTINUOUS
10
42.0208
20
-3.98663
11
42.2884
21
-4.22755
0
LINE
8
BLACK
6
CONTINUOUS
10
42.2884
20
-4.22755
11
42.5274
21
-4.4968
0
LINE
8
BLACK
6
CONTINUOUS
10
42.5274
20
-4.4968
11
42.735
21
-4.79101
0
LINE
8
BLACK
6
CONTINUOUS
10
42.735
20
-4.79101
11
42.9084
21
-5.10652
0
LINE
8
BLACK
6
CONTINUOUS
10
42.9084
20
-5.10652
11
43.0456
21
-5.4394
0
LINE
8
BLACK
6
CONTINUOUS
10
43.0456
20
-5.4394
11
43.1449
21
-5.78551
0
LINE
8
BLACK
6
CONTINUOUS
10
43.1449
20
-5.78551
11
43.2049
21
-6.14051
0
LINE
8
BLACK
6
CONTINUOUS
10
43.2049
20
-6.14051
11
43.225
21
-6.5
0
LINE
8
BLACK
6
CONTINUOUS
10
43.225
20
-6.5
11
43.2237
21
-6.59005
0
LINE
8
BLACK
6
CONTINUOUS
10
43.2237
20
-6.59005
11
43.1936
21
-6.94883
0
LINE
8
BLACK
6
CONTINUOUS
10
43.1936
20
-6.94883
11
43.1237
21
-7.30202
0
LINE
8
BLACK
6
CONTINUOUS
10
43.1237
20
-7.30202
11
43.0148
21
-7.64522
0
LINE
8
BLACK
6
CONTINUOUS
10
43.0148
20
-7.64522
11
42.8684
21
-7.97414
0
LINE
8
BLACK
6
CONTINUOUS
10
42.8684
20
-7.97414
11
42.6862
21
-8.28469
0
LINE
8
BLACK
6
CONTINUOUS
10
42.6862
20
-8.28469
11
42.4705
21
-8.57299
0
LINE
8
BLACK
6
CONTINUOUS
10
42.4705
20
-8.57299
11
42.224
21
-8.83545
0
LINE
8
BLACK
6
CONTINUOUS
10
42.224
20
-8.83545
11
41.9498
21
-9.06881
0
LINE
8
BLACK
6
CONTINUOUS
10
41.9498
20
-9.06881
11
41.6513
21
-9.27015
0
LINE
8
BLACK
6
CONTINUOUS
10
41.6513
20
-9.27015
11
41.3323
21
-9.43695
0
LINE
8
BLACK
6
CONTINUOUS
10
41.3323
20
-9.43695
11
40.9966
21
-9.56716
0
LINE
8
BLACK
6
CONTINUOUS
10
40.9966
20
-9.56716
11
40.6485
21
-9.65913
0
LINE
8
BLACK
6
CONTINUOUS
10
40.6485
20
-9.65913
11
40.2923
21
-9.71173
0
LINE
8
BLACK
6
CONTINUOUS
10
40.2923
20
-9.71173
11
40.075
21
-9.71931
0
LINE
8
BLACK
6
CONTINUOUS
10
40.075
20
-9.71931
11
40.075
21
-49.925
0
LINE
8
BLACK
6
CONTINUOUS
10
40.075
20
-49.925
11
55.7784
21
-49.925
0
LINE
8
BLACK
6
CONTINUOUS
10
55.7784
20
-49.925
11
55.7954
21
-49.6106
0
LINE
8
BLACK
6
CONTINUOUS
10
55.7954
20
-49.6106
11
55.8537
21
-49.2383
0
LINE
8
BLACK
6
CONTINUOUS
10
55.8537
20
-49.2383
11
55.9494
21
-48.8737
0
LINE
8
BLACK
6
CONTINUOUS
10
55.9494
20
-48.8737
11
56.0814
21
-48.5206
0
LINE
8
BLACK
6
CONTINUOUS
10
56.0814
20
-48.5206
11
56.2484
21
-48.1827
0
LINE
8
BLACK
6
CONTINUOUS
10
56.2484
20
-48.1827
11
56.4487
21
-47.8634
0
LINE
8
BLACK
6
CONTINUOUS
10
56.4487
20
-47.8634
11
56.6802
21
-47.566
0
LINE
8
BLACK
6
CONTINUOUS
10
56.6802
20
-47.566
11
56.9406
21
-47.2935
0
LINE
8
BLACK
6
CONTINUOUS
10
56.9406
20
-47.2935
11
57.2272
21
-47.0487
0
LINE
8
BLACK
6
CONTINUOUS
10
57.2272
20
-47.0487
11
57.5371
21
-46.8342
0
LINE
8
BLACK
6
CONTINUOUS
10
57.5371
20
-46.8342
11
57.8671
21
-46.652
0
LINE
8
BLACK
6
CONTINUOUS
10
57.8671
20
-46.652
11
58.2138
21
-46.5041
0
LINE
8
BLACK
6
CONTINUOUS
10
58.2138
20
-46.5041
11
58.5736
21
-46.392
0
LINE
8
BLACK
6
CONTINUOUS
10
58.5736
20
-46.392
11
58.943
21
-46.3169
0
LINE
8
BLACK
6
CONTINUOUS
10
58.943
20
-46.3169
11
59.318
21
-46.2794
0
LINE
8
BLACK
6
CONTINUOUS
10
59.318
20
-46.2794
11
59.695
21
-46.2801
0
LINE
8
BLACK
6
CONTINUOUS
10
59.695
20
-46.2801
11
60.0699
21
-46.3188
0
LINE
8
BLACK
6
CONTINUOUS
10
60.0699
20
-46.3188
11
60.439
21
-46.3953
0
LINE
8
BLACK
6
CONTINUOUS
10
60.439
20
-46.3953
11
60.7984
21
-46.5086
0
LINE
8
BLACK
6
CONTINUOUS
10
60.7984
20
-46.5086
11
61.1446
21
-46.6577
0
LINE
8
BLACK
6
CONTINUOUS
10
61.1446
20
-46.6577
11
61.4739
21
-46.841
0
LINE
8
BLACK
6
CONTINUOUS
10
61.4739
20
-46.841
11
61.7831
21
-47.0567
0
LINE
8
BLACK
6
CONTINUOUS
10
61.7831
20
-47.0567
11
62.0688
21
-47.3025
0
LINE
8
BLACK
6
CONTINUOUS
10
62.0688
20
-47.3025
11
62.3283
21
-47.5759
0
LINE
8
BLACK
6
CONTINUOUS
10
62.3283
20
-47.5759
11
62.5588
21
-47.8741
0
LINE
8
BLACK
6
CONTINUOUS
10
62.5588
20
-47.8741
11
62.758
21
-48.1941
0
LINE
8
BLACK
6
CONTINUOUS
10
62.758
20
-48.1941
11
62.9238
21
-48.5326
0
LINE
8
BLACK
6
CONTINUOUS
10
62.9238
20
-48.5326
11
63.0545
21
-48.8861
0
LINE
8
BLACK
6
CONTINUOUS
10
63.0545
20
-48.8861
11
63.1489
21
-49.251
0
LINE
8
BLACK
6
CONTINUOUS
10
63.1489
20
-49.251
11
63.2059
21
-49.6236
0
LINE
8
BLACK
6
CONTINUOUS
10
63.2059
20
-49.6236
11
63.2212
21
-49.925
0
LINE
8
BLACK
6
CONTINUOUS
10
63.2212
20
-49.925
11
79.925
21
-49.925
0
LINE
8
BLACK
6
CONTINUOUS
10
79.925
20
-49.925
11
79.925
21
-0.075
0
LINE
8
BLACK
6
CONTINUOUS
10
79.925
20
-0.075
11
40.075
21
-0.075
0
LINE
8
BLACK
6
CONTINUOUS
10
59.1258
20
-46.4397
11
58.7557
21
-46.4983
0
LINE
8
BLACK
6
CONTINUOUS
10
58.7557
20
-46.4983
11
58.3937
21
-46.5953
0
LINE
8
BLACK
6
CONTINUOUS
10
58.3937
20
-46.5953
11
58.0439
21
-46.7296
0
LINE
8
BLACK
6
CONTINUOUS
10
58.0439
20
-46.7296
11
57.71
21
-46.8997
0
LINE
8
BLACK
6
CONTINUOUS
10
57.71
20
-46.8997
11
57.3958
21
-47.1038
0
LINE
8
BLACK
6
CONTINUOUS
10
57.3958
20
-47.1038
11
57.1046
21
-47.3396
0
LINE
8
BLACK
6
CONTINUOUS
10
57.1046
20
-47.3396
11
56.8396
21
-47.6046
0
LINE
8
BLACK
6
CONTINUOUS
10
56.8396
20
-47.6046
11
56.6038
21
-47.8958
0
LINE
8
BLACK
6
CONTINUOUS
10
56.6038
20
-47.8958
11
56.3997
21
-48.21
0
LINE
8
BLACK
6
CONTINUOUS
10
56.3997
20
-48.21
11
56.2296
21
-48.5439
0
LINE
8
BLACK
6
CONTINUOUS
10
56.2296
20
-48.5439
11
56.0953
21
-48.8937
0
LINE
8
BLACK
6
CONTINUOUS
10
56.0953
20
-48.8937
11
55.9983
21
-49.2557
0
LINE
8
BLACK
6
CONTINUOUS
10
55.9983
20
-49.2557
11
55.9397
21
-49.6258
0
LINE
8
BLACK
6
CONTINUOUS
10
55.9397
20
-49.6258
11
55.924
21
-49.925
0
LINE
8
BLACK
6
CONTINUOUS
10
55.924
20
-49.925
11
63.076
21
-49.925
0
LINE
8
BLACK
6
CONTINUOUS
10
63.076
20
-49.925
11
63.0603
21
-49.6258
0
LINE
8
BLACK
6
CONTINUOUS
10
63.0603
20
-49.6258
11
63.0017
21
-49.2557
0
LINE
8
BLACK
6
CONTINUOUS
10
63.0017
20
-49.2557
11
62.9047
21
-48.8937
0
LINE
8
BLACK
6
CONTINUOUS
10
62.9047
20
-48.8937
11
62.7704
21
-48.5439
0
LINE
8
BLACK
6
CONTINUOUS
10
62.7704
20
-48.5439
11
62.6003
21
-48.21
0
LINE
8
BLACK
6
CONTINUOUS
10
62.6003
20
-48.21
11
62.3962
21
-47.8958
0
LINE
8
BLACK
6
CONTINUOUS
10
62.3962
20
-47.8958
11
62.1604
21
-47.6046
0
LINE
8
BLACK
6
CONTINUOUS
10
62.1604
20
-47.6046
11
61.8954
21
-47.3396
0
LINE
8
BLACK
6
CONTINUOUS
10
61.8954
20
-47.3396
11
61.6042
21
-47.1038
0
LINE
8
BLACK
6
CONTINUOUS
10
61.6042
20
-47.1038
11
61.29
21
-46.8997
0
LINE
8
BLACK
6
CONTINUOUS
10
61.29
20
-46.8997
11
60.9561
21
-46.7296
0
LINE
8
BLACK
6
CONTINUOUS
10
60.9561
20
-46.7296
11
60.6063
21
-46.5953
0
LINE
8
BLACK
6
CONTINUOUS
10
60.6063
20
-46.5953
11
60.2443
21
-46.4983
0
LINE
8
BLACK
6
CONTINUOUS
10
60.2443
20
-46.4983
11
59.8742
21
-46.4397
0
LINE
8
BLACK
6
CONTINUOUS
10
59.8742
20
-46.4397
11
59.5
21
-46.4201
0
LINE
8
BLACK
6
CONTINUOUS
10
59.5
20
-46.4201
11
59.1258
21
-46.4397
0
LINE
8
BLACK
6
CONTINUOUS
10
40.075
20
-9.5743
11
40.2791
21
-9.56717
0
LINE
8
BLACK
6
CONTINUOUS
10
40.2791
20
-9.56717
11
40.6193
21
-9.51694
0
LINE
8
BLACK
6
CONTINUOUS
10
40.6193
20
-9.51694
11
40.9517
21
-9.42911
0
LINE
8
BLACK
6
CONTINUOUS
10
40.9517
20
-9.42911
11
41.2723
21
-9.30476
0
LINE
8
BLACK
6
CONTINUOUS
10
41.2723
20
-9.30476
11
41.577
21
-9.14546
0
LINE
8
BLACK
6
CONTINUOUS
10
41.577
20
-9.14546
11
41.8621
21
-8.95319
0
LINE
8
BLACK
6
CONTINUOUS
10
41.8621
20
-8.95319
11
42.1239
21
-8.73034
0
LINE
8
BLACK
6
CONTINUOUS
10
42.1239
20
-8.73034
11
42.3593
21
-8.47969
0
LINE
8
BLACK
6
CONTINUOUS
10
42.3593
20
-8.47969
11
42.5653
21
-8.20436
0
LINE
8
BLACK
6
CONTINUOUS
10
42.5653
20
-8.20436
11
42.7393
21
-7.90779
0
LINE
8
BLACK
6
CONTINUOUS
10
42.7393
20
-7.90779
11
42.8791
21
-7.59367
0
LINE
8
BLACK
6
CONTINUOUS
10
42.8791
20
-7.59367
11
42.9831
21
-7.26593
0
LINE
8
BLACK
6
CONTINUOUS
10
42.9831
20
-7.26593
11
43.0499
21
-6.92863
0
LINE
8
BLACK
6
CONTINUOUS
10
43.0499
20
-6.92863
11
43.0786
21
-6.58599
0
LINE
8
BLACK
6
CONTINUOUS
10
43.0786
20
-6.58599
11
43.0798
21
-6.5
0
LINE
8
BLACK
6
CONTINUOUS
10
43.0798
20
-6.5
11
43.0607
21
-6.15669
0
LINE
8
BLACK
6
CONTINUOUS
10
43.0607
20
-6.15669
11
43.0033
21
-5.81766
0
LINE
8
BLACK
6
CONTINUOUS
10
43.0033
20
-5.81766
11
42.9085
21
-5.48714
0
LINE
8
BLACK
6
CONTINUOUS
10
42.9085
20
-5.48714
11
42.7775
21
-5.16924
0
LINE
8
BLACK
6
CONTINUOUS
10
42.7775
20
-5.16924
11
42.6119
21
-4.86793
0
LINE
8
BLACK
6
CONTINUOUS
10
42.6119
20
-4.86793
11
42.4137
21
-4.58696
0
LINE
8
BLACK
6
CONTINUOUS
10
42.4137
20
-4.58696
11
42.1854
21
-4.32984
0
LINE
8
BLACK
6
CONTINUOUS
10
42.1854
20
-4.32984
11
41.9298
21
-4.09976
0
LINE
8
BLACK
6
CONTINUOUS
10
41.9298
20
-4.09976
11
41.6503
21
-3.8996
0
LINE
8
BLACK
6
CONTINUOUS
10
41.6503
20
-3.8996
11
41.3501
21
-3.73185
0
LINE
8
BLACK
6
CONTINUOUS
10
41.3501
20
-3.73185
11
41.0331
21
-3.59861
0
LINE
8
BLACK
6
CONTINUOUS
10
41.0331
20
-3.59861
11
40.7033
21
-3.50153
0
LINE
8
BLACK
6
CONTINUOUS
10
40.7033
20
-3.50153
11
40.3647
21
-3.44182
0
LINE
8
BLACK
6
CONTINUOUS
10
40.3647
20
-3.44182
11
40.075
21
-3.4236
0
LINE
8
BLACK
6
CONTINUOUS
10
40.075
20
-3.4236
11
40.075
21
-9.5743
0
LINE
8
BLACK
6
CONTINUOUS
10
36.8004
20
-93.0958
11
36.8654
21
-92.7417
0
LINE
8
BLACK
6
CONTINUOUS
10
36.8654
20
-92.7417
11
36.9695
21
-92.397
0
LINE
8
BLACK
6
CONTINUOUS
10
36.9695
20
-92.397
11
37.1113
21
-92.0661
0
LINE
8
BLACK
6
CONTINUOUS
10
37.1113
20
-92.0661
11
37.2892
21
-91.753
0
LINE
8
BLACK
6
CONTINUOUS
10
37.2892
20
-91.753
11
37.5008
21
-91.4617
0
LINE
8
BLACK
6
CONTINUOUS
10
37.5008
20
-91.4617
11
37.7436
21
-91.1958
0
LINE
8
BLACK
6
CONTINUOUS
10
37.7436
20
-91.1958
11
38.0145
21
-90.9587
0
LINE
8
BLACK
6
CONTINUOUS
10
38.0145
20
-90.9587
11
38.3101
21
-90.7532
0
LINE
8
BLACK
6
CONTINUOUS
10
38.3101
20
-90.7532
11
38.6269
21
-90.5819
0
LINE
8
BLACK
6
CONTINUOUS
10
38.6269
20
-90.5819
11
38.9607
21
-90.4471
0
LINE
8
BLACK
6
CONTINUOUS
10
38.9607
20
-90.4471
11
39.3075
21
-90.3502
0
LINE
8
BLACK
6
CONTINUOUS
10
39.3075
20
-90.3502
11
39.6629
21
-90.2927
0
LINE
8
BLACK
6
CONTINUOUS
10
39.6629
20
-90.2927
11
39.925
21
-90.2798
0
LINE
8
BLACK
6
CONTINUOUS
10
39.925
20
-90.2798
11
39.925
21
-50.075
0
LINE
8
BLACK
6
CONTINUOUS
10
39.925
20
-50.075
11
24.2221
21
-50.075
0
LINE
8
BLACK
6
CONTINUOUS
10
24.2221
20
-50.075
11
24.2032
21
-50.4023
0
LINE
8
BLACK
6
CONTINUOUS
10
24.2032
20
-50.4023
11
24.1436
21
-50.7745
0
LINE
8
BLACK
6
CONTINUOUS
10
24.1436
20
-50.7745
11
24.0467
21
-51.1387
0
LINE
8
BLACK
6
CONTINUOUS
10
24.0467
20
-51.1387
11
23.9135
21
-51.4913
0
LINE
8
BLACK
6
CONTINUOUS
10
23.9135
20
-51.4913
11
23.7453
21
-51.8286
0
LINE
8
BLACK
6
CONTINUOUS
10
23.7453
20
-51.8286
11
23.5439
21
-52.1472
0
LINE
8
BLACK
6
CONTINUOUS
10
23.5439
20
-52.1472
11
23.3113
21
-52.4438
0
LINE
8
BLACK
6
CONTINUOUS
10
23.3113
20
-52.4438
11
23.0499
21
-52.7154
0
LINE
8
BLACK
6
CONTINUOUS
10
23.0499
20
-52.7154
11
22.7625
21
-52.9592
0
LINE
8
BLACK
6
CONTINUOUS
10
22.7625
20
-52.9592
11
22.4518
21
-53.1727
0
LINE
8
BLACK
6
CONTINUOUS
10
22.4518
20
-53.1727
11
22.1212
21
-53.3537
0
LINE
8
BLACK
6
CONTINUOUS
10
22.1212
20
-53.3537
11
21.774
21
-53.5004
0
LINE
8
BLACK
6
CONTINUOUS
10
21.774
20
-53.5004
11
21.4138
21
-53.6112
0
LINE
8
BLACK
6
CONTINUOUS
10
21.4138
20
-53.6112
11
21.0442
21
-53.685
0
LINE
8
BLACK
6
CONTINUOUS
10
21.0442
20
-53.685
11
20.669
21
-53.7212
0
LINE
8
BLACK
6
CONTINUOUS
10
20.669
20
-53.7212
11
20.2921
21
-53.7192
0
LINE
8
BLACK
6
CONTINUOUS
10
20.2921
20
-53.7192
11
19.9173
21
-53.6791
0
LINE
8
BLACK
6
CONTINUOUS
10
19.9173
20
-53.6791
11
19.5485
21
-53.6014
0
LINE
8
BLACK
6
CONTINUOUS
10
19.5485
20
-53.6014
11
19.1894
21
-53.4868
0
LINE
8
BLACK
6
CONTINUOUS
10
19.1894
20
-53.4868
11
18.8437
21
-53.3365
0
LINE
8
BLACK
6
CONTINUOUS
10
18.8437
20
-53.3365
11
18.515
21
-53.1521
0
LINE
8
BLACK
6
CONTINUOUS
10
18.515
20
-53.1521
11
18.2067
21
-52.9353
0
LINE
8
BLACK
6
CONTINUOUS
10
18.2067
20
-52.9353
11
17.9218
21
-52.6886
0
LINE
8
BLACK
6
CONTINUOUS
10
17.9218
20
-52.6886
11
17.6633
21
-52.4142
0
LINE
8
BLACK
6
CONTINUOUS
10
17.6633
20
-52.4142
11
17.4338
21
-52.1152
0
LINE
8
BLACK
6
CONTINUOUS
10
17.4338
20
-52.1152
11
17.2358
21
-51.7945
0
LINE
8
BLACK
6
CONTINUOUS
10
17.2358
20
-51.7945
11
17.0711
21
-51.4555
0
LINE
8
BLACK
6
CONTINUOUS
10
17.0711
20
-51.4555
11
16.9416
21
-51.1015
0
LINE
8
BLACK
6
CONTINUOUS
10
16.9416
20
-51.1015
11
16.8485
21
-50.7363
0
LINE
8
BLACK
6
CONTINUOUS
10
16.8485
20
-50.7363
11
16.7928
21
-50.3635
0
LINE
8
BLACK
6
CONTINUOUS
10
16.7928
20
-50.3635
11
16.7792
21
-50.075
0
LINE
8
BLACK
6
CONTINUOUS
10
16.7792
20
-50.075
11
0.075
21
-50.075
0
LINE
8
BLACK
6
CONTINUOUS
10
0.075
20
-50.075
11
0.075
21
-99.925
0
LINE
8
BLACK
6
CONTINUOUS
10
0.075
20
-99.925
11
39.925
21
-99.925
0
LINE
8
BLACK
6
CONTINUOUS
10
39.925
20
-99.925
11
39.925
21
-96.7237
0
LINE
8
BLACK
6
CONTINUOUS
10
39.925
20
-96.7237
11
39.5735
21
-96.6967
0
LINE
8
BLACK
6
CONTINUOUS
10
39.5735
20
-96.6967
11
39.2198
21
-96.6292
0
LINE
8
BLACK
6
CONTINUOUS
10
39.2198
20
-96.6292
11
38.8759
21
-96.5227
0
LINE
8
BLACK
6
CONTINUOUS
10
38.8759
20
-96.5227
11
38.5459
21
-96.3786
0
LINE
8
BLACK
6
CONTINUOUS
10
38.5459
20
-96.3786
11
38.2341
21
-96.1986
0
LINE
8
BLACK
6
CONTINUOUS
10
38.2341
20
-96.1986
11
37.9443
21
-95.9849
0
LINE
8
BLACK
6
CONTINUOUS
10
37.9443
20
-95.9849
11
37.6801
21
-95.7403
0
LINE
8
BLACK
6
CONTINUOUS
10
37.6801
20
-95.7403
11
37.4449
21
-95.4677
0
LINE
8
BLACK
6
CONTINUOUS
10
37.4449
20
-95.4677
11
37.2415
21
-95.1706
0
LINE
8
BLACK
6
CONTINUOUS
10
37.2415
20
-95.1706
11
37.0724
21
-94.8527
0
LINE
8
BLACK
6
CONTINUOUS
10
37.0724
20
-94.8527
11
36.9399
21
-94.518
0
LINE
8
BLACK
6
CONTINUOUS
10
36.9399
20
-94.518
11
36.8455
21
-94.1705
0
LINE
8
BLACK
6
CONTINUOUS
10
36.8455
20
-94.1705
11
36.7904
21
-93.8147
0
LINE
8
BLACK
6
CONTINUOUS
10
36.7904
20
-93.8147
11
36.7754
21
-93.457
0
LINE
8
BLACK
6
CONTINUOUS
10
36.7754
20
-93.457
11
36.7753
21
-93.455
0
LINE
8
BLACK
6
CONTINUOUS
10
36.7753
20
-93.455
11
36.8004
21
-93.0958
0
LINE
8
BLACK
6
CONTINUOUS
10
36.8004
20
-6.0958
11
36.8654
21
-5.74167
0
LINE
8
BLACK
6
CONTINUOUS
10
36.8654
20
-5.74167
11
36.9695
21
-5.39698
0
LINE
8
BLACK
6
CONTINUOUS
10
36.9695
20
-5.39698
11
37.1113
21
-5.06605
0
LINE
8
BLACK
6
CONTINUOUS
10
37.1113
20
-5.06605
11
37.2892
21
-4.75299
0
LINE
8
BLACK
6
CONTINUOUS
10
37.2892
20
-4.75299
11
37.5008
21
-4.4617
0
LINE
8
BLACK
6
CONTINUOUS
10
37.5008
20
-4.4617
11
37.7436
21
-4.19583
0
LINE
8
BLACK
6
CONTINUOUS
10
37.7436
20
-4.19583
11
38.0145
21
-3.95866
0
LINE
8
BLACK
6
CONTINUOUS
10
38.0145
20
-3.95866
11
38.3101
21
-3.75318
0
LINE
8
BLACK
6
CONTINUOUS
10
38.3101
20
-3.75318
11
38.6269
21
-3.58193
0
LINE
8
BLACK
6
CONTINUOUS
10
38.6269
20
-3.58193
11
38.9607
21
-3.44706
0
LINE
8
BLACK
6
CONTINUOUS
10
38.9607
20
-3.44706
11
39.3075
21
-3.35023
0
LINE
8
BLACK
6
CONTINUOUS
10
39.3075
20
-3.35023
11
39.6629
21
-3.29267
0
LINE
8
BLACK
6
CONTINUOUS
10
39.6629
20
-3.29267
11
39.925
21
-3.27985
0
LINE
8
BLACK
6
CONTINUOUS
10
39.925
20
-3.27985
11
39.925
21
-0.075
0
LINE
8
BLACK
6
CONTINUOUS
10
39.925
20
-0.075
11
0.075
21
-0.075
0
LINE
8
BLACK
6
CONTINUOUS
10
0.075
20
-0.075
11
0.075
21
-49.925
0
LINE
8
BLACK
6
CONTINUOUS
10
0.075
20
-49.925
11
16.7784
21
-49.925
0
LINE
8
BLACK
6
CONTINUOUS
10
16.7784
20
-49.925
11
16.7954
21
-49.6106
0
LINE
8
BLACK
6
CONTINUOUS
10
16.7954
20
-49.6106
11
16.8537
21
-49.2383
0
LINE
8
BLACK
6
CONTINUOUS
10
16.8537
20
-49.2383
11
16.9494
21
-48.8737
0
LINE
8
BLACK
6
CONTINUOUS
10
16.9494
20
-48.8737
11
17.0814
21
-48.5206
0
LINE
8
BLACK
6
CONTINUOUS
10
17.0814
20
-48.5206
11
17.2484
21
-48.1827
0
LINE
8
BLACK
6
CONTINUOUS
10
17.2484
20
-48.1827
11
17.4487
21
-47.8634
0
LINE
8
BLACK
6
CONTINUOUS
10
17.4487
20
-47.8634
11
17.6802
21
-47.566
0
LINE
8
BLACK
6
CONTINUOUS
10
17.6802
20
-47.566
11
17.9406
21
-47.2935
0
LINE
8
BLACK
6
CONTINUOUS
10
17.9406
20
-47.2935
11
18.2272
21
-47.0487
0
LINE
8
BLACK
6
CONTINUOUS
10
18.2272
20
-47.0487
11
18.5371
21
-46.8342
0
LINE
8
BLACK
6
CONTINUOUS
10
18.5371
20
-46.8342
11
18.8671
21
-46.652
0
LINE
8
BLACK
6
CONTINUOUS
10
18.8671
20
-46.652
11
19.2138
21
-46.5041
0
LINE
8
BLACK
6
CONTINUOUS
10
19.2138
20
-46.5041
11
19.5736
21
-46.392
0
LINE
8
BLACK
6
CONTINUOUS
10
19.5736
20
-46.392
11
19.943
21
-46.3169
0
LINE
8
BLACK
6
CONTINUOUS
10
19.943
20
-46.3169
11
20.318
21
-46.2794
0
LINE
8
BLACK
6
CONTINUOUS
10
20.318
20
-46.2794
11
20.695
21
-46.2801
0
LINE
8
BLACK
6
CONTINUOUS
10
20.695
20
-46.2801
11
21.0699
21
-46.3188
0
LINE
8
BLACK
6
CONTINUOUS
10
21.0699
20
-46.3188
11
21.439
21
-46.3953
0
LINE
8
BLACK
6
CONTINUOUS
10
21.439
20
-46.3953
11
21.7984
21
-46.5086
0
LINE
8
BLACK
6
CONTINUOUS
10
21.7984
20
-46.5086
11
22.1446
21
-46.6577
0
LINE
8
BLACK
6
CONTINUOUS
10
22.1446
20
-46.6577
11
22.4739
21
-46.841
0
LINE
8
BLACK
6
CONTINUOUS
10
22.4739
20
-46.841
11
22.7831
21
-47.0567
0
LINE
8
BLACK
6
CONTINUOUS
10
22.7831
20
-47.0567
11
23.0688
21
-47.3025
0
LINE
8
BLACK
6
CONTINUOUS
10
23.0688
20
-47.3025
11
23.3283
21
-47.5759
0
LINE
8
BLACK
6
CONTINUOUS
10
23.3283
20
-47.5759
11
23.5588
21
-47.8741
0
LINE
8
BLACK
6
CONTINUOUS
10
23.5588
20
-47.8741
11
23.758
21
-48.1941
0
LINE
8
BLACK
6
CONTINUOUS
10
23.758
20
-48.1941
11
23.9238
21
-48.5326
0
LINE
8
BLACK
6
CONTINUOUS
10
23.9238
20
-48.5326
11
24.0545
21
-48.8861
0
LINE
8
BLACK
6
CONTINUOUS
10
24.0545
20
-48.8861
11
24.1489
21
-49.251
0
LINE
8
BLACK
6
CONTINUOUS
10
24.1489
20
-49.251
11
24.2059
21
-49.6236
0
LINE
8
BLACK
6
CONTINUOUS
10
24.2059
20
-49.6236
11
24.2212
21
-49.925
0
LINE
8
BLACK
6
CONTINUOUS
10
24.2212
20
-49.925
11
39.925
21
-49.925
0
LINE
8
BLACK
6
CONTINUOUS
10
39.925
20
-49.925
11
39.925
21
-9.72372
0
LINE
8
BLACK
6
CONTINUOUS
10
39.925
20
-9.72372
11
39.5735
21
-9.69667
0
LINE
8
BLACK
6
CONTINUOUS
10
39.5735
20
-9.69667
11
39.2198
21
-9.6292
0
LINE
8
BLACK
6
CONTINUOUS
10
39.2198
20
-9.6292
11
38.8759
21
-9.52273
0
LINE
8
BLACK
6
CONTINUOUS
10
38.8759
20
-9.52273
11
38.5459
21
-9.37859
0
LINE
8
BLACK
6
CONTINUOUS
10
38.5459
20
-9.37859
11
38.2341
21
-9.19857
0
LINE
8
BLACK
6
CONTINUOUS
10
38.2341
20
-9.19857
11
37.9443
21
-8.9849
0
LINE
8
BLACK
6
CONTINUOUS
10
37.9443
20
-8.9849
11
37.6801
21
-8.74027
0
LINE
8
BLACK
6
CONTINUOUS
10
37.6801
20
-8.74027
11
37.4449
21
-8.46772
0
LINE
8
BLACK
6
CONTINUOUS
10
37.4449
20
-8.46772
11
37.2415
21
-8.17064
0
LINE
8
BLACK
6
CONTINUOUS
10
37.2415
20
-8.17064
11
37.0724
21
-7.85273
0
LINE
8
BLACK
6
CONTINUOUS
10
37.0724
20
-7.85273
11
36.9399
21
-7.51797
0
LINE
8
BLACK
6
CONTINUOUS
10
36.9399
20
-7.51797
11
36.8455
21
-7.17051
0
LINE
8
BLACK
6
CONTINUOUS
10
36.8455
20
-7.17051
11
36.7904
21
-6.81471
0
LINE
8
BLACK
6
CONTINUOUS
10
36.7904
20
-6.81471
11
36.7754
21
-6.457
0
LINE
8
BLACK
6
CONTINUOUS
10
36.7754
20
-6.457
11
36.7753
21
-6.45497
0
LINE
8
BLACK
6
CONTINUOUS
10
36.7753
20
-6.45497
11
36.8004
21
-6.0958
0
LINE
8
BLACK
6
CONTINUOUS
10
49.3004
20
-93.0958
11
49.3654
21
-92.7417
0
LINE
8
BLACK
6
CONTINUOUS
10
49.3654
20
-92.7417
11
49.4695
21
-92.397
0
LINE
8
BLACK
6
CONTINUOUS
10
49.4695
20
-92.397
11
49.6113
21
-92.0661
0
LINE
8
BLACK
6
CONTINUOUS
10
49.6113
20
-92.0661
11
49.7892
21
-91.753
0
LINE
8
BLACK
6
CONTINUOUS
10
49.7892
20
-91.753
11
50.0008
21
-91.4617
0
LINE
8
BLACK
6
CONTINUOUS
10
50.0008
20
-91.4617
11
50.2436
21
-91.1958
0
LINE
8
BLACK
6
CONTINUOUS
10
50.2436
20
-91.1958
11
50.5145
21
-90.9587
0
LINE
8
BLACK
6
CONTINUOUS
10
50.5145
20
-90.9587
11
50.8101
21
-90.7532
0
LINE
8
BLACK
6
CONTINUOUS
10
50.8101
20
-90.7532
11
51.1269
21
-90.5819
0
LINE
8
BLACK
6
CONTINUOUS
10
51.1269
20
-90.5819
11
51.4607
21
-90.4471
0
LINE
8
BLACK
6
CONTINUOUS
10
51.4607
20
-90.4471
11
51.8075
21
-90.3502
0
LINE
8
BLACK
6
CONTINUOUS
10
51.8075
20
-90.3502
11
52.1629
21
-90.2927
0
LINE
8
BLACK
6
CONTINUOUS
10
52.1629
20
-90.2927
11
52.5225
21
-90.2751
0
LINE
8
BLACK
6
CONTINUOUS
10
52.5225
20
-90.2751
11
52.8819
21
-90.2977
0
LINE
8
BLACK
6
CONTINUOUS
10
52.8819
20
-90.2977
11
53.2364
21
-90.3602
0
LINE
8
BLACK
6
CONTINUOUS
10
53.2364
20
-90.3602
11
53.5818
21
-90.4619
0
LINE
8
BLACK
6
CONTINUOUS
10
53.5818
20
-90.4619
11
53.9137
21
-90.6014
0
LINE
8
BLACK
6
CONTINUOUS
10
53.9137
20
-90.6014
11
54.228
21
-90.777
0
LINE
8
BLACK
6
CONTINUOUS
10
54.228
20
-90.777
11
54.5208
21
-90.9866
0
LINE
8
BLACK
6
CONTINUOUS
10
54.5208
20
-90.9866
11
54.7884
21
-91.2276
0
LINE
8
BLACK
6
CONTINUOUS
10
54.7884
20
-91.2276
11
55.0274
21
-91.4968
0
LINE
8
BLACK
6
CONTINUOUS
10
55.0274
20
-91.4968
11
55.235
21
-91.791
0
LINE
8
BLACK
6
CONTINUOUS
10
55.235
20
-91.791
11
55.4084
21
-92.1065
0
LINE
8
BLACK
6
CONTINUOUS
10
55.4084
20
-92.1065
11
55.5456
21
-92.4394
0
LINE
8
BLACK
6
CONTINUOUS
10
55.5456
20
-92.4394
11
55.6449
21
-92.7855
0
LINE
8
BLACK
6
CONTINUOUS
10
55.6449
20
-92.7855
11
55.7049
21
-93.1405
0
LINE
8
BLACK
6
CONTINUOUS
10
55.7049
20
-93.1405
11
55.725
21
-93.5
0
LINE
8
BLACK
6
CONTINUOUS
10
55.725
20
-93.5
11
55.7237
21
-93.59
0
LINE
8
BLACK
6
CONTINUOUS
10
55.7237
20
-93.59
11
55.6936
21
-93.9488
0
LINE
8
BLACK
6
CONTINUOUS
10
55.6936
20
-93.9488
11
55.6237
21
-94.302
0
LINE
8
BLACK
6
CONTINUOUS
10
55.6237
20
-94.302
11
55.5148
21
-94.6452
0
LINE
8
BLACK
6
CONTINUOUS
10
55.5148
20
-94.6452
11
55.3684
21
-94.9741
0
LINE
8
BLACK
6
CONTINUOUS
10
55.3684
20
-94.9741
11
55.1862
21
-95.2847
0
LINE
8
BLACK
6
CONTINUOUS
10
55.1862
20
-95.2847
11
54.9705
21
-95.573
0
LINE
8
BLACK
6
CONTINUOUS
10
54.9705
20
-95.573
11
54.724
21
-95.8355
0
LINE
8
BLACK
6
CONTINUOUS
10
54.724
20
-95.8355
11
54.4498
21
-96.0688
0
LINE
8
BLACK
6
CONTINUOUS
10
54.4498
20
-96.0688
11
54.1513
21
-96.2701
0
LINE
8
BLACK
6
CONTINUOUS
10
54.1513
20
-96.2701
11
53.8323
21
-96.437
0
LINE
8
BLACK
6
CONTINUOUS
10
53.8323
20
-96.437
11
53.4966
21
-96.5672
0
LINE
8
BLACK
6
CONTINUOUS
10
53.4966
20
-96.5672
11
53.1485
21
-96.6591
0
LINE
8
BLACK
6
CONTINUOUS
10
53.1485
20
-96.6591
11
52.7923
21
-96.7117
0
LINE
8
BLACK
6
CONTINUOUS
10
52.7923
20
-96.7117
11
52.4325
21
-96.7243
0
LINE
8
BLACK
6
CONTINUOUS
10
52.4325
20
-96.7243
11
52.0735
21
-96.6967
0
LINE
8
BLACK
6
CONTINUOUS
10
52.0735
20
-96.6967
11
51.7198
21
-96.6292
0
LINE
8
BLACK
6
CONTINUOUS
10
51.7198
20
-96.6292
11
51.3759
21
-96.5227
0
LINE
8
BLACK
6
CONTINUOUS
10
51.3759
20
-96.5227
11
51.0459
21
-96.3786
0
LINE
8
BLACK
6
CONTINUOUS
10
51.0459
20
-96.3786
11
50.7341
21
-96.1986
0
LINE
8
BLACK
6
CONTINUOUS
10
50.7341
20
-96.1986
11
50.4443
21
-95.9849
0
LINE
8
BLACK
6
CONTINUOUS
10
50.4443
20
-95.9849
11
50.1801
21
-95.7403
0
LINE
8
BLACK
6
CONTINUOUS
10
50.1801
20
-95.7403
11
49.9449
21
-95.4677
0
LINE
8
BLACK
6
CONTINUOUS
10
49.9449
20
-95.4677
11
49.7415
21
-95.1706
0
LINE
8
BLACK
6
CONTINUOUS
10
49.7415
20
-95.1706
11
49.5724
21
-94.8527
0
LINE
8
BLACK
6
CONTINUOUS
10
49.5724
20
-94.8527
11
49.4399
21
-94.518
0
LINE
8
BLACK
6
CONTINUOUS
10
49.4399
20
-94.518
11
49.3455
21
-94.1705
0
LINE
8
BLACK
6
CONTINUOUS
10
49.3455
20
-94.1705
11
49.2904
21
-93.8147
0
LINE
8
BLACK
6
CONTINUOUS
10
49.2904
20
-93.8147
11
49.2754
21
-93.457
0
LINE
8
BLACK
6
CONTINUOUS
10
49.2754
20
-93.457
11
49.2753
21
-93.455
0
LINE
8
BLACK
6
CONTINUOUS
10
49.2753
20
-93.455
11
49.3004
21
-93.0958
0
LINE
8
BLACK
6
CONTINUOUS
10
49.4875
20
-94.1403
11
49.5776
21
-94.4721
0
LINE
8
BLACK
6
CONTINUOUS
10
49.5776
20
-94.4721
11
49.7042
21
-94.7918
0
LINE
8
BLACK
6
CONTINUOUS
10
49.7042
20
-94.7918
11
49.8656
21
-95.0954
0
LINE
8
BLACK
6
CONTINUOUS
10
49.8656
20
-95.0954
11
50.0599
21
-95.3792
0
LINE
8
BLACK
6
CONTINUOUS
10
50.0599
20
-95.3792
11
50.2845
21
-95.6394
0
LINE
8
BLACK
6
CONTINUOUS
10
50.2845
20
-95.6394
11
50.5368
21
-95.8731
0
LINE
8
BLACK
6
CONTINUOUS
10
50.5368
20
-95.8731
11
50.8136
21
-96.0771
0
LINE
8
BLACK
6
CONTINUOUS
10
50.8136
20
-96.0771
11
51.1114
21
-96.249
0
LINE
8
BLACK
6
CONTINUOUS
10
51.1114
20
-96.249
11
51.4265
21
-96.3867
0
LINE
8
BLACK
6
CONTINUOUS
10
51.4265
20
-96.3867
11
51.7549
21
-96.4884
0
LINE
8
BLACK
6
CONTINUOUS
10
51.7549
20
-96.4884
11
52.0927
21
-96.5528
0
LINE
8
BLACK
6
CONTINUOUS
10
52.0927
20
-96.5528
11
52.4355
21
-96.5792
0
LINE
8
BLACK
6
CONTINUOUS
10
52.4355
20
-96.5792
11
52.7791
21
-96.5672
0
LINE
8
BLACK
6
CONTINUOUS
10
52.7791
20
-96.5672
11
53.1193
21
-96.5169
0
LINE
8
BLACK
6
CONTINUOUS
10
53.1193
20
-96.5169
11
53.4517
21
-96.4291
0
LINE
8
BLACK
6
CONTINUOUS
10
53.4517
20
-96.4291
11
53.7723
21
-96.3048
0
LINE
8
BLACK
6
CONTINUOUS
10
53.7723
20
-96.3048
11
54.077
21
-96.1455
0
LINE
8
BLACK
6
CONTINUOUS
10
54.077
20
-96.1455
11
54.3621
21
-95.9532
0
LINE
8
BLACK
6
CONTINUOUS
10
54.3621
20
-95.9532
11
54.6239
21
-95.7303
0
LINE
8
BLACK
6
CONTINUOUS
10
54.6239
20
-95.7303
11
54.8593
21
-95.4797
0
LINE
8
BLACK
6
CONTINUOUS
10
54.8593
20
-95.4797
11
55.0653
21
-95.2044
0
LINE
8
BLACK
6
CONTINUOUS
10
55.0653
20
-95.2044
11
55.2393
21
-94.9078
0
LINE
8
BLACK
6
CONTINUOUS
10
55.2393
20
-94.9078
11
55.3791
21
-94.5937
0
LINE
8
BLACK
6
CONTINUOUS
10
55.3791
20
-94.5937
11
55.4831
21
-94.2659
0
LINE
8
BLACK
6
CONTINUOUS
10
55.4831
20
-94.2659
11
55.5499
21
-93.9286
0
LINE
8
BLACK
6
CONTINUOUS
10
55.5499
20
-93.9286
11
55.5786
21
-93.586
0
LINE
8
BLACK
6
CONTINUOUS
10
55.5786
20
-93.586
11
55.5798
21
-93.5
0
LINE
8
BLACK
6
CONTINUOUS
10
55.5798
20
-93.5
11
55.5607
21
-93.1567
0
LINE
8
BLACK
6
CONTINUOUS
10
55.5607
20
-93.1567
11
55.5033
21
-92.8177
0
LINE
8
BLACK
6
CONTINUOUS
10
55.5033
20
-92.8177
11
55.4085
21
-92.4871
0
LINE
8
BLACK
6
CONTINUOUS
10
55.4085
20
-92.4871
11
55.2775
21
-92.1692
0
LINE
8
BLACK
6
CONTINUOUS
10
55.2775
20
-92.1692
11
55.1119
21
-91.8679
0
LINE
8
BLACK
6
CONTINUOUS
10
55.1119
20
-91.8679
11
54.9137
21
-91.587
0
LINE
8
BLACK
6
CONTINUOUS
10
54.9137
20
-91.587
11
54.6854
21
-91.3298
0
LINE
8
BLACK
6
CONTINUOUS
10
54.6854
20
-91.3298
11
54.4298
21
-91.0998
0
LINE
8
BLACK
6
CONTINUOUS
10
54.4298
20
-91.0998
11
54.1503
21
-90.8996
0
LINE
8
BLACK
6
CONTINUOUS
10
54.1503
20
-90.8996
11
53.8501
21
-90.7319
0
LINE
8
BLACK
6
CONTINUOUS
10
53.8501
20
-90.7319
11
53.5331
21
-90.5986
0
LINE
8
BLACK
6
CONTINUOUS
10
53.5331
20
-90.5986
11
53.2033
21
-90.5015
0
LINE
8
BLACK
6
CONTINUOUS
10
53.2033
20
-90.5015
11
52.8647
21
-90.4418
0
LINE
8
BLACK
6
CONTINUOUS
10
52.8647
20
-90.4418
11
52.5215
21
-90.4202
0
LINE
8
BLACK
6
CONTINUOUS
10
52.5215
20
-90.4202
11
52.1781
21
-90.437
0
LINE
8
BLACK
6
CONTINUOUS
10
52.1781
20
-90.437
11
51.8386
21
-90.492
0
LINE
8
BLACK
6
CONTINUOUS
10
51.8386
20
-90.492
11
51.5075
21
-90.5845
0
LINE
8
BLACK
6
CONTINUOUS
10
51.5075
20
-90.5845
11
51.1887
21
-90.7133
0
LINE
8
BLACK
6
CONTINUOUS
10
51.1887
20
-90.7133
11
50.8862
21
-90.8768
0
LINE
8
BLACK
6
CONTINUOUS
10
50.8862
20
-90.8768
11
50.6039
21
-91.073
0
LINE
8
BLACK
6
CONTINUOUS
10
50.6039
20
-91.073
11
50.3451
21
-91.2995
0
LINE
8
BLACK
6
CONTINUOUS
10
50.3451
20
-91.2995
11
50.1133
21
-91.5534
0
LINE
8
BLACK
6
CONTINUOUS
10
50.1133
20
-91.5534
11
49.9112
21
-91.8316
0
LINE
8
BLACK
6
CONTINUOUS
10
49.9112
20
-91.8316
11
49.7413
21
-92.1306
0
LINE
8
BLACK
6
CONTINUOUS
10
49.7413
20
-92.1306
11
49.6059
21
-92.4466
0
LINE
8
BLACK
6
CONTINUOUS
10
49.6059
20
-92.4466
11
49.5065
21
-92.7758
0
LINE
8
BLACK
6
CONTINUOUS
10
49.5065
20
-92.7758
11
49.4444
21
-93.114
0
LINE
8
BLACK
6
CONTINUOUS
10
49.4444
20
-93.114
11
49.4205
21
-93.457
0
LINE
8
BLACK
6
CONTINUOUS
10
49.4205
20
-93.457
11
49.4349
21
-93.8005
0
LINE
8
BLACK
6
CONTINUOUS
10
49.4349
20
-93.8005
11
49.4875
21
-94.1403
0
LINE
8
BLACK
6
CONTINUOUS
10
63.2954
20
-75.6106
11
63.3537
21
-75.2383
0
LINE
8
BLACK
6
CONTINUOUS
10
63.3537
20
-75.2383
11
63.4494
21
-74.8737
0
LINE
8
BLACK
6
CONTINUOUS
10
63.4494
20
-74.8737
11
63.5814
21
-74.5206
0
LINE
8
BLACK
6
CONTINUOUS
10
63.5814
20
-74.5206
11
63.7484
21
-74.1827
0
LINE
8
BLACK
6
CONTINUOUS
10
63.7484
20
-74.1827
11
63.9487
21
-73.8634
0
LINE
8
BLACK
6
CONTINUOUS
10
63.9487
20
-73.8634
11
64.1802
21
-73.566
0
LINE
8
BLACK
6
CONTINUOUS
10
64.1802
20
-73.566
11
64.4406
21
-73.2935
0
LINE
8
BLACK
6
CONTINUOUS
10
64.4406
20
-73.2935
11
64.7272
21
-73.0487
0
LINE
8
BLACK
6
CONTINUOUS
10
64.7272
20
-73.0487
11
65.0371
21
-72.8341
0
LINE
8
BLACK
6
CONTINUOUS
10
65.0371
20
-72.8341
11
65.3671
21
-72.652
0
LINE
8
BLACK
6
CONTINUOUS
10
65.3671
20
-72.652
11
65.7138
21
-72.5041
0
LINE
8
BLACK
6
CONTINUOUS
10
65.7138
20
-72.5041
11
66.0736
21
-72.392
0
LINE
8
BLACK
6
CONTINUOUS
10
66.0736
20
-72.392
11
66.443
21
-72.3169
0
LINE
8
BLACK
6
CONTINUOUS
10
66.443
20
-72.3169
11
66.818
21
-72.2794
0
LINE
8
BLACK
6
CONTINUOUS
10
66.818
20
-72.2794
11
67.195
21
-72.2801
0
LINE
8
BLACK
6
CONTINUOUS
10
67.195
20
-72.2801
11
67.5699
21
-72.3188
0
LINE
8
BLACK
6
CONTINUOUS
10
67.5699
20
-72.3188
11
67.939
21
-72.3953
0
LINE
8
BLACK
6
CONTINUOUS
10
67.939
20
-72.3953
11
68.2984
21
-72.5086
0
LINE
8
BLACK
6
CONTINUOUS
10
68.2984
20
-72.5086
11
68.6446
21
-72.6577
0
LINE
8
BLACK
6
CONTINUOUS
10
68.6446
20
-72.6577
11
68.9739
21
-72.841
0
LINE
8
BLACK
6
CONTINUOUS
10
68.9739
20
-72.841
11
69.2831
21
-73.0567
0
LINE
8
BLACK
6
CONTINUOUS
10
69.2831
20
-73.0567
11
69.5688
21
-73.3025
0
LINE
8
BLACK
6
CONTINUOUS
10
69.5688
20
-73.3025
11
69.8283
21
-73.5759
0
LINE
8
BLACK
6
CONTINUOUS
10
69.8283
20
-73.5759
11
70.0588
21
-73.8741
0
LINE
8
BLACK
6
CONTINUOUS
10
70.0588
20
-73.8741
11
70.258
21
-74.1941
0
LINE
8
BLACK
6
CONTINUOUS
10
70.258
20
-74.1941
11
70.4238
21
-74.5326
0
LINE
8
BLACK
6
CONTINUOUS
10
70.4238
20
-74.5326
11
70.5545
21
-74.8861
0
LINE
8
BLACK
6
CONTINUOUS
10
70.5545
20
-74.8861
11
70.6489
21
-75.251
0
LINE
8
BLACK
6
CONTINUOUS
10
70.6489
20
-75.251
11
70.7059
21
-75.6236
0
LINE
8
BLACK
6
CONTINUOUS
10
70.7059
20
-75.6236
11
70.725
21
-76
0
LINE
8
BLACK
6
CONTINUOUS
10
70.725
20
-76
11
70.7249
21
-76.026
0
LINE
8
BLACK
6
CONTINUOUS
10
70.7249
20
-76.026
11
70.7032
21
-76.4023
0
LINE
8
BLACK
6
CONTINUOUS
10
70.7032
20
-76.4023
11
70.6436
21
-76.7745
0
LINE
8
BLACK
6
CONTINUOUS
10
70.6436
20
-76.7745
11
70.5467
21
-77.1387
0
LINE
8
BLACK
6
CONTINUOUS
10
70.5467
20
-77.1387
11
70.4135
21
-77.4913
0
LINE
8
BLACK
6
CONTINUOUS
10
70.4135
20
-77.4913
11
70.2453
21
-77.8286
0
LINE
8
BLACK
6
CONTINUOUS
10
70.2453
20
-77.8286
11
70.0439
21
-78.1472
0
LINE
8
BLACK
6
CONTINUOUS
10
70.0439
20
-78.1472
11
69.8113
21
-78.4438
0
LINE
8
BLACK
6
CONTINUOUS
10
69.8113
20
-78.4438
11
69.5499
21
-78.7154
0
LINE
8
BLACK
6
CONTINUOUS
10
69.5499
20
-78.7154
11
69.2625
21
-78.9592
0
LINE
8
BLACK
6
CONTINUOUS
10
69.2625
20
-78.9592
11
68.9518
21
-79.1727
0
LINE
8
BLACK
6
CONTINUOUS
10
68.9518
20
-79.1727
11
68.6212
21
-79.3537
0
LINE
8
BLACK
6
CONTINUOUS
10
68.6212
20
-79.3537
11
68.274
21
-79.5004
0
LINE
8
BLACK
6
CONTINUOUS
10
68.274
20
-79.5004
11
67.9138
21
-79.6112
0
LINE
8
BLACK
6
CONTINUOUS
10
67.9138
20
-79.6112
11
67.5442
21
-79.685
0
LINE
8
BLACK
6
CONTINUOUS
10
67.5442
20
-79.685
11
67.169
21
-79.7212
0
LINE
8
BLACK
6
CONTINUOUS
10
67.169
20
-79.7212
11
66.7921
21
-79.7192
0
LINE
8
BLACK
6
CONTINUOUS
10
66.7921
20
-79.7192
11
66.4173
21
-79.6791
0
LINE
8
BLACK
6
CONTINUOUS
10
66.4173
20
-79.6791
11
66.0485
21
-79.6014
0
LINE
8
BLACK
6
CONTINUOUS
10
66.0485
20
-79.6014
11
65.6894
21
-79.4868
0
LINE
8
BLACK
6
CONTINUOUS
10
65.6894
20
-79.4868
11
65.3437
21
-79.3365
0
LINE
8
BLACK
6
CONTINUOUS
10
65.3437
20
-79.3365
11
65.015
21
-79.1521
0
LINE
8
BLACK
6
CONTINUOUS
10
65.015
20
-79.1521
11
64.7067
21
-78.9353
0
LINE
8
BLACK
6
CONTINUOUS
10
64.7067
20
-78.9353
11
64.4218
21
-78.6886
0
LINE
8
BLACK
6
CONTINUOUS
10
64.4218
20
-78.6886
11
64.1633
21
-78.4142
0
LINE
8
BLACK
6
CONTINUOUS
10
64.1633
20
-78.4142
11
63.9338
21
-78.1152
0
LINE
8
BLACK
6
CONTINUOUS
10
63.9338
20
-78.1152
11
63.7358
21
-77.7945
0
LINE
8
BLACK
6
CONTINUOUS
10
63.7358
20
-77.7945
11
63.5711
21
-77.4555
0
LINE
8
BLACK
6
CONTINUOUS
10
63.5711
20
-77.4555
11
63.4416
21
-77.1015
0
LINE
8
BLACK
6
CONTINUOUS
10
63.4416
20
-77.1015
11
63.3485
21
-76.7363
0
LINE
8
BLACK
6
CONTINUOUS
10
63.3485
20
-76.7363
11
63.2928
21
-76.3635
0
LINE
8
BLACK
6
CONTINUOUS
10
63.2928
20
-76.3635
11
63.2756
21
-76
0
LINE
8
BLACK
6
CONTINUOUS
10
63.2756
20
-76
11
63.275
21
-75.987
0
LINE
8
BLACK
6
CONTINUOUS
10
63.275
20
-75.987
11
63.2954
21
-75.6106
0
LINE
8
BLACK
6
CONTINUOUS
10
63.4983
20
-76.7443
11
63.5953
21
-77.1063
0
LINE
8
BLACK
6
CONTINUOUS
10
63.5953
20
-77.1063
11
63.7296
21
-77.4561
0
LINE
8
BLACK
6
CONTINUOUS
10
63.7296
20
-77.4561
11
63.8997
21
-77.79
0
LINE
8
BLACK
6
CONTINUOUS
10
63.8997
20
-77.79
11
64.1038
21
-78.1042
0
LINE
8
BLACK
6
CONTINUOUS
10
64.1038
20
-78.1042
11
64.3396
21
-78.3954
0
LINE
8
BLACK
6
CONTINUOUS
10
64.3396
20
-78.3954
11
64.6046
21
-78.6604
0
LINE
8
BLACK
6
CONTINUOUS
10
64.6046
20
-78.6604
11
64.8958
21
-78.8962
0
LINE
8
BLACK
6
CONTINUOUS
10
64.8958
20
-78.8962
11
65.21
21
-79.1003
0
LINE
8
BLACK
6
CONTINUOUS
10
65.21
20
-79.1003
11
65.5439
21
-79.2704
0
LINE
8
BLACK
6
CONTINUOUS
10
65.5439
20
-79.2704
11
65.8937
21
-79.4047
0
LINE
8
BLACK
6
CONTINUOUS
10
65.8937
20
-79.4047
11
66.2557
21
-79.5017
0
LINE
8
BLACK
6
CONTINUOUS
10
66.2557
20
-79.5017
11
66.6258
21
-79.5603
0
LINE
8
BLACK
6
CONTINUOUS
10
66.6258
20
-79.5603
11
67
21
-79.5799
0
LINE
8
BLACK
6
CONTINUOUS
10
67
20
-79.5799
11
67.3742
21
-79.5603
0
LINE
8
BLACK
6
CONTINUOUS
10
67.3742
20
-79.5603
11
67.7443
21
-79.5017
0
LINE
8
BLACK
6
CONTINUOUS
10
67.7443
20
-79.5017
11
68.1063
21
-79.4047
0
LINE
8
BLACK
6
CONTINUOUS
10
68.1063
20
-79.4047
11
68.4561
21
-79.2704
0
LINE
8
BLACK
6
CONTINUOUS
10
68.4561
20
-79.2704
11
68.79
21
-79.1003
0
LINE
8
BLACK
6
CONTINUOUS
10
68.79
20
-79.1003
11
69.1042
21
-78.8962
0
LINE
8
BLACK
6
CONTINUOUS
10
69.1042
20
-78.8962
11
69.3954
21
-78.6604
0
LINE
8
BLACK
6
CONTINUOUS
10
69.3954
20
-78.6604
11
69.6604
21
-78.3954
0
LINE
8
BLACK
6
CONTINUOUS
10
69.6604
20
-78.3954
11
69.8962
21
-78.1042
0
LINE
8
BLACK
6
CONTINUOUS
10
69.8962
20
-78.1042
11
70.1003
21
-77.79
0
LINE
8
BLACK
6
CONTINUOUS
10
70.1003
20
-77.79
11
70.2704
21
-77.4561
0
LINE
8
BLACK
6
CONTINUOUS
10
70.2704
20
-77.4561
11
70.4047
21
-77.1063
0
LINE
8
BLACK
6
CONTINUOUS
10
70.4047
20
-77.1063
11
70.5017
21
-76.7443
0
LINE
8
BLACK
6
CONTINUOUS
10
70.5017
20
-76.7443
11
70.5603
21
-76.3742
0
LINE
8
BLACK
6
CONTINUOUS
10
70.5603
20
-76.3742
11
70.5799
21
-76
0
LINE
8
BLACK
6
CONTINUOUS
10
70.5799
20
-76
11
70.5603
21
-75.6258
0
LINE
8
BLACK
6
CONTINUOUS
10
70.5603
20
-75.6258
11
70.5017
21
-75.2557
0
LINE
8
BLACK
6
CONTINUOUS
10
70.5017
20
-75.2557
11
70.4047
21
-74.8937
0
LINE
8
BLACK
6
CONTINUOUS
10
70.4047
20
-74.8937
11
70.2704
21
-74.5439
0
LINE
8
BLACK
6
CONTINUOUS
10
70.2704
20
-74.5439
11
70.1003
21
-74.21
0
LINE
8
BLACK
6
CONTINUOUS
10
70.1003
20
-74.21
11
69.8962
21
-73.8958
0
LINE
8
BLACK
6
CONTINUOUS
10
69.8962
20
-73.8958
11
69.6604
21
-73.6046
0
LINE
8
BLACK
6
CONTINUOUS
10
69.6604
20
-73.6046
11
69.3954
21
-73.3396
0
LINE
8
BLACK
6
CONTINUOUS
10
69.3954
20
-73.3396
11
69.1042
21
-73.1038
0
LINE
8
BLACK
6
CONTINUOUS
10
69.1042
20
-73.1038
11
68.79
21
-72.8997
0
LINE
8
BLACK
6
CONTINUOUS
10
68.79
20
-72.8997
11
68.4561
21
-72.7296
0
LINE
8
BLACK
6
CONTINUOUS
10
68.4561
20
-72.7296
11
68.1063
21
-72.5953
0
LINE
8
BLACK
6
CONTINUOUS
10
68.1063
20
-72.5953
11
67.7443
21
-72.4983
0
LINE
8
BLACK
6
CONTINUOUS
10
67.7443
20
-72.4983
11
67.3742
21
-72.4397
0
LINE
8
BLACK
6
CONTINUOUS
10
67.3742
20
-72.4397
11
67
21
-72.4201
0
LINE
8
BLACK
6
CONTINUOUS
10
67
20
-72.4201
11
66.6258
21
-72.4397
0
LINE
8
BLACK
6
CONTINUOUS
10
66.6258
20
-72.4397
11
66.2557
21
-72.4983
0
LINE
8
BLACK
6
CONTINUOUS
10
66.2557
20
-72.4983
11
65.8937
21
-72.5953
0
LINE
8
BLACK
6
CONTINUOUS
10
65.8937
20
-72.5953
11
65.5439
21
-72.7296
0
LINE
8
BLACK
6
CONTINUOUS
10
65.5439
20
-72.7296
11
65.21
21
-72.8997
0
LINE
8
BLACK
6
CONTINUOUS
10
65.21
20
-72.8997
11
64.8958
21
-73.1038
0
LINE
8
BLACK
6
CONTINUOUS
10
64.8958
20
-73.1038
11
64.6046
21
-73.3396
0
LINE
8
BLACK
6
CONTINUOUS
10
64.6046
20
-73.3396
11
64.3396
21
-73.6046
0
LINE
8
BLACK
6
CONTINUOUS
10
64.3396
20
-73.6046
11
64.1038
21
-73.8958
0
LINE
8
BLACK
6
CONTINUOUS
10
64.1038
20
-73.8958
11
63.8997
21
-74.21
0
LINE
8
BLACK
6
CONTINUOUS
10
63.8997
20
-74.21
11
63.7296
21
-74.5439
0
LINE
8
BLACK
6
CONTINUOUS
10
63.7296
20
-74.5439
11
63.5953
21
-74.8937
0
LINE
8
BLACK
6
CONTINUOUS
10
63.5953
20
-74.8937
11
63.4983
21
-75.2557
0
LINE
8
BLACK
6
CONTINUOUS
10
63.4983
20
-75.2557
11
63.4397
21
-75.6258
0
LINE
8
BLACK
6
CONTINUOUS
10
63.4397
20
-75.6258
11
63.4201
21
-76
0
LINE
8
BLACK
6
CONTINUOUS
10
63.4201
20
-76
11
63.4397
21
-76.3742
0
LINE
8
BLACK
6
CONTINUOUS
10
63.4397
20
-76.3742
11
63.4983
21
-76.7443
0
LINE
8
BLACK
6
CONTINUOUS
10
71.3004
20
-57.5958
11
71.3654
21
-57.2417
0
LINE
8
BLACK
6
CONTINUOUS
10
71.3654
20
-57.2417
11
71.4695
21
-56.897
0
LINE
8
BLACK
6
CONTINUOUS
10
71.4695
20
-56.897
11
71.6113
21
-56.5661
0
LINE
8
BLACK
6
CONTINUOUS
10
71.6113
20
-56.5661
11
71.7892
21
-56.253
0
LINE
8
BLACK
6
CONTINUOUS
10
71.7892
20
-56.253
11
72.0008
21
-55.9617
0
LINE
8
BLACK
6
CONTINUOUS
10
72.0008
20
-55.9617
11
72.2436
21
-55.6958
0
LINE
8
BLACK
6
CONTINUOUS
10
72.2436
20
-55.6958
11
72.5145
21
-55.4587
0
LINE
8
BLACK
6
CONTINUOUS
10
72.5145
20
-55.4587
11
72.8101
21
-55.2532
0
LINE
8
BLACK
6
CONTINUOUS
10
72.8101
20
-55.2532
11
73.1269
21
-55.0819
0
LINE
8
BLACK
6
CONTINUOUS
10
73.1269
20
-55.0819
11
73.4607
21
-54.9471
0
LINE
8
BLACK
6
CONTINUOUS
10
73.4607
20
-54.9471
11
73.8075
21
-54.8502
0
LINE
8
BLACK
6
CONTINUOUS
10
73.8075
20
-54.8502
11
74.1629
21
-54.7927
0
LINE
8
BLACK
6
CONTINUOUS
10
74.1629
20
-54.7927
11
74.5225
21
-54.7751
0
LINE
8
BLACK
6
CONTINUOUS
10
74.5225
20
-54.7751
11
74.8819
21
-54.7977
0
LINE
8
BLACK
6
CONTINUOUS
10
74.8819
20
-54.7977
11
75.2364
21
-54.8602
0
LINE
8
BLACK
6
CONTINUOUS
10
75.2364
20
-54.8602
11
75.5818
21
-54.9619
0
LINE
8
BLACK
6
CONTINUOUS
10
75.5818
20
-54.9619
11
75.9137
21
-55.1014
0
LINE
8
BLACK
6
CONTINUOUS
10
75.9137
20
-55.1014
11
76.228
21
-55.277
0
LINE
8
BLACK
6
CONTINUOUS
10
76.228
20
-55.277
11
76.5208
21
-55.4866
0
LINE
8
BLACK
6
CONTINUOUS
10
76.5208
20
-55.4866
11
76.7884
21
-55.7276
0
LINE
8
BLACK
6
CONTINUOUS
10
76.7884
20
-55.7276
11
77.0274
21
-55.9968
0
LINE
8
BLACK
6
CONTINUOUS
10
77.0274
20
-55.9968
11
77.235
21
-56.291
0
LINE
8
BLACK
6
CONTINUOUS
10
77.235
20
-56.291
11
77.4084
21
-56.6065
0
LINE
8
BLACK
6
CONTINUOUS
10
77.4084
20
-56.6065
11
77.5456
21
-56.9394
0
LINE
8
BLACK
6
CONTINUOUS
10
77.5456
20
-56.9394
11
77.6449
21
-57.2855
0
LINE
8
BLACK
6
CONTINUOUS
10
77.6449
20
-57.2855
11
77.7049
21
-57.6405
0
LINE
8
BLACK
6
CONTINUOUS
10
77.7049
20
-57.6405
11
77.725
21
-58
0
LINE
8
BLACK
6
CONTINUOUS
10
77.725
20
-58
11
77.7237
21
-58.09
0
LINE
8
BLACK
6
CONTINUOUS
10
77.7237
20
-58.09
11
77.6936
21
-58.4488
0
LINE
8
BLACK
6
CONTINUOUS
10
77.6936
20
-58.4488
11
77.6237
21
-58.802
0
LINE
8
BLACK
6
CONTINUOUS
10
77.6237
20
-58.802
11
77.5148
21
-59.1452
0
LINE
8
BLACK
6
CONTINUOUS
10
77.5148
20
-59.1452
11
77.3684
21
-59.4741
0
LINE
8
BLACK
6
CONTINUOUS
10
77.3684
20
-59.4741
11
77.1862
21
-59.7847
0
LINE
8
BLACK
6
CONTINUOUS
10
77.1862
20
-59.7847
11
76.9705
21
-60.073
0
LINE
8
BLACK
6
CONTINUOUS
10
76.9705
20
-60.073
11
76.724
21
-60.3355
0
LINE
8
BLACK
6
CONTINUOUS
10
76.724
20
-60.3355
11
76.4498
21
-60.5688
0
LINE
8
BLACK
6
CONTINUOUS
10
76.4498
20
-60.5688
11
76.1513
21
-60.7701
0
LINE
8
BLACK
6
CONTINUOUS
10
76.1513
20
-60.7701
11
75.8323
21
-60.937
0
LINE
8
BLACK
6
CONTINUOUS
10
75.8323
20
-60.937
11
75.4966
21
-61.0672
0
LINE
8
BLACK
6
CONTINUOUS
10
75.4966
20
-61.0672
11
75.1485
21
-61.1591
0
LINE
8
BLACK
6
CONTINUOUS
10
75.1485
20
-61.1591
11
74.7923
21
-61.2117
0
LINE
8
BLACK
6
CONTINUOUS
10
74.7923
20
-61.2117
11
74.4325
21
-61.2243
0
LINE
8
BLACK
6
CONTINUOUS
10
74.4325
20
-61.2243
11
74.0735
21
-61.1967
0
LINE
8
BLACK
6
CONTINUOUS
10
74.0735
20
-61.1967
11
73.7198
21
-61.1292
0
LINE
8
BLACK
6
CONTINUOUS
10
73.7198
20
-61.1292
11
73.3759
21
-61.0227
0
LINE
8
BLACK
6
CONTINUOUS
10
73.3759
20
-61.0227
11
73.0459
21
-60.8786
0
LINE
8
BLACK
6
CONTINUOUS
10
73.0459
20
-60.8786
11
72.7341
21
-60.6986
0
LINE
8
BLACK
6
CONTINUOUS
10
72.7341
20
-60.6986
11
72.4443
21
-60.4849
0
LINE
8
BLACK
6
CONTINUOUS
10
72.4443
20
-60.4849
11
72.1801
21
-60.2403
0
LINE
8
BLACK
6
CONTINUOUS
10
72.1801
20
-60.2403
11
71.9449
21
-59.9677
0
LINE
8
BLACK
6
CONTINUOUS
10
71.9449
20
-59.9677
11
71.7415
21
-59.6706
0
LINE
8
BLACK
6
CONTINUOUS
10
71.7415
20
-59.6706
11
71.5724
21
-59.3527
0
LINE
8
BLACK
6
CONTINUOUS
10
71.5724
20
-59.3527
11
71.4399
21
-59.018
0
LINE
8
BLACK
6
CONTINUOUS
10
71.4399
20
-59.018
11
71.3455
21
-58.6705
0
LINE
8
BLACK
6
CONTINUOUS
10
71.3455
20
-58.6705
11
71.2904
21
-58.3147
0
LINE
8
BLACK
6
CONTINUOUS
10
71.2904
20
-58.3147
11
71.2754
21
-57.957
0
LINE
8
BLACK
6
CONTINUOUS
10
71.2754
20
-57.957
11
71.2753
21
-57.955
0
LINE
8
BLACK
6
CONTINUOUS
10
71.2753
20
-57.955
11
71.3004
21
-57.5958
0
LINE
8
BLACK
6
CONTINUOUS
10
71.4875
20
-58.6403
11
71.5776
21
-58.9721
0
LINE
8
BLACK
6
CONTINUOUS
10
71.5776
20
-58.9721
11
71.7042
21
-59.2918
0
LINE
8
BLACK
6
CONTINUOUS
10
71.7042
20
-59.2918
11
71.8656
21
-59.5954
0
LINE
8
BLACK
6
CONTINUOUS
10
71.8656
20
-59.5954
11
72.0599
21
-59.8792
0
LINE
8
BLACK
6
CONTINUOUS
10
72.0599
20
-59.8792
11
72.2845
21
-60.1394
0
LINE
8
BLACK
6
CONTINUOUS
10
72.2845
20
-60.1394
11
72.5368
21
-60.3731
0
LINE
8
BLACK
6
CONTINUOUS
10
72.5368
20
-60.3731
11
72.8136
21
-60.5771
0
LINE
8
BLACK
6
CONTINUOUS
10
72.8136
20
-60.5771
11
73.1114
21
-60.749
0
LINE
8
BLACK
6
CONTINUOUS
10
73.1114
20
-60.749
11
73.4265
21
-60.8867
0
LINE
8
BLACK
6
CONTINUOUS
10
73.4265
20
-60.8867
11
73.7549
21
-60.9884
0
LINE
8
BLACK
6
CONTINUOUS
10
73.7549
20
-60.9884
11
74.0927
21
-61.0528
0
LINE
8
BLACK
6
CONTINUOUS
10
74.0927
20
-61.0528
11
74.4355
21
-61.0792
0
LINE
8
BLACK
6
CONTINUOUS
10
74.4355
20
-61.0792
11
74.7791
21
-61.0672
0
LINE
8
BLACK
6
CONTINUOUS
10
74.7791
20
-61.0672
11
75.1193
21
-61.0169
0
LINE
8
BLACK
6
CONTINUOUS
10
75.1193
20
-61.0169
11
75.4517
21
-60.9291
0
LINE
8
BLACK
6
CONTINUOUS
10
75.4517
20
-60.9291
11
75.7723
21
-60.8048
0
LINE
8
BLACK
6
CONTINUOUS
10
75.7723
20
-60.8048
11
76.077
21
-60.6455
0
LINE
8
BLACK
6
CONTINUOUS
10
76.077
20
-60.6455
11
76.3621
21
-60.4532
0
LINE
8
BLACK
6
CONTINUOUS
10
76.3621
20
-60.4532
11
76.6239
21
-60.2303
0
LINE
8
BLACK
6
CONTINUOUS
10
76.6239
20
-60.2303
11
76.8593
21
-59.9797
0
LINE
8
BLACK
6
CONTINUOUS
10
76.8593
20
-59.9797
11
77.0653
21
-59.7044
0
LINE
8
BLACK
6
CONTINUOUS
10
77.0653
20
-59.7044
11
77.2393
21
-59.4078
0
LINE
8
BLACK
6
CONTINUOUS
10
77.2393
20
-59.4078
11
77.3791
21
-59.0937
0
LINE
8
BLACK
6
CONTINUOUS
10
77.3791
20
-59.0937
11
77.4831
21
-58.7659
0
LINE
8
BLACK
6
CONTINUOUS
10
77.4831
20
-58.7659
11
77.5499
21
-58.4286
0
LINE
8
BLACK
6
CONTINUOUS
10
77.5499
20
-58.4286
11
77.5786
21
-58.086
0
LINE
8
BLACK
6
CONTINUOUS
10
77.5786
20
-58.086
11
77.5798
21
-58
0
LINE
8
BLACK
6
CONTINUOUS
10
77.5798
20
-58
11
77.5607
21
-57.6567
0
LINE
8
BLACK
6
CONTINUOUS
10
77.5607
20
-57.6567
11
77.5033
21
-57.3177
0
LINE
8
BLACK
6
CONTINUOUS
10
77.5033
20
-57.3177
11
77.4085
21
-56.9871
0
LINE
8
BLACK
6
CONTINUOUS
10
77.4085
20
-56.9871
11
77.2775
21
-56.6692
0
LINE
8
BLACK
6
CONTINUOUS
10
77.2775
20
-56.6692
11
77.1119
21
-56.3679
0
LINE
8
BLACK
6
CONTINUOUS
10
77.1119
20
-56.3679
11
76.9137
21
-56.087
0
LINE
8
BLACK
6
CONTINUOUS
10
76.9137
20
-56.087
11
76.6854
21
-55.8298
0
LINE
8
BLACK
6
CONTINUOUS
10
76.6854
20
-55.8298
11
76.4298
21
-55.5998
0
LINE
8
BLACK
6
CONTINUOUS
10
76.4298
20
-55.5998
11
76.1503
21
-55.3996
0
LINE
8
BLACK
6
CONTINUOUS
10
76.1503
20
-55.3996
11
75.8501
21
-55.2319
0
LINE
8
BLACK
6
CONTINUOUS
10
75.8501
20
-55.2319
11
75.5331
21
-55.0986
0
LINE
8
BLACK
6
CONTINUOUS
10
75.5331
20
-55.0986
11
75.2033
21
-55.0015
0
LINE
8
BLACK
6
CONTINUOUS
10
75.2033
20
-55.0015
11
74.8647
21
-54.9418
0
LINE
8
BLACK
6
CONTINUOUS
10
74.8647
20
-54.9418
11
74.5215
21
-54.9202
0
LINE
8
BLACK
6
CONTINUOUS
10
74.5215
20
-54.9202
11
74.1781
21
-54.937
0
LINE
8
BLACK
6
CONTINUOUS
10
74.1781
20
-54.937
11
73.8386
21
-54.992
0
LINE
8
BLACK
6
CONTINUOUS
10
73.8386
20
-54.992
11
73.5075
21
-55.0845
0
LINE
8
BLACK
6
CONTINUOUS
10
73.5075
20
-55.0845
11
73.1887
21
-55.2133
0
LINE
8
BLACK
6
CONTINUOUS
10
73.1887
20
-55.2133
11
72.8862
21
-55.3768
0
LINE
8
BLACK
6
CONTINUOUS
10
72.8862
20
-55.3768
11
72.6039
21
-55.573
0
LINE
8
BLACK
6
CONTINUOUS
10
72.6039
20
-55.573
11
72.3451
21
-55.7995
0
LINE
8
BLACK
6
CONTINUOUS
10
72.3451
20
-55.7995
11
72.1133
21
-56.0534
0
LINE
8
BLACK
6
CONTINUOUS
10
72.1133
20
-56.0534
11
71.9112
21
-56.3316
0
LINE
8
BLACK
6
CONTINUOUS
10
71.9112
20
-56.3316
11
71.7413
21
-56.6306
0
LINE
8
BLACK
6
CONTINUOUS
10
71.7413
20
-56.6306
11
71.6059
21
-56.9466
0
LINE
8
BLACK
6
CONTINUOUS
10
71.6059
20
-56.9466
11
71.5065
21
-57.2758
0
LINE
8
BLACK
6
CONTINUOUS
10
71.5065
20
-57.2758
11
71.4444
21
-57.614
0
LINE
8
BLACK
6
CONTINUOUS
10
71.4444
20
-57.614
11
71.4205
21
-57.957
0
LINE
8
BLACK
6
CONTINUOUS
10
71.4205
20
-57.957
11
71.4349
21
-58.3005
0
LINE
8
BLACK
6
CONTINUOUS
10
71.4349
20
-58.3005
11
71.4875
21
-58.6403
0
LINE
8
BLACK
6
CONTINUOUS
10
71.3004
20
-40.5958
11
71.3654
21
-40.2417
0
LINE
8
BLACK
6
CONTINUOUS
10
71.3654
20
-40.2417
11
71.4695
21
-39.897
0
LINE
8
BLACK
6
CONTINUOUS
10
71.4695
20
-39.897
11
71.6113
21
-39.5661
0
LINE
8
BLACK
6
CONTINUOUS
10
71.6113
20
-39.5661
11
71.7892
21
-39.253
0
LINE
8
BLACK
6
CONTINUOUS
10
71.7892
20
-39.253
11
72.0008
21
-38.9617
0
LINE
8
BLACK
6
CONTINUOUS
10
72.0008
20
-38.9617
11
72.2436
21
-38.6958
0
LINE
8
BLACK
6
CONTINUOUS
10
72.2436
20
-38.6958
11
72.5145
21
-38.4587
0
LINE
8
BLACK
6
CONTINUOUS
10
72.5145
20
-38.4587
11
72.8101
21
-38.2532
0
LINE
8
BLACK
6
CONTINUOUS
10
72.8101
20
-38.2532
11
73.1269
21
-38.0819
0
LINE
8
BLACK
6
CONTINUOUS
10
73.1269
20
-38.0819
11
73.4607
21
-37.9471
0
LINE
8
BLACK
6
CONTINUOUS
10
73.4607
20
-37.9471
11
73.8075
21
-37.8502
0
LINE
8
BLACK
6
CONTINUOUS
10
73.8075
20
-37.8502
11
74.1629
21
-37.7927
0
LINE
8
BLACK
6
CONTINUOUS
10
74.1629
20
-37.7927
11
74.5225
21
-37.7751
0
LINE
8
BLACK
6
CONTINUOUS
10
74.5225
20
-37.7751
11
74.8819
21
-37.7977
0
LINE
8
BLACK
6
CONTINUOUS
10
74.8819
20
-37.7977
11
75.2364
21
-37.8602
0
LINE
8
BLACK
6
CONTINUOUS
10
75.2364
20
-37.8602
11
75.5818
21
-37.9619
0
LINE
8
BLACK
6
CONTINUOUS
10
75.5818
20
-37.9619
11
75.9137
21
-38.1014
0
LINE
8
BLACK
6
CONTINUOUS
10
75.9137
20
-38.1014
11
76.228
21
-38.277
0
LINE
8
BLACK
6
CONTINUOUS
10
76.228
20
-38.277
11
76.5208
21
-38.4866
0
LINE
8
BLACK
6
CONTINUOUS
10
76.5208
20
-38.4866
11
76.7884
21
-38.7276
0
LINE
8
BLACK
6
CONTINUOUS
10
76.7884
20
-38.7276
11
77.0274
21
-38.9968
0
LINE
8
BLACK
6
CONTINUOUS
10
77.0274
20
-38.9968
11
77.235
21
-39.291
0
LINE
8
BLACK
6
CONTINUOUS
10
77.235
20
-39.291
11
77.4084
21
-39.6065
0
LINE
8
BLACK
6
CONTINUOUS
10
77.4084
20
-39.6065
11
77.5456
21
-39.9394
0
LINE
8
BLACK
6
CONTINUOUS
10
77.5456
20
-39.9394
11
77.6449
21
-40.2855
0
LINE
8
BLACK
6
CONTINUOUS
10
77.6449
20
-40.2855
11
77.7049
21
-40.6405
0
LINE
8
BLACK
6
CONTINUOUS
10
77.7049
20
-40.6405
11
77.725
21
-41
0
LINE
8
BLACK
6
CONTINUOUS
10
77.725
20
-41
11
77.7237
21
-41.09
0
LINE
8
BLACK
6
CONTINUOUS
10
77.7237
20
-41.09
11
77.6936
21
-41.4488
0
LINE
8
BLACK
6
CONTINUOUS
10
77.6936
20
-41.4488
11
77.6237
21
-41.802
0
LINE
8
BLACK
6
CONTINUOUS
10
77.6237
20
-41.802
11
77.5148
21
-42.1452
0
LINE
8
BLACK
6
CONTINUOUS
10
77.5148
20
-42.1452
11
77.3684
21
-42.4741
0
LINE
8
BLACK
6
CONTINUOUS
10
77.3684
20
-42.4741
11
77.1862
21
-42.7847
0
LINE
8
BLACK
6
CONTINUOUS
10
77.1862
20
-42.7847
11
76.9705
21
-43.073
0
LINE
8
BLACK
6
CONTINUOUS
10
76.9705
20
-43.073
11
76.724
21
-43.3355
0
LINE
8
BLACK
6
CONTINUOUS
10
76.724
20
-43.3355
11
76.4498
21
-43.5688
0
LINE
8
BLACK
6
CONTINUOUS
10
76.4498
20
-43.5688
11
76.1513
21
-43.7701
0
LINE
8
BLACK
6
CONTINUOUS
10
76.1513
20
-43.7701
11
75.8323
21
-43.937
0
LINE
8
BLACK
6
CONTINUOUS
10
75.8323
20
-43.937
11
75.4966
21
-44.0672
0
LINE
8
BLACK
6
CONTINUOUS
10
75.4966
20
-44.0672
11
75.1485
21
-44.1591
0
LINE
8
BLACK
6
CONTINUOUS
10
75.1485
20
-44.1591
11
74.7923
21
-44.2117
0
LINE
8
BLACK
6
CONTINUOUS
10
74.7923
20
-44.2117
11
74.4325
21
-44.2243
0
LINE
8
BLACK
6
CONTINUOUS
10
74.4325
20
-44.2243
11
74.0735
21
-44.1967
0
LINE
8
BLACK
6
CONTINUOUS
10
74.0735
20
-44.1967
11
73.7198
21
-44.1292
0
LINE
8
BLACK
6
CONTINUOUS
10
73.7198
20
-44.1292
11
73.3759
21
-44.0227
0
LINE
8
BLACK
6
CONTINUOUS
10
73.3759
20
-44.0227
11
73.0459
21
-43.8786
0
LINE
8
BLACK
6
CONTINUOUS
10
73.0459
20
-43.8786
11
72.7341
21
-43.6986
0
LINE
8
BLACK
6
CONTINUOUS
10
72.7341
20
-43.6986
11
72.4443
21
-43.4849
0
LINE
8
BLACK
6
CONTINUOUS
10
72.4443
20
-43.4849
11
72.1801
21
-43.2403
0
LINE
8
BLACK
6
CONTINUOUS
10
72.1801
20
-43.2403
11
71.9449
21
-42.9677
0
LINE
8
BLACK
6
CONTINUOUS
10
71.9449
20
-42.9677
11
71.7415
21
-42.6706
0
LINE
8
BLACK
6
CONTINUOUS
10
71.7415
20
-42.6706
11
71.5724
21
-42.3527
0
LINE
8
BLACK
6
CONTINUOUS
10
71.5724
20
-42.3527
11
71.4399
21
-42.018
0
LINE
8
BLACK
6
CONTINUOUS
10
71.4399
20
-42.018
11
71.3455
21
-41.6705
0
LINE
8
BLACK
6
CONTINUOUS
10
71.3455
20
-41.6705
11
71.2904
21
-41.3147
0
LINE
8
BLACK
6
CONTINUOUS
10
71.2904
20
-41.3147
11
71.2754
21
-40.957
0
LINE
8
BLACK
6
CONTINUOUS
10
71.2754
20
-40.957
11
71.2753
21
-40.955
0
LINE
8
BLACK
6
CONTINUOUS
10
71.2753
20
-40.955
11
71.3004
21
-40.5958
0
LINE
8
BLACK
6
CONTINUOUS
10
71.4875
20
-41.6403
11
71.5776
21
-41.9721
0
LINE
8
BLACK
6
CONTINUOUS
10
71.5776
20
-41.9721
11
71.7042
21
-42.2918
0
LINE
8
BLACK
6
CONTINUOUS
10
71.7042
20
-42.2918
11
71.8656
21
-42.5954
0
LINE
8
BLACK
6
CONTINUOUS
10
71.8656
20
-42.5954
11
72.0599
21
-42.8792
0
LINE
8
BLACK
6
CONTINUOUS
10
72.0599
20
-42.8792
11
72.2845
21
-43.1394
0
LINE
8
BLACK
6
CONTINUOUS
10
72.2845
20
-43.1394
11
72.5368
21
-43.3731
0
LINE
8
BLACK
6
CONTINUOUS
10
72.5368
20
-43.3731
11
72.8136
21
-43.5771
0
LINE
8
BLACK
6
CONTINUOUS
10
72.8136
20
-43.5771
11
73.1114
21
-43.749
0
LINE
8
BLACK
6
CONTINUOUS
10
73.1114
20
-43.749
11
73.4265
21
-43.8867
0
LINE
8
BLACK
6
CONTINUOUS
10
73.4265
20
-43.8867
11
73.7549
21
-43.9884
0
LINE
8
BLACK
6
CONTINUOUS
10
73.7549
20
-43.9884
11
74.0927
21
-44.0528
0
LINE
8
BLACK
6
CONTINUOUS
10
74.0927
20
-44.0528
11
74.4355
21
-44.0792
0
LINE
8
BLACK
6
CONTINUOUS
10
74.4355
20
-44.0792
11
74.7791
21
-44.0672
0
LINE
8
BLACK
6
CONTINUOUS
10
74.7791
20
-44.0672
11
75.1193
21
-44.0169
0
LINE
8
BLACK
6
CONTINUOUS
10
75.1193
20
-44.0169
11
75.4517
21
-43.9291
0
LINE
8
BLACK
6
CONTINUOUS
10
75.4517
20
-43.9291
11
75.7723
21
-43.8048
0
LINE
8
BLACK
6
CONTINUOUS
10
75.7723
20
-43.8048
11
76.077
21
-43.6455
0
LINE
8
BLACK
6
CONTINUOUS
10
76.077
20
-43.6455
11
76.3621
21
-43.4532
0
LINE
8
BLACK
6
CONTINUOUS
10
76.3621
20
-43.4532
11
76.6239
21
-43.2303
0
LINE
8
BLACK
6
CONTINUOUS
10
76.6239
20
-43.2303
11
76.8593
21
-42.9797
0
LINE
8
BLACK
6
CONTINUOUS
10
76.8593
20
-42.9797
11
77.0653
21
-42.7044
0
LINE
8
BLACK
6
CONTINUOUS
10
77.0653
20
-42.7044
11
77.2393
21
-42.4078
0
LINE
8
BLACK
6
CONTINUOUS
10
77.2393
20
-42.4078
11
77.3791
21
-42.0937
0
LINE
8
BLACK
6
CONTINUOUS
10
77.3791
20
-42.0937
11
77.4831
21
-41.7659
0
LINE
8
BLACK
6
CONTINUOUS
10
77.4831
20
-41.7659
11
77.5499
21
-41.4286
0
LINE
8
BLACK
6
CONTINUOUS
10
77.5499
20
-41.4286
11
77.5786
21
-41.086
0
LINE
8
BLACK
6
CONTINUOUS
10
77.5786
20
-41.086
11
77.5798
21
-41
0
LINE
8
BLACK
6
CONTINUOUS
10
77.5798
20
-41
11
77.5607
21
-40.6567
0
LINE
8
BLACK
6
CONTINUOUS
10
77.5607
20
-40.6567
11
77.5033
21
-40.3177
0
LINE
8
BLACK
6
CONTINUOUS
10
77.5033
20
-40.3177
11
77.4085
21
-39.9871
0
LINE
8
BLACK
6
CONTINUOUS
10
77.4085
20
-39.9871
11
77.2775
21
-39.6692
0
LINE
8
BLACK
6
CONTINUOUS
10
77.2775
20
-39.6692
11
77.1119
21
-39.3679
0
LINE
8
BLACK
6
CONTINUOUS
10
77.1119
20
-39.3679
11
76.9137
21
-39.087
0
LINE
8
BLACK
6
CONTINUOUS
10
76.9137
20
-39.087
11
76.6854
21
-38.8298
0
LINE
8
BLACK
6
CONTINUOUS
10
76.6854
20
-38.8298
11
76.4298
21
-38.5998
0
LINE
8
BLACK
6
CONTINUOUS
10
76.4298
20
-38.5998
11
76.1503
21
-38.3996
0
LINE
8
BLACK
6
CONTINUOUS
10
76.1503
20
-38.3996
11
75.8501
21
-38.2319
0
LINE
8
BLACK
6
CONTINUOUS
10
75.8501
20
-38.2319
11
75.5331
21
-38.0986
0
LINE
8
BLACK
6
CONTINUOUS
10
75.5331
20
-38.0986
11
75.2033
21
-38.0015
0
LINE
8
BLACK
6
CONTINUOUS
10
75.2033
20
-38.0015
11
74.8647
21
-37.9418
0
LINE
8
BLACK
6
CONTINUOUS
10
74.8647
20
-37.9418
11
74.5215
21
-37.9202
0
LINE
8
BLACK
6
CONTINUOUS
10
74.5215
20
-37.9202
11
74.1781
21
-37.937
0
LINE
8
BLACK
6
CONTINUOUS
10
74.1781
20
-37.937
11
73.8386
21
-37.992
0
LINE
8
BLACK
6
CONTINUOUS
10
73.8386
20
-37.992
11
73.5075
21
-38.0845
0
LINE
8
BLACK
6
CONTINUOUS
10
73.5075
20
-38.0845
11
73.1887
21
-38.2133
0
LINE
8
BLACK
6
CONTINUOUS
10
73.1887
20
-38.2133
11
72.8862
21
-38.3768
0
LINE
8
BLACK
6
CONTINUOUS
10
72.8862
20
-38.3768
11
72.6039
21
-38.573
0
LINE
8
BLACK
6
CONTINUOUS
10
72.6039
20
-38.573
11
72.3451
21
-38.7995
0
LINE
8
BLACK
6
CONTINUOUS
10
72.3451
20
-38.7995
11
72.1133
21
-39.0534
0
LINE
8
BLACK
6
CONTINUOUS
10
72.1133
20
-39.0534
11
71.9112
21
-39.3316
0
LINE
8
BLACK
6
CONTINUOUS
10
71.9112
20
-39.3316
11
71.7413
21
-39.6306
0
LINE
8
BLACK
6
CONTINUOUS
10
71.7413
20
-39.6306
11
71.6059
21
-39.9466
0
LINE
8
BLACK
6
CONTINUOUS
10
71.6059
20
-39.9466
11
71.5065
21
-40.2758
0
LINE
8
BLACK
6
CONTINUOUS
10
71.5065
20
-40.2758
11
71.4444
21
-40.614
0
LINE
8
BLACK
6
CONTINUOUS
10
71.4444
20
-40.614
11
71.4205
21
-40.957
0
LINE
8
BLACK
6
CONTINUOUS
10
71.4205
20
-40.957
11
71.4349
21
-41.3005
0
LINE
8
BLACK
6
CONTINUOUS
10
71.4349
20
-41.3005
11
71.4875
21
-41.6403
0
LINE
8
BLACK
6
CONTINUOUS
10
63.2954
20
-22.6106
11
63.3537
21
-22.2383
0
LINE
8
BLACK
6
CONTINUOUS
10
63.3537
20
-22.2383
11
63.4494
21
-21.8737
0
LINE
8
BLACK
6
CONTINUOUS
10
63.4494
20
-21.8737
11
63.5814
21
-21.5206
0
LINE
8
BLACK
6
CONTINUOUS
10
63.5814
20
-21.5206
11
63.7484
21
-21.1827
0
LINE
8
BLACK
6
CONTINUOUS
10
63.7484
20
-21.1827
11
63.9487
21
-20.8634
0
LINE
8
BLACK
6
CONTINUOUS
10
63.9487
20
-20.8634
11
64.1802
21
-20.566
0
LINE
8
BLACK
6
CONTINUOUS
10
64.1802
20
-20.566
11
64.4406
21
-20.2935
0
LINE
8
BLACK
6
CONTINUOUS
10
64.4406
20
-20.2935
11
64.7272
21
-20.0487
0
LINE
8
BLACK
6
CONTINUOUS
10
64.7272
20
-20.0487
11
65.0371
21
-19.8341
0
LINE
8
BLACK
6
CONTINUOUS
10
65.0371
20
-19.8341
11
65.3671
21
-19.652
0
LINE
8
BLACK
6
CONTINUOUS
10
65.3671
20
-19.652
11
65.7138
21
-19.5041
0
LINE
8
BLACK
6
CONTINUOUS
10
65.7138
20
-19.5041
11
66.0736
21
-19.392
0
LINE
8
BLACK
6
CONTINUOUS
10
66.0736
20
-19.392
11
66.443
21
-19.3169
0
LINE
8
BLACK
6
CONTINUOUS
10
66.443
20
-19.3169
11
66.818
21
-19.2794
0
LINE
8
BLACK
6
CONTINUOUS
10
66.818
20
-19.2794
11
67.195
21
-19.2801
0
LINE
8
BLACK
6
CONTINUOUS
10
67.195
20
-19.2801
11
67.5699
21
-19.3188
0
LINE
8
BLACK
6
CONTINUOUS
10
67.5699
20
-19.3188
11
67.939
21
-19.3953
0
LINE
8
BLACK
6
CONTINUOUS
10
67.939
20
-19.3953
11
68.2984
21
-19.5086
0
LINE
8
BLACK
6
CONTINUOUS
10
68.2984
20
-19.5086
11
68.6446
21
-19.6577
0
LINE
8
BLACK
6
CONTINUOUS
10
68.6446
20
-19.6577
11
68.9739
21
-19.841
0
LINE
8
BLACK
6
CONTINUOUS
10
68.9739
20
-19.841
11
69.2831
21
-20.0567
0
LINE
8
BLACK
6
CONTINUOUS
10
69.2831
20
-20.0567
11
69.5688
21
-20.3025
0
LINE
8
BLACK
6
CONTINUOUS
10
69.5688
20
-20.3025
11
69.8283
21
-20.5759
0
LINE
8
BLACK
6
CONTINUOUS
10
69.8283
20
-20.5759
11
70.0588
21
-20.8741
0
LINE
8
BLACK
6
CONTINUOUS
10
70.0588
20
-20.8741
11
70.258
21
-21.1941
0
LINE
8
BLACK
6
CONTINUOUS
10
70.258
20
-21.1941
11
70.4238
21
-21.5326
0
LINE
8
BLACK
6
CONTINUOUS
10
70.4238
20
-21.5326
11
70.5545
21
-21.8861
0
LINE
8
BLACK
6
CONTINUOUS
10
70.5545
20
-21.8861
11
70.6489
21
-22.251
0
LINE
8
BLACK
6
CONTINUOUS
10
70.6489
20
-22.251
11
70.7059
21
-22.6236
0
LINE
8
BLACK
6
CONTINUOUS
10
70.7059
20
-22.6236
11
70.725
21
-23
0
LINE
8
BLACK
6
CONTINUOUS
10
70.725
20
-23
11
70.7249
21
-23.026
0
LINE
8
BLACK
6
CONTINUOUS
10
70.7249
20
-23.026
11
70.7032
21
-23.4023
0
LINE
8
BLACK
6
CONTINUOUS
10
70.7032
20
-23.4023
11
70.6436
21
-23.7745
0
LINE
8
BLACK
6
CONTINUOUS
10
70.6436
20
-23.7745
11
70.5467
21
-24.1387
0
LINE
8
BLACK
6
CONTINUOUS
10
70.5467
20
-24.1387
11
70.4135
21
-24.4913
0
LINE
8
BLACK
6
CONTINUOUS
10
70.4135
20
-24.4913
11
70.2453
21
-24.8286
0
LINE
8
BLACK
6
CONTINUOUS
10
70.2453
20
-24.8286
11
70.0439
21
-25.1472
0
LINE
8
BLACK
6
CONTINUOUS
10
70.0439
20
-25.1472
11
69.8113
21
-25.4438
0
LINE
8
BLACK
6
CONTINUOUS
10
69.8113
20
-25.4438
11
69.5499
21
-25.7154
0
LINE
8
BLACK
6
CONTINUOUS
10
69.5499
20
-25.7154
11
69.2625
21
-25.9592
0
LINE
8
BLACK
6
CONTINUOUS
10
69.2625
20
-25.9592
11
68.9518
21
-26.1727
0
LINE
8
BLACK
6
CONTINUOUS
10
68.9518
20
-26.1727
11
68.6212
21
-26.3537
0
LINE
8
BLACK
6
CONTINUOUS
10
68.6212
20
-26.3537
11
68.274
21
-26.5004
0
LINE
8
BLACK
6
CONTINUOUS
10
68.274
20
-26.5004
11
67.9138
21
-26.6112
0
LINE
8
BLACK
6
CONTINUOUS
10
67.9138
20
-26.6112
11
67.5442
21
-26.685
0
LINE
8
BLACK
6
CONTINUOUS
10
67.5442
20
-26.685
11
67.169
21
-26.7212
0
LINE
8
BLACK
6
CONTINUOUS
10
67.169
20
-26.7212
11
66.7921
21
-26.7192
0
LINE
8
BLACK
6
CONTINUOUS
10
66.7921
20
-26.7192
11
66.4173
21
-26.6791
0
LINE
8
BLACK
6
CONTINUOUS
10
66.4173
20
-26.6791
11
66.0485
21
-26.6014
0
LINE
8
BLACK
6
CONTINUOUS
10
66.0485
20
-26.6014
11
65.6894
21
-26.4868
0
LINE
8
BLACK
6
CONTINUOUS
10
65.6894
20
-26.4868
11
65.3437
21
-26.3365
0
LINE
8
BLACK
6
CONTINUOUS
10
65.3437
20
-26.3365
11
65.015
21
-26.1521
0
LINE
8
BLACK
6
CONTINUOUS
10
65.015
20
-26.1521
11
64.7067
21
-25.9353
0
LINE
8
BLACK
6
CONTINUOUS
10
64.7067
20
-25.9353
11
64.4218
21
-25.6886
0
LINE
8
BLACK
6
CONTINUOUS
10
64.4218
20
-25.6886
11
64.1633
21
-25.4142
0
LINE
8
BLACK
6
CONTINUOUS
10
64.1633
20
-25.4142
11
63.9338
21
-25.1152
0
LINE
8
BLACK
6
CONTINUOUS
10
63.9338
20
-25.1152
11
63.7358
21
-24.7945
0
LINE
8
BLACK
6
CONTINUOUS
10
63.7358
20
-24.7945
11
63.5711
21
-24.4555
0
LINE
8
BLACK
6
CONTINUOUS
10
63.5711
20
-24.4555
11
63.4416
21
-24.1015
0
LINE
8
BLACK
6
CONTINUOUS
10
63.4416
20
-24.1015
11
63.3485
21
-23.7363
0
LINE
8
BLACK
6
CONTINUOUS
10
63.3485
20
-23.7363
11
63.2928
21
-23.3635
0
LINE
8
BLACK
6
CONTINUOUS
10
63.2928
20
-23.3635
11
63.2756
21
-23
0
LINE
8
BLACK
6
CONTINUOUS
10
63.2756
20
-23
11
63.275
21
-22.987
0
LINE
8
BLACK
6
CONTINUOUS
10
63.275
20
-22.987
11
63.2954
21
-22.6106
0
LINE
8
BLACK
6
CONTINUOUS
10
63.4983
20
-23.7443
11
63.5953
21
-24.1063
0
LINE
8
BLACK
6
CONTINUOUS
10
63.5953
20
-24.1063
11
63.7296
21
-24.4561
0
LINE
8
BLACK
6
CONTINUOUS
10
63.7296
20
-24.4561
11
63.8997
21
-24.79
0
LINE
8
BLACK
6
CONTINUOUS
10
63.8997
20
-24.79
11
64.1038
21
-25.1042
0
LINE
8
BLACK
6
CONTINUOUS
10
64.1038
20
-25.1042
11
64.3396
21
-25.3954
0
LINE
8
BLACK
6
CONTINUOUS
10
64.3396
20
-25.3954
11
64.6046
21
-25.6604
0
LINE
8
BLACK
6
CONTINUOUS
10
64.6046
20
-25.6604
11
64.8958
21
-25.8962
0
LINE
8
BLACK
6
CONTINUOUS
10
64.8958
20
-25.8962
11
65.21
21
-26.1003
0
LINE
8
BLACK
6
CONTINUOUS
10
65.21
20
-26.1003
11
65.5439
21
-26.2704
0
LINE
8
BLACK
6
CONTINUOUS
10
65.5439
20
-26.2704
11
65.8937
21
-26.4047
0
LINE
8
BLACK
6
CONTINUOUS
10
65.8937
20
-26.4047
11
66.2557
21
-26.5017
0
LINE
8
BLACK
6
CONTINUOUS
10
66.2557
20
-26.5017
11
66.6258
21
-26.5603
0
LINE
8
BLACK
6
CONTINUOUS
10
66.6258
20
-26.5603
11
67
21
-26.5799
0
LINE
8
BLACK
6
CONTINUOUS
10
67
20
-26.5799
11
67.3742
21
-26.5603
0
LINE
8
BLACK
6
CONTINUOUS
10
67.3742
20
-26.5603
11
67.7443
21
-26.5017
0
LINE
8
BLACK
6
CONTINUOUS
10
67.7443
20
-26.5017
11
68.1063
21
-26.4047
0
LINE
8
BLACK
6
CONTINUOUS
10
68.1063
20
-26.4047
11
68.4561
21
-26.2704
0
LINE
8
BLACK
6
CONTINUOUS
10
68.4561
20
-26.2704
11
68.79
21
-26.1003
0
LINE
8
BLACK
6
CONTINUOUS
10
68.79
20
-26.1003
11
69.1042
21
-25.8962
0
LINE
8
BLACK
6
CONTINUOUS
10
69.1042
20
-25.8962
11
69.3954
21
-25.6604
0
LINE
8
BLACK
6
CONTINUOUS
10
69.3954
20
-25.6604
11
69.6604
21
-25.3954
0
LINE
8
BLACK
6
CONTINUOUS
10
69.6604
20
-25.3954
11
69.8962
21
-25.1042
0
LINE
8
BLACK
6
CONTINUOUS
10
69.8962
20
-25.1042
11
70.1003
21
-24.79
0
LINE
8
BLACK
6
CONTINUOUS
10
70.1003
20
-24.79
11
70.2704
21
-24.4561
0
LINE
8
BLACK
6
CONTINUOUS
10
70.2704
20
-24.4561
11
70.4047
21
-24.1063
0
LINE
8
BLACK
6
CONTINUOUS
10
70.4047
20
-24.1063
11
70.5017
21
-23.7443
0
LINE
8
BLACK
6
CONTINUOUS
10
70.5017
20
-23.7443
11
70.5603
21
-23.3742
0
LINE
8
BLACK
6
CONTINUOUS
10
70.5603
20
-23.3742
11
70.5799
21
-23
0
LINE
8
BLACK
6
CONTINUOUS
10
70.5799
20
-23
11
70.5603
21
-22.6258
0
LINE
8
BLACK
6
CONTINUOUS
10
70.5603
20
-22.6258
11
70.5017
21
-22.2557
0
LINE
8
BLACK
6
CONTINUOUS
10
70.5017
20
-22.2557
11
70.4047
21
-21.8937
0
LINE
8
BLACK
6
CONTINUOUS
10
70.4047
20
-21.8937
11
70.2704
21
-21.5439
0
LINE
8
BLACK
6
CONTINUOUS
10
70.2704
20
-21.5439
11
70.1003
21
-21.21
0
LINE
8
BLACK
6
CONTINUOUS
10
70.1003
20
-21.21
11
69.8962
21
-20.8958
0
LINE
8
BLACK
6
CONTINUOUS
10
69.8962
20
-20.8958
11
69.6604
21
-20.6046
0
LINE
8
BLACK
6
CONTINUOUS
10
69.6604
20
-20.6046
11
69.3954
21
-20.3396
0
LINE
8
BLACK
6
CONTINUOUS
10
69.3954
20
-20.3396
11
69.1042
21
-20.1038
0
LINE
8
BLACK
6
CONTINUOUS
10
69.1042
20
-20.1038
11
68.79
21
-19.8997
0
LINE
8
BLACK
6
CONTINUOUS
10
68.79
20
-19.8997
11
68.4561
21
-19.7296
0
LINE
8
BLACK
6
CONTINUOUS
10
68.4561
20
-19.7296
11
68.1063
21
-19.5953
0
LINE
8
BLACK
6
CONTINUOUS
10
68.1063
20
-19.5953
11
67.7443
21
-19.4983
0
LINE
8
BLACK
6
CONTINUOUS
10
67.7443
20
-19.4983
11
67.3742
21
-19.4397
0
LINE
8
BLACK
6
CONTINUOUS
10
67.3742
20
-19.4397
11
67
21
-19.4201
0
LINE
8
BLACK
6
CONTINUOUS
10
67
20
-19.4201
11
66.6258
21
-19.4397
0
LINE
8
BLACK
6
CONTINUOUS
10
66.6258
20
-19.4397
11
66.2557
21
-19.4983
0
LINE
8
BLACK
6
CONTINUOUS
10
66.2557
20
-19.4983
11
65.8937
21
-19.5953
0
LINE
8
BLACK
6
CONTINUOUS
10
65.8937
20
-19.5953
11
65.5439
21
-19.7296
0
LINE
8
BLACK
6
CONTINUOUS
10
65.5439
20
-19.7296
11
65.21
21
-19.8997
0
LINE
8
BLACK
6
CONTINUOUS
10
65.21
20
-19.8997
11
64.8958
21
-20.1038
0
LINE
8
BLACK
6
CONTINUOUS
10
64.8958
20
-20.1038
11
64.6046
21
-20.3396
0
LINE
8
BLACK
6
CONTINUOUS
10
64.6046
20
-20.3396
11
64.3396
21
-20.6046
0
LINE
8
BLACK
6
CONTINUOUS
10
64.3396
20
-20.6046
11
64.1038
21
-20.8958
0
LINE
8
BLACK
6
CONTINUOUS
10
64.1038
20
-20.8958
11
63.8997
21
-21.21
0
LINE
8
BLACK
6
CONTINUOUS
10
63.8997
20
-21.21
11
63.7296
21
-21.5439
0
LINE
8
BLACK
6
CONTINUOUS
10
63.7296
20
-21.5439
11
63.5953
21
-21.8937
0
LINE
8
BLACK
6
CONTINUOUS
10
63.5953
20
-21.8937
11
63.4983
21
-22.2557
0
LINE
8
BLACK
6
CONTINUOUS
10
63.4983
20
-22.2557
11
63.4397
21
-22.6258
0
LINE
8
BLACK
6
CONTINUOUS
10
63.4397
20
-22.6258
11
63.4201
21
-23
0
LINE
8
BLACK
6
CONTINUOUS
10
63.4201
20
-23
11
63.4397
21
-23.3742
0
LINE
8
BLACK
6
CONTINUOUS
10
63.4397
20
-23.3742
11
63.4983
21
-23.7443
0
LINE
8
BLACK
6
CONTINUOUS
10
49.3004
20
-6.0958
11
49.3654
21
-5.74167
0
LINE
8
BLACK
6
CONTINUOUS
10
49.3654
20
-5.74167
11
49.4695
21
-5.39698
0
LINE
8
BLACK
6
CONTINUOUS
10
49.4695
20
-5.39698
11
49.6113
21
-5.06605
0
LINE
8
BLACK
6
CONTINUOUS
10
49.6113
20
-5.06605
11
49.7892
21
-4.75299
0
LINE
8
BLACK
6
CONTINUOUS
10
49.7892
20
-4.75299
11
50.0008
21
-4.4617
0
LINE
8
BLACK
6
CONTINUOUS
10
50.0008
20
-4.4617
11
50.2436
21
-4.19583
0
LINE
8
BLACK
6
CONTINUOUS
10
50.2436
20
-4.19583
11
50.5145
21
-3.95866
0
LINE
8
BLACK
6
CONTINUOUS
10
50.5145
20
-3.95866
11
50.8101
21
-3.75318
0
LINE
8
BLACK
6
CONTINUOUS
10
50.8101
20
-3.75318
11
51.1269
21
-3.58193
0
LINE
8
BLACK
6
CONTINUOUS
10
51.1269
20
-3.58193
11
51.4607
21
-3.44706
0
LINE
8
BLACK
6
CONTINUOUS
10
51.4607
20
-3.44706
11
51.8075
21
-3.35023
0
LINE
8
BLACK
6
CONTINUOUS
10
51.8075
20
-3.35023
11
52.1629
21
-3.29267
0
LINE
8
BLACK
6
CONTINUOUS
10
52.1629
20
-3.29267
11
52.5225
21
-3.27508
0
LINE
8
BLACK
6
CONTINUOUS
10
52.5225
20
-3.27508
11
52.8819
21
-3.29769
0
LINE
8
BLACK
6
CONTINUOUS
10
52.8819
20
-3.29769
11
53.2364
21
-3.36021
0
LINE
8
BLACK
6
CONTINUOUS
10
53.2364
20
-3.36021
11
53.5818
21
-3.46186
0
LINE
8
BLACK
6
CONTINUOUS
10
53.5818
20
-3.46186
11
53.9137
21
-3.60139
0
LINE
8
BLACK
6
CONTINUOUS
10
53.9137
20
-3.60139
11
54.228
21
-3.77704
0
LINE
8
BLACK
6
CONTINUOUS
10
54.228
20
-3.77704
11
54.5208
21
-3.98663
0
LINE
8
BLACK
6
CONTINUOUS
10
54.5208
20
-3.98663
11
54.7884
21
-4.22755
0
LINE
8
BLACK
6
CONTINUOUS
10
54.7884
20
-4.22755
11
55.0274
21
-4.4968
0
LINE
8
BLACK
6
CONTINUOUS
10
55.0274
20
-4.4968
11
55.235
21
-4.79101
0
LINE
8
BLACK
6
CONTINUOUS
10
55.235
20
-4.79101
11
55.4084
21
-5.10652
0
LINE
8
BLACK
6
CONTINUOUS
10
55.4084
20
-5.10652
11
55.5456
21
-5.4394
0
LINE
8
BLACK
6
CONTINUOUS
10
55.5456
20
-5.4394
11
55.6449
21
-5.78551
0
LINE
8
BLACK
6
CONTINUOUS
10
55.6449
20
-5.78551
11
55.7049
21
-6.14051
0
LINE
8
BLACK
6
CONTINUOUS
10
55.7049
20
-6.14051
11
55.725
21
-6.5
0
LINE
8
BLACK
6
CONTINUOUS
10
55.725
20
-6.5
11
55.7237
21
-6.59005
0
LINE
8
BLACK
6
CONTINUOUS
10
55.7237
20
-6.59005
11
55.6936
21
-6.94883
0
LINE
8
BLACK
6
CONTINUOUS
10
55.6936
20
-6.94883
11
55.6237
21
-7.30202
0
LINE
8
BLACK
6
CONTINUOUS
10
55.6237
20
-7.30202
11
55.5148
21
-7.64522
0
LINE
8
BLACK
6
CONTINUOUS
10
55.5148
20
-7.64522
11
55.3684
21
-7.97414
0
LINE
8
BLACK
6
CONTINUOUS
10
55.3684
20
-7.97414
11
55.1862
21
-8.28469
0
LINE
8
BLACK
6
CONTINUOUS
10
55.1862
20
-8.28469
11
54.9705
21
-8.57299
0
LINE
8
BLACK
6
CONTINUOUS
10
54.9705
20
-8.57299
11
54.724
21
-8.83545
0
LINE
8
BLACK
6
CONTINUOUS
10
54.724
20
-8.83545
11
54.4498
21
-9.06881
0
LINE
8
BLACK
6
CONTINUOUS
10
54.4498
20
-9.06881
11
54.1513
21
-9.27015
0
LINE
8
BLACK
6
CONTINUOUS
10
54.1513
20
-9.27015
11
53.8323
21
-9.43695
0
LINE
8
BLACK
6
CONTINUOUS
10
53.8323
20
-9.43695
11
53.4966
21
-9.56716
0
LINE
8
BLACK
6
CONTINUOUS
10
53.4966
20
-9.56716
11
53.1485
21
-9.65913
0
LINE
8
BLACK
6
CONTINUOUS
10
53.1485
20
-9.65913
11
52.7923
21
-9.71173
0
LINE
8
BLACK
6
CONTINUOUS
10
52.7923
20
-9.71173
11
52.4325
21
-9.72429
0
LINE
8
BLACK
6
CONTINUOUS
10
52.4325
20
-9.72429
11
52.0735
21
-9.69667
0
LINE
8
BLACK
6
CONTINUOUS
10
52.0735
20
-9.69667
11
51.7198
21
-9.6292
0
LINE
8
BLACK
6
CONTINUOUS
10
51.7198
20
-9.6292
11
51.3759
21
-9.52273
0
LINE
8
BLACK
6
CONTINUOUS
10
51.3759
20
-9.52273
11
51.0459
21
-9.37859
0
LINE
8
BLACK
6
CONTINUOUS
10
51.0459
20
-9.37859
11
50.7341
21
-9.19857
0
LINE
8
BLACK
6
CONTINUOUS
10
50.7341
20
-9.19857
11
50.4443
21
-8.9849
0
LINE
8
BLACK
6
CONTINUOUS
10
50.4443
20
-8.9849
11
50.1801
21
-8.74027
0
LINE
8
BLACK
6
CONTINUOUS
10
50.1801
20
-8.74027
11
49.9449
21
-8.46772
0
LINE
8
BLACK
6
CONTINUOUS
10
49.9449
20
-8.46772
11
49.7415
21
-8.17064
0
LINE
8
BLACK
6
CONTINUOUS
10
49.7415
20
-8.17064
11
49.5724
21
-7.85273
0
LINE
8
BLACK
6
CONTINUOUS
10
49.5724
20
-7.85273
11
49.4399
21
-7.51797
0
LINE
8
BLACK
6
CONTINUOUS
10
49.4399
20
-7.51797
11
49.3455
21
-7.17051
0
LINE
8
BLACK
6
CONTINUOUS
10
49.3455
20
-7.17051
11
49.2904
21
-6.81471
0
LINE
8
BLACK
6
CONTINUOUS
10
49.2904
20
-6.81471
11
49.2754
21
-6.457
0
LINE
8
BLACK
6
CONTINUOUS
10
49.2754
20
-6.457
11
49.2753
21
-6.45497
0
LINE
8
BLACK
6
CONTINUOUS
10
49.2753
20
-6.45497
11
49.3004
21
-6.0958
0
LINE
8
BLACK
6
CONTINUOUS
10
49.4875
20
-7.14034
11
49.5776
21
-7.47215
0
LINE
8
BLACK
6
CONTINUOUS
10
49.5776
20
-7.47215
11
49.7042
21
-7.79185
0
LINE
8
BLACK
6
CONTINUOUS
10
49.7042
20
-7.79185
11
49.8656
21
-8.09544
0
LINE
8
BLACK
6
CONTINUOUS
10
49.8656
20
-8.09544
11
50.0599
21
-8.37915
0
LINE
8
BLACK
6
CONTINUOUS
10
50.0599
20
-8.37915
11
50.2845
21
-8.63944
0
LINE
8
BLACK
6
CONTINUOUS
10
50.2845
20
-8.63944
11
50.5368
21
-8.87306
0
LINE
8
BLACK
6
CONTINUOUS
10
50.5368
20
-8.87306
11
50.8136
21
-9.0771
0
LINE
8
BLACK
6
CONTINUOUS
10
50.8136
20
-9.0771
11
51.1114
21
-9.24903
0
LINE
8
BLACK
6
CONTINUOUS
10
51.1114
20
-9.24903
11
51.4265
21
-9.38668
0
LINE
8
BLACK
6
CONTINUOUS
10
51.4265
20
-9.38668
11
51.7549
21
-9.48836
0
LINE
8
BLACK
6
CONTINUOUS
10
51.7549
20
-9.48836
11
52.0927
21
-9.55279
0
LINE
8
BLACK
6
CONTINUOUS
10
52.0927
20
-9.55279
11
52.4355
21
-9.57917
0
LINE
8
BLACK
6
CONTINUOUS
10
52.4355
20
-9.57917
11
52.7791
21
-9.56717
0
LINE
8
BLACK
6
CONTINUOUS
10
52.7791
20
-9.56717
11
53.1193
21
-9.51694
0
LINE
8
BLACK
6
CONTINUOUS
10
53.1193
20
-9.51694
11
53.4517
21
-9.42911
0
LINE
8
BLACK
6
CONTINUOUS
10
53.4517
20
-9.42911
11
53.7723
21
-9.30476
0
LINE
8
BLACK
6
CONTINUOUS
10
53.7723
20
-9.30476
11
54.077
21
-9.14546
0
LINE
8
BLACK
6
CONTINUOUS
10
54.077
20
-9.14546
11
54.3621
21
-8.95319
0
LINE
8
BLACK
6
CONTINUOUS
10
54.3621
20
-8.95319
11
54.6239
21
-8.73034
0
LINE
8
BLACK
6
CONTINUOUS
10
54.6239
20
-8.73034
11
54.8593
21
-8.47969
0
LINE
8
BLACK
6
CONTINUOUS
10
54.8593
20
-8.47969
11
55.0653
21
-8.20436
0
LINE
8
BLACK
6
CONTINUOUS
10
55.0653
20
-8.20436
11
55.2393
21
-7.90779
0
LINE
8
BLACK
6
CONTINUOUS
10
55.2393
20
-7.90779
11
55.3791
21
-7.59367
0
LINE
8
BLACK
6
CONTINUOUS
10
55.3791
20
-7.59367
11
55.4831
21
-7.26593
0
LINE
8
BLACK
6
CONTINUOUS
10
55.4831
20
-7.26593
11
55.5499
21
-6.92863
0
LINE
8
BLACK
6
CONTINUOUS
10
55.5499
20
-6.92863
11
55.5786
21
-6.58599
0
LINE
8
BLACK
6
CONTINUOUS
10
55.5786
20
-6.58599
11
55.5798
21
-6.5
0
LINE
8
BLACK
6
CONTINUOUS
10
55.5798
20
-6.5
11
55.5607
21
-6.15669
0
LINE
8
BLACK
6
CONTINUOUS
10
55.5607
20
-6.15669
11
55.5033
21
-5.81766
0
LINE
8
BLACK
6
CONTINUOUS
10
55.5033
20
-5.81766
11
55.4085
21
-5.48714
0
LINE
8
BLACK
6
CONTINUOUS
10
55.4085
20
-5.48714
11
55.2775
21
-5.16924
0
LINE
8
BLACK
6
CONTINUOUS
10
55.2775
20
-5.16924
11
55.1119
21
-4.86793
0
LINE
8
BLACK
6
CONTINUOUS
10
55.1119
20
-4.86793
11
54.9137
21
-4.58696
0
LINE
8
BLACK
6
CONTINUOUS
10
54.9137
20
-4.58696
11
54.6854
21
-4.32984
0
LINE
8
BLACK
6
CONTINUOUS
10
54.6854
20
-4.32984
11
54.4298
21
-4.09976
0
LINE
8
BLACK
6
CONTINUOUS
10
54.4298
20
-4.09976
11
54.1503
21
-3.8996
0
LINE
8
BLACK
6
CONTINUOUS
10
54.1503
20
-3.8996
11
53.8501
21
-3.73185
0
LINE
8
BLACK
6
CONTINUOUS
10
53.8501
20
-3.73185
11
53.5331
21
-3.59861
0
LINE
8
BLACK
6
CONTINUOUS
10
53.5331
20
-3.59861
11
53.2033
21
-3.50153
0
LINE
8
BLACK
6
CONTINUOUS
10
53.2033
20
-3.50153
11
52.8647
21
-3.44182
0
LINE
8
BLACK
6
CONTINUOUS
10
52.8647
20
-3.44182
11
52.5215
21
-3.42023
0
LINE
8
BLACK
6
CONTINUOUS
10
52.5215
20
-3.42023
11
52.1781
21
-3.43703
0
LINE
8
BLACK
6
CONTINUOUS
10
52.1781
20
-3.43703
11
51.8386
21
-3.492
0
LINE
8
BLACK
6
CONTINUOUS
10
51.8386
20
-3.492
11
51.5075
21
-3.58447
0
LINE
8
BLACK
6
CONTINUOUS
10
51.5075
20
-3.58447
11
51.1887
21
-3.71327
0
LINE
8
BLACK
6
CONTINUOUS
10
51.1887
20
-3.71327
11
50.8862
21
-3.87681
0
LINE
8
BLACK
6
CONTINUOUS
10
50.8862
20
-3.87681
11
50.6039
21
-4.07305
0
LINE
8
BLACK
6
CONTINUOUS
10
50.6039
20
-4.07305
11
50.3451
21
-4.29953
0
LINE
8
BLACK
6
CONTINUOUS
10
50.3451
20
-4.29953
11
50.1133
21
-4.55345
0
LINE
8
BLACK
6
CONTINUOUS
10
50.1133
20
-4.55345
11
49.9112
21
-4.83162
0
LINE
8
BLACK
6
CONTINUOUS
10
49.9112
20
-4.83162
11
49.7413
21
-5.13059
0
LINE
8
BLACK
6
CONTINUOUS
10
49.7413
20
-5.13059
11
49.6059
21
-5.44663
0
LINE
8
BLACK
6
CONTINUOUS
10
49.6059
20
-5.44663
11
49.5065
21
-5.7758
0
LINE
8
BLACK
6
CONTINUOUS
10
49.5065
20
-5.7758
11
49.4444
21
-6.11399
0
LINE
8
BLACK
6
CONTINUOUS
10
49.4444
20
-6.11399
11
49.4205
21
-6.457
0
LINE
8
BLACK
6
CONTINUOUS
10
49.4205
20
-6.457
11
49.4349
21
-6.80054
0
LINE
8
BLACK
6
CONTINUOUS
10
49.4349
20
-6.80054
11
49.4875
21
-7.14034
0
LINE
8
BLACK
6
CONTINUOUS
10
24.3004
20
-93.0958
11
24.3654
21
-92.7417
0
LINE
8
BLACK
6
CONTINUOUS
10
24.3654
20
-92.7417
11
24.4695
21
-92.397
0
LINE
8
BLACK
6
CONTINUOUS
10
24.4695
20
-92.397
11
24.6113
21
-92.0661
0
LINE
8
BLACK
6
CONTINUOUS
10
24.6113
20
-92.0661
11
24.7892
21
-91.753
0
LINE
8
BLACK
6
CONTINUOUS
10
24.7892
20
-91.753
11
25.0008
21
-91.4617
0
LINE
8
BLACK
6
CONTINUOUS
10
25.0008
20
-91.4617
11
25.2436
21
-91.1958
0
LINE
8
BLACK
6
CONTINUOUS
10
25.2436
20
-91.1958
11
25.5145
21
-90.9587
0
LINE
8
BLACK
6
CONTINUOUS
10
25.5145
20
-90.9587
11
25.8101
21
-90.7532
0
LINE
8
BLACK
6
CONTINUOUS
10
25.8101
20
-90.7532
11
26.1269
21
-90.5819
0
LINE
8
BLACK
6
CONTINUOUS
10
26.1269
20
-90.5819
11
26.4607
21
-90.4471
0
LINE
8
BLACK
6
CONTINUOUS
10
26.4607
20
-90.4471
11
26.8075
21
-90.3502
0
LINE
8
BLACK
6
CONTINUOUS
10
26.8075
20
-90.3502
11
27.1629
21
-90.2927
0
LINE
8
BLACK
6
CONTINUOUS
10
27.1629
20
-90.2927
11
27.5225
21
-90.2751
0
LINE
8
BLACK
6
CONTINUOUS
10
27.5225
20
-90.2751
11
27.8819
21
-90.2977
0
LINE
8
BLACK
6
CONTINUOUS
10
27.8819
20
-90.2977
11
28.2364
21
-90.3602
0
LINE
8
BLACK
6
CONTINUOUS
10
28.2364
20
-90.3602
11
28.5818
21
-90.4619
0
LINE
8
BLACK
6
CONTINUOUS
10
28.5818
20
-90.4619
11
28.9137
21
-90.6014
0
LINE
8
BLACK
6
CONTINUOUS
10
28.9137
20
-90.6014
11
29.228
21
-90.777
0
LINE
8
BLACK
6
CONTINUOUS
10
29.228
20
-90.777
11
29.5208
21
-90.9866
0
LINE
8
BLACK
6
CONTINUOUS
10
29.5208
20
-90.9866
11
29.7884
21
-91.2276
0
LINE
8
BLACK
6
CONTINUOUS
10
29.7884
20
-91.2276
11
30.0274
21
-91.4968
0
LINE
8
BLACK
6
CONTINUOUS
10
30.0274
20
-91.4968
11
30.235
21
-91.791
0
LINE
8
BLACK
6
CONTINUOUS
10
30.235
20
-91.791
11
30.4084
21
-92.1065
0
LINE
8
BLACK
6
CONTINUOUS
10
30.4084
20
-92.1065
11
30.5456
21
-92.4394
0
LINE
8
BLACK
6
CONTINUOUS
10
30.5456
20
-92.4394
11
30.6449
21
-92.7855
0
LINE
8
BLACK
6
CONTINUOUS
10
30.6449
20
-92.7855
11
30.7049
21
-93.1405
0
LINE
8
BLACK
6
CONTINUOUS
10
30.7049
20
-93.1405
11
30.725
21
-93.5
0
LINE
8
BLACK
6
CONTINUOUS
10
30.725
20
-93.5
11
30.7237
21
-93.59
0
LINE
8
BLACK
6
CONTINUOUS
10
30.7237
20
-93.59
11
30.6936
21
-93.9488
0
LINE
8
BLACK
6
CONTINUOUS
10
30.6936
20
-93.9488
11
30.6237
21
-94.302
0
LINE
8
BLACK
6
CONTINUOUS
10
30.6237
20
-94.302
11
30.5148
21
-94.6452
0
LINE
8
BLACK
6
CONTINUOUS
10
30.5148
20
-94.6452
11
30.3684
21
-94.9741
0
LINE
8
BLACK
6
CONTINUOUS
10
30.3684
20
-94.9741
11
30.1862
21
-95.2847
0
LINE
8
BLACK
6
CONTINUOUS
10
30.1862
20
-95.2847
11
29.9705
21
-95.573
0
LINE
8
BLACK
6
CONTINUOUS
10
29.9705
20
-95.573
11
29.724
21
-95.8355
0
LINE
8
BLACK
6
CONTINUOUS
10
29.724
20
-95.8355
11
29.4498
21
-96.0688
0
LINE
8
BLACK
6
CONTINUOUS
10
29.4498
20
-96.0688
11
29.1513
21
-96.2701
0
LINE
8
BLACK
6
CONTINUOUS
10
29.1513
20
-96.2701
11
28.8323
21
-96.437
0
LINE
8
BLACK
6
CONTINUOUS
10
28.8323
20
-96.437
11
28.4966
21
-96.5672
0
LINE
8
BLACK
6
CONTINUOUS
10
28.4966
20
-96.5672
11
28.1485
21
-96.6591
0
LINE
8
BLACK
6
CONTINUOUS
10
28.1485
20
-96.6591
11
27.7923
21
-96.7117
0
LINE
8
BLACK
6
CONTINUOUS
10
27.7923
20
-96.7117
11
27.4325
21
-96.7243
0
LINE
8
BLACK
6
CONTINUOUS
10
27.4325
20
-96.7243
11
27.0735
21
-96.6967
0
LINE
8
BLACK
6
CONTINUOUS
10
27.0735
20
-96.6967
11
26.7198
21
-96.6292
0
LINE
8
BLACK
6
CONTINUOUS
10
26.7198
20
-96.6292
11
26.3759
21
-96.5227
0
LINE
8
BLACK
6
CONTINUOUS
10
26.3759
20
-96.5227
11
26.0459
21
-96.3786
0
LINE
8
BLACK
6
CONTINUOUS
10
26.0459
20
-96.3786
11
25.7341
21
-96.1986
0
LINE
8
BLACK
6
CONTINUOUS
10
25.7341
20
-96.1986
11
25.4443
21
-95.9849
0
LINE
8
BLACK
6
CONTINUOUS
10
25.4443
20
-95.9849
11
25.1801
21
-95.7403
0
LINE
8
BLACK
6
CONTINUOUS
10
25.1801
20
-95.7403
11
24.9449
21
-95.4677
0
LINE
8
BLACK
6
CONTINUOUS
10
24.9449
20
-95.4677
11
24.7415
21
-95.1706
0
LINE
8
BLACK
6
CONTINUOUS
10
24.7415
20
-95.1706
11
24.5724
21
-94.8527
0
LINE
8
BLACK
6
CONTINUOUS
10
24.5724
20
-94.8527
11
24.4399
21
-94.518
0
LINE
8
BLACK
6
CONTINUOUS
10
24.4399
20
-94.518
11
24.3455
21
-94.1705
0
LINE
8
BLACK
6
CONTINUOUS
10
24.3455
20
-94.1705
11
24.2904
21
-93.8147
0
LINE
8
BLACK
6
CONTINUOUS
10
24.2904
20
-93.8147
11
24.2754
21
-93.457
0
LINE
8
BLACK
6
CONTINUOUS
10
24.2754
20
-93.457
11
24.2753
21
-93.455
0
LINE
8
BLACK
6
CONTINUOUS
10
24.2753
20
-93.455
11
24.3004
21
-93.0958
0
LINE
8
BLACK
6
CONTINUOUS
10
24.4875
20
-94.1403
11
24.5776
21
-94.4721
0
LINE
8
BLACK
6
CONTINUOUS
10
24.5776
20
-94.4721
11
24.7042
21
-94.7918
0
LINE
8
BLACK
6
CONTINUOUS
10
24.7042
20
-94.7918
11
24.8656
21
-95.0954
0
LINE
8
BLACK
6
CONTINUOUS
10
24.8656
20
-95.0954
11
25.0599
21
-95.3792
0
LINE
8
BLACK
6
CONTINUOUS
10
25.0599
20
-95.3792
11
25.2845
21
-95.6394
0
LINE
8
BLACK
6
CONTINUOUS
10
25.2845
20
-95.6394
11
25.5368
21
-95.8731
0
LINE
8
BLACK
6
CONTINUOUS
10
25.5368
20
-95.8731
11
25.8136
21
-96.0771
0
LINE
8
BLACK
6
CONTINUOUS
10
25.8136
20
-96.0771
11
26.1114
21
-96.249
0
LINE
8
BLACK
6
CONTINUOUS
10
26.1114
20
-96.249
11
26.4265
21
-96.3867
0
LINE
8
BLACK
6
CONTINUOUS
10
26.4265
20
-96.3867
11
26.7549
21
-96.4884
0
LINE
8
BLACK
6
CONTINUOUS
10
26.7549
20
-96.4884
11
27.0927
21
-96.5528
0
LINE
8
BLACK
6
CONTINUOUS
10
27.0927
20
-96.5528
11
27.4355
21
-96.5792
0
LINE
8
BLACK
6
CONTINUOUS
10
27.4355
20
-96.5792
11
27.7791
21
-96.5672
0
LINE
8
BLACK
6
CONTINUOUS
10
27.7791
20
-96.5672
11
28.1193
21
-96.5169
0
LINE
8
BLACK
6
CONTINUOUS
10
28.1193
20
-96.5169
11
28.4517
21
-96.4291
0
LINE
8
BLACK
6
CONTINUOUS
10
28.4517
20
-96.4291
11
28.7723
21
-96.3048
0
LINE
8
BLACK
6
CONTINUOUS
10
28.7723
20
-96.3048
11
29.077
21
-96.1455
0
LINE
8
BLACK
6
CONTINUOUS
10
29.077
20
-96.1455
11
29.3621
21
-95.9532
0
LINE
8
BLACK
6
CONTINUOUS
10
29.3621
20
-95.9532
11
29.6239
21
-95.7303
0
LINE
8
BLACK
6
CONTINUOUS
10
29.6239
20
-95.7303
11
29.8593
21
-95.4797
0
LINE
8
BLACK
6
CONTINUOUS
10
29.8593
20
-95.4797
11
30.0653
21
-95.2044
0
LINE
8
BLACK
6
CONTINUOUS
10
30.0653
20
-95.2044
11
30.2393
21
-94.9078
0
LINE
8
BLACK
6
CONTINUOUS
10
30.2393
20
-94.9078
11
30.3791
21
-94.5937
0
LINE
8
BLACK
6
CONTINUOUS
10
30.3791
20
-94.5937
11
30.4831
21
-94.2659
0
LINE
8
BLACK
6
CONTINUOUS
10
30.4831
20
-94.2659
11
30.5499
21
-93.9286
0
LINE
8
BLACK
6
CONTINUOUS
10
30.5499
20
-93.9286
11
30.5786
21
-93.586
0
LINE
8
BLACK
6
CONTINUOUS
10
30.5786
20
-93.586
11
30.5798
21
-93.5
0
LINE
8
BLACK
6
CONTINUOUS
10
30.5798
20
-93.5
11
30.5607
21
-93.1567
0
LINE
8
BLACK
6
CONTINUOUS
10
30.5607
20
-93.1567
11
30.5033
21
-92.8177
0
LINE
8
BLACK
6
CONTINUOUS
10
30.5033
20
-92.8177
11
30.4085
21
-92.4871
0
LINE
8
BLACK
6
CONTINUOUS
10
30.4085
20
-92.4871
11
30.2775
21
-92.1692
0
LINE
8
BLACK
6
CONTINUOUS
10
30.2775
20
-92.1692
11
30.1119
21
-91.8679
0
LINE
8
BLACK
6
CONTINUOUS
10
30.1119
20
-91.8679
11
29.9137
21
-91.587
0
LINE
8
BLACK
6
CONTINUOUS
10
29.9137
20
-91.587
11
29.6854
21
-91.3298
0
LINE
8
BLACK
6
CONTINUOUS
10
29.6854
20
-91.3298
11
29.4298
21
-91.0998
0
LINE
8
BLACK
6
CONTINUOUS
10
29.4298
20
-91.0998
11
29.1503
21
-90.8996
0
LINE
8
BLACK
6
CONTINUOUS
10
29.1503
20
-90.8996
11
28.8501
21
-90.7319
0
LINE
8
BLACK
6
CONTINUOUS
10
28.8501
20
-90.7319
11
28.5331
21
-90.5986
0
LINE
8
BLACK
6
CONTINUOUS
10
28.5331
20
-90.5986
11
28.2033
21
-90.5015
0
LINE
8
BLACK
6
CONTINUOUS
10
28.2033
20
-90.5015
11
27.8647
21
-90.4418
0
LINE
8
BLACK
6
CONTINUOUS
10
27.8647
20
-90.4418
11
27.5215
21
-90.4202
0
LINE
8
BLACK
6
CONTINUOUS
10
27.5215
20
-90.4202
11
27.1781
21
-90.437
0
LINE
8
BLACK
6
CONTINUOUS
10
27.1781
20
-90.437
11
26.8386
21
-90.492
0
LINE
8
BLACK
6
CONTINUOUS
10
26.8386
20
-90.492
11
26.5075
21
-90.5845
0
LINE
8
BLACK
6
CONTINUOUS
10
26.5075
20
-90.5845
11
26.1887
21
-90.7133
0
LINE
8
BLACK
6
CONTINUOUS
10
26.1887
20
-90.7133
11
25.8862
21
-90.8768
0
LINE
8
BLACK
6
CONTINUOUS
10
25.8862
20
-90.8768
11
25.6039
21
-91.073
0
LINE
8
BLACK
6
CONTINUOUS
10
25.6039
20
-91.073
11
25.3451
21
-91.2995
0
LINE
8
BLACK
6
CONTINUOUS
10
25.3451
20
-91.2995
11
25.1133
21
-91.5534
0
LINE
8
BLACK
6
CONTINUOUS
10
25.1133
20
-91.5534
11
24.9112
21
-91.8316
0
LINE
8
BLACK
6
CONTINUOUS
10
24.9112
20
-91.8316
11
24.7413
21
-92.1306
0
LINE
8
BLACK
6
CONTINUOUS
10
24.7413
20
-92.1306
11
24.6059
21
-92.4466
0
LINE
8
BLACK
6
CONTINUOUS
10
24.6059
20
-92.4466
11
24.5065
21
-92.7758
0
LINE
8
BLACK
6
CONTINUOUS
10
24.5065
20
-92.7758
11
24.4444
21
-93.114
0
LINE
8
BLACK
6
CONTINUOUS
10
24.4444
20
-93.114
11
24.4205
21
-93.457
0
LINE
8
BLACK
6
CONTINUOUS
10
24.4205
20
-93.457
11
24.4349
21
-93.8005
0
LINE
8
BLACK
6
CONTINUOUS
10
24.4349
20
-93.8005
11
24.4875
21
-94.1403
0
LINE
8
BLACK
6
CONTINUOUS
10
9.29541
20
-75.6106
11
9.35372
21
-75.2383
0
LINE
8
BLACK
6
CONTINUOUS
10
9.35372
20
-75.2383
11
9.44937
21
-74.8737
0
LINE
8
BLACK
6
CONTINUOUS
10
9.44937
20
-74.8737
11
9.58136
21
-74.5206
0
LINE
8
BLACK
6
CONTINUOUS
10
9.58136
20
-74.5206
11
9.74836
21
-74.1827
0
LINE
8
BLACK
6
CONTINUOUS
10
9.74836
20
-74.1827
11
9.94866
21
-73.8634
0
LINE
8
BLACK
6
CONTINUOUS
10
9.94866
20
-73.8634
11
10.1802
21
-73.566
0
LINE
8
BLACK
6
CONTINUOUS
10
10.1802
20
-73.566
11
10.4406
21
-73.2935
0
LINE
8
BLACK
6
CONTINUOUS
10
10.4406
20
-73.2935
11
10.7272
21
-73.0487
0
LINE
8
BLACK
6
CONTINUOUS
10
10.7272
20
-73.0487
11
11.0371
21
-72.8341
0
LINE
8
BLACK
6
CONTINUOUS
10
11.0371
20
-72.8341
11
11.3671
21
-72.652
0
LINE
8
BLACK
6
CONTINUOUS
10
11.3671
20
-72.652
11
11.7138
21
-72.5041
0
LINE
8
BLACK
6
CONTINUOUS
10
11.7138
20
-72.5041
11
12.0736
21
-72.392
0
LINE
8
BLACK
6
CONTINUOUS
10
12.0736
20
-72.392
11
12.443
21
-72.3169
0
LINE
8
BLACK
6
CONTINUOUS
10
12.443
20
-72.3169
11
12.818
21
-72.2794
0
LINE
8
BLACK
6
CONTINUOUS
10
12.818
20
-72.2794
11
13.195
21
-72.2801
0
LINE
8
BLACK
6
CONTINUOUS
10
13.195
20
-72.2801
11
13.5699
21
-72.3188
0
LINE
8
BLACK
6
CONTINUOUS
10
13.5699
20
-72.3188
11
13.939
21
-72.3953
0
LINE
8
BLACK
6
CONTINUOUS
10
13.939
20
-72.3953
11
14.2984
21
-72.5086
0
LINE
8
BLACK
6
CONTINUOUS
10
14.2984
20
-72.5086
11
14.6446
21
-72.6577
0
LINE
8
BLACK
6
CONTINUOUS
10
14.6446
20
-72.6577
11
14.9739
21
-72.841
0
LINE
8
BLACK
6
CONTINUOUS
10
14.9739
20
-72.841
11
15.2831
21
-73.0567
0
LINE
8
BLACK
6
CONTINUOUS
10
15.2831
20
-73.0567
11
15.5688
21
-73.3025
0
LINE
8
BLACK
6
CONTINUOUS
10
15.5688
20
-73.3025
11
15.8283
21
-73.5759
0
LINE
8
BLACK
6
CONTINUOUS
10
15.8283
20
-73.5759
11
16.0588
21
-73.8741
0
LINE
8
BLACK
6
CONTINUOUS
10
16.0588
20
-73.8741
11
16.258
21
-74.1941
0
LINE
8
BLACK
6
CONTINUOUS
10
16.258
20
-74.1941
11
16.4238
21
-74.5326
0
LINE
8
BLACK
6
CONTINUOUS
10
16.4238
20
-74.5326
11
16.5545
21
-74.8861
0
LINE
8
BLACK
6
CONTINUOUS
10
16.5545
20
-74.8861
11
16.6489
21
-75.251
0
LINE
8
BLACK
6
CONTINUOUS
10
16.6489
20
-75.251
11
16.7059
21
-75.6236
0
LINE
8
BLACK
6
CONTINUOUS
10
16.7059
20
-75.6236
11
16.725
21
-76
0
LINE
8
BLACK
6
CONTINUOUS
10
16.725
20
-76
11
16.7249
21
-76.026
0
LINE
8
BLACK
6
CONTINUOUS
10
16.7249
20
-76.026
11
16.7032
21
-76.4023
0
LINE
8
BLACK
6
CONTINUOUS
10
16.7032
20
-76.4023
11
16.6436
21
-76.7745
0
LINE
8
BLACK
6
CONTINUOUS
10
16.6436
20
-76.7745
11
16.5467
21
-77.1387
0
LINE
8
BLACK
6
CONTINUOUS
10
16.5467
20
-77.1387
11
16.4135
21
-77.4913
0
LINE
8
BLACK
6
CONTINUOUS
10
16.4135
20
-77.4913
11
16.2453
21
-77.8286
0
LINE
8
BLACK
6
CONTINUOUS
10
16.2453
20
-77.8286
11
16.0439
21
-78.1472
0
LINE
8
BLACK
6
CONTINUOUS
10
16.0439
20
-78.1472
11
15.8113
21
-78.4438
0
LINE
8
BLACK
6
CONTINUOUS
10
15.8113
20
-78.4438
11
15.5499
21
-78.7154
0
LINE
8
BLACK
6
CONTINUOUS
10
15.5499
20
-78.7154
11
15.2625
21
-78.9592
0
LINE
8
BLACK
6
CONTINUOUS
10
15.2625
20
-78.9592
11
14.9518
21
-79.1727
0
LINE
8
BLACK
6
CONTINUOUS
10
14.9518
20
-79.1727
11
14.6212
21
-79.3537
0
LINE
8
BLACK
6
CONTINUOUS
10
14.6212
20
-79.3537
11
14.274
21
-79.5004
0
LINE
8
BLACK
6
CONTINUOUS
10
14.274
20
-79.5004
11
13.9138
21
-79.6112
0
LINE
8
BLACK
6
CONTINUOUS
10
13.9138
20
-79.6112
11
13.5442
21
-79.685
0
LINE
8
BLACK
6
CONTINUOUS
10
13.5442
20
-79.685
11
13.169
21
-79.7212
0
LINE
8
BLACK
6
CONTINUOUS
10
13.169
20
-79.7212
11
12.7921
21
-79.7192
0
LINE
8
BLACK
6
CONTINUOUS
10
12.7921
20
-79.7192
11
12.4173
21
-79.6791
0
LINE
8
BLACK
6
CONTINUOUS
10
12.4173
20
-79.6791
11
12.0485
21
-79.6014
0
LINE
8
BLACK
6
CONTINUOUS
10
12.0485
20
-79.6014
11
11.6894
21
-79.4868
0
LINE
8
BLACK
6
CONTINUOUS
10
11.6894
20
-79.4868
11
11.3437
21
-79.3365
0
LINE
8
BLACK
6
CONTINUOUS
10
11.3437
20
-79.3365
11
11.015
21
-79.1521
0
LINE
8
BLACK
6
CONTINUOUS
10
11.015
20
-79.1521
11
10.7067
21
-78.9353
0
LINE
8
BLACK
6
CONTINUOUS
10
10.7067
20
-78.9353
11
10.4218
21
-78.6886
0
LINE
8
BLACK
6
CONTINUOUS
10
10.4218
20
-78.6886
11
10.1633
21
-78.4142
0
LINE
8
BLACK
6
CONTINUOUS
10
10.1633
20
-78.4142
11
9.93382
21
-78.1152
0
LINE
8
BLACK
6
CONTINUOUS
10
9.93382
20
-78.1152
11
9.73576
21
-77.7945
0
LINE
8
BLACK
6
CONTINUOUS
10
9.73576
20
-77.7945
11
9.57112
21
-77.4555
0
LINE
8
BLACK
6
CONTINUOUS
10
9.57112
20
-77.4555
11
9.44159
21
-77.1015
0
LINE
8
BLACK
6
CONTINUOUS
10
9.44159
20
-77.1015
11
9.34849
21
-76.7363
0
LINE
8
BLACK
6
CONTINUOUS
10
9.34849
20
-76.7363
11
9.29278
21
-76.3635
0
LINE
8
BLACK
6
CONTINUOUS
10
9.29278
20
-76.3635
11
9.27564
21
-76
0
LINE
8
BLACK
6
CONTINUOUS
10
9.27564
20
-76
11
9.27502
21
-75.987
0
LINE
8
BLACK
6
CONTINUOUS
10
9.27502
20
-75.987
11
9.29541
21
-75.6106
0
LINE
8
BLACK
6
CONTINUOUS
10
9.49832
20
-76.7443
11
9.59531
21
-77.1063
0
LINE
8
BLACK
6
CONTINUOUS
10
9.59531
20
-77.1063
11
9.72959
21
-77.4561
0
LINE
8
BLACK
6
CONTINUOUS
10
9.72959
20
-77.4561
11
9.89971
21
-77.79
0
LINE
8
BLACK
6
CONTINUOUS
10
9.89971
20
-77.79
11
10.1038
21
-78.1042
0
LINE
8
BLACK
6
CONTINUOUS
10
10.1038
20
-78.1042
11
10.3396
21
-78.3954
0
LINE
8
BLACK
6
CONTINUOUS
10
10.3396
20
-78.3954
11
10.6046
21
-78.6604
0
LINE
8
BLACK
6
CONTINUOUS
10
10.6046
20
-78.6604
11
10.8958
21
-78.8962
0
LINE
8
BLACK
6
CONTINUOUS
10
10.8958
20
-78.8962
11
11.21
21
-79.1003
0
LINE
8
BLACK
6
CONTINUOUS
10
11.21
20
-79.1003
11
11.5439
21
-79.2704
0
LINE
8
BLACK
6
CONTINUOUS
10
11.5439
20
-79.2704
11
11.8937
21
-79.4047
0
LINE
8
BLACK
6
CONTINUOUS
10
11.8937
20
-79.4047
11
12.2557
21
-79.5017
0
LINE
8
BLACK
6
CONTINUOUS
10
12.2557
20
-79.5017
11
12.6258
21
-79.5603
0
LINE
8
BLACK
6
CONTINUOUS
10
12.6258
20
-79.5603
11
13
21
-79.5799
0
LINE
8
BLACK
6
CONTINUOUS
10
13
20
-79.5799
11
13.3742
21
-79.5603
0
LINE
8
BLACK
6
CONTINUOUS
10
13.3742
20
-79.5603
11
13.7443
21
-79.5017
0
LINE
8
BLACK
6
CONTINUOUS
10
13.7443
20
-79.5017
11
14.1063
21
-79.4047
0
LINE
8
BLACK
6
CONTINUOUS
10
14.1063
20
-79.4047
11
14.4561
21
-79.2704
0
LINE
8
BLACK
6
CONTINUOUS
10
14.4561
20
-79.2704
11
14.79
21
-79.1003
0
LINE
8
BLACK
6
CONTINUOUS
10
14.79
20
-79.1003
11
15.1042
21
-78.8962
0
LINE
8
BLACK
6
CONTINUOUS
10
15.1042
20
-78.8962
11
15.3954
21
-78.6604
0
LINE
8
BLACK
6
CONTINUOUS
10
15.3954
20
-78.6604
11
15.6604
21
-78.3954
0
LINE
8
BLACK
6
CONTINUOUS
10
15.6604
20
-78.3954
11
15.8962
21
-78.1042
0
LINE
8
BLACK
6
CONTINUOUS
10
15.8962
20
-78.1042
11
16.1003
21
-77.79
0
LINE
8
BLACK
6
CONTINUOUS
10
16.1003
20
-77.79
11
16.2704
21
-77.4561
0
LINE
8
BLACK
6
CONTINUOUS
10
16.2704
20
-77.4561
11
16.4047
21
-77.1063
0
LINE
8
BLACK
6
CONTINUOUS
10
16.4047
20
-77.1063
11
16.5017
21
-76.7443
0
LINE
8
BLACK
6
CONTINUOUS
10
16.5017
20
-76.7443
11
16.5603
21
-76.3742
0
LINE
8
BLACK
6
CONTINUOUS
10
16.5603
20
-76.3742
11
16.5799
21
-76
0
LINE
8
BLACK
6
CONTINUOUS
10
16.5799
20
-76
11
16.5603
21
-75.6258
0
LINE
8
BLACK
6
CONTINUOUS
10
16.5603
20
-75.6258
11
16.5017
21
-75.2557
0
LINE
8
BLACK
6
CONTINUOUS
10
16.5017
20
-75.2557
11
16.4047
21
-74.8937
0
LINE
8
BLACK
6
CONTINUOUS
10
16.4047
20
-74.8937
11
16.2704
21
-74.5439
0
LINE
8
BLACK
6
CONTINUOUS
10
16.2704
20
-74.5439
11
16.1003
21
-74.21
0
LINE
8
BLACK
6
CONTINUOUS
10
16.1003
20
-74.21
11
15.8962
21
-73.8958
0
LINE
8
BLACK
6
CONTINUOUS
10
15.8962
20
-73.8958
11
15.6604
21
-73.6046
0
LINE
8
BLACK
6
CONTINUOUS
10
15.6604
20
-73.6046
11
15.3954
21
-73.3396
0
LINE
8
BLACK
6
CONTINUOUS
10
15.3954
20
-73.3396
11
15.1042
21
-73.1038
0
LINE
8
BLACK
6
CONTINUOUS
10
15.1042
20
-73.1038
11
14.79
21
-72.8997
0
LINE
8
BLACK
6
CONTINUOUS
10
14.79
20
-72.8997
11
14.4561
21
-72.7296
0
LINE
8
BLACK
6
CONTINUOUS
10
14.4561
20
-72.7296
11
14.1063
21
-72.5953
0
LINE
8
BLACK
6
CONTINUOUS
10
14.1063
20
-72.5953
11
13.7443
21
-72.4983
0
LINE
8
BLACK
6
CONTINUOUS
10
13.7443
20
-72.4983
11
13.3742
21
-72.4397
0
LINE
8
BLACK
6
CONTINUOUS
10
13.3742
20
-72.4397
11
13
21
-72.4201
0
LINE
8
BLACK
6
CONTINUOUS
10
13
20
-72.4201
11
12.6258
21
-72.4397
0
LINE
8
BLACK
6
CONTINUOUS
10
12.6258
20
-72.4397
11
12.2557
21
-72.4983
0
LINE
8
BLACK
6
CONTINUOUS
10
12.2557
20
-72.4983
11
11.8937
21
-72.5953
0
LINE
8
BLACK
6
CONTINUOUS
10
11.8937
20
-72.5953
11
11.5439
21
-72.7296
0
LINE
8
BLACK
6
CONTINUOUS
10
11.5439
20
-72.7296
11
11.21
21
-72.8997
0
LINE
8
BLACK
6
CONTINUOUS
10
11.21
20
-72.8997
11
10.8958
21
-73.1038
0
LINE
8
BLACK
6
CONTINUOUS
10
10.8958
20
-73.1038
11
10.6046
21
-73.3396
0
LINE
8
BLACK
6
CONTINUOUS
10
10.6046
20
-73.3396
11
10.3396
21
-73.6046
0
LINE
8
BLACK
6
CONTINUOUS
10
10.3396
20
-73.6046
11
10.1038
21
-73.8958
0
LINE
8
BLACK
6
CONTINUOUS
10
10.1038
20
-73.8958
11
9.89971
21
-74.21
0
LINE
8
BLACK
6
CONTINUOUS
10
9.89971
20
-74.21
11
9.72959
21
-74.5439
0
LINE
8
BLACK
6
CONTINUOUS
10
9.72959
20
-74.5439
11
9.59531
21
-74.8937
0
LINE
8
BLACK
6
CONTINUOUS
10
9.59531
20
-74.8937
11
9.49832
21
-75.2557
0
LINE
8
BLACK
6
CONTINUOUS
10
9.49832
20
-75.2557
11
9.43971
21
-75.6258
0
LINE
8
BLACK
6
CONTINUOUS
10
9.43971
20
-75.6258
11
9.42009
21
-76
0
LINE
8
BLACK
6
CONTINUOUS
10
9.42009
20
-76
11
9.43971
21
-76.3742
0
LINE
8
BLACK
6
CONTINUOUS
10
9.43971
20
-76.3742
11
9.49832
21
-76.7443
0
LINE
8
BLACK
6
CONTINUOUS
10
2.30043
20
-57.5958
11
2.36543
21
-57.2417
0
LINE
8
BLACK
6
CONTINUOUS
10
2.36543
20
-57.2417
11
2.46949
21
-56.897
0
LINE
8
BLACK
6
CONTINUOUS
10
2.46949
20
-56.897
11
2.61133
21
-56.5661
0
LINE
8
BLACK
6
CONTINUOUS
10
2.61133
20
-56.5661
11
2.78917
21
-56.253
0
LINE
8
BLACK
6
CONTINUOUS
10
2.78917
20
-56.253
11
3.0008
21
-55.9617
0
LINE
8
BLACK
6
CONTINUOUS
10
3.0008
20
-55.9617
11
3.24359
21
-55.6958
0
LINE
8
BLACK
6
CONTINUOUS
10
3.24359
20
-55.6958
11
3.51449
21
-55.4587
0
LINE
8
BLACK
6
CONTINUOUS
10
3.51449
20
-55.4587
11
3.81014
21
-55.2532
0
LINE
8
BLACK
6
CONTINUOUS
10
3.81014
20
-55.2532
11
4.12686
21
-55.0819
0
LINE
8
BLACK
6
CONTINUOUS
10
4.12686
20
-55.0819
11
4.46069
21
-54.9471
0
LINE
8
BLACK
6
CONTINUOUS
10
4.46069
20
-54.9471
11
4.80748
21
-54.8502
0
LINE
8
BLACK
6
CONTINUOUS
10
4.80748
20
-54.8502
11
5.1629
21
-54.7927
0
LINE
8
BLACK
6
CONTINUOUS
10
5.1629
20
-54.7927
11
5.52251
21
-54.7751
0
LINE
8
BLACK
6
CONTINUOUS
10
5.52251
20
-54.7751
11
5.88185
21
-54.7977
0
LINE
8
BLACK
6
CONTINUOUS
10
5.88185
20
-54.7977
11
6.23643
21
-54.8602
0
LINE
8
BLACK
6
CONTINUOUS
10
6.23643
20
-54.8602
11
6.58183
21
-54.9619
0
LINE
8
BLACK
6
CONTINUOUS
10
6.58183
20
-54.9619
11
6.91375
21
-55.1014
0
LINE
8
BLACK
6
CONTINUOUS
10
6.91375
20
-55.1014
11
7.22804
21
-55.277
0
LINE
8
BLACK
6
CONTINUOUS
10
7.22804
20
-55.277
11
7.5208
21
-55.4866
0
LINE
8
BLACK
6
CONTINUOUS
10
7.5208
20
-55.4866
11
7.78837
21
-55.7276
0
LINE
8
BLACK
6
CONTINUOUS
10
7.78837
20
-55.7276
11
8.02741
21
-55.9968
0
LINE
8
BLACK
6
CONTINUOUS
10
8.02741
20
-55.9968
11
8.23495
21
-56.291
0
LINE
8
BLACK
6
CONTINUOUS
10
8.23495
20
-56.291
11
8.40841
21
-56.6065
0
LINE
8
BLACK
6
CONTINUOUS
10
8.40841
20
-56.6065
11
8.54561
21
-56.9394
0
LINE
8
BLACK
6
CONTINUOUS
10
8.54561
20
-56.9394
11
8.64486
21
-57.2855
0
LINE
8
BLACK
6
CONTINUOUS
10
8.64486
20
-57.2855
11
8.7049
21
-57.6405
0
LINE
8
BLACK
6
CONTINUOUS
10
8.7049
20
-57.6405
11
8.725
21
-58
0
LINE
8
BLACK
6
CONTINUOUS
10
8.725
20
-58
11
8.72374
21
-58.09
0
LINE
8
BLACK
6
CONTINUOUS
10
8.72374
20
-58.09
11
8.69361
21
-58.4488
0
LINE
8
BLACK
6
CONTINUOUS
10
8.69361
20
-58.4488
11
8.62368
21
-58.802
0
LINE
8
BLACK
6
CONTINUOUS
10
8.62368
20
-58.802
11
8.51481
21
-59.1452
0
LINE
8
BLACK
6
CONTINUOUS
10
8.51481
20
-59.1452
11
8.36837
21
-59.4741
0
LINE
8
BLACK
6
CONTINUOUS
10
8.36837
20
-59.4741
11
8.18617
21
-59.7847
0
LINE
8
BLACK
6
CONTINUOUS
10
8.18617
20
-59.7847
11
7.97049
21
-60.073
0
LINE
8
BLACK
6
CONTINUOUS
10
7.97049
20
-60.073
11
7.72402
21
-60.3355
0
LINE
8
BLACK
6
CONTINUOUS
10
7.72402
20
-60.3355
11
7.44983
21
-60.5688
0
LINE
8
BLACK
6
CONTINUOUS
10
7.44983
20
-60.5688
11
7.15134
21
-60.7701
0
LINE
8
BLACK
6
CONTINUOUS
10
7.15134
20
-60.7701
11
6.83226
21
-60.937
0
LINE
8
BLACK
6
CONTINUOUS
10
6.83226
20
-60.937
11
6.49658
21
-61.0672
0
LINE
8
BLACK
6
CONTINUOUS
10
6.49658
20
-61.0672
11
6.14848
21
-61.1591
0
LINE
8
BLACK
6
CONTINUOUS
10
6.14848
20
-61.1591
11
5.79229
21
-61.2117
0
LINE
8
BLACK
6
CONTINUOUS
10
5.79229
20
-61.2117
11
5.43246
21
-61.2243
0
LINE
8
BLACK
6
CONTINUOUS
10
5.43246
20
-61.2243
11
5.07347
21
-61.1967
0
LINE
8
BLACK
6
CONTINUOUS
10
5.07347
20
-61.1967
11
4.7198
21
-61.1292
0
LINE
8
BLACK
6
CONTINUOUS
10
4.7198
20
-61.1292
11
4.37585
21
-61.0227
0
LINE
8
BLACK
6
CONTINUOUS
10
4.37585
20
-61.0227
11
4.04592
21
-60.8786
0
LINE
8
BLACK
6
CONTINUOUS
10
4.04592
20
-60.8786
11
3.73411
21
-60.6986
0
LINE
8
BLACK
6
CONTINUOUS
10
3.73411
20
-60.6986
11
3.44431
21
-60.4849
0
LINE
8
BLACK
6
CONTINUOUS
10
3.44431
20
-60.4849
11
3.18013
21
-60.2403
0
LINE
8
BLACK
6
CONTINUOUS
10
3.18013
20
-60.2403
11
2.94487
21
-59.9677
0
LINE
8
BLACK
6
CONTINUOUS
10
2.94487
20
-59.9677
11
2.74145
21
-59.6706
0
LINE
8
BLACK
6
CONTINUOUS
10
2.74145
20
-59.6706
11
2.57242
21
-59.3527
0
LINE
8
BLACK
6
CONTINUOUS
10
2.57242
20
-59.3527
11
2.43987
21
-59.018
0
LINE
8
BLACK
6
CONTINUOUS
10
2.43987
20
-59.018
11
2.34547
21
-58.6705
0
LINE
8
BLACK
6
CONTINUOUS
10
2.34547
20
-58.6705
11
2.29039
21
-58.3147
0
LINE
8
BLACK
6
CONTINUOUS
10
2.29039
20
-58.3147
11
2.2754
21
-57.957
0
LINE
8
BLACK
6
CONTINUOUS
10
2.2754
20
-57.957
11
2.27531
21
-57.955
0
LINE
8
BLACK
6
CONTINUOUS
10
2.27531
20
-57.955
11
2.30043
21
-57.5958
0
LINE
8
BLACK
6
CONTINUOUS
10
2.48746
20
-58.6403
11
2.57761
21
-58.9721
0
LINE
8
BLACK
6
CONTINUOUS
10
2.57761
20
-58.9721
11
2.70419
21
-59.2918
0
LINE
8
BLACK
6
CONTINUOUS
10
2.70419
20
-59.2918
11
2.86561
21
-59.5954
0
LINE
8
BLACK
6
CONTINUOUS
10
2.86561
20
-59.5954
11
3.05987
21
-59.8792
0
LINE
8
BLACK
6
CONTINUOUS
10
3.05987
20
-59.8792
11
3.28455
21
-60.1394
0
LINE
8
BLACK
6
CONTINUOUS
10
3.28455
20
-60.1394
11
3.53683
21
-60.3731
0
LINE
8
BLACK
6
CONTINUOUS
10
3.53683
20
-60.3731
11
3.81359
21
-60.5771
0
LINE
8
BLACK
6
CONTINUOUS
10
3.81359
20
-60.5771
11
4.11137
21
-60.749
0
LINE
8
BLACK
6
CONTINUOUS
10
4.11137
20
-60.749
11
4.42645
21
-60.8867
0
LINE
8
BLACK
6
CONTINUOUS
10
4.42645
20
-60.8867
11
4.75492
21
-60.9884
0
LINE
8
BLACK
6
CONTINUOUS
10
4.75492
20
-60.9884
11
5.09267
21
-61.0528
0
LINE
8
BLACK
6
CONTINUOUS
10
5.09267
20
-61.0528
11
5.4355
21
-61.0792
0
LINE
8
BLACK
6
CONTINUOUS
10
5.4355
20
-61.0792
11
5.77913
21
-61.0672
0
LINE
8
BLACK
6
CONTINUOUS
10
5.77913
20
-61.0672
11
6.11929
21
-61.0169
0
LINE
8
BLACK
6
CONTINUOUS
10
6.11929
20
-61.0169
11
6.45172
21
-60.9291
0
LINE
8
BLACK
6
CONTINUOUS
10
6.45172
20
-60.9291
11
6.7723
21
-60.8048
0
LINE
8
BLACK
6
CONTINUOUS
10
6.7723
20
-60.8048
11
7.07701
21
-60.6455
0
LINE
8
BLACK
6
CONTINUOUS
10
7.07701
20
-60.6455
11
7.36207
21
-60.4532
0
LINE
8
BLACK
6
CONTINUOUS
10
7.36207
20
-60.4532
11
7.62392
21
-60.2303
0
LINE
8
BLACK
6
CONTINUOUS
10
7.62392
20
-60.2303
11
7.8593
21
-59.9797
0
LINE
8
BLACK
6
CONTINUOUS
10
7.8593
20
-59.9797
11
8.06527
21
-59.7044
0
LINE
8
BLACK
6
CONTINUOUS
10
8.06527
20
-59.7044
11
8.23926
21
-59.4078
0
LINE
8
BLACK
6
CONTINUOUS
10
8.23926
20
-59.4078
11
8.37912
21
-59.0937
0
LINE
8
BLACK
6
CONTINUOUS
10
8.37912
20
-59.0937
11
8.48309
21
-58.7659
0
LINE
8
BLACK
6
CONTINUOUS
10
8.48309
20
-58.7659
11
8.54987
21
-58.4286
0
LINE
8
BLACK
6
CONTINUOUS
10
8.54987
20
-58.4286
11
8.57864
21
-58.086
0
LINE
8
BLACK
6
CONTINUOUS
10
8.57864
20
-58.086
11
8.57984
21
-58
0
LINE
8
BLACK
6
CONTINUOUS
10
8.57984
20
-58
11
8.56065
21
-57.6567
0
LINE
8
BLACK
6
CONTINUOUS
10
8.56065
20
-57.6567
11
8.50331
21
-57.3177
0
LINE
8
BLACK
6
CONTINUOUS
10
8.50331
20
-57.3177
11
8.40853
21
-56.9871
0
LINE
8
BLACK
6
CONTINUOUS
10
8.40853
20
-56.9871
11
8.2775
21
-56.6692
0
LINE
8
BLACK
6
CONTINUOUS
10
8.2775
20
-56.6692
11
8.11186
21
-56.3679
0
LINE
8
BLACK
6
CONTINUOUS
10
8.11186
20
-56.3679
11
7.91365
21
-56.087
0
LINE
8
BLACK
6
CONTINUOUS
10
7.91365
20
-56.087
11
7.68537
21
-55.8298
0
LINE
8
BLACK
6
CONTINUOUS
10
7.68537
20
-55.8298
11
7.42984
21
-55.5998
0
LINE
8
BLACK
6
CONTINUOUS
10
7.42984
20
-55.5998
11
7.15026
21
-55.3996
0
LINE
8
BLACK
6
CONTINUOUS
10
7.15026
20
-55.3996
11
6.85011
21
-55.2319
0
LINE
8
BLACK
6
CONTINUOUS
10
6.85011
20
-55.2319
11
6.53314
21
-55.0986
0
LINE
8
BLACK
6
CONTINUOUS
10
6.53314
20
-55.0986
11
6.20329
21
-55.0015
0
LINE
8
BLACK
6
CONTINUOUS
10
6.20329
20
-55.0015
11
5.86467
21
-54.9418
0
LINE
8
BLACK
6
CONTINUOUS
10
5.86467
20
-54.9418
11
5.5215
21
-54.9202
0
LINE
8
BLACK
6
CONTINUOUS
10
5.5215
20
-54.9202
11
5.17807
21
-54.937
0
LINE
8
BLACK
6
CONTINUOUS
10
5.17807
20
-54.937
11
4.83865
21
-54.992
0
LINE
8
BLACK
6
CONTINUOUS
10
4.83865
20
-54.992
11
4.50747
21
-55.0845
0
LINE
8
BLACK
6
CONTINUOUS
10
4.50747
20
-55.0845
11
4.18867
21
-55.2133
0
LINE
8
BLACK
6
CONTINUOUS
10
4.18867
20
-55.2133
11
3.8862
21
-55.3768
0
LINE
8
BLACK
6
CONTINUOUS
10
3.8862
20
-55.3768
11
3.60386
21
-55.573
0
LINE
8
BLACK
6
CONTINUOUS
10
3.60386
20
-55.573
11
3.34515
21
-55.7995
0
LINE
8
BLACK
6
CONTINUOUS
10
3.34515
20
-55.7995
11
3.11329
21
-56.0534
0
LINE
8
BLACK
6
CONTINUOUS
10
3.11329
20
-56.0534
11
2.91118
21
-56.3316
0
LINE
8
BLACK
6
CONTINUOUS
10
2.91118
20
-56.3316
11
2.74135
21
-56.6306
0
LINE
8
BLACK
6
CONTINUOUS
10
2.74135
20
-56.6306
11
2.60589
21
-56.9466
0
LINE
8
BLACK
6
CONTINUOUS
10
2.60589
20
-56.9466
11
2.50651
21
-57.2758
0
LINE
8
BLACK
6
CONTINUOUS
10
2.50651
20
-57.2758
11
2.44444
21
-57.614
0
LINE
8
BLACK
6
CONTINUOUS
10
2.44444
20
-57.614
11
2.42046
21
-57.957
0
LINE
8
BLACK
6
CONTINUOUS
10
2.42046
20
-57.957
11
2.43485
21
-58.3005
0
LINE
8
BLACK
6
CONTINUOUS
10
2.43485
20
-58.3005
11
2.48746
21
-58.6403
0
LINE
8
BLACK
6
CONTINUOUS
10
2.30043
20
-40.5958
11
2.36543
21
-40.2417
0
LINE
8
BLACK
6
CONTINUOUS
10
2.36543
20
-40.2417
11
2.46949
21
-39.897
0
LINE
8
BLACK
6
CONTINUOUS
10
2.46949
20
-39.897
11
2.61133
21
-39.5661
0
LINE
8
BLACK
6
CONTINUOUS
10
2.61133
20
-39.5661
11
2.78917
21
-39.253
0
LINE
8
BLACK
6
CONTINUOUS
10
2.78917
20
-39.253
11
3.0008
21
-38.9617
0
LINE
8
BLACK
6
CONTINUOUS
10
3.0008
20
-38.9617
11
3.24359
21
-38.6958
0
LINE
8
BLACK
6
CONTINUOUS
10
3.24359
20
-38.6958
11
3.51449
21
-38.4587
0
LINE
8
BLACK
6
CONTINUOUS
10
3.51449
20
-38.4587
11
3.81014
21
-38.2532
0
LINE
8
BLACK
6
CONTINUOUS
10
3.81014
20
-38.2532
11
4.12686
21
-38.0819
0
LINE
8
BLACK
6
CONTINUOUS
10
4.12686
20
-38.0819
11
4.46069
21
-37.9471
0
LINE
8
BLACK
6
CONTINUOUS
10
4.46069
20
-37.9471
11
4.80748
21
-37.8502
0
LINE
8
BLACK
6
CONTINUOUS
10
4.80748
20
-37.8502
11
5.1629
21
-37.7927
0
LINE
8
BLACK
6
CONTINUOUS
10
5.1629
20
-37.7927
11
5.52251
21
-37.7751
0
LINE
8
BLACK
6
CONTINUOUS
10
5.52251
20
-37.7751
11
5.88185
21
-37.7977
0
LINE
8
BLACK
6
CONTINUOUS
10
5.88185
20
-37.7977
11
6.23643
21
-37.8602
0
LINE
8
BLACK
6
CONTINUOUS
10
6.23643
20
-37.8602
11
6.58183
21
-37.9619
0
LINE
8
BLACK
6
CONTINUOUS
10
6.58183
20
-37.9619
11
6.91375
21
-38.1014
0
LINE
8
BLACK
6
CONTINUOUS
10
6.91375
20
-38.1014
11
7.22804
21
-38.277
0
LINE
8
BLACK
6
CONTINUOUS
10
7.22804
20
-38.277
11
7.5208
21
-38.4866
0
LINE
8
BLACK
6
CONTINUOUS
10
7.5208
20
-38.4866
11
7.78837
21
-38.7276
0
LINE
8
BLACK
6
CONTINUOUS
10
7.78837
20
-38.7276
11
8.02741
21
-38.9968
0
LINE
8
BLACK
6
CONTINUOUS
10
8.02741
20
-38.9968
11
8.23495
21
-39.291
0
LINE
8
BLACK
6
CONTINUOUS
10
8.23495
20
-39.291
11
8.40841
21
-39.6065
0
LINE
8
BLACK
6
CONTINUOUS
10
8.40841
20
-39.6065
11
8.54561
21
-39.9394
0
LINE
8
BLACK
6
CONTINUOUS
10
8.54561
20
-39.9394
11
8.64486
21
-40.2855
0
LINE
8
BLACK
6
CONTINUOUS
10
8.64486
20
-40.2855
11
8.7049
21
-40.6405
0
LINE
8
BLACK
6
CONTINUOUS
10
8.7049
20
-40.6405
11
8.725
21
-41
0
LINE
8
BLACK
6
CONTINUOUS
10
8.725
20
-41
11
8.72374
21
-41.09
0
LINE
8
BLACK
6
CONTINUOUS
10
8.72374
20
-41.09
11
8.69361
21
-41.4488
0
LINE
8
BLACK
6
CONTINUOUS
10
8.69361
20
-41.4488
11
8.62368
21
-41.802
0
LINE
8
BLACK
6
CONTINUOUS
10
8.62368
20
-41.802
11
8.51481
21
-42.1452
0
LINE
8
BLACK
6
CONTINUOUS
10
8.51481
20
-42.1452
11
8.36837
21
-42.4741
0
LINE
8
BLACK
6
CONTINUOUS
10
8.36837
20
-42.4741
11
8.18617
21
-42.7847
0
LINE
8
BLACK
6
CONTINUOUS
10
8.18617
20
-42.7847
11
7.97049
21
-43.073
0
LINE
8
BLACK
6
CONTINUOUS
10
7.97049
20
-43.073
11
7.72402
21
-43.3355
0
LINE
8
BLACK
6
CONTINUOUS
10
7.72402
20
-43.3355
11
7.44983
21
-43.5688
0
LINE
8
BLACK
6
CONTINUOUS
10
7.44983
20
-43.5688
11
7.15134
21
-43.7701
0
LINE
8
BLACK
6
CONTINUOUS
10
7.15134
20
-43.7701
11
6.83226
21
-43.937
0
LINE
8
BLACK
6
CONTINUOUS
10
6.83226
20
-43.937
11
6.49658
21
-44.0672
0
LINE
8
BLACK
6
CONTINUOUS
10
6.49658
20
-44.0672
11
6.14848
21
-44.1591
0
LINE
8
BLACK
6
CONTINUOUS
10
6.14848
20
-44.1591
11
5.79229
21
-44.2117
0
LINE
8
BLACK
6
CONTINUOUS
10
5.79229
20
-44.2117
11
5.43246
21
-44.2243
0
LINE
8
BLACK
6
CONTINUOUS
10
5.43246
20
-44.2243
11
5.07347
21
-44.1967
0
LINE
8
BLACK
6
CONTINUOUS
10
5.07347
20
-44.1967
11
4.7198
21
-44.1292
0
LINE
8
BLACK
6
CONTINUOUS
10
4.7198
20
-44.1292
11
4.37585
21
-44.0227
0
LINE
8
BLACK
6
CONTINUOUS
10
4.37585
20
-44.0227
11
4.04592
21
-43.8786
0
LINE
8
BLACK
6
CONTINUOUS
10
4.04592
20
-43.8786
11
3.73411
21
-43.6986
0
LINE
8
BLACK
6
CONTINUOUS
10
3.73411
20
-43.6986
11
3.44431
21
-43.4849
0
LINE
8
BLACK
6
CONTINUOUS
10
3.44431
20
-43.4849
11
3.18013
21
-43.2403
0
LINE
8
BLACK
6
CONTINUOUS
10
3.18013
20
-43.2403
11
2.94487
21
-42.9677
0
LINE
8
BLACK
6
CONTINUOUS
10
2.94487
20
-42.9677
11
2.74145
21
-42.6706
0
LINE
8
BLACK
6
CONTINUOUS
10
2.74145
20
-42.6706
11
2.57242
21
-42.3527
0
LINE
8
BLACK
6
CONTINUOUS
10
2.57242
20
-42.3527
11
2.43987
21
-42.018
0
LINE
8
BLACK
6
CONTINUOUS
10
2.43987
20
-42.018
11
2.34547
21
-41.6705
0
LINE
8
BLACK
6
CONTINUOUS
10
2.34547
20
-41.6705
11
2.29039
21
-41.3147
0
LINE
8
BLACK
6
CONTINUOUS
10
2.29039
20
-41.3147
11
2.2754
21
-40.957
0
LINE
8
BLACK
6
CONTINUOUS
10
2.2754
20
-40.957
11
2.27531
21
-40.955
0
LINE
8
BLACK
6
CONTINUOUS
10
2.27531
20
-40.955
11
2.30043
21
-40.5958
0
LINE
8
BLACK
6
CONTINUOUS
10
2.48746
20
-41.6403
11
2.57761
21
-41.9721
0
LINE
8
BLACK
6
CONTINUOUS
10
2.57761
20
-41.9721
11
2.70419
21
-42.2918
0
LINE
8
BLACK
6
CONTINUOUS
10
2.70419
20
-42.2918
11
2.86561
21
-42.5954
0
LINE
8
BLACK
6
CONTINUOUS
10
2.86561
20
-42.5954
11
3.05987
21
-42.8792
0
LINE
8
BLACK
6
CONTINUOUS
10
3.05987
20
-42.8792
11
3.28455
21
-43.1394
0
LINE
8
BLACK
6
CONTINUOUS
10
3.28455
20
-43.1394
11
3.53683
21
-43.3731
0
LINE
8
BLACK
6
CONTINUOUS
10
3.53683
20
-43.3731
11
3.81359
21
-43.5771
0
LINE
8
BLACK
6
CONTINUOUS
10
3.81359
20
-43.5771
11
4.11137
21
-43.749
0
LINE
8
BLACK
6
CONTINUOUS
10
4.11137
20
-43.749
11
4.42645
21
-43.8867
0
LINE
8
BLACK
6
CONTINUOUS
10
4.42645
20
-43.8867
11
4.75492
21
-43.9884
0
LINE
8
BLACK
6
CONTINUOUS
10
4.75492
20
-43.9884
11
5.09267
21
-44.0528
0
LINE
8
BLACK
6
CONTINUOUS
10
5.09267
20
-44.0528
11
5.4355
21
-44.0792
0
LINE
8
BLACK
6
CONTINUOUS
10
5.4355
20
-44.0792
11
5.77913
21
-44.0672
0
LINE
8
BLACK
6
CONTINUOUS
10
5.77913
20
-44.0672
11
6.11929
21
-44.0169
0
LINE
8
BLACK
6
CONTINUOUS
10
6.11929
20
-44.0169
11
6.45172
21
-43.9291
0
LINE
8
BLACK
6
CONTINUOUS
10
6.45172
20
-43.9291
11
6.7723
21
-43.8048
0
LINE
8
BLACK
6
CONTINUOUS
10
6.7723
20
-43.8048
11
7.07701
21
-43.6455
0
LINE
8
BLACK
6
CONTINUOUS
10
7.07701
20
-43.6455
11
7.36207
21
-43.4532
0
LINE
8
BLACK
6
CONTINUOUS
10
7.36207
20
-43.4532
11
7.62392
21
-43.2303
0
LINE
8
BLACK
6
CONTINUOUS
10
7.62392
20
-43.2303
11
7.8593
21
-42.9797
0
LINE
8
BLACK
6
CONTINUOUS
10
7.8593
20
-42.9797
11
8.06527
21
-42.7044
0
LINE
8
BLACK
6
CONTINUOUS
10
8.06527
20
-42.7044
11
8.23926
21
-42.4078
0
LINE
8
BLACK
6
CONTINUOUS
10
8.23926
20
-42.4078
11
8.37912
21
-42.0937
0
LINE
8
BLACK
6
CONTINUOUS
10
8.37912
20
-42.0937
11
8.48309
21
-41.7659
0
LINE
8
BLACK
6
CONTINUOUS
10
8.48309
20
-41.7659
11
8.54987
21
-41.4286
0
LINE
8
BLACK
6
CONTINUOUS
10
8.54987
20
-41.4286
11
8.57864
21
-41.086
0
LINE
8
BLACK
6
CONTINUOUS
10
8.57864
20
-41.086
11
8.57984
21
-41
0
LINE
8
BLACK
6
CONTINUOUS
10
8.57984
20
-41
11
8.56065
21
-40.6567
0
LINE
8
BLACK
6
CONTINUOUS
10
8.56065
20
-40.6567
11
8.50331
21
-40.3177
0
LINE
8
BLACK
6
CONTINUOUS
10
8.50331
20
-40.3177
11
8.40853
21
-39.9871
0
LINE
8
BLACK
6
CONTINUOUS
10
8.40853
20
-39.9871
11
8.2775
21
-39.6692
0
LINE
8
BLACK
6
CONTINUOUS
10
8.2775
20
-39.6692
11
8.11186
21
-39.3679
0
LINE
8
BLACK
6
CONTINUOUS
10
8.11186
20
-39.3679
11
7.91365
21
-39.087
0
LINE
8
BLACK
6
CONTINUOUS
10
7.91365
20
-39.087
11
7.68537
21
-38.8298
0
LINE
8
BLACK
6
CONTINUOUS
10
7.68537
20
-38.8298
11
7.42984
21
-38.5998
0
LINE
8
BLACK
6
CONTINUOUS
10
7.42984
20
-38.5998
11
7.15026
21
-38.3996
0
LINE
8
BLACK
6
CONTINUOUS
10
7.15026
20
-38.3996
11
6.85011
21
-38.2319
0
LINE
8
BLACK
6
CONTINUOUS
10
6.85011
20
-38.2319
11
6.53314
21
-38.0986
0
LINE
8
BLACK
6
CONTINUOUS
10
6.53314
20
-38.0986
11
6.20329
21
-38.0015
0
LINE
8
BLACK
6
CONTINUOUS
10
6.20329
20
-38.0015
11
5.86467
21
-37.9418
0
LINE
8
BLACK
6
CONTINUOUS
10
5.86467
20
-37.9418
11
5.5215
21
-37.9202
0
LINE
8
BLACK
6
CONTINUOUS
10
5.5215
20
-37.9202
11
5.17807
21
-37.937
0
LINE
8
BLACK
6
CONTINUOUS
10
5.17807
20
-37.937
11
4.83865
21
-37.992
0
LINE
8
BLACK
6
CONTINUOUS
10
4.83865
20
-37.992
11
4.50747
21
-38.0845
0
LINE
8
BLACK
6
CONTINUOUS
10
4.50747
20
-38.0845
11
4.18867
21
-38.2133
0
LINE
8
BLACK
6
CONTINUOUS
10
4.18867
20
-38.2133
11
3.8862
21
-38.3768
0
LINE
8
BLACK
6
CONTINUOUS
10
3.8862
20
-38.3768
11
3.60386
21
-38.573
0
LINE
8
BLACK
6
CONTINUOUS
10
3.60386
20
-38.573
11
3.34515
21
-38.7995
0
LINE
8
BLACK
6
CONTINUOUS
10
3.34515
20
-38.7995
11
3.11329
21
-39.0534
0
LINE
8
BLACK
6
CONTINUOUS
10
3.11329
20
-39.0534
11
2.91118
21
-39.3316
0
LINE
8
BLACK
6
CONTINUOUS
10
2.91118
20
-39.3316
11
2.74135
21
-39.6306
0
LINE
8
BLACK
6
CONTINUOUS
10
2.74135
20
-39.6306
11
2.60589
21
-39.9466
0
LINE
8
BLACK
6
CONTINUOUS
10
2.60589
20
-39.9466
11
2.50651
21
-40.2758
0
LINE
8
BLACK
6
CONTINUOUS
10
2.50651
20
-40.2758
11
2.44444
21
-40.614
0
LINE
8
BLACK
6
CONTINUOUS
10
2.44444
20
-40.614
11
2.42046
21
-40.957
0
LINE
8
BLACK
6
CONTINUOUS
10
2.42046
20
-40.957
11
2.43485
21
-41.3005
0
LINE
8
BLACK
6
CONTINUOUS
10
2.43485
20
-41.3005
11
2.48746
21
-41.6403
0
LINE
8
BLACK
6
CONTINUOUS
10
8.79541
20
-22.6106
11
8.85372
21
-22.2383
0
LINE
8
BLACK
6
CONTINUOUS
10
8.85372
20
-22.2383
11
8.94937
21
-21.8737
0
LINE
8
BLACK
6
CONTINUOUS
10
8.94937
20
-21.8737
11
9.08136
21
-21.5206
0
LINE
8
BLACK
6
CONTINUOUS
10
9.08136
20
-21.5206
11
9.24836
21
-21.1827
0
LINE
8
BLACK
6
CONTINUOUS
10
9.24836
20
-21.1827
11
9.44866
21
-20.8634
0
LINE
8
BLACK
6
CONTINUOUS
10
9.44866
20
-20.8634
11
9.68019
21
-20.566
0
LINE
8
BLACK
6
CONTINUOUS
10
9.68019
20
-20.566
11
9.9406
21
-20.2935
0
LINE
8
BLACK
6
CONTINUOUS
10
9.9406
20
-20.2935
11
10.2272
21
-20.0487
0
LINE
8
BLACK
6
CONTINUOUS
10
10.2272
20
-20.0487
11
10.5371
21
-19.8341
0
LINE
8
BLACK
6
CONTINUOUS
10
10.5371
20
-19.8341
11
10.8671
21
-19.652
0
LINE
8
BLACK
6
CONTINUOUS
10
10.8671
20
-19.652
11
11.2138
21
-19.5041
0
LINE
8
BLACK
6
CONTINUOUS
10
11.2138
20
-19.5041
11
11.5736
21
-19.392
0
LINE
8
BLACK
6
CONTINUOUS
10
11.5736
20
-19.392
11
11.943
21
-19.3169
0
LINE
8
BLACK
6
CONTINUOUS
10
11.943
20
-19.3169
11
12.318
21
-19.2794
0
LINE
8
BLACK
6
CONTINUOUS
10
12.318
20
-19.2794
11
12.695
21
-19.2801
0
LINE
8
BLACK
6
CONTINUOUS
10
12.695
20
-19.2801
11
13.0699
21
-19.3188
0
LINE
8
BLACK
6
CONTINUOUS
10
13.0699
20
-19.3188
11
13.439
21
-19.3953
0
LINE
8
BLACK
6
CONTINUOUS
10
13.439
20
-19.3953
11
13.7984
21
-19.5086
0
LINE
8
BLACK
6
CONTINUOUS
10
13.7984
20
-19.5086
11
14.1446
21
-19.6577
0
LINE
8
BLACK
6
CONTINUOUS
10
14.1446
20
-19.6577
11
14.4739
21
-19.841
0
LINE
8
BLACK
6
CONTINUOUS
10
14.4739
20
-19.841
11
14.7831
21
-20.0567
0
LINE
8
BLACK
6
CONTINUOUS
10
14.7831
20
-20.0567
11
15.0688
21
-20.3025
0
LINE
8
BLACK
6
CONTINUOUS
10
15.0688
20
-20.3025
11
15.3283
21
-20.5759
0
LINE
8
BLACK
6
CONTINUOUS
10
15.3283
20
-20.5759
11
15.5588
21
-20.8741
0
LINE
8
BLACK
6
CONTINUOUS
10
15.5588
20
-20.8741
11
15.758
21
-21.1941
0
LINE
8
BLACK
6
CONTINUOUS
10
15.758
20
-21.1941
11
15.9238
21
-21.5326
0
LINE
8
BLACK
6
CONTINUOUS
10
15.9238
20
-21.5326
11
16.0545
21
-21.8861
0
LINE
8
BLACK
6
CONTINUOUS
10
16.0545
20
-21.8861
11
16.1489
21
-22.251
0
LINE
8
BLACK
6
CONTINUOUS
10
16.1489
20
-22.251
11
16.2059
21
-22.6236
0
LINE
8
BLACK
6
CONTINUOUS
10
16.2059
20
-22.6236
11
16.225
21
-23
0
LINE
8
BLACK
6
CONTINUOUS
10
16.225
20
-23
11
16.2249
21
-23.026
0
LINE
8
BLACK
6
CONTINUOUS
10
16.2249
20
-23.026
11
16.2032
21
-23.4023
0
LINE
8
BLACK
6
CONTINUOUS
10
16.2032
20
-23.4023
11
16.1436
21
-23.7745
0
LINE
8
BLACK
6
CONTINUOUS
10
16.1436
20
-23.7745
11
16.0467
21
-24.1387
0
LINE
8
BLACK
6
CONTINUOUS
10
16.0467
20
-24.1387
11
15.9135
21
-24.4913
0
LINE
8
BLACK
6
CONTINUOUS
10
15.9135
20
-24.4913
11
15.7453
21
-24.8286
0
LINE
8
BLACK
6
CONTINUOUS
10
15.7453
20
-24.8286
11
15.5439
21
-25.1472
0
LINE
8
BLACK
6
CONTINUOUS
10
15.5439
20
-25.1472
11
15.3113
21
-25.4438
0
LINE
8
BLACK
6
CONTINUOUS
10
15.3113
20
-25.4438
11
15.0499
21
-25.7154
0
LINE
8
BLACK
6
CONTINUOUS
10
15.0499
20
-25.7154
11
14.7625
21
-25.9592
0
LINE
8
BLACK
6
CONTINUOUS
10
14.7625
20
-25.9592
11
14.4518
21
-26.1727
0
LINE
8
BLACK
6
CONTINUOUS
10
14.4518
20
-26.1727
11
14.1212
21
-26.3537
0
LINE
8
BLACK
6
CONTINUOUS
10
14.1212
20
-26.3537
11
13.774
21
-26.5004
0
LINE
8
BLACK
6
CONTINUOUS
10
13.774
20
-26.5004
11
13.4138
21
-26.6112
0
LINE
8
BLACK
6
CONTINUOUS
10
13.4138
20
-26.6112
11
13.0442
21
-26.685
0
LINE
8
BLACK
6
CONTINUOUS
10
13.0442
20
-26.685
11
12.669
21
-26.7212
0
LINE
8
BLACK
6
CONTINUOUS
10
12.669
20
-26.7212
11
12.2921
21
-26.7192
0
LINE
8
BLACK
6
CONTINUOUS
10
12.2921
20
-26.7192
11
11.9173
21
-26.6791
0
LINE
8
BLACK
6
CONTINUOUS
10
11.9173
20
-26.6791
11
11.5485
21
-26.6014
0
LINE
8
BLACK
6
CONTINUOUS
10
11.5485
20
-26.6014
11
11.1894
21
-26.4868
0
LINE
8
BLACK
6
CONTINUOUS
10
11.1894
20
-26.4868
11
10.8437
21
-26.3365
0
LINE
8
BLACK
6
CONTINUOUS
10
10.8437
20
-26.3365
11
10.515
21
-26.1521
0
LINE
8
BLACK
6
CONTINUOUS
10
10.515
20
-26.1521
11
10.2067
21
-25.9353
0
LINE
8
BLACK
6
CONTINUOUS
10
10.2067
20
-25.9353
11
9.92177
21
-25.6886
0
LINE
8
BLACK
6
CONTINUOUS
10
9.92177
20
-25.6886
11
9.66327
21
-25.4142
0
LINE
8
BLACK
6
CONTINUOUS
10
9.66327
20
-25.4142
11
9.43382
21
-25.1152
0
LINE
8
BLACK
6
CONTINUOUS
10
9.43382
20
-25.1152
11
9.23576
21
-24.7945
0
LINE
8
BLACK
6
CONTINUOUS
10
9.23576
20
-24.7945
11
9.07112
21
-24.4555
0
LINE
8
BLACK
6
CONTINUOUS
10
9.07112
20
-24.4555
11
8.94159
21
-24.1015
0
LINE
8
BLACK
6
CONTINUOUS
10
8.94159
20
-24.1015
11
8.84849
21
-23.7363
0
LINE
8
BLACK
6
CONTINUOUS
10
8.84849
20
-23.7363
11
8.79278
21
-23.3635
0
LINE
8
BLACK
6
CONTINUOUS
10
8.79278
20
-23.3635
11
8.77564
21
-23
0
LINE
8
BLACK
6
CONTINUOUS
10
8.77564
20
-23
11
8.77502
21
-22.987
0
LINE
8
BLACK
6
CONTINUOUS
10
8.77502
20
-22.987
11
8.79541
21
-22.6106
0
LINE
8
BLACK
6
CONTINUOUS
10
8.99832
20
-23.7443
11
9.09531
21
-24.1063
0
LINE
8
BLACK
6
CONTINUOUS
10
9.09531
20
-24.1063
11
9.22959
21
-24.4561
0
LINE
8
BLACK
6
CONTINUOUS
10
9.22959
20
-24.4561
11
9.39971
21
-24.79
0
LINE
8
BLACK
6
CONTINUOUS
10
9.39971
20
-24.79
11
9.60379
21
-25.1042
0
LINE
8
BLACK
6
CONTINUOUS
10
9.60379
20
-25.1042
11
9.83961
21
-25.3954
0
LINE
8
BLACK
6
CONTINUOUS
10
9.83961
20
-25.3954
11
10.1046
21
-25.6604
0
LINE
8
BLACK
6
CONTINUOUS
10
10.1046
20
-25.6604
11
10.3958
21
-25.8962
0
LINE
8
BLACK
6
CONTINUOUS
10
10.3958
20
-25.8962
11
10.71
21
-26.1003
0
LINE
8
BLACK
6
CONTINUOUS
10
10.71
20
-26.1003
11
11.0439
21
-26.2704
0
LINE
8
BLACK
6
CONTINUOUS
10
11.0439
20
-26.2704
11
11.3937
21
-26.4047
0
LINE
8
BLACK
6
CONTINUOUS
10
11.3937
20
-26.4047
11
11.7557
21
-26.5017
0
LINE
8
BLACK
6
CONTINUOUS
10
11.7557
20
-26.5017
11
12.1258
21
-26.5603
0
LINE
8
BLACK
6
CONTINUOUS
10
12.1258
20
-26.5603
11
12.5
21
-26.5799
0
LINE
8
BLACK
6
CONTINUOUS
10
12.5
20
-26.5799
11
12.8742
21
-26.5603
0
LINE
8
BLACK
6
CONTINUOUS
10
12.8742
20
-26.5603
11
13.2443
21
-26.5017
0
LINE
8
BLACK
6
CONTINUOUS
10
13.2443
20
-26.5017
11
13.6063
21
-26.4047
0
LINE
8
BLACK
6
CONTINUOUS
10
13.6063
20
-26.4047
11
13.9561
21
-26.2704
0
LINE
8
BLACK
6
CONTINUOUS
10
13.9561
20
-26.2704
11
14.29
21
-26.1003
0
LINE
8
BLACK
6
CONTINUOUS
10
14.29
20
-26.1003
11
14.6042
21
-25.8962
0
LINE
8
BLACK
6
CONTINUOUS
10
14.6042
20
-25.8962
11
14.8954
21
-25.6604
0
LINE
8
BLACK
6
CONTINUOUS
10
14.8954
20
-25.6604
11
15.1604
21
-25.3954
0
LINE
8
BLACK
6
CONTINUOUS
10
15.1604
20
-25.3954
11
15.3962
21
-25.1042
0
LINE
8
BLACK
6
CONTINUOUS
10
15.3962
20
-25.1042
11
15.6003
21
-24.79
0
LINE
8
BLACK
6
CONTINUOUS
10
15.6003
20
-24.79
11
15.7704
21
-24.4561
0
LINE
8
BLACK
6
CONTINUOUS
10
15.7704
20
-24.4561
11
15.9047
21
-24.1063
0
LINE
8
BLACK
6
CONTINUOUS
10
15.9047
20
-24.1063
11
16.0017
21
-23.7443
0
LINE
8
BLACK
6
CONTINUOUS
10
16.0017
20
-23.7443
11
16.0603
21
-23.3742
0
LINE
8
BLACK
6
CONTINUOUS
10
16.0603
20
-23.3742
11
16.0799
21
-23
0
LINE
8
BLACK
6
CONTINUOUS
10
16.0799
20
-23
11
16.0603
21
-22.6258
0
LINE
8
BLACK
6
CONTINUOUS
10
16.0603
20
-22.6258
11
16.0017
21
-22.2557
0
LINE
8
BLACK
6
CONTINUOUS
10
16.0017
20
-22.2557
11
15.9047
21
-21.8937
0
LINE
8
BLACK
6
CONTINUOUS
10
15.9047
20
-21.8937
11
15.7704
21
-21.5439
0
LINE
8
BLACK
6
CONTINUOUS
10
15.7704
20
-21.5439
11
15.6003
21
-21.21
0
LINE
8
BLACK
6
CONTINUOUS
10
15.6003
20
-21.21
11
15.3962
21
-20.8958
0
LINE
8
BLACK
6
CONTINUOUS
10
15.3962
20
-20.8958
11
15.1604
21
-20.6046
0
LINE
8
BLACK
6
CONTINUOUS
10
15.1604
20
-20.6046
11
14.8954
21
-20.3396
0
LINE
8
BLACK
6
CONTINUOUS
10
14.8954
20
-20.3396
11
14.6042
21
-20.1038
0
LINE
8
BLACK
6
CONTINUOUS
10
14.6042
20
-20.1038
11
14.29
21
-19.8997
0
LINE
8
BLACK
6
CONTINUOUS
10
14.29
20
-19.8997
11
13.9561
21
-19.7296
0
LINE
8
BLACK
6
CONTINUOUS
10
13.9561
20
-19.7296
11
13.6063
21
-19.5953
0
LINE
8
BLACK
6
CONTINUOUS
10
13.6063
20
-19.5953
11
13.2443
21
-19.4983
0
LINE
8
BLACK
6
CONTINUOUS
10
13.2443
20
-19.4983
11
12.8742
21
-19.4397
0
LINE
8
BLACK
6
CONTINUOUS
10
12.8742
20
-19.4397
11
12.5
21
-19.4201
0
LINE
8
BLACK
6
CONTINUOUS
10
12.5
20
-19.4201
11
12.1258
21
-19.4397
0
LINE
8
BLACK
6
CONTINUOUS
10
12.1258
20
-19.4397
11
11.7557
21
-19.4983
0
LINE
8
BLACK
6
CONTINUOUS
10
11.7557
20
-19.4983
11
11.3937
21
-19.5953
0
LINE
8
BLACK
6
CONTINUOUS
10
11.3937
20
-19.5953
11
11.0439
21
-19.7296
0
LINE
8
BLACK
6
CONTINUOUS
10
11.0439
20
-19.7296
11
10.71
21
-19.8997
0
LINE
8
BLACK
6
CONTINUOUS
10
10.71
20
-19.8997
11
10.3958
21
-20.1038
0
LINE
8
BLACK
6
CONTINUOUS
10
10.3958
20
-20.1038
11
10.1046
21
-20.3396
0
LINE
8
BLACK
6
CONTINUOUS
10
10.1046
20
-20.3396
11
9.83961
21
-20.6046
0
LINE
8
BLACK
6
CONTINUOUS
10
9.83961
20
-20.6046
11
9.60379
21
-20.8958
0
LINE
8
BLACK
6
CONTINUOUS
10
9.60379
20
-20.8958
11
9.39971
21
-21.21
0
LINE
8
BLACK
6
CONTINUOUS
10
9.39971
20
-21.21
11
9.22959
21
-21.5439
0
LINE
8
BLACK
6
CONTINUOUS
10
9.22959
20
-21.5439
11
9.09531
21
-21.8937
0
LINE
8
BLACK
6
CONTINUOUS
10
9.09531
20
-21.8937
11
8.99832
21
-22.2557
0
LINE
8
BLACK
6
CONTINUOUS
10
8.99832
20
-22.2557
11
8.93971
21
-22.6258
0
LINE
8
BLACK
6
CONTINUOUS
10
8.93971
20
-22.6258
11
8.92009
21
-23
0
LINE
8
BLACK
6
CONTINUOUS
10
8.92009
20
-23
11
8.93971
21
-23.3742
0
LINE
8
BLACK
6
CONTINUOUS
10
8.93971
20
-23.3742
11
8.99832
21
-23.7443
0
LINE
8
BLACK
6
CONTINUOUS
10
24.3004
20
-6.0958
11
24.3654
21
-5.74167
0
LINE
8
BLACK
6
CONTINUOUS
10
24.3654
20
-5.74167
11
24.4695
21
-5.39698
0
LINE
8
BLACK
6
CONTINUOUS
10
24.4695
20
-5.39698
11
24.6113
21
-5.06605
0
LINE
8
BLACK
6
CONTINUOUS
10
24.6113
20
-5.06605
11
24.7892
21
-4.75299
0
LINE
8
BLACK
6
CONTINUOUS
10
24.7892
20
-4.75299
11
25.0008
21
-4.4617
0
LINE
8
BLACK
6
CONTINUOUS
10
25.0008
20
-4.4617
11
25.2436
21
-4.19583
0
LINE
8
BLACK
6
CONTINUOUS
10
25.2436
20
-4.19583
11
25.5145
21
-3.95866
0
LINE
8
BLACK
6
CONTINUOUS
10
25.5145
20
-3.95866
11
25.8101
21
-3.75318
0
LINE
8
BLACK
6
CONTINUOUS
10
25.8101
20
-3.75318
11
26.1269
21
-3.58193
0
LINE
8
BLACK
6
CONTINUOUS
10
26.1269
20
-3.58193
11
26.4607
21
-3.44706
0
LINE
8
BLACK
6
CONTINUOUS
10
26.4607
20
-3.44706
11
26.8075
21
-3.35023
0
LINE
8
BLACK
6
CONTINUOUS
10
26.8075
20
-3.35023
11
27.1629
21
-3.29267
0
LINE
8
BLACK
6
CONTINUOUS
10
27.1629
20
-3.29267
11
27.5225
21
-3.27508
0
LINE
8
BLACK
6
CONTINUOUS
10
27.5225
20
-3.27508
11
27.8819
21
-3.29769
0
LINE
8
BLACK
6
CONTINUOUS
10
27.8819
20
-3.29769
11
28.2364
21
-3.36021
0
LINE
8
BLACK
6
CONTINUOUS
10
28.2364
20
-3.36021
11
28.5818
21
-3.46186
0
LINE
8
BLACK
6
CONTINUOUS
10
28.5818
20
-3.46186
11
28.9137
21
-3.60139
0
LINE
8
BLACK
6
CONTINUOUS
10
28.9137
20
-3.60139
11
29.228
21
-3.77704
0
LINE
8
BLACK
6
CONTINUOUS
10
29.228
20
-3.77704
11
29.5208
21
-3.98663
0
LINE
8
BLACK
6
CONTINUOUS
10
29.5208
20
-3.98663
11
29.7884
21
-4.22755
0
LINE
8
BLACK
6
CONTINUOUS
10
29.7884
20
-4.22755
11
30.0274
21
-4.4968
0
LINE
8
BLACK
6
CONTINUOUS
10
30.0274
20
-4.4968
11
30.235
21
-4.79101
0
LINE
8
BLACK
6
CONTINUOUS
10
30.235
20
-4.79101
11
30.4084
21
-5.10652
0
LINE
8
BLACK
6
CONTINUOUS
10
30.4084
20
-5.10652
11
30.5456
21
-5.4394
0
LINE
8
BLACK
6
CONTINUOUS
10
30.5456
20
-5.4394
11
30.6449
21
-5.78551
0
LINE
8
BLACK
6
CONTINUOUS
10
30.6449
20
-5.78551
11
30.7049
21
-6.14051
0
LINE
8
BLACK
6
CONTINUOUS
10
30.7049
20
-6.14051
11
30.725
21
-6.5
0
LINE
8
BLACK
6
CONTINUOUS
10
30.725
20
-6.5
11
30.7237
21
-6.59005
0
LINE
8
BLACK
6
CONTINUOUS
10
30.7237
20
-6.59005
11
30.6936
21
-6.94883
0
LINE
8
BLACK
6
CONTINUOUS
10
30.6936
20
-6.94883
11
30.6237
21
-7.30202
0
LINE
8
BLACK
6
CONTINUOUS
10
30.6237
20
-7.30202
11
30.5148
21
-7.64522
0
LINE
8
BLACK
6
CONTINUOUS
10
30.5148
20
-7.64522
11
30.3684
21
-7.97414
0
LINE
8
BLACK
6
CONTINUOUS
10
30.3684
20
-7.97414
11
30.1862
21
-8.28469
0
LINE
8
BLACK
6
CONTINUOUS
10
30.1862
20
-8.28469
11
29.9705
21
-8.57299
0
LINE
8
BLACK
6
CONTINUOUS
10
29.9705
20
-8.57299
11
29.724
21
-8.83545
0
LINE
8
BLACK
6
CONTINUOUS
10
29.724
20
-8.83545
11
29.4498
21
-9.06881
0
LINE
8
BLACK
6
CONTINUOUS
10
29.4498
20
-9.06881
11
29.1513
21
-9.27015
0
LINE
8
BLACK
6
CONTINUOUS
10
29.1513
20
-9.27015
11
28.8323
21
-9.43695
0
LINE
8
BLACK
6
CONTINUOUS
10
28.8323
20
-9.43695
11
28.4966
21
-9.56716
0
LINE
8
BLACK
6
CONTINUOUS
10
28.4966
20
-9.56716
11
28.1485
21
-9.65913
0
LINE
8
BLACK
6
CONTINUOUS
10
28.1485
20
-9.65913
11
27.7923
21
-9.71173
0
LINE
8
BLACK
6
CONTINUOUS
10
27.7923
20
-9.71173
11
27.4325
21
-9.72429
0
LINE
8
BLACK
6
CONTINUOUS
10
27.4325
20
-9.72429
11
27.0735
21
-9.69667
0
LINE
8
BLACK
6
CONTINUOUS
10
27.0735
20
-9.69667
11
26.7198
21
-9.6292
0
LINE
8
BLACK
6
CONTINUOUS
10
26.7198
20
-9.6292
11
26.3759
21
-9.52273
0
LINE
8
BLACK
6
CONTINUOUS
10
26.3759
20
-9.52273
11
26.0459
21
-9.37859
0
LINE
8
BLACK
6
CONTINUOUS
10
26.0459
20
-9.37859
11
25.7341
21
-9.19857
0
LINE
8
BLACK
6
CONTINUOUS
10
25.7341
20
-9.19857
11
25.4443
21
-8.9849
0
LINE
8
BLACK
6
CONTINUOUS
10
25.4443
20
-8.9849
11
25.1801
21
-8.74027
0
LINE
8
BLACK
6
CONTINUOUS
10
25.1801
20
-8.74027
11
24.9449
21
-8.46772
0
LINE
8
BLACK
6
CONTINUOUS
10
24.9449
20
-8.46772
11
24.7415
21
-8.17064
0
LINE
8
BLACK
6
CONTINUOUS
10
24.7415
20
-8.17064
11
24.5724
21
-7.85273
0
LINE
8
BLACK
6
CONTINUOUS
10
24.5724
20
-7.85273
11
24.4399
21
-7.51797
0
LINE
8
BLACK
6
CONTINUOUS
10
24.4399
20
-7.51797
11
24.3455
21
-7.17051
0
LINE
8
BLACK
6
CONTINUOUS
10
24.3455
20
-7.17051
11
24.2904
21
-6.81471
0
LINE
8
BLACK
6
CONTINUOUS
10
24.2904
20
-6.81471
11
24.2754
21
-6.457
0
LINE
8
BLACK
6
CONTINUOUS
10
24.2754
20
-6.457
11
24.2753
21
-6.45497
0
LINE
8
BLACK
6
CONTINUOUS
10
24.2753
20
-6.45497
11
24.3004
21
-6.0958
0
LINE
8
BLACK
6
CONTINUOUS
10
24.4875
20
-7.14034
11
24.5776
21
-7.47215
0
LINE
8
BLACK
6
CONTINUOUS
10
24.5776
20
-7.47215
11
24.7042
21
-7.79185
0
LINE
8
BLACK
6
CONTINUOUS
10
24.7042
20
-7.79185
11
24.8656
21
-8.09544
0
LINE
8
BLACK
6
CONTINUOUS
10
24.8656
20
-8.09544
11
25.0599
21
-8.37915
0
LINE
8
BLACK
6
CONTINUOUS
10
25.0599
20
-8.37915
11
25.2845
21
-8.63944
0
LINE
8
BLACK
6
CONTINUOUS
10
25.2845
20
-8.63944
11
25.5368
21
-8.87306
0
LINE
8
BLACK
6
CONTINUOUS
10
25.5368
20
-8.87306
11
25.8136
21
-9.0771
0
LINE
8
BLACK
6
CONTINUOUS
10
25.8136
20
-9.0771
11
26.1114
21
-9.24903
0
LINE
8
BLACK
6
CONTINUOUS
10
26.1114
20
-9.24903
11
26.4265
21
-9.38668
0
LINE
8
BLACK
6
CONTINUOUS
10
26.4265
20
-9.38668
11
26.7549
21
-9.48836
0
LINE
8
BLACK
6
CONTINUOUS
10
26.7549
20
-9.48836
11
27.0927
21
-9.55279
0
LINE
8
BLACK
6
CONTINUOUS
10
27.0927
20
-9.55279
11
27.4355
21
-9.57917
0
LINE
8
BLACK
6
CONTINUOUS
10
27.4355
20
-9.57917
11
27.7791
21
-9.56717
0
LINE
8
BLACK
6
CONTINUOUS
10
27.7791
20
-9.56717
11
28.1193
21
-9.51694
0
LINE
8
BLACK
6
CONTINUOUS
10
28.1193
20
-9.51694
11
28.4517
21
-9.42911
0
LINE
8
BLACK
6
CONTINUOUS
10
28.4517
20
-9.42911
11
28.7723
21
-9.30476
0
LINE
8
BLACK
6
CONTINUOUS
10
28.7723
20
-9.30476
11
29.077
21
-9.14546
0
LINE
8
BLACK
6
CONTINUOUS
10
29.077
20
-9.14546
11
29.3621
21
-8.95319
0
LINE
8
BLACK
6
CONTINUOUS
10
29.3621
20
-8.95319
11
29.6239
21
-8.73034
0
LINE
8
BLACK
6
CONTINUOUS
10
29.6239
20
-8.73034
11
29.8593
21
-8.47969
0
LINE
8
BLACK
6
CONTINUOUS
10
29.8593
20
-8.47969
11
30.0653
21
-8.20436
0
LINE
8
BLACK
6
CONTINUOUS
10
30.0653
20
-8.20436
11
30.2393
21
-7.90779
0
LINE
8
BLACK
6
CONTINUOUS
10
30.2393
20
-7.90779
11
30.3791
21
-7.59367
0
LINE
8
BLACK
6
CONTINUOUS
10
30.3791
20
-7.59367
11
30.4831
21
-7.26593
0
LINE
8
BLACK
6
CONTINUOUS
10
30.4831
20
-7.26593
11
30.5499
21
-6.92863
0
LINE
8
BLACK
6
CONTINUOUS
10
30.5499
20
-6.92863
11
30.5786
21
-6.58599
0
LINE
8
BLACK
6
CONTINUOUS
10
30.5786
20
-6.58599
11
30.5798
21
-6.5
0
LINE
8
BLACK
6
CONTINUOUS
10
30.5798
20
-6.5
11
30.5607
21
-6.15669
0
LINE
8
BLACK
6
CONTINUOUS
10
30.5607
20
-6.15669
11
30.5033
21
-5.81766
0
LINE
8
BLACK
6
CONTINUOUS
10
30.5033
20
-5.81766
11
30.4085
21
-5.48714
0
LINE
8
BLACK
6
CONTINUOUS
10
30.4085
20
-5.48714
11
30.2775
21
-5.16924
0
LINE
8
BLACK
6
CONTINUOUS
10
30.2775
20
-5.16924
11
30.1119
21
-4.86793
0
LINE
8
BLACK
6
CONTINUOUS
10
30.1119
20
-4.86793
11
29.9137
21
-4.58696
0
LINE
8
BLACK
6
CONTINUOUS
10
29.9137
20
-4.58696
11
29.6854
21
-4.32984
0
LINE
8
BLACK
6
CONTINUOUS
10
29.6854
20
-4.32984
11
29.4298
21
-4.09976
0
LINE
8
BLACK
6
CONTINUOUS
10
29.4298
20
-4.09976
11
29.1503
21
-3.8996
0
LINE
8
BLACK
6
CONTINUOUS
10
29.1503
20
-3.8996
11
28.8501
21
-3.73185
0
LINE
8
BLACK
6
CONTINUOUS
10
28.8501
20
-3.73185
11
28.5331
21
-3.59861
0
LINE
8
BLACK
6
CONTINUOUS
10
28.5331
20
-3.59861
11
28.2033
21
-3.50153
0
LINE
8
BLACK
6
CONTINUOUS
10
28.2033
20
-3.50153
11
27.8647
21
-3.44182
0
LINE
8
BLACK
6
CONTINUOUS
10
27.8647
20
-3.44182
11
27.5215
21
-3.42023
0
LINE
8
BLACK
6
CONTINUOUS
10
27.5215
20
-3.42023
11
27.1781
21
-3.43703
0
LINE
8
BLACK
6
CONTINUOUS
10
27.1781
20
-3.43703
11
26.8386
21
-3.492
0
LINE
8
BLACK
6
CONTINUOUS
10
26.8386
20
-3.492
11
26.5075
21
-3.58447
0
LINE
8
BLACK
6
CONTINUOUS
10
26.5075
20
-3.58447
11
26.1887
21
-3.71327
0
LINE
8
BLACK
6
CONTINUOUS
10
26.1887
20
-3.71327
11
25.8862
21
-3.87681
0
LINE
8
BLACK
6
CONTINUOUS
10
25.8862
20
-3.87681
11
25.6039
21
-4.07305
0
LINE
8
BLACK
6
CONTINUOUS
10
25.6039
20
-4.07305
11
25.3451
21
-4.29953
0
LINE
8
BLACK
6
CONTINUOUS
10
25.3451
20
-4.29953
11
25.1133
21
-4.55345
0
LINE
8
BLACK
6
CONTINUOUS
10
25.1133
20
-4.55345
11
24.9112
21
-4.83162
0
LINE
8
BLACK
6
CONTINUOUS
10
24.9112
20
-4.83162
11
24.7413
21
-5.13059
0
LINE
8
BLACK
6
CONTINUOUS
10
24.7413
20
-5.13059
11
24.6059
21
-5.44663
0
LINE
8
BLACK
6
CONTINUOUS
10
24.6059
20
-5.44663
11
24.5065
21
-5.7758
0
LINE
8
BLACK
6
CONTINUOUS
10
24.5065
20
-5.7758
11
24.4444
21
-6.11399
0
LINE
8
BLACK
6
CONTINUOUS
10
24.4444
20
-6.11399
11
24.4205
21
-6.457
0
LINE
8
BLACK
6
CONTINUOUS
10
24.4205
20
-6.457
11
24.4349
21
-6.80054
0
LINE
8
BLACK
6
CONTINUOUS
10
24.4349
20
-6.80054
11
24.4875
21
-7.14034
  0
ENDSEC
  0
EOF
